G75*
%MOIN*%
%OFA0B0*%
%FSLAX25Y25*%
%IPPOS*%
%LPD*%
%AMOC8*
5,1,8,0,0,1.08239X$1,22.5*
%
%ADD10C,0.00500*%
%ADD11C,0.00600*%
%ADD12R,0.00100X0.01200*%
%ADD13R,0.00100X0.00700*%
%ADD14R,0.00100X0.01800*%
%ADD15R,0.00100X0.01000*%
%ADD16R,0.00100X0.02100*%
%ADD17R,0.00100X0.01100*%
%ADD18R,0.00100X0.02400*%
%ADD19R,0.00100X0.01300*%
%ADD20R,0.00100X0.02600*%
%ADD21R,0.00100X0.02900*%
%ADD22R,0.00100X0.01400*%
%ADD23R,0.00100X0.03000*%
%ADD24R,0.00100X0.03100*%
%ADD25R,0.00100X0.03200*%
%ADD26R,0.00100X0.03400*%
%ADD27R,0.00100X0.03300*%
%ADD28R,0.00100X0.02200*%
%ADD29R,0.00100X0.02000*%
%ADD30R,0.00100X0.01900*%
%ADD31R,0.00100X0.01700*%
%ADD32R,0.00100X0.01600*%
%ADD33R,0.00100X0.01500*%
%ADD34R,0.00100X0.00500*%
%ADD35R,0.00100X0.00900*%
%ADD36R,0.00100X0.00800*%
%ADD37R,0.00100X0.02500*%
%ADD38R,0.00100X0.02800*%
%ADD39R,0.00100X0.02700*%
%ADD40R,0.00100X0.02300*%
%ADD41R,0.00100X0.03600*%
%ADD42R,0.00100X0.03800*%
%ADD43R,0.00100X0.03700*%
%ADD44R,0.00100X0.04000*%
%ADD45R,0.00100X0.04300*%
%ADD46R,0.00100X0.04100*%
%ADD47R,0.00100X0.04400*%
%ADD48R,0.00100X0.04200*%
%ADD49R,0.00100X0.04600*%
%ADD50R,0.00100X0.04500*%
%ADD51R,0.00100X0.04700*%
%ADD52R,0.00100X0.04800*%
%ADD53R,0.00100X0.05000*%
%ADD54R,0.00100X0.04900*%
%ADD55R,0.00100X0.05200*%
%ADD56R,0.00100X0.05100*%
%ADD57R,0.00100X0.05300*%
%ADD58R,0.00100X0.05400*%
%ADD59R,0.00100X0.05500*%
%ADD60R,0.00100X0.05600*%
%ADD61R,0.00100X0.05800*%
%ADD62R,0.00100X0.07200*%
%ADD63R,0.00100X0.06000*%
%ADD64R,0.00100X0.05900*%
%ADD65R,0.00100X0.07300*%
%ADD66R,0.00100X0.03500*%
%ADD67R,0.00100X0.00400*%
%ADD68R,0.00100X0.03900*%
%ADD69R,0.00100X0.06100*%
%ADD70R,0.00100X0.05700*%
%ADD71R,0.00100X0.00600*%
%ADD72R,0.00100X0.00300*%
%ADD73R,0.00100X0.00200*%
%ADD74R,0.00100X0.00100*%
%ADD75R,0.00100X0.08200*%
%ADD76R,0.00100X0.08100*%
%ADD77R,0.00100X0.13300*%
%ADD78R,0.00100X0.13200*%
%ADD79R,0.00100X0.07000*%
%ADD80R,0.00100X0.09700*%
%ADD81R,0.00100X0.10300*%
%ADD82R,0.00100X0.10800*%
%ADD83R,0.00100X0.11200*%
%ADD84R,0.00100X0.11800*%
%ADD85R,0.00100X0.16400*%
%ADD86R,0.00100X0.12000*%
%ADD87R,0.00100X0.16300*%
%ADD88R,0.00100X0.12200*%
%ADD89R,0.00100X0.12400*%
%ADD90R,0.00100X0.12600*%
%ADD91R,0.00100X0.12700*%
%ADD92R,0.00100X0.12900*%
%ADD93R,0.00100X0.13100*%
%ADD94R,0.00100X0.13500*%
%ADD95R,0.00100X0.13000*%
%ADD96R,0.00100X0.13400*%
%ADD97R,0.00100X0.09100*%
%ADD98R,0.00100X0.09000*%
%ADD99R,0.00100X0.11600*%
%ADD100R,0.00100X0.11400*%
%ADD101R,0.00100X0.11000*%
%ADD102R,0.00100X0.10600*%
%ADD103R,0.00100X0.10100*%
%ADD104R,0.00100X0.06200*%
%ADD105R,0.00100X0.06300*%
%ADD106R,0.00100X0.06500*%
%ADD107R,0.00100X0.06600*%
%ADD108R,0.00100X0.06400*%
%ADD109R,0.00100X0.06800*%
%ADD110R,0.00100X0.06900*%
%ADD111R,0.00100X0.07400*%
%ADD112R,0.00100X0.07800*%
%ADD113R,0.00100X0.07900*%
%ADD114R,0.00100X0.17600*%
%ADD115R,0.00100X0.17300*%
%ADD116R,0.00100X0.16800*%
%ADD117R,0.00100X0.16500*%
%ADD118R,0.00100X0.16000*%
%ADD119R,0.00100X0.15800*%
%ADD120R,0.00100X0.15400*%
%ADD121R,0.00100X0.15200*%
%ADD122R,0.00100X0.14800*%
%ADD123R,0.00100X0.14600*%
%ADD124R,0.00100X0.14300*%
%ADD125R,0.00100X0.13900*%
%ADD126R,0.00100X0.12800*%
%ADD127R,0.00100X0.12100*%
%ADD128R,0.00100X0.11100*%
%ADD129R,0.00100X0.09800*%
%ADD130R,0.00100X0.09200*%
%ADD131R,0.00100X0.08600*%
%ADD132R,0.00312X0.02810*%
%ADD133R,0.00313X0.05000*%
%ADD134R,0.00312X0.06880*%
%ADD135R,0.00313X0.07810*%
%ADD136R,0.00312X0.09060*%
%ADD137R,0.00313X0.09690*%
%ADD138R,0.00312X0.10620*%
%ADD139R,0.00313X0.11250*%
%ADD140R,0.00312X0.11880*%
%ADD141R,0.00313X0.06560*%
%ADD142R,0.00313X0.05630*%
%ADD143R,0.00313X0.02180*%
%ADD144R,0.00313X0.02500*%
%ADD145R,0.00312X0.05930*%
%ADD146R,0.00312X0.05310*%
%ADD147R,0.00312X0.02500*%
%ADD148R,0.00312X0.04370*%
%ADD149R,0.00312X0.04060*%
%ADD150R,0.00312X0.02190*%
%ADD151R,0.00313X0.04060*%
%ADD152R,0.00313X0.00620*%
%ADD153R,0.00313X0.05620*%
%ADD154R,0.00313X0.03440*%
%ADD155R,0.00313X0.05320*%
%ADD156R,0.00313X0.02190*%
%ADD157R,0.00312X0.04380*%
%ADD158R,0.00312X0.00310*%
%ADD159R,0.00312X0.03750*%
%ADD160R,0.00312X0.05940*%
%ADD161R,0.00312X0.02180*%
%ADD162R,0.00313X0.04690*%
%ADD163R,0.00313X0.00310*%
%ADD164R,0.00313X0.03750*%
%ADD165R,0.00313X0.06250*%
%ADD166R,0.00312X0.04690*%
%ADD167R,0.00312X0.05000*%
%ADD168R,0.00312X0.05620*%
%ADD169R,0.00312X0.06870*%
%ADD170R,0.00313X0.04690*%
%ADD171R,0.00313X0.03120*%
%ADD172R,0.00313X0.02820*%
%ADD173R,0.00313X0.02190*%
%ADD174R,0.00312X0.03440*%
%ADD175R,0.00312X0.03130*%
%ADD176R,0.00312X0.02190*%
%ADD177R,0.00313X0.04380*%
%ADD178R,0.00313X0.02810*%
%ADD179R,0.00312X0.01560*%
%ADD180R,0.00312X0.04680*%
%ADD181R,0.00312X0.01880*%
%ADD182R,0.00312X0.04690*%
%ADD183R,0.00313X0.04680*%
%ADD184R,0.00313X0.01880*%
%ADD185R,0.00313X0.01250*%
%ADD186R,0.00312X0.05320*%
%ADD187R,0.00313X0.05310*%
%ADD188R,0.00312X0.02820*%
%ADD189R,0.00313X0.04370*%
%ADD190R,0.00312X0.03120*%
%ADD191R,0.00313X0.01560*%
%ADD192R,0.00313X0.03440*%
%ADD193R,0.00312X0.00930*%
%ADD194R,0.00312X0.05630*%
%ADD195R,0.00312X0.07500*%
%ADD196R,0.00313X0.01870*%
%ADD197R,0.00312X0.01870*%
%ADD198R,0.00313X0.00630*%
%ADD199R,0.00313X0.03130*%
%ADD200R,0.00312X0.04070*%
%ADD201R,0.00312X0.00940*%
%ADD202R,0.00312X0.00630*%
%ADD203R,0.00313X0.00320*%
%ADD204R,0.00313X0.06880*%
%ADD205R,0.00312X0.01250*%
%ADD206R,0.00312X0.05940*%
%ADD207R,0.00312X0.10630*%
%ADD208R,0.00313X0.00940*%
%ADD209R,0.00313X0.01570*%
%ADD210R,0.00312X0.11870*%
%ADD211R,0.00313X0.06570*%
%ADD212R,0.00312X0.07190*%
%ADD213R,0.00313X0.06870*%
%ADD214R,0.00313X0.07190*%
%ADD215R,0.00313X0.07190*%
%ADD216R,0.00312X0.00620*%
%ADD217R,0.00313X0.04070*%
%ADD218R,0.00312X0.07810*%
%ADD219R,0.00312X0.08130*%
%ADD220R,0.00313X0.08750*%
%ADD221R,0.00312X0.08750*%
%ADD222R,0.00313X0.08130*%
%ADD223R,0.00313X0.07180*%
%ADD224R,0.00313X0.05940*%
%ADD225R,0.00312X0.00940*%
%ADD226R,0.00312X0.06560*%
%ADD227R,0.00313X0.05940*%
%ADD228R,0.00312X0.03440*%
%ADD229R,0.00313X0.00930*%
D10*
X0117595Y0063933D02*
X0317595Y0063933D01*
X0317595Y0073933D01*
X0117595Y0073933D01*
X0117595Y0063933D01*
X0120345Y0074183D02*
X0120345Y0077186D01*
X0120345Y0075684D02*
X0124849Y0075684D01*
X0123348Y0074183D01*
X0130345Y0074183D02*
X0130345Y0077186D01*
X0130345Y0074183D02*
X0133348Y0077186D01*
X0134098Y0077186D01*
X0134849Y0076435D01*
X0134849Y0074934D01*
X0134098Y0074183D01*
X0140345Y0074934D02*
X0141096Y0074183D01*
X0140345Y0074934D02*
X0140345Y0076435D01*
X0141096Y0077186D01*
X0141846Y0077186D01*
X0142597Y0076435D01*
X0142597Y0075684D01*
X0142597Y0076435D02*
X0143348Y0077186D01*
X0144098Y0077186D01*
X0144849Y0076435D01*
X0144849Y0074934D01*
X0144098Y0074183D01*
X0150345Y0076435D02*
X0154849Y0076435D01*
X0152597Y0074183D01*
X0152597Y0077186D01*
X0160345Y0076435D02*
X0160345Y0074934D01*
X0161096Y0074183D01*
X0162597Y0074183D02*
X0163348Y0075684D01*
X0163348Y0076435D01*
X0162597Y0077186D01*
X0161096Y0077186D01*
X0160345Y0076435D01*
X0162597Y0074183D02*
X0164849Y0074183D01*
X0164849Y0077186D01*
X0170345Y0076435D02*
X0171096Y0077186D01*
X0171846Y0077186D01*
X0172597Y0076435D01*
X0172597Y0074183D01*
X0171096Y0074183D01*
X0170345Y0074934D01*
X0170345Y0076435D01*
X0172597Y0074183D02*
X0174098Y0075684D01*
X0174849Y0077186D01*
X0180345Y0074183D02*
X0181096Y0074183D01*
X0184098Y0077186D01*
X0184849Y0077186D01*
X0184849Y0074183D01*
X0190345Y0074934D02*
X0191096Y0074183D01*
X0191846Y0074183D01*
X0192597Y0074934D01*
X0192597Y0076435D01*
X0191846Y0077186D01*
X0191096Y0077186D01*
X0190345Y0076435D01*
X0190345Y0074934D01*
X0192597Y0074934D02*
X0193348Y0074183D01*
X0194098Y0074183D01*
X0194849Y0074934D01*
X0194849Y0076435D01*
X0194098Y0077186D01*
X0193348Y0077186D01*
X0192597Y0076435D01*
X0200345Y0076435D02*
X0201096Y0077186D01*
X0204098Y0077186D01*
X0204849Y0076435D01*
X0204849Y0074934D01*
X0204098Y0074183D01*
X0203348Y0074183D01*
X0202597Y0074934D01*
X0202597Y0077186D01*
X0200345Y0076435D02*
X0200345Y0074934D01*
X0201096Y0074183D01*
X0210345Y0074183D02*
X0210345Y0077186D01*
X0210345Y0075684D02*
X0214849Y0075684D01*
X0213348Y0074183D01*
X0220345Y0074183D02*
X0220345Y0077186D01*
X0220345Y0075684D02*
X0224849Y0075684D01*
X0223348Y0074183D01*
X0223348Y0078787D02*
X0224849Y0080288D01*
X0220345Y0080288D01*
X0220345Y0078787D02*
X0220345Y0081790D01*
X0214849Y0081039D02*
X0214098Y0081790D01*
X0211096Y0078787D01*
X0210345Y0079538D01*
X0210345Y0081039D01*
X0211096Y0081790D01*
X0214098Y0081790D01*
X0214849Y0081039D02*
X0214849Y0079538D01*
X0214098Y0078787D01*
X0211096Y0078787D01*
X0230345Y0078787D02*
X0233348Y0081790D01*
X0234098Y0081790D01*
X0234849Y0081039D01*
X0234849Y0079538D01*
X0234098Y0078787D01*
X0234849Y0075684D02*
X0230345Y0075684D01*
X0230345Y0074183D02*
X0230345Y0077186D01*
X0230345Y0078787D02*
X0230345Y0081790D01*
X0234849Y0075684D02*
X0233348Y0074183D01*
X0240345Y0074183D02*
X0240345Y0077186D01*
X0240345Y0075684D02*
X0244849Y0075684D01*
X0243348Y0074183D01*
X0244098Y0078787D02*
X0244849Y0079538D01*
X0244849Y0081039D01*
X0244098Y0081790D01*
X0243348Y0081790D01*
X0242597Y0081039D01*
X0241846Y0081790D01*
X0241096Y0081790D01*
X0240345Y0081039D01*
X0240345Y0079538D01*
X0241096Y0078787D01*
X0242597Y0080288D02*
X0242597Y0081039D01*
X0250345Y0081039D02*
X0254849Y0081039D01*
X0252597Y0078787D01*
X0252597Y0081790D01*
X0250345Y0077186D02*
X0250345Y0074183D01*
X0250345Y0075684D02*
X0254849Y0075684D01*
X0253348Y0074183D01*
X0260345Y0074183D02*
X0260345Y0077186D01*
X0260345Y0075684D02*
X0264849Y0075684D01*
X0263348Y0074183D01*
X0262597Y0078787D02*
X0263348Y0080288D01*
X0263348Y0081039D01*
X0262597Y0081790D01*
X0261096Y0081790D01*
X0260345Y0081039D01*
X0260345Y0079538D01*
X0261096Y0078787D01*
X0262597Y0078787D02*
X0264849Y0078787D01*
X0264849Y0081790D01*
X0270345Y0081039D02*
X0271096Y0081790D01*
X0271846Y0081790D01*
X0272597Y0081039D01*
X0272597Y0078787D01*
X0271096Y0078787D01*
X0270345Y0079538D01*
X0270345Y0081039D01*
X0272597Y0078787D02*
X0274098Y0080288D01*
X0274849Y0081790D01*
X0280345Y0078787D02*
X0281096Y0078787D01*
X0284098Y0081790D01*
X0284849Y0081790D01*
X0284849Y0078787D01*
X0284849Y0075684D02*
X0280345Y0075684D01*
X0280345Y0074183D02*
X0280345Y0077186D01*
X0283348Y0074183D02*
X0284849Y0075684D01*
X0290345Y0075684D02*
X0294849Y0075684D01*
X0293348Y0074183D01*
X0290345Y0074183D02*
X0290345Y0077186D01*
X0291096Y0078787D02*
X0290345Y0079538D01*
X0290345Y0081039D01*
X0291096Y0081790D01*
X0291846Y0081790D01*
X0292597Y0081039D01*
X0292597Y0079538D01*
X0293348Y0078787D01*
X0294098Y0078787D01*
X0294849Y0079538D01*
X0294849Y0081039D01*
X0294098Y0081790D01*
X0293348Y0081790D01*
X0292597Y0081039D01*
X0292597Y0079538D02*
X0291846Y0078787D01*
X0291096Y0078787D01*
X0300345Y0079538D02*
X0300345Y0081039D01*
X0301096Y0081790D01*
X0304098Y0081790D01*
X0304849Y0081039D01*
X0304849Y0079538D01*
X0304098Y0078787D01*
X0303348Y0078787D01*
X0302597Y0079538D01*
X0302597Y0081790D01*
X0300345Y0079538D02*
X0301096Y0078787D01*
X0300345Y0077186D02*
X0300345Y0074183D01*
X0300345Y0075684D02*
X0304849Y0075684D01*
X0303348Y0074183D01*
X0310345Y0074183D02*
X0310345Y0077186D01*
X0311096Y0078787D02*
X0310345Y0079538D01*
X0310345Y0081039D01*
X0311096Y0081790D01*
X0314098Y0081790D01*
X0311096Y0078787D01*
X0314098Y0078787D01*
X0314849Y0079538D01*
X0314849Y0081039D01*
X0314098Y0081790D01*
X0317595Y0078933D02*
X0307595Y0078933D01*
X0307595Y0278933D01*
X0317595Y0278933D01*
X0317595Y0078933D01*
X0319697Y0081683D02*
X0318947Y0082434D01*
X0318947Y0085436D01*
X0321949Y0082434D01*
X0321198Y0081683D01*
X0319697Y0081683D01*
X0321949Y0082434D02*
X0321949Y0085436D01*
X0321198Y0086187D01*
X0319697Y0086187D01*
X0318947Y0085436D01*
X0323550Y0085436D02*
X0324301Y0086187D01*
X0325802Y0086187D01*
X0326553Y0085436D01*
X0323550Y0085436D02*
X0323550Y0084686D01*
X0326553Y0081683D01*
X0323550Y0081683D01*
X0323550Y0091683D02*
X0326553Y0091683D01*
X0325052Y0091683D02*
X0325052Y0096187D01*
X0326553Y0094686D01*
X0321949Y0094686D02*
X0321198Y0093935D01*
X0318947Y0093935D01*
X0318947Y0095436D02*
X0319697Y0096187D01*
X0321198Y0096187D01*
X0321949Y0095436D01*
X0321949Y0094686D01*
X0321949Y0092434D02*
X0321198Y0091683D01*
X0319697Y0091683D01*
X0318947Y0092434D01*
X0318947Y0095436D01*
X0319697Y0101683D02*
X0318947Y0102434D01*
X0318947Y0103184D01*
X0319697Y0103935D01*
X0321198Y0103935D01*
X0321949Y0104686D01*
X0321949Y0105436D01*
X0321198Y0106187D01*
X0319697Y0106187D01*
X0318947Y0105436D01*
X0318947Y0104686D01*
X0319697Y0103935D01*
X0321198Y0103935D02*
X0321949Y0103184D01*
X0321949Y0102434D01*
X0321198Y0101683D01*
X0319697Y0101683D01*
X0323550Y0101683D02*
X0326553Y0101683D01*
X0325052Y0101683D02*
X0325052Y0106187D01*
X0326553Y0104686D01*
X0326553Y0111683D02*
X0323550Y0111683D01*
X0325052Y0111683D02*
X0325052Y0116187D01*
X0326553Y0114686D01*
X0321949Y0116187D02*
X0318947Y0116187D01*
X0318947Y0115436D01*
X0321949Y0112434D01*
X0321949Y0111683D01*
X0321198Y0121683D02*
X0319697Y0121683D01*
X0318947Y0122434D01*
X0318947Y0123184D01*
X0319697Y0123935D01*
X0321949Y0123935D01*
X0321949Y0122434D01*
X0321198Y0121683D01*
X0323550Y0121683D02*
X0326553Y0121683D01*
X0325052Y0121683D02*
X0325052Y0126187D01*
X0326553Y0124686D01*
X0321949Y0123935D02*
X0320448Y0125436D01*
X0318947Y0126187D01*
X0319697Y0131683D02*
X0318947Y0132434D01*
X0318947Y0133935D01*
X0319697Y0134686D01*
X0320448Y0134686D01*
X0321949Y0133935D01*
X0321949Y0136187D01*
X0318947Y0136187D01*
X0319697Y0131683D02*
X0321198Y0131683D01*
X0321949Y0132434D01*
X0323550Y0131683D02*
X0326553Y0131683D01*
X0325052Y0131683D02*
X0325052Y0136187D01*
X0326553Y0134686D01*
X0326553Y0141683D02*
X0323550Y0141683D01*
X0325052Y0141683D02*
X0325052Y0146187D01*
X0326553Y0144686D01*
X0321949Y0143935D02*
X0319697Y0146187D01*
X0319697Y0141683D01*
X0318947Y0143935D02*
X0321949Y0143935D01*
X0321198Y0151683D02*
X0321949Y0152434D01*
X0321198Y0151683D02*
X0319697Y0151683D01*
X0318947Y0152434D01*
X0318947Y0153184D01*
X0319697Y0153935D01*
X0320448Y0153935D01*
X0319697Y0153935D02*
X0318947Y0154686D01*
X0318947Y0155436D01*
X0319697Y0156187D01*
X0321198Y0156187D01*
X0321949Y0155436D01*
X0325052Y0156187D02*
X0325052Y0151683D01*
X0326553Y0151683D02*
X0323550Y0151683D01*
X0326553Y0154686D02*
X0325052Y0156187D01*
X0325052Y0161683D02*
X0325052Y0166187D01*
X0326553Y0164686D01*
X0326553Y0161683D02*
X0323550Y0161683D01*
X0321949Y0161683D02*
X0318947Y0164686D01*
X0318947Y0165436D01*
X0319697Y0166187D01*
X0321198Y0166187D01*
X0321949Y0165436D01*
X0321949Y0161683D02*
X0318947Y0161683D01*
X0318947Y0171683D02*
X0321949Y0171683D01*
X0320448Y0171683D02*
X0320448Y0176187D01*
X0321949Y0174686D01*
X0323550Y0171683D02*
X0326553Y0171683D01*
X0325052Y0171683D02*
X0325052Y0176187D01*
X0326553Y0174686D01*
X0326553Y0181683D02*
X0323550Y0181683D01*
X0325052Y0181683D02*
X0325052Y0186187D01*
X0326553Y0184686D01*
X0321949Y0185436D02*
X0321198Y0186187D01*
X0319697Y0186187D01*
X0318947Y0185436D01*
X0321949Y0182434D01*
X0321198Y0181683D01*
X0319697Y0181683D01*
X0318947Y0182434D01*
X0318947Y0185436D01*
X0321949Y0185436D02*
X0321949Y0182434D01*
X0321198Y0191683D02*
X0319697Y0191683D01*
X0318947Y0192434D01*
X0318947Y0195436D01*
X0319697Y0196187D01*
X0321198Y0196187D01*
X0321949Y0195436D01*
X0321949Y0194686D01*
X0321198Y0193935D01*
X0318947Y0193935D01*
X0321198Y0191683D02*
X0321949Y0192434D01*
X0321198Y0201683D02*
X0321949Y0202434D01*
X0321949Y0203184D01*
X0321198Y0203935D01*
X0319697Y0203935D01*
X0318947Y0203184D01*
X0318947Y0202434D01*
X0319697Y0201683D01*
X0321198Y0201683D01*
X0321198Y0203935D02*
X0321949Y0204686D01*
X0321949Y0205436D01*
X0321198Y0206187D01*
X0319697Y0206187D01*
X0318947Y0205436D01*
X0318947Y0204686D01*
X0319697Y0203935D01*
X0321949Y0211683D02*
X0321949Y0212434D01*
X0318947Y0215436D01*
X0318947Y0216187D01*
X0321949Y0216187D01*
X0321198Y0221683D02*
X0319697Y0221683D01*
X0318947Y0222434D01*
X0318947Y0223184D01*
X0319697Y0223935D01*
X0321949Y0223935D01*
X0321949Y0222434D01*
X0321198Y0221683D01*
X0321949Y0223935D02*
X0320448Y0225436D01*
X0318947Y0226187D01*
X0319697Y0231683D02*
X0318947Y0232434D01*
X0318947Y0233935D01*
X0319697Y0234686D01*
X0320448Y0234686D01*
X0321949Y0233935D01*
X0321949Y0236187D01*
X0318947Y0236187D01*
X0319697Y0231683D02*
X0321198Y0231683D01*
X0321949Y0232434D01*
X0319697Y0241683D02*
X0319697Y0246187D01*
X0321949Y0243935D01*
X0318947Y0243935D01*
X0319697Y0251683D02*
X0318947Y0252434D01*
X0318947Y0253184D01*
X0319697Y0253935D01*
X0320448Y0253935D01*
X0319697Y0253935D02*
X0318947Y0254686D01*
X0318947Y0255436D01*
X0319697Y0256187D01*
X0321198Y0256187D01*
X0321949Y0255436D01*
X0321949Y0252434D02*
X0321198Y0251683D01*
X0319697Y0251683D01*
X0318947Y0261683D02*
X0321949Y0261683D01*
X0318947Y0264686D01*
X0318947Y0265436D01*
X0319697Y0266187D01*
X0321198Y0266187D01*
X0321949Y0265436D01*
X0321949Y0271683D02*
X0318947Y0271683D01*
X0320448Y0271683D02*
X0320448Y0276187D01*
X0321949Y0274686D01*
X0262595Y0165433D02*
X0262595Y0140433D01*
X0262592Y0140191D01*
X0262583Y0139950D01*
X0262569Y0139709D01*
X0262548Y0139468D01*
X0262522Y0139228D01*
X0262490Y0138988D01*
X0262452Y0138749D01*
X0262409Y0138512D01*
X0262359Y0138275D01*
X0262304Y0138040D01*
X0262244Y0137806D01*
X0262177Y0137574D01*
X0262106Y0137343D01*
X0262028Y0137114D01*
X0261945Y0136887D01*
X0261857Y0136662D01*
X0261763Y0136439D01*
X0261664Y0136219D01*
X0261559Y0136001D01*
X0261450Y0135786D01*
X0261335Y0135573D01*
X0261215Y0135363D01*
X0261090Y0135157D01*
X0260960Y0134953D01*
X0260825Y0134752D01*
X0260685Y0134555D01*
X0260541Y0134361D01*
X0260392Y0134171D01*
X0260238Y0133985D01*
X0260080Y0133802D01*
X0259918Y0133623D01*
X0259751Y0133448D01*
X0259580Y0133277D01*
X0259405Y0133110D01*
X0259226Y0132948D01*
X0259043Y0132790D01*
X0258857Y0132636D01*
X0258667Y0132487D01*
X0258473Y0132343D01*
X0258276Y0132203D01*
X0258075Y0132068D01*
X0257871Y0131938D01*
X0257665Y0131813D01*
X0257455Y0131693D01*
X0257242Y0131578D01*
X0257027Y0131469D01*
X0256809Y0131364D01*
X0256589Y0131265D01*
X0256366Y0131171D01*
X0256141Y0131083D01*
X0255914Y0131000D01*
X0255685Y0130922D01*
X0255454Y0130851D01*
X0255222Y0130784D01*
X0254988Y0130724D01*
X0254753Y0130669D01*
X0254516Y0130619D01*
X0254279Y0130576D01*
X0254040Y0130538D01*
X0253800Y0130506D01*
X0253560Y0130480D01*
X0253319Y0130459D01*
X0253078Y0130445D01*
X0252837Y0130436D01*
X0252595Y0130433D01*
X0252353Y0130436D01*
X0252112Y0130445D01*
X0251871Y0130459D01*
X0251630Y0130480D01*
X0251390Y0130506D01*
X0251150Y0130538D01*
X0250911Y0130576D01*
X0250674Y0130619D01*
X0250437Y0130669D01*
X0250202Y0130724D01*
X0249968Y0130784D01*
X0249736Y0130851D01*
X0249505Y0130922D01*
X0249276Y0131000D01*
X0249049Y0131083D01*
X0248824Y0131171D01*
X0248601Y0131265D01*
X0248381Y0131364D01*
X0248163Y0131469D01*
X0247948Y0131578D01*
X0247735Y0131693D01*
X0247525Y0131813D01*
X0247319Y0131938D01*
X0247115Y0132068D01*
X0246914Y0132203D01*
X0246717Y0132343D01*
X0246523Y0132487D01*
X0246333Y0132636D01*
X0246147Y0132790D01*
X0245964Y0132948D01*
X0245785Y0133110D01*
X0245610Y0133277D01*
X0245439Y0133448D01*
X0245272Y0133623D01*
X0245110Y0133802D01*
X0244952Y0133985D01*
X0244798Y0134171D01*
X0244649Y0134361D01*
X0244505Y0134555D01*
X0244365Y0134752D01*
X0244230Y0134953D01*
X0244100Y0135157D01*
X0243975Y0135363D01*
X0243855Y0135573D01*
X0243740Y0135786D01*
X0243631Y0136001D01*
X0243526Y0136219D01*
X0243427Y0136439D01*
X0243333Y0136662D01*
X0243245Y0136887D01*
X0243162Y0137114D01*
X0243084Y0137343D01*
X0243013Y0137574D01*
X0242946Y0137806D01*
X0242886Y0138040D01*
X0242831Y0138275D01*
X0242781Y0138512D01*
X0242738Y0138749D01*
X0242700Y0138988D01*
X0242668Y0139228D01*
X0242642Y0139468D01*
X0242621Y0139709D01*
X0242607Y0139950D01*
X0242598Y0140191D01*
X0242595Y0140433D01*
X0242595Y0165433D01*
X0252595Y0175433D02*
X0252837Y0175430D01*
X0253078Y0175421D01*
X0253319Y0175407D01*
X0253560Y0175386D01*
X0253800Y0175360D01*
X0254040Y0175328D01*
X0254279Y0175290D01*
X0254516Y0175247D01*
X0254753Y0175197D01*
X0254988Y0175142D01*
X0255222Y0175082D01*
X0255454Y0175015D01*
X0255685Y0174944D01*
X0255914Y0174866D01*
X0256141Y0174783D01*
X0256366Y0174695D01*
X0256589Y0174601D01*
X0256809Y0174502D01*
X0257027Y0174397D01*
X0257242Y0174288D01*
X0257455Y0174173D01*
X0257665Y0174053D01*
X0257871Y0173928D01*
X0258075Y0173798D01*
X0258276Y0173663D01*
X0258473Y0173523D01*
X0258667Y0173379D01*
X0258857Y0173230D01*
X0259043Y0173076D01*
X0259226Y0172918D01*
X0259405Y0172756D01*
X0259580Y0172589D01*
X0259751Y0172418D01*
X0259918Y0172243D01*
X0260080Y0172064D01*
X0260238Y0171881D01*
X0260392Y0171695D01*
X0260541Y0171505D01*
X0260685Y0171311D01*
X0260825Y0171114D01*
X0260960Y0170913D01*
X0261090Y0170709D01*
X0261215Y0170503D01*
X0261335Y0170293D01*
X0261450Y0170080D01*
X0261559Y0169865D01*
X0261664Y0169647D01*
X0261763Y0169427D01*
X0261857Y0169204D01*
X0261945Y0168979D01*
X0262028Y0168752D01*
X0262106Y0168523D01*
X0262177Y0168292D01*
X0262244Y0168060D01*
X0262304Y0167826D01*
X0262359Y0167591D01*
X0262409Y0167354D01*
X0262452Y0167117D01*
X0262490Y0166878D01*
X0262522Y0166638D01*
X0262548Y0166398D01*
X0262569Y0166157D01*
X0262583Y0165916D01*
X0262592Y0165675D01*
X0262595Y0165433D01*
X0252595Y0175433D02*
X0252353Y0175430D01*
X0252112Y0175421D01*
X0251871Y0175407D01*
X0251630Y0175386D01*
X0251390Y0175360D01*
X0251150Y0175328D01*
X0250911Y0175290D01*
X0250674Y0175247D01*
X0250437Y0175197D01*
X0250202Y0175142D01*
X0249968Y0175082D01*
X0249736Y0175015D01*
X0249505Y0174944D01*
X0249276Y0174866D01*
X0249049Y0174783D01*
X0248824Y0174695D01*
X0248601Y0174601D01*
X0248381Y0174502D01*
X0248163Y0174397D01*
X0247948Y0174288D01*
X0247735Y0174173D01*
X0247525Y0174053D01*
X0247319Y0173928D01*
X0247115Y0173798D01*
X0246914Y0173663D01*
X0246717Y0173523D01*
X0246523Y0173379D01*
X0246333Y0173230D01*
X0246147Y0173076D01*
X0245964Y0172918D01*
X0245785Y0172756D01*
X0245610Y0172589D01*
X0245439Y0172418D01*
X0245272Y0172243D01*
X0245110Y0172064D01*
X0244952Y0171881D01*
X0244798Y0171695D01*
X0244649Y0171505D01*
X0244505Y0171311D01*
X0244365Y0171114D01*
X0244230Y0170913D01*
X0244100Y0170709D01*
X0243975Y0170503D01*
X0243855Y0170293D01*
X0243740Y0170080D01*
X0243631Y0169865D01*
X0243526Y0169647D01*
X0243427Y0169427D01*
X0243333Y0169204D01*
X0243245Y0168979D01*
X0243162Y0168752D01*
X0243084Y0168523D01*
X0243013Y0168292D01*
X0242946Y0168060D01*
X0242886Y0167826D01*
X0242831Y0167591D01*
X0242781Y0167354D01*
X0242738Y0167117D01*
X0242700Y0166878D01*
X0242668Y0166638D01*
X0242642Y0166398D01*
X0242621Y0166157D01*
X0242607Y0165916D01*
X0242598Y0165675D01*
X0242595Y0165433D01*
X0292845Y0112903D02*
X0295848Y0112903D01*
X0297349Y0111402D01*
X0295848Y0109901D01*
X0292845Y0109901D01*
X0295097Y0109901D02*
X0295097Y0112903D01*
X0293596Y0103745D02*
X0292845Y0103745D01*
X0292845Y0102995D01*
X0293596Y0102995D01*
X0293596Y0103745D01*
X0295848Y0101393D02*
X0292845Y0099892D01*
X0295848Y0098391D01*
X0295097Y0096790D02*
X0294346Y0096790D01*
X0294346Y0093787D01*
X0293596Y0093787D02*
X0295097Y0093787D01*
X0295848Y0094538D01*
X0295848Y0096039D01*
X0295097Y0096790D01*
X0292845Y0096039D02*
X0292845Y0094538D01*
X0293596Y0093787D01*
X0292845Y0092186D02*
X0294346Y0090684D01*
X0294346Y0091435D02*
X0294346Y0089183D01*
X0292845Y0089183D02*
X0297349Y0089183D01*
X0297349Y0091435D01*
X0296598Y0092186D01*
X0295097Y0092186D01*
X0294346Y0091435D01*
X0274849Y0075684D02*
X0270345Y0075684D01*
X0270345Y0074183D02*
X0270345Y0077186D01*
X0273348Y0074183D02*
X0274849Y0075684D01*
X0310345Y0074183D02*
X0313348Y0077186D01*
X0314098Y0077186D01*
X0314849Y0076435D01*
X0314849Y0074934D01*
X0314098Y0074183D01*
X0136553Y0081683D02*
X0133550Y0084686D01*
X0133550Y0085436D01*
X0134301Y0086187D01*
X0135802Y0086187D01*
X0136553Y0085436D01*
X0136553Y0081683D02*
X0133550Y0081683D01*
X0131949Y0082434D02*
X0131198Y0081683D01*
X0129697Y0081683D01*
X0128947Y0082434D01*
X0128947Y0085436D01*
X0131949Y0082434D01*
X0131949Y0085436D01*
X0131198Y0086187D01*
X0129697Y0086187D01*
X0128947Y0085436D01*
X0127595Y0078933D02*
X0117595Y0078933D01*
X0117595Y0278933D01*
X0127595Y0278933D01*
X0127595Y0078933D01*
X0129697Y0091683D02*
X0128947Y0092434D01*
X0128947Y0095436D01*
X0129697Y0096187D01*
X0131198Y0096187D01*
X0131949Y0095436D01*
X0131949Y0094686D01*
X0131198Y0093935D01*
X0128947Y0093935D01*
X0129697Y0091683D02*
X0131198Y0091683D01*
X0131949Y0092434D01*
X0133550Y0091683D02*
X0136553Y0091683D01*
X0135052Y0091683D02*
X0135052Y0096187D01*
X0136553Y0094686D01*
X0136553Y0101683D02*
X0133550Y0101683D01*
X0135052Y0101683D02*
X0135052Y0106187D01*
X0136553Y0104686D01*
X0131949Y0104686D02*
X0131198Y0103935D01*
X0129697Y0103935D01*
X0128947Y0103184D01*
X0128947Y0102434D01*
X0129697Y0101683D01*
X0131198Y0101683D01*
X0131949Y0102434D01*
X0131949Y0103184D01*
X0131198Y0103935D01*
X0131949Y0104686D02*
X0131949Y0105436D01*
X0131198Y0106187D01*
X0129697Y0106187D01*
X0128947Y0105436D01*
X0128947Y0104686D01*
X0129697Y0103935D01*
X0131949Y0111683D02*
X0131949Y0112434D01*
X0128947Y0115436D01*
X0128947Y0116187D01*
X0131949Y0116187D01*
X0135052Y0116187D02*
X0135052Y0111683D01*
X0136553Y0111683D02*
X0133550Y0111683D01*
X0136553Y0114686D02*
X0135052Y0116187D01*
X0135052Y0121683D02*
X0135052Y0126187D01*
X0136553Y0124686D01*
X0136553Y0121683D02*
X0133550Y0121683D01*
X0131949Y0122434D02*
X0131198Y0121683D01*
X0129697Y0121683D01*
X0128947Y0122434D01*
X0128947Y0123184D01*
X0129697Y0123935D01*
X0131949Y0123935D01*
X0131949Y0122434D01*
X0131949Y0123935D02*
X0130448Y0125436D01*
X0128947Y0126187D01*
X0129697Y0131683D02*
X0131198Y0131683D01*
X0131949Y0132434D01*
X0131949Y0133935D02*
X0130448Y0134686D01*
X0129697Y0134686D01*
X0128947Y0133935D01*
X0128947Y0132434D01*
X0129697Y0131683D01*
X0131949Y0133935D02*
X0131949Y0136187D01*
X0128947Y0136187D01*
X0133550Y0131683D02*
X0136553Y0131683D01*
X0135052Y0131683D02*
X0135052Y0136187D01*
X0136553Y0134686D01*
X0136553Y0141683D02*
X0133550Y0141683D01*
X0135052Y0141683D02*
X0135052Y0146187D01*
X0136553Y0144686D01*
X0131949Y0143935D02*
X0128947Y0143935D01*
X0129697Y0141683D02*
X0129697Y0146187D01*
X0131949Y0143935D01*
X0131198Y0151683D02*
X0129697Y0151683D01*
X0128947Y0152434D01*
X0128947Y0153184D01*
X0129697Y0153935D01*
X0130448Y0153935D01*
X0129697Y0153935D02*
X0128947Y0154686D01*
X0128947Y0155436D01*
X0129697Y0156187D01*
X0131198Y0156187D01*
X0131949Y0155436D01*
X0131949Y0152434D02*
X0131198Y0151683D01*
X0133550Y0151683D02*
X0136553Y0151683D01*
X0135052Y0151683D02*
X0135052Y0156187D01*
X0136553Y0154686D01*
X0136553Y0161683D02*
X0133550Y0161683D01*
X0135052Y0161683D02*
X0135052Y0166187D01*
X0136553Y0164686D01*
X0131949Y0165436D02*
X0131198Y0166187D01*
X0129697Y0166187D01*
X0128947Y0165436D01*
X0128947Y0164686D01*
X0131949Y0161683D01*
X0128947Y0161683D01*
X0128947Y0171683D02*
X0131949Y0171683D01*
X0130448Y0171683D02*
X0130448Y0176187D01*
X0131949Y0174686D01*
X0133550Y0171683D02*
X0136553Y0171683D01*
X0135052Y0171683D02*
X0135052Y0176187D01*
X0136553Y0174686D01*
X0136553Y0181683D02*
X0133550Y0181683D01*
X0135052Y0181683D02*
X0135052Y0186187D01*
X0136553Y0184686D01*
X0131949Y0185436D02*
X0131198Y0186187D01*
X0129697Y0186187D01*
X0128947Y0185436D01*
X0131949Y0182434D01*
X0131198Y0181683D01*
X0129697Y0181683D01*
X0128947Y0182434D01*
X0128947Y0185436D01*
X0131949Y0185436D02*
X0131949Y0182434D01*
X0131198Y0191683D02*
X0129697Y0191683D01*
X0128947Y0192434D01*
X0128947Y0195436D01*
X0129697Y0196187D01*
X0131198Y0196187D01*
X0131949Y0195436D01*
X0131949Y0194686D01*
X0131198Y0193935D01*
X0128947Y0193935D01*
X0131198Y0191683D02*
X0131949Y0192434D01*
X0131198Y0201683D02*
X0129697Y0201683D01*
X0128947Y0202434D01*
X0128947Y0203184D01*
X0129697Y0203935D01*
X0131198Y0203935D01*
X0131949Y0204686D01*
X0131949Y0205436D01*
X0131198Y0206187D01*
X0129697Y0206187D01*
X0128947Y0205436D01*
X0128947Y0204686D01*
X0129697Y0203935D01*
X0131198Y0203935D02*
X0131949Y0203184D01*
X0131949Y0202434D01*
X0131198Y0201683D01*
X0131949Y0211683D02*
X0131949Y0212434D01*
X0128947Y0215436D01*
X0128947Y0216187D01*
X0131949Y0216187D01*
X0131198Y0221683D02*
X0129697Y0221683D01*
X0128947Y0222434D01*
X0128947Y0223184D01*
X0129697Y0223935D01*
X0131949Y0223935D01*
X0131949Y0222434D01*
X0131198Y0221683D01*
X0131949Y0223935D02*
X0130448Y0225436D01*
X0128947Y0226187D01*
X0129697Y0231683D02*
X0131198Y0231683D01*
X0131949Y0232434D01*
X0131949Y0233935D02*
X0130448Y0234686D01*
X0129697Y0234686D01*
X0128947Y0233935D01*
X0128947Y0232434D01*
X0129697Y0231683D01*
X0131949Y0233935D02*
X0131949Y0236187D01*
X0128947Y0236187D01*
X0129697Y0241683D02*
X0129697Y0246187D01*
X0131949Y0243935D01*
X0128947Y0243935D01*
X0129697Y0251683D02*
X0131198Y0251683D01*
X0131949Y0252434D01*
X0130448Y0253935D02*
X0129697Y0253935D01*
X0128947Y0253184D01*
X0128947Y0252434D01*
X0129697Y0251683D01*
X0129697Y0253935D02*
X0128947Y0254686D01*
X0128947Y0255436D01*
X0129697Y0256187D01*
X0131198Y0256187D01*
X0131949Y0255436D01*
X0131949Y0261683D02*
X0128947Y0261683D01*
X0131949Y0261683D02*
X0128947Y0264686D01*
X0128947Y0265436D01*
X0129697Y0266187D01*
X0131198Y0266187D01*
X0131949Y0265436D01*
X0131949Y0271683D02*
X0128947Y0271683D01*
X0130448Y0271683D02*
X0130448Y0276187D01*
X0131949Y0274686D01*
D11*
X0126561Y0281733D02*
X0125827Y0281733D01*
X0125093Y0282467D01*
X0125093Y0286137D01*
X0125827Y0286137D02*
X0124359Y0286137D01*
X0122691Y0284669D02*
X0121223Y0286137D01*
X0121223Y0281733D01*
X0122691Y0281733D02*
X0119755Y0281733D01*
X0126561Y0281733D02*
X0127295Y0282467D01*
X0179895Y0261143D02*
X0179895Y0259675D01*
X0180629Y0258941D01*
X0183565Y0261877D01*
X0180629Y0261877D01*
X0179895Y0261143D01*
X0180629Y0258941D02*
X0183565Y0258941D01*
X0184299Y0259675D01*
X0184299Y0261143D01*
X0183565Y0261877D01*
X0183565Y0257273D02*
X0184299Y0256539D01*
X0184299Y0255071D01*
X0183565Y0254337D01*
X0183565Y0252669D02*
X0184299Y0251935D01*
X0184299Y0250467D01*
X0183565Y0249733D01*
X0180629Y0249733D01*
X0179895Y0250467D01*
X0179895Y0251935D01*
X0180629Y0252669D01*
X0179895Y0254337D02*
X0179895Y0257273D01*
X0179895Y0254337D02*
X0182831Y0257273D01*
X0183565Y0257273D01*
X0190395Y0257273D02*
X0190395Y0254337D01*
X0190395Y0255805D02*
X0194799Y0255805D01*
X0193331Y0254337D01*
X0194065Y0252669D02*
X0192597Y0252669D01*
X0191863Y0251935D01*
X0191863Y0249733D01*
X0190395Y0249733D02*
X0194799Y0249733D01*
X0194799Y0251935D01*
X0194065Y0252669D01*
X0191863Y0251201D02*
X0190395Y0252669D01*
X0192597Y0258941D02*
X0192597Y0261877D01*
X0190395Y0261143D02*
X0194799Y0261143D01*
X0192597Y0258941D01*
X0226395Y0257773D02*
X0226395Y0254837D01*
X0226395Y0256305D02*
X0230799Y0256305D01*
X0229331Y0254837D01*
X0230065Y0253169D02*
X0230799Y0252435D01*
X0230799Y0250967D01*
X0230065Y0250233D01*
X0227129Y0250233D01*
X0226395Y0250967D01*
X0226395Y0252435D01*
X0227129Y0253169D01*
X0227129Y0259441D02*
X0227863Y0259441D01*
X0228597Y0260175D01*
X0228597Y0261643D01*
X0227863Y0262377D01*
X0227129Y0262377D01*
X0226395Y0261643D01*
X0226395Y0260175D01*
X0227129Y0259441D01*
X0228597Y0260175D02*
X0229331Y0259441D01*
X0230065Y0259441D01*
X0230799Y0260175D01*
X0230799Y0261643D01*
X0230065Y0262377D01*
X0229331Y0262377D01*
X0228597Y0261643D01*
X0237395Y0259441D02*
X0238129Y0259441D01*
X0241065Y0262377D01*
X0241799Y0262377D01*
X0241799Y0259441D01*
X0244895Y0259675D02*
X0244895Y0261143D01*
X0245629Y0261877D01*
X0248565Y0261877D01*
X0249299Y0261143D01*
X0249299Y0259675D01*
X0248565Y0258941D01*
X0247831Y0258941D01*
X0247097Y0259675D01*
X0247097Y0261877D01*
X0244895Y0259675D02*
X0245629Y0258941D01*
X0244895Y0257273D02*
X0244895Y0254337D01*
X0244895Y0255805D02*
X0249299Y0255805D01*
X0247831Y0254337D01*
X0248565Y0252669D02*
X0249299Y0251935D01*
X0249299Y0250467D01*
X0248565Y0249733D01*
X0245629Y0249733D01*
X0244895Y0250467D01*
X0244895Y0251935D01*
X0245629Y0252669D01*
X0241799Y0252435D02*
X0241799Y0250967D01*
X0241065Y0250233D01*
X0238129Y0250233D01*
X0237395Y0250967D01*
X0237395Y0252435D01*
X0238129Y0253169D01*
X0237395Y0254837D02*
X0237395Y0257773D01*
X0237395Y0256305D02*
X0241799Y0256305D01*
X0240331Y0254837D01*
X0241065Y0253169D02*
X0241799Y0252435D01*
X0252895Y0251935D02*
X0253629Y0252669D01*
X0252895Y0251935D02*
X0252895Y0250467D01*
X0253629Y0249733D01*
X0256565Y0249733D01*
X0257299Y0250467D01*
X0257299Y0251935D01*
X0256565Y0252669D01*
X0256565Y0254337D02*
X0257299Y0255071D01*
X0257299Y0256539D01*
X0256565Y0257273D01*
X0255831Y0257273D01*
X0252895Y0254337D01*
X0252895Y0257273D01*
X0252895Y0258941D02*
X0252895Y0261877D01*
X0252895Y0260409D02*
X0257299Y0260409D01*
X0255831Y0258941D01*
X0309755Y0282467D02*
X0310489Y0281733D01*
X0311957Y0281733D01*
X0312691Y0282467D01*
X0311223Y0283935D02*
X0310489Y0283935D01*
X0309755Y0283201D01*
X0309755Y0282467D01*
X0310489Y0283935D02*
X0309755Y0284669D01*
X0309755Y0285403D01*
X0310489Y0286137D01*
X0311957Y0286137D01*
X0312691Y0285403D01*
X0314359Y0286137D02*
X0315827Y0286137D01*
X0315093Y0286137D02*
X0315093Y0282467D01*
X0315827Y0281733D01*
X0316561Y0281733D01*
X0317295Y0282467D01*
X0215799Y0197143D02*
X0215799Y0195675D01*
X0215065Y0194941D01*
X0213597Y0196409D02*
X0213597Y0197143D01*
X0212863Y0197877D01*
X0212129Y0197877D01*
X0211395Y0197143D01*
X0211395Y0195675D01*
X0212129Y0194941D01*
X0211395Y0193273D02*
X0211395Y0190337D01*
X0211395Y0191805D02*
X0215799Y0191805D01*
X0214331Y0190337D01*
X0215065Y0188669D02*
X0215799Y0187935D01*
X0215799Y0186467D01*
X0215065Y0185733D01*
X0212129Y0185733D01*
X0211395Y0186467D01*
X0211395Y0187935D01*
X0212129Y0188669D01*
X0217385Y0182637D02*
X0216651Y0181903D01*
X0219587Y0178967D01*
X0218853Y0178233D01*
X0217385Y0178233D01*
X0216651Y0178967D01*
X0216651Y0181903D01*
X0217385Y0182637D02*
X0218853Y0182637D01*
X0219587Y0181903D01*
X0219587Y0178967D01*
X0221255Y0178233D02*
X0224191Y0178233D01*
X0222723Y0178233D02*
X0222723Y0182637D01*
X0224191Y0181169D01*
X0225859Y0181903D02*
X0226593Y0182637D01*
X0228061Y0182637D01*
X0228795Y0181903D01*
X0228795Y0178967D01*
X0228061Y0178233D01*
X0226593Y0178233D01*
X0225859Y0178967D01*
X0221561Y0162137D02*
X0220093Y0162137D01*
X0219359Y0161403D01*
X0217691Y0161403D02*
X0217691Y0160669D01*
X0216957Y0159935D01*
X0214755Y0159935D01*
X0214755Y0161403D02*
X0215489Y0162137D01*
X0216957Y0162137D01*
X0217691Y0161403D01*
X0214755Y0161403D02*
X0214755Y0158467D01*
X0215489Y0157733D01*
X0216957Y0157733D01*
X0217691Y0158467D01*
X0219359Y0158467D02*
X0220093Y0157733D01*
X0221561Y0157733D01*
X0222295Y0158467D01*
X0222295Y0161403D01*
X0221561Y0162137D01*
X0231989Y0145637D02*
X0231255Y0144903D01*
X0231255Y0144169D01*
X0231989Y0143435D01*
X0233457Y0143435D01*
X0234191Y0144169D01*
X0234191Y0144903D01*
X0233457Y0145637D01*
X0231989Y0145637D01*
X0231989Y0143435D02*
X0231255Y0142701D01*
X0231255Y0141967D01*
X0231989Y0141233D01*
X0233457Y0141233D01*
X0234191Y0141967D01*
X0234191Y0142701D01*
X0233457Y0143435D01*
X0235859Y0144903D02*
X0236593Y0145637D01*
X0238061Y0145637D01*
X0238795Y0144903D01*
X0238795Y0141967D01*
X0238061Y0141233D01*
X0236593Y0141233D01*
X0235859Y0141967D01*
X0226299Y0127377D02*
X0225565Y0125909D01*
X0224097Y0124441D01*
X0224097Y0126643D01*
X0223363Y0127377D01*
X0222629Y0127377D01*
X0221895Y0126643D01*
X0221895Y0125175D01*
X0222629Y0124441D01*
X0224097Y0124441D01*
X0221895Y0122773D02*
X0221895Y0119837D01*
X0221895Y0121305D02*
X0226299Y0121305D01*
X0224831Y0119837D01*
X0225565Y0118169D02*
X0226299Y0117435D01*
X0226299Y0115967D01*
X0225565Y0115233D01*
X0222629Y0115233D01*
X0221895Y0115967D01*
X0221895Y0117435D01*
X0222629Y0118169D01*
X0204799Y0127467D02*
X0204065Y0126733D01*
X0201129Y0126733D01*
X0200395Y0127467D01*
X0200395Y0128935D01*
X0201129Y0129669D01*
X0200395Y0131337D02*
X0200395Y0134273D01*
X0200395Y0132805D02*
X0204799Y0132805D01*
X0203331Y0131337D01*
X0204065Y0129669D02*
X0204799Y0128935D01*
X0204799Y0127467D01*
X0202597Y0135941D02*
X0202597Y0138877D01*
X0200395Y0138143D02*
X0204799Y0138143D01*
X0202597Y0135941D01*
X0183299Y0134837D02*
X0183299Y0137773D01*
X0182565Y0137773D01*
X0179629Y0134837D01*
X0178895Y0134837D01*
X0179629Y0133169D02*
X0178895Y0132435D01*
X0178895Y0130967D01*
X0179629Y0130233D01*
X0182565Y0130233D01*
X0183299Y0130967D01*
X0183299Y0132435D01*
X0182565Y0133169D01*
X0200129Y0166733D02*
X0199395Y0167467D01*
X0199395Y0168935D01*
X0200129Y0169669D01*
X0200129Y0171337D02*
X0199395Y0172071D01*
X0199395Y0173539D01*
X0200129Y0174273D01*
X0200863Y0174273D01*
X0201597Y0173539D01*
X0201597Y0171337D01*
X0200129Y0171337D01*
X0201597Y0171337D02*
X0203065Y0172805D01*
X0203799Y0174273D01*
X0203065Y0169669D02*
X0203799Y0168935D01*
X0203799Y0167467D01*
X0203065Y0166733D01*
X0200129Y0166733D01*
X0213597Y0197143D02*
X0214331Y0197877D01*
X0215065Y0197877D01*
X0215799Y0197143D01*
X0263895Y0147273D02*
X0263895Y0144337D01*
X0263895Y0145805D02*
X0268299Y0145805D01*
X0266831Y0144337D01*
X0268299Y0142669D02*
X0263895Y0139733D01*
X0263895Y0142669D02*
X0268299Y0139733D01*
X0218827Y0087637D02*
X0217359Y0087637D01*
X0218093Y0087637D02*
X0218093Y0083967D01*
X0218827Y0083233D01*
X0219561Y0083233D01*
X0220295Y0083967D01*
X0215691Y0083233D02*
X0212755Y0086169D01*
X0212755Y0086903D01*
X0213489Y0087637D01*
X0214957Y0087637D01*
X0215691Y0086903D01*
X0215691Y0083233D02*
X0212755Y0083233D01*
D12*
X0142395Y0191183D03*
X0142295Y0191183D03*
X0143695Y0194283D03*
X0143795Y0194283D03*
X0143895Y0194283D03*
X0143995Y0194283D03*
X0138695Y0191183D03*
X0132595Y0204583D03*
X0144495Y0207983D03*
X0144295Y0211483D03*
X0144195Y0211483D03*
X0144095Y0211483D03*
X0143995Y0211483D03*
X0154895Y0225583D03*
X0147595Y0233383D03*
X0148695Y0235483D03*
X0148795Y0235483D03*
X0154895Y0241083D03*
X0144395Y0245583D03*
X0144295Y0262183D03*
X0144195Y0262183D03*
X0136495Y0262283D03*
X0136495Y0269683D03*
X0144495Y0272983D03*
X0144595Y0275783D03*
X0144495Y0283183D03*
X0136495Y0283183D03*
X0153295Y0271783D03*
X0167795Y0266183D03*
X0168195Y0266883D03*
X0170795Y0266883D03*
X0176595Y0266583D03*
X0179295Y0266483D03*
X0170795Y0201583D03*
D13*
X0170595Y0201933D03*
X0171295Y0200833D03*
X0170495Y0199733D03*
X0170395Y0199533D03*
X0168595Y0199533D03*
X0168495Y0199733D03*
X0168395Y0201933D03*
X0167895Y0202333D03*
X0167795Y0202433D03*
X0167695Y0202533D03*
X0167595Y0202633D03*
X0167495Y0202733D03*
X0167395Y0202833D03*
X0167295Y0202933D03*
X0167195Y0203033D03*
X0166495Y0203833D03*
X0166395Y0203933D03*
X0166295Y0204033D03*
X0166195Y0204133D03*
X0166095Y0204233D03*
X0165995Y0204333D03*
X0163895Y0201033D03*
X0163995Y0200933D03*
X0162095Y0201033D03*
X0161995Y0200933D03*
X0161895Y0200833D03*
X0161895Y0198633D03*
X0164095Y0198633D03*
X0156195Y0196333D03*
X0156095Y0196433D03*
X0156195Y0194133D03*
X0155995Y0194033D03*
X0155895Y0193933D03*
X0154095Y0194033D03*
X0153995Y0194133D03*
X0153895Y0194233D03*
X0144695Y0194233D03*
X0144795Y0197933D03*
X0136295Y0194333D03*
X0132595Y0211533D03*
X0154795Y0225533D03*
X0148295Y0231533D03*
X0148195Y0235233D03*
X0154795Y0241033D03*
X0144795Y0249333D03*
X0161895Y0266133D03*
X0161995Y0266033D03*
X0162095Y0265933D03*
X0163895Y0265933D03*
X0163995Y0266033D03*
X0163995Y0268433D03*
X0163895Y0268533D03*
X0162095Y0268533D03*
X0161995Y0268433D03*
X0161895Y0268333D03*
X0155895Y0270433D03*
X0154195Y0270433D03*
X0154095Y0270533D03*
X0153995Y0270633D03*
X0153995Y0272933D03*
X0156095Y0272933D03*
X0148395Y0272933D03*
X0147295Y0272933D03*
X0136295Y0272933D03*
X0166595Y0263333D03*
X0166695Y0263433D03*
X0166795Y0263533D03*
X0166895Y0263633D03*
X0166995Y0263733D03*
X0167095Y0263833D03*
X0167295Y0264033D03*
X0167395Y0264133D03*
X0167495Y0264233D03*
X0167595Y0264333D03*
X0167695Y0264433D03*
X0168595Y0264833D03*
X0168495Y0265033D03*
X0170395Y0264833D03*
X0170495Y0265033D03*
X0171295Y0266133D03*
X0170595Y0267233D03*
X0168395Y0267233D03*
X0176195Y0265833D03*
X0176895Y0264633D03*
X0176995Y0264533D03*
X0177195Y0264433D03*
X0178695Y0264433D03*
X0178995Y0267033D03*
X0178895Y0267133D03*
X0178695Y0267233D03*
X0176995Y0267133D03*
X0176895Y0267033D03*
X0177195Y0202533D03*
X0176795Y0202233D03*
X0178695Y0202533D03*
X0178995Y0202333D03*
X0179095Y0202233D03*
X0179095Y0200133D03*
X0178695Y0199833D03*
X0176795Y0200133D03*
D14*
X0176295Y0201183D03*
X0179595Y0201183D03*
X0171095Y0200883D03*
X0167895Y0200883D03*
X0156695Y0195283D03*
X0142995Y0190983D03*
X0142095Y0194583D03*
X0138095Y0201483D03*
X0137995Y0201583D03*
X0132695Y0204683D03*
X0134395Y0206983D03*
X0134495Y0207083D03*
X0138995Y0207783D03*
X0139095Y0207783D03*
X0138995Y0211783D03*
X0141995Y0211783D03*
X0142095Y0211783D03*
X0138195Y0223183D03*
X0138095Y0223283D03*
X0138095Y0229383D03*
X0137995Y0229483D03*
X0142695Y0229183D03*
X0142795Y0229283D03*
X0142895Y0229383D03*
X0142995Y0234783D03*
X0142895Y0234883D03*
X0138095Y0234883D03*
X0138195Y0239983D03*
X0138095Y0240083D03*
X0141995Y0245883D03*
X0142895Y0252783D03*
X0138095Y0252783D03*
X0137995Y0252883D03*
X0138095Y0258283D03*
X0142895Y0258283D03*
X0142995Y0258183D03*
X0141995Y0262483D03*
X0141895Y0262483D03*
X0142995Y0268583D03*
X0142895Y0268683D03*
X0143995Y0276083D03*
X0143895Y0282883D03*
X0143995Y0282983D03*
X0137095Y0282883D03*
X0136995Y0282983D03*
X0136995Y0276083D03*
X0156695Y0271783D03*
X0167895Y0266183D03*
X0171095Y0266183D03*
X0136295Y0188183D03*
X0142895Y0185483D03*
X0142995Y0185583D03*
D15*
X0138795Y0191183D03*
X0144595Y0207983D03*
X0144495Y0211483D03*
X0132695Y0211583D03*
X0144795Y0232083D03*
X0148895Y0231383D03*
X0148995Y0231383D03*
X0148495Y0235383D03*
X0148395Y0235383D03*
X0144795Y0255483D03*
X0144495Y0262183D03*
X0136395Y0262283D03*
X0136395Y0269683D03*
X0136395Y0272983D03*
X0136395Y0283183D03*
X0144595Y0283183D03*
X0148295Y0272983D03*
X0153795Y0272683D03*
X0153795Y0270883D03*
X0156395Y0272583D03*
X0161695Y0268083D03*
X0164295Y0268083D03*
X0164295Y0266383D03*
X0176595Y0265083D03*
X0176595Y0201883D03*
X0164295Y0198883D03*
X0161695Y0200583D03*
D16*
X0161495Y0199733D03*
X0144595Y0197533D03*
X0142595Y0194733D03*
X0142495Y0194733D03*
X0137695Y0201933D03*
X0132795Y0204833D03*
X0133995Y0206633D03*
X0138595Y0207633D03*
X0138595Y0211933D03*
X0138495Y0211933D03*
X0142395Y0211933D03*
X0142495Y0211933D03*
X0143295Y0217433D03*
X0155195Y0225533D03*
X0144695Y0232033D03*
X0143295Y0229933D03*
X0137695Y0229833D03*
X0137595Y0229933D03*
X0137695Y0234433D03*
X0137795Y0234533D03*
X0142495Y0246033D03*
X0144695Y0255433D03*
X0137695Y0257833D03*
X0142395Y0262633D03*
X0142495Y0262633D03*
X0140595Y0279533D03*
X0140395Y0279533D03*
X0161495Y0267233D03*
X0176395Y0265833D03*
X0179495Y0265833D03*
X0155195Y0241133D03*
X0137695Y0185933D03*
D17*
X0136495Y0194333D03*
X0136395Y0194333D03*
X0144095Y0194233D03*
X0144195Y0194233D03*
X0144295Y0194233D03*
X0144395Y0194233D03*
X0144495Y0200633D03*
X0144595Y0200633D03*
X0144395Y0211433D03*
X0132795Y0211533D03*
X0148295Y0222633D03*
X0149095Y0231333D03*
X0149195Y0231333D03*
X0149295Y0231333D03*
X0149395Y0231333D03*
X0149495Y0231333D03*
X0149595Y0231333D03*
X0149695Y0231333D03*
X0149795Y0231333D03*
X0149895Y0231333D03*
X0149995Y0231333D03*
X0150095Y0231333D03*
X0150195Y0231333D03*
X0150295Y0231333D03*
X0150395Y0231333D03*
X0150495Y0231333D03*
X0150595Y0231333D03*
X0150695Y0231333D03*
X0150795Y0231333D03*
X0150895Y0231333D03*
X0150995Y0231333D03*
X0151095Y0231333D03*
X0151195Y0231333D03*
X0151295Y0231333D03*
X0151395Y0231333D03*
X0151495Y0231333D03*
X0151595Y0231333D03*
X0151695Y0231333D03*
X0151795Y0231333D03*
X0151895Y0231333D03*
X0151995Y0231333D03*
X0152095Y0231333D03*
X0152195Y0231333D03*
X0152295Y0231333D03*
X0152395Y0231333D03*
X0152495Y0231333D03*
X0152595Y0231333D03*
X0152695Y0231333D03*
X0152795Y0231333D03*
X0152895Y0231333D03*
X0152995Y0231333D03*
X0153095Y0231333D03*
X0153195Y0231333D03*
X0153295Y0231333D03*
X0153395Y0231333D03*
X0153495Y0231333D03*
X0153595Y0231333D03*
X0153695Y0231333D03*
X0153795Y0231333D03*
X0153895Y0231333D03*
X0153995Y0231333D03*
X0154095Y0231333D03*
X0154195Y0231333D03*
X0154295Y0231333D03*
X0154395Y0231333D03*
X0154495Y0231333D03*
X0154595Y0231333D03*
X0154695Y0231333D03*
X0154795Y0231333D03*
X0154895Y0231333D03*
X0154995Y0231333D03*
X0155095Y0231333D03*
X0155195Y0231333D03*
X0155295Y0231333D03*
X0155395Y0231333D03*
X0155495Y0231333D03*
X0155595Y0231333D03*
X0155695Y0231333D03*
X0155795Y0231333D03*
X0155895Y0231333D03*
X0155995Y0231333D03*
X0156095Y0231333D03*
X0156195Y0231333D03*
X0156295Y0231333D03*
X0156395Y0231333D03*
X0156495Y0231333D03*
X0156595Y0231333D03*
X0156695Y0231333D03*
X0156795Y0231333D03*
X0156895Y0231333D03*
X0156995Y0231333D03*
X0157095Y0231333D03*
X0157195Y0231333D03*
X0157295Y0231333D03*
X0157395Y0231333D03*
X0157495Y0231333D03*
X0157595Y0231333D03*
X0157695Y0231333D03*
X0157795Y0231333D03*
X0157895Y0231333D03*
X0157995Y0231333D03*
X0158095Y0231333D03*
X0158195Y0231333D03*
X0158295Y0231333D03*
X0158395Y0231333D03*
X0158495Y0231333D03*
X0158595Y0231333D03*
X0158695Y0231333D03*
X0158795Y0231333D03*
X0158895Y0231333D03*
X0158995Y0231333D03*
X0159095Y0231333D03*
X0159195Y0231333D03*
X0159295Y0231333D03*
X0159395Y0231333D03*
X0159495Y0231333D03*
X0159595Y0231333D03*
X0159695Y0231333D03*
X0159795Y0231333D03*
X0159895Y0231333D03*
X0159995Y0231333D03*
X0160095Y0231333D03*
X0160195Y0231333D03*
X0160295Y0231333D03*
X0160395Y0231333D03*
X0160495Y0231333D03*
X0160595Y0231333D03*
X0160695Y0231333D03*
X0160795Y0231333D03*
X0148595Y0235433D03*
X0148295Y0239433D03*
X0144495Y0245633D03*
X0136395Y0245733D03*
X0144395Y0262233D03*
X0144595Y0272933D03*
X0147495Y0272933D03*
X0148195Y0272933D03*
X0136495Y0272933D03*
X0136395Y0275833D03*
X0161695Y0266433D03*
X0164695Y0267233D03*
X0170795Y0265433D03*
X0179295Y0265133D03*
X0181095Y0233333D03*
X0179295Y0201833D03*
X0179295Y0200533D03*
X0176595Y0200433D03*
X0170795Y0200133D03*
X0168195Y0200133D03*
X0164695Y0199733D03*
X0161695Y0198933D03*
D18*
X0170895Y0200883D03*
X0155395Y0225483D03*
X0142795Y0212083D03*
X0138195Y0212083D03*
X0138195Y0207483D03*
X0133795Y0206283D03*
X0132895Y0204883D03*
X0137495Y0202283D03*
X0142895Y0194883D03*
X0143395Y0190283D03*
X0143395Y0186183D03*
X0137495Y0190283D03*
X0137495Y0223983D03*
X0137495Y0234083D03*
X0142795Y0246183D03*
X0142895Y0246183D03*
X0144495Y0248883D03*
X0137495Y0253483D03*
X0137495Y0257483D03*
X0142795Y0262783D03*
X0143395Y0257483D03*
X0156495Y0271783D03*
X0170895Y0266183D03*
X0155395Y0241183D03*
D19*
X0148195Y0239433D03*
X0148095Y0239433D03*
X0148895Y0235533D03*
X0148995Y0235533D03*
X0141095Y0228433D03*
X0139895Y0228433D03*
X0139895Y0222633D03*
X0139795Y0222633D03*
X0139695Y0222633D03*
X0139595Y0222633D03*
X0139495Y0222633D03*
X0139395Y0222633D03*
X0139995Y0222633D03*
X0140095Y0222633D03*
X0140195Y0222633D03*
X0140295Y0222633D03*
X0140395Y0222633D03*
X0140495Y0222633D03*
X0140595Y0222633D03*
X0148095Y0222633D03*
X0148195Y0222633D03*
X0143895Y0211533D03*
X0143795Y0211533D03*
X0143695Y0211533D03*
X0143595Y0211533D03*
X0144395Y0207933D03*
X0144395Y0200633D03*
X0144295Y0200633D03*
X0144195Y0200633D03*
X0144095Y0200633D03*
X0143995Y0200633D03*
X0143895Y0200633D03*
X0143795Y0200633D03*
X0143695Y0200633D03*
X0143595Y0200633D03*
X0143495Y0200633D03*
X0143395Y0200633D03*
X0143295Y0200633D03*
X0143195Y0200633D03*
X0143095Y0200633D03*
X0142995Y0200633D03*
X0142895Y0200633D03*
X0142795Y0200633D03*
X0142695Y0200633D03*
X0142595Y0200633D03*
X0142495Y0200633D03*
X0142395Y0200633D03*
X0142295Y0200633D03*
X0142195Y0200633D03*
X0142095Y0200633D03*
X0141995Y0200633D03*
X0141895Y0200633D03*
X0141795Y0200633D03*
X0141695Y0200633D03*
X0141595Y0200633D03*
X0141495Y0200633D03*
X0141395Y0200633D03*
X0141295Y0200633D03*
X0141195Y0200633D03*
X0141095Y0200633D03*
X0140995Y0200633D03*
X0140895Y0200633D03*
X0140795Y0200633D03*
X0140695Y0200633D03*
X0140595Y0200633D03*
X0140495Y0200633D03*
X0140395Y0200633D03*
X0140295Y0200633D03*
X0140195Y0200633D03*
X0136295Y0207933D03*
X0136195Y0207933D03*
X0132995Y0211533D03*
X0132895Y0211533D03*
X0136595Y0194333D03*
X0136695Y0194333D03*
X0136795Y0194333D03*
X0136895Y0194333D03*
X0136995Y0194333D03*
X0137095Y0194333D03*
X0137195Y0194333D03*
X0137295Y0194333D03*
X0137395Y0194333D03*
X0137495Y0194333D03*
X0137595Y0194333D03*
X0137695Y0194333D03*
X0137795Y0194333D03*
X0137895Y0194333D03*
X0137995Y0194333D03*
X0138095Y0194333D03*
X0138195Y0194333D03*
X0138295Y0194333D03*
X0138395Y0194333D03*
X0138495Y0194333D03*
X0138595Y0194333D03*
X0138695Y0194333D03*
X0138795Y0194333D03*
X0138895Y0194333D03*
X0138995Y0194333D03*
X0139095Y0194333D03*
X0139195Y0194333D03*
X0139295Y0194333D03*
X0139395Y0194333D03*
X0139495Y0194333D03*
X0139595Y0194333D03*
X0139695Y0194333D03*
X0139795Y0194333D03*
X0139895Y0194333D03*
X0139995Y0194333D03*
X0140095Y0194333D03*
X0140195Y0194333D03*
X0140295Y0194333D03*
X0140395Y0194333D03*
X0140495Y0194333D03*
X0140595Y0194333D03*
X0142495Y0191233D03*
X0138595Y0191233D03*
X0138495Y0191233D03*
X0139795Y0184633D03*
X0140495Y0184533D03*
X0153295Y0195233D03*
X0167795Y0200833D03*
X0144295Y0245633D03*
X0144195Y0245633D03*
X0144095Y0245633D03*
X0143995Y0245633D03*
X0143895Y0245633D03*
X0143795Y0245633D03*
X0143695Y0245633D03*
X0143595Y0245633D03*
X0141195Y0251833D03*
X0139895Y0251833D03*
X0136595Y0245733D03*
X0136495Y0245733D03*
X0136595Y0262333D03*
X0143695Y0262233D03*
X0143795Y0262233D03*
X0143895Y0262233D03*
X0143995Y0262233D03*
X0144095Y0262233D03*
X0140895Y0269633D03*
X0140795Y0269633D03*
X0140695Y0269633D03*
X0140595Y0269633D03*
X0140495Y0269633D03*
X0140395Y0269633D03*
X0140295Y0269633D03*
X0140195Y0269633D03*
X0140095Y0269633D03*
X0139995Y0269633D03*
X0139895Y0269633D03*
X0139795Y0269633D03*
X0139695Y0269633D03*
X0139595Y0269633D03*
X0139495Y0269633D03*
X0139395Y0269633D03*
X0139295Y0269633D03*
X0139195Y0269633D03*
X0139095Y0269633D03*
X0138995Y0269633D03*
X0138895Y0269633D03*
X0138795Y0269633D03*
X0138695Y0269633D03*
X0138595Y0269633D03*
X0138495Y0269633D03*
X0138395Y0269633D03*
X0138295Y0269633D03*
X0138195Y0269633D03*
X0138095Y0269633D03*
X0137995Y0269633D03*
X0137895Y0269633D03*
X0137795Y0269633D03*
X0137695Y0269633D03*
X0137595Y0269633D03*
X0137495Y0269633D03*
X0137395Y0269633D03*
X0137295Y0269633D03*
X0137195Y0269633D03*
X0137095Y0269633D03*
X0136995Y0269633D03*
X0136895Y0269633D03*
X0136795Y0269633D03*
X0136695Y0269633D03*
X0136595Y0269633D03*
X0136595Y0272933D03*
X0136695Y0272933D03*
X0136795Y0272933D03*
X0136895Y0272933D03*
X0136995Y0272933D03*
X0137095Y0272933D03*
X0137195Y0272933D03*
X0137295Y0272933D03*
X0137395Y0272933D03*
X0137495Y0272933D03*
X0137595Y0272933D03*
X0137695Y0272933D03*
X0137795Y0272933D03*
X0137895Y0272933D03*
X0137995Y0272933D03*
X0138095Y0272933D03*
X0138195Y0272933D03*
X0138295Y0272933D03*
X0138395Y0272933D03*
X0138495Y0272933D03*
X0138595Y0272933D03*
X0138695Y0272933D03*
X0138795Y0272933D03*
X0138895Y0272933D03*
X0138995Y0272933D03*
X0139095Y0272933D03*
X0139195Y0272933D03*
X0139295Y0272933D03*
X0139395Y0272933D03*
X0139495Y0272933D03*
X0139595Y0272933D03*
X0139695Y0272933D03*
X0139795Y0272933D03*
X0139895Y0272933D03*
X0139995Y0272933D03*
X0140095Y0272933D03*
X0140195Y0272933D03*
X0140295Y0272933D03*
X0140395Y0272933D03*
X0140495Y0272933D03*
X0140595Y0272933D03*
X0140695Y0272933D03*
X0140795Y0272933D03*
X0140895Y0272933D03*
X0140995Y0272933D03*
X0141095Y0272933D03*
X0141195Y0272933D03*
X0141295Y0272933D03*
X0141395Y0272933D03*
X0141495Y0272933D03*
X0141595Y0272933D03*
X0141695Y0272933D03*
X0141795Y0272933D03*
X0141895Y0272933D03*
X0141995Y0272933D03*
X0142095Y0272933D03*
X0142195Y0272933D03*
X0142295Y0272933D03*
X0142395Y0272933D03*
X0142495Y0272933D03*
X0142595Y0272933D03*
X0142695Y0272933D03*
X0142795Y0272933D03*
X0142895Y0272933D03*
X0142995Y0272933D03*
X0143095Y0272933D03*
X0143195Y0272933D03*
X0143295Y0272933D03*
X0143395Y0272933D03*
X0143495Y0272933D03*
X0143595Y0272933D03*
X0143695Y0272933D03*
X0143795Y0272933D03*
X0143895Y0272933D03*
X0143995Y0272933D03*
X0144095Y0272933D03*
X0144195Y0272933D03*
X0144295Y0272933D03*
X0144395Y0272933D03*
X0144495Y0275833D03*
X0147595Y0272933D03*
X0147695Y0272933D03*
X0147795Y0272933D03*
X0147895Y0272933D03*
X0147995Y0272933D03*
X0148095Y0272933D03*
X0136495Y0275833D03*
X0179695Y0265833D03*
D20*
X0153695Y0271783D03*
X0143495Y0267783D03*
X0142995Y0262883D03*
X0143495Y0257283D03*
X0143495Y0253683D03*
X0142995Y0246283D03*
X0136395Y0232083D03*
X0143495Y0216983D03*
X0142895Y0212183D03*
X0138095Y0207383D03*
X0132995Y0204983D03*
X0144395Y0197383D03*
X0143495Y0186383D03*
X0136395Y0188183D03*
X0164095Y0220683D03*
X0164495Y0220583D03*
X0164595Y0220583D03*
X0164895Y0220483D03*
X0164995Y0220483D03*
X0165095Y0220483D03*
X0165195Y0220483D03*
X0165295Y0220483D03*
X0165395Y0220483D03*
X0165495Y0220483D03*
X0165795Y0220383D03*
X0165895Y0220383D03*
X0165995Y0220383D03*
X0166095Y0220383D03*
X0166195Y0220383D03*
X0166295Y0220383D03*
X0166395Y0220383D03*
X0166495Y0220383D03*
X0166595Y0220383D03*
X0166695Y0220383D03*
X0166795Y0220383D03*
X0166895Y0220383D03*
X0166995Y0220383D03*
X0167095Y0220383D03*
X0167195Y0220383D03*
X0168095Y0220483D03*
D21*
X0169795Y0220833D03*
X0170095Y0220933D03*
X0170195Y0220933D03*
X0170295Y0220933D03*
X0162995Y0220933D03*
X0162895Y0220933D03*
X0162695Y0221033D03*
X0162495Y0221133D03*
X0162395Y0221133D03*
X0162195Y0221233D03*
X0143195Y0212333D03*
X0137795Y0207233D03*
X0133695Y0205933D03*
X0133095Y0205033D03*
X0155695Y0241233D03*
X0161695Y0245233D03*
X0161995Y0245333D03*
X0162195Y0245433D03*
X0162295Y0245433D03*
X0162395Y0245533D03*
X0162495Y0245533D03*
X0162595Y0245533D03*
X0162695Y0245633D03*
X0163995Y0245933D03*
X0164095Y0245933D03*
X0168895Y0246033D03*
X0168995Y0246033D03*
X0169295Y0245933D03*
X0169395Y0245933D03*
X0169495Y0245933D03*
X0169595Y0245933D03*
X0170395Y0245733D03*
X0170495Y0245633D03*
X0170595Y0245633D03*
X0170695Y0245633D03*
X0170795Y0245533D03*
X0170895Y0245533D03*
X0171095Y0245433D03*
X0171195Y0245433D03*
X0171395Y0245333D03*
X0168095Y0265933D03*
X0143195Y0263033D03*
X0144295Y0248633D03*
X0140995Y0279533D03*
X0139995Y0279533D03*
D22*
X0136595Y0275883D03*
X0136595Y0283183D03*
X0144395Y0283183D03*
X0144395Y0275883D03*
X0141595Y0269483D03*
X0141495Y0269483D03*
X0141395Y0269483D03*
X0141295Y0269583D03*
X0141195Y0269583D03*
X0141095Y0269583D03*
X0140995Y0269583D03*
X0141795Y0269383D03*
X0140995Y0262283D03*
X0140895Y0262283D03*
X0140795Y0262283D03*
X0140695Y0262283D03*
X0140595Y0262283D03*
X0140495Y0262283D03*
X0140395Y0262283D03*
X0140295Y0262283D03*
X0140195Y0262283D03*
X0140095Y0262283D03*
X0139995Y0262283D03*
X0139895Y0262283D03*
X0139795Y0262283D03*
X0139695Y0262283D03*
X0139595Y0262283D03*
X0139495Y0262283D03*
X0139395Y0262283D03*
X0139295Y0262283D03*
X0139195Y0262283D03*
X0139095Y0262283D03*
X0138995Y0262283D03*
X0138895Y0262283D03*
X0138795Y0262283D03*
X0138695Y0262283D03*
X0138595Y0262283D03*
X0138495Y0262283D03*
X0138395Y0262283D03*
X0138295Y0262283D03*
X0138195Y0262283D03*
X0138095Y0262283D03*
X0137995Y0262283D03*
X0137895Y0262283D03*
X0137795Y0262283D03*
X0137695Y0262283D03*
X0137595Y0262283D03*
X0137495Y0262283D03*
X0137395Y0262283D03*
X0137295Y0262283D03*
X0137195Y0262283D03*
X0137095Y0262283D03*
X0136995Y0262283D03*
X0136895Y0262283D03*
X0136795Y0262283D03*
X0136695Y0262283D03*
X0139695Y0259083D03*
X0140295Y0259183D03*
X0140395Y0259183D03*
X0140495Y0259183D03*
X0140595Y0259183D03*
X0140695Y0259183D03*
X0143595Y0262283D03*
X0141895Y0252083D03*
X0141695Y0251983D03*
X0141595Y0251983D03*
X0141395Y0251883D03*
X0141295Y0251883D03*
X0141095Y0251783D03*
X0140995Y0251783D03*
X0140895Y0251783D03*
X0140795Y0251783D03*
X0140695Y0251783D03*
X0140595Y0251783D03*
X0140495Y0251783D03*
X0140395Y0251783D03*
X0140295Y0251783D03*
X0140195Y0251783D03*
X0140095Y0251783D03*
X0139995Y0251783D03*
X0139795Y0251883D03*
X0139695Y0251883D03*
X0139595Y0251883D03*
X0139495Y0251883D03*
X0139495Y0245683D03*
X0139395Y0245683D03*
X0139295Y0245683D03*
X0139195Y0245683D03*
X0139095Y0245683D03*
X0138995Y0245683D03*
X0138895Y0245683D03*
X0138795Y0245683D03*
X0138695Y0245683D03*
X0138595Y0245683D03*
X0138495Y0245683D03*
X0138395Y0245683D03*
X0138295Y0245683D03*
X0138195Y0245683D03*
X0138095Y0245683D03*
X0137995Y0245683D03*
X0137895Y0245683D03*
X0137795Y0245683D03*
X0137695Y0245683D03*
X0137595Y0245683D03*
X0137495Y0245683D03*
X0137395Y0245683D03*
X0137295Y0245683D03*
X0137195Y0245683D03*
X0137095Y0245683D03*
X0136995Y0245683D03*
X0136895Y0245683D03*
X0136795Y0245683D03*
X0136695Y0245683D03*
X0139595Y0245683D03*
X0139695Y0245683D03*
X0139795Y0245683D03*
X0139895Y0245683D03*
X0139995Y0245683D03*
X0140095Y0245683D03*
X0140195Y0245683D03*
X0140295Y0245683D03*
X0140395Y0245683D03*
X0140495Y0245683D03*
X0140595Y0245683D03*
X0140695Y0245683D03*
X0140795Y0245683D03*
X0140895Y0245683D03*
X0136295Y0242583D03*
X0139095Y0239583D03*
X0139395Y0239483D03*
X0139495Y0239483D03*
X0139595Y0239483D03*
X0139695Y0239483D03*
X0139795Y0239483D03*
X0139895Y0239483D03*
X0139995Y0239483D03*
X0140095Y0239483D03*
X0140195Y0239483D03*
X0140295Y0239483D03*
X0140395Y0239483D03*
X0140495Y0239483D03*
X0140595Y0239483D03*
X0140695Y0239483D03*
X0140695Y0235783D03*
X0140595Y0235783D03*
X0140495Y0235783D03*
X0140395Y0235783D03*
X0140295Y0235783D03*
X0140195Y0235783D03*
X0140795Y0235783D03*
X0141695Y0235583D03*
X0139295Y0235583D03*
X0139395Y0228583D03*
X0139495Y0228483D03*
X0139595Y0228483D03*
X0139695Y0228483D03*
X0139795Y0228483D03*
X0139995Y0228383D03*
X0140095Y0228383D03*
X0140195Y0228383D03*
X0140295Y0228383D03*
X0140395Y0228383D03*
X0140495Y0228383D03*
X0140595Y0228383D03*
X0140695Y0228383D03*
X0140795Y0228383D03*
X0140895Y0228383D03*
X0140995Y0228383D03*
X0141195Y0228483D03*
X0141295Y0228483D03*
X0141395Y0228483D03*
X0141595Y0228583D03*
X0141695Y0228583D03*
X0141895Y0228683D03*
X0136295Y0225783D03*
X0138895Y0222783D03*
X0138995Y0222783D03*
X0139095Y0222683D03*
X0139195Y0222683D03*
X0139295Y0222683D03*
X0140695Y0222583D03*
X0140795Y0222583D03*
X0140895Y0222583D03*
X0140995Y0222583D03*
X0141095Y0222583D03*
X0141195Y0222583D03*
X0141295Y0222583D03*
X0141395Y0222583D03*
X0141495Y0222583D03*
X0141595Y0222583D03*
X0141695Y0222583D03*
X0141795Y0222583D03*
X0141895Y0222583D03*
X0141995Y0222583D03*
X0142095Y0222583D03*
X0142195Y0222583D03*
X0142295Y0222583D03*
X0142395Y0222583D03*
X0142495Y0222583D03*
X0142595Y0222583D03*
X0142695Y0222583D03*
X0142795Y0222583D03*
X0142895Y0222583D03*
X0142995Y0222583D03*
X0143095Y0222583D03*
X0143195Y0222583D03*
X0143295Y0222583D03*
X0143395Y0222583D03*
X0143495Y0222583D03*
X0144895Y0222583D03*
X0144995Y0222583D03*
X0145095Y0222583D03*
X0145195Y0222583D03*
X0145295Y0222583D03*
X0145395Y0222583D03*
X0145495Y0222583D03*
X0145595Y0222583D03*
X0145695Y0222583D03*
X0145795Y0222583D03*
X0145895Y0222583D03*
X0145995Y0222583D03*
X0146095Y0222583D03*
X0146195Y0222583D03*
X0146295Y0222583D03*
X0146395Y0222583D03*
X0146495Y0222583D03*
X0146595Y0222583D03*
X0146695Y0222583D03*
X0146795Y0222583D03*
X0146895Y0222583D03*
X0146995Y0222583D03*
X0147095Y0222583D03*
X0147195Y0222583D03*
X0147295Y0222583D03*
X0147395Y0222583D03*
X0147495Y0222583D03*
X0147595Y0222583D03*
X0147695Y0222583D03*
X0147795Y0222583D03*
X0147895Y0222583D03*
X0147995Y0222583D03*
X0141395Y0218783D03*
X0141295Y0218783D03*
X0141195Y0218883D03*
X0141095Y0218883D03*
X0140995Y0218883D03*
X0140895Y0218883D03*
X0140795Y0218883D03*
X0140695Y0218883D03*
X0140595Y0218883D03*
X0140495Y0218883D03*
X0140395Y0218883D03*
X0140295Y0218883D03*
X0140195Y0218883D03*
X0140095Y0218883D03*
X0139995Y0218883D03*
X0139895Y0218883D03*
X0139795Y0218883D03*
X0139695Y0218783D03*
X0139595Y0218783D03*
X0139495Y0218783D03*
X0139795Y0211583D03*
X0139895Y0211583D03*
X0139995Y0211583D03*
X0140095Y0211583D03*
X0140195Y0211583D03*
X0140295Y0211583D03*
X0140395Y0211583D03*
X0140495Y0211583D03*
X0140595Y0211583D03*
X0140695Y0211583D03*
X0140795Y0211583D03*
X0140895Y0211583D03*
X0140995Y0211583D03*
X0141095Y0211583D03*
X0141195Y0211583D03*
X0141195Y0207983D03*
X0141095Y0207983D03*
X0140995Y0207983D03*
X0140895Y0207983D03*
X0140795Y0207983D03*
X0140695Y0207983D03*
X0140595Y0207983D03*
X0140495Y0207983D03*
X0140395Y0207983D03*
X0140295Y0207983D03*
X0140195Y0207983D03*
X0140095Y0207983D03*
X0139995Y0207983D03*
X0139895Y0207983D03*
X0141295Y0207983D03*
X0141395Y0207983D03*
X0141495Y0207983D03*
X0141595Y0207983D03*
X0141695Y0207983D03*
X0141795Y0207983D03*
X0141895Y0207983D03*
X0141995Y0207983D03*
X0142095Y0207983D03*
X0142195Y0207983D03*
X0142295Y0207983D03*
X0142395Y0207983D03*
X0142495Y0207983D03*
X0142595Y0207983D03*
X0142695Y0207983D03*
X0142795Y0207983D03*
X0142895Y0207983D03*
X0142995Y0207983D03*
X0143095Y0207983D03*
X0143195Y0207983D03*
X0143295Y0207983D03*
X0143395Y0207983D03*
X0143495Y0207983D03*
X0143595Y0207983D03*
X0143695Y0207983D03*
X0143795Y0207983D03*
X0143895Y0207983D03*
X0143995Y0207983D03*
X0144095Y0207983D03*
X0144195Y0207983D03*
X0144295Y0207983D03*
X0140095Y0200683D03*
X0139995Y0200683D03*
X0139895Y0200683D03*
X0139795Y0200683D03*
X0139695Y0200683D03*
X0139495Y0200783D03*
X0139395Y0200783D03*
X0139295Y0200883D03*
X0137395Y0207983D03*
X0137295Y0207983D03*
X0137195Y0207983D03*
X0137095Y0207983D03*
X0136995Y0207983D03*
X0136895Y0207983D03*
X0136795Y0207983D03*
X0136695Y0207983D03*
X0136595Y0207983D03*
X0136495Y0207983D03*
X0136395Y0207983D03*
X0136095Y0207883D03*
X0135995Y0207883D03*
X0135895Y0207883D03*
X0135695Y0207783D03*
X0135595Y0207783D03*
X0135595Y0211583D03*
X0135495Y0211583D03*
X0135395Y0211583D03*
X0135295Y0211583D03*
X0135195Y0211583D03*
X0135095Y0211583D03*
X0134995Y0211583D03*
X0134895Y0211583D03*
X0134795Y0211583D03*
X0134695Y0211583D03*
X0134595Y0211583D03*
X0134495Y0211583D03*
X0134395Y0211583D03*
X0134295Y0211583D03*
X0134195Y0211583D03*
X0134095Y0211583D03*
X0133995Y0211583D03*
X0133895Y0211583D03*
X0133795Y0211583D03*
X0133695Y0211583D03*
X0133595Y0211583D03*
X0133495Y0211583D03*
X0133395Y0211583D03*
X0133295Y0211583D03*
X0133195Y0211583D03*
X0133095Y0211583D03*
X0135695Y0211583D03*
X0135795Y0211583D03*
X0135895Y0211583D03*
X0135995Y0211583D03*
X0136095Y0211583D03*
X0136195Y0211583D03*
X0136295Y0211583D03*
X0136395Y0211583D03*
X0136495Y0211583D03*
X0136595Y0211583D03*
X0136695Y0211583D03*
X0136795Y0211583D03*
X0136895Y0211583D03*
X0136995Y0211583D03*
X0137095Y0211583D03*
X0137195Y0211583D03*
X0140695Y0194383D03*
X0140795Y0194383D03*
X0140895Y0194383D03*
X0140995Y0194383D03*
X0141095Y0194383D03*
X0141195Y0194383D03*
X0142595Y0191183D03*
X0138395Y0191183D03*
X0138895Y0184983D03*
X0139095Y0184883D03*
X0139295Y0184783D03*
X0139495Y0184683D03*
X0139595Y0184683D03*
X0139695Y0184683D03*
X0139895Y0184583D03*
X0139995Y0184583D03*
X0140095Y0184583D03*
X0140195Y0184583D03*
X0140295Y0184583D03*
X0140395Y0184583D03*
X0140595Y0184583D03*
X0140695Y0184583D03*
X0140795Y0184583D03*
X0140895Y0184583D03*
X0140995Y0184583D03*
X0141095Y0184583D03*
X0141195Y0184583D03*
X0141295Y0184683D03*
X0141395Y0184683D03*
X0141695Y0184783D03*
X0168195Y0201683D03*
X0171195Y0200883D03*
X0179695Y0201183D03*
X0160795Y0233383D03*
X0160695Y0233383D03*
X0160595Y0233383D03*
X0160495Y0233383D03*
X0160395Y0233383D03*
X0160295Y0233383D03*
X0160195Y0233383D03*
X0160095Y0233383D03*
X0159995Y0233383D03*
X0159895Y0233383D03*
X0159795Y0233383D03*
X0159695Y0233383D03*
X0159595Y0233383D03*
X0159495Y0233383D03*
X0159395Y0233383D03*
X0159295Y0233383D03*
X0159195Y0233383D03*
X0159095Y0233383D03*
X0158995Y0233383D03*
X0158895Y0233383D03*
X0158795Y0233383D03*
X0158695Y0233383D03*
X0158595Y0233383D03*
X0158495Y0233383D03*
X0158395Y0233383D03*
X0158295Y0233383D03*
X0158195Y0233383D03*
X0158095Y0233383D03*
X0157995Y0233383D03*
X0157895Y0233383D03*
X0157795Y0233383D03*
X0157695Y0233383D03*
X0157595Y0233383D03*
X0157495Y0233383D03*
X0157395Y0233383D03*
X0157295Y0233383D03*
X0157195Y0233383D03*
X0157095Y0233383D03*
X0156995Y0233383D03*
X0156895Y0233383D03*
X0156795Y0233383D03*
X0156695Y0233383D03*
X0156595Y0233383D03*
X0156495Y0233383D03*
X0156395Y0233383D03*
X0156295Y0233383D03*
X0156195Y0233383D03*
X0156095Y0233383D03*
X0155995Y0233383D03*
X0155895Y0233383D03*
X0155795Y0233383D03*
X0155695Y0233383D03*
X0155595Y0233383D03*
X0155495Y0233383D03*
X0155395Y0233383D03*
X0155295Y0233383D03*
X0155195Y0233383D03*
X0155095Y0233383D03*
X0154995Y0233383D03*
X0154895Y0233383D03*
X0154795Y0233383D03*
X0154695Y0233383D03*
X0154595Y0233383D03*
X0154495Y0233383D03*
X0154395Y0233383D03*
X0154295Y0233383D03*
X0154195Y0233383D03*
X0154095Y0233383D03*
X0153995Y0233383D03*
X0153895Y0233383D03*
X0153795Y0233383D03*
X0153695Y0233383D03*
X0153595Y0233383D03*
X0153495Y0233383D03*
X0153395Y0233383D03*
X0153295Y0233383D03*
X0153195Y0233383D03*
X0153095Y0233383D03*
X0152995Y0233383D03*
X0152895Y0233383D03*
X0152795Y0233383D03*
X0152695Y0233383D03*
X0152595Y0233383D03*
X0152495Y0233383D03*
X0152395Y0233383D03*
X0152295Y0233383D03*
X0152195Y0233383D03*
X0152095Y0233383D03*
X0151995Y0233383D03*
X0151895Y0233383D03*
X0151795Y0233383D03*
X0151695Y0233383D03*
X0151595Y0233383D03*
X0151495Y0233383D03*
X0151395Y0233383D03*
X0151295Y0233383D03*
X0151195Y0233383D03*
X0151095Y0233383D03*
X0150995Y0233383D03*
X0150895Y0233383D03*
X0150795Y0233383D03*
X0150695Y0233383D03*
X0150595Y0233383D03*
X0150495Y0233383D03*
X0150395Y0233383D03*
X0150295Y0233383D03*
X0150195Y0233383D03*
X0150095Y0233383D03*
X0149995Y0233383D03*
X0149895Y0233383D03*
X0149795Y0233383D03*
X0149695Y0233383D03*
X0149595Y0233383D03*
X0149495Y0233383D03*
X0149395Y0233383D03*
X0149295Y0233383D03*
X0149195Y0233383D03*
X0149095Y0233383D03*
X0148995Y0233383D03*
X0148895Y0233383D03*
X0148795Y0233383D03*
X0148695Y0233383D03*
X0148595Y0233383D03*
X0148495Y0233383D03*
X0148395Y0233383D03*
X0148295Y0233383D03*
X0148195Y0233383D03*
X0148095Y0233383D03*
X0147995Y0233383D03*
X0147895Y0233383D03*
X0147795Y0233383D03*
X0147695Y0233383D03*
X0149095Y0235583D03*
X0149195Y0235583D03*
X0149295Y0235583D03*
X0149395Y0235583D03*
X0149495Y0235583D03*
X0149595Y0235583D03*
X0149695Y0235583D03*
X0149795Y0235583D03*
X0149895Y0235583D03*
X0149995Y0235583D03*
X0150095Y0235583D03*
X0150195Y0235583D03*
X0150295Y0235583D03*
X0150395Y0235583D03*
X0150495Y0235583D03*
X0150595Y0235583D03*
X0150695Y0235583D03*
X0150795Y0235583D03*
X0150895Y0235583D03*
X0150995Y0235583D03*
X0151095Y0235583D03*
X0151195Y0235583D03*
X0151295Y0235583D03*
X0151395Y0235583D03*
X0151495Y0235583D03*
X0151595Y0235583D03*
X0151695Y0235583D03*
X0151795Y0235583D03*
X0151895Y0235583D03*
X0151995Y0235583D03*
X0152095Y0235583D03*
X0152195Y0235583D03*
X0152295Y0235583D03*
X0152395Y0235583D03*
X0152495Y0235583D03*
X0152595Y0235583D03*
X0152695Y0235583D03*
X0152795Y0235583D03*
X0152895Y0235583D03*
X0152995Y0235583D03*
X0153095Y0235583D03*
X0153195Y0235583D03*
X0153295Y0235583D03*
X0153395Y0235583D03*
X0153495Y0235583D03*
X0153595Y0235583D03*
X0153695Y0235583D03*
X0153795Y0235583D03*
X0153895Y0235583D03*
X0153995Y0235583D03*
X0154095Y0235583D03*
X0154195Y0235583D03*
X0154295Y0235583D03*
X0154395Y0235583D03*
X0154495Y0235583D03*
X0154595Y0235583D03*
X0154695Y0235583D03*
X0154795Y0235583D03*
X0154895Y0235583D03*
X0154995Y0235583D03*
X0155095Y0235583D03*
X0155195Y0235583D03*
X0155295Y0235583D03*
X0155395Y0235583D03*
X0155495Y0235583D03*
X0155595Y0235583D03*
X0155695Y0235583D03*
X0155795Y0235583D03*
X0155895Y0235583D03*
X0155995Y0235583D03*
X0156095Y0235583D03*
X0156195Y0235583D03*
X0156295Y0235583D03*
X0156395Y0235583D03*
X0156495Y0235583D03*
X0156595Y0235583D03*
X0156695Y0235583D03*
X0156795Y0235583D03*
X0156895Y0235583D03*
X0156995Y0235583D03*
X0157095Y0235583D03*
X0157195Y0235583D03*
X0157295Y0235583D03*
X0157395Y0235583D03*
X0157495Y0235583D03*
X0157595Y0235583D03*
X0157695Y0235583D03*
X0157795Y0235583D03*
X0157895Y0235583D03*
X0157995Y0235583D03*
X0158095Y0235583D03*
X0158195Y0235583D03*
X0158295Y0235583D03*
X0158395Y0235583D03*
X0158495Y0235583D03*
X0158595Y0235583D03*
X0158695Y0235583D03*
X0158795Y0235583D03*
X0158895Y0235583D03*
X0158995Y0235583D03*
X0159095Y0235583D03*
X0159195Y0235583D03*
X0159295Y0235583D03*
X0159395Y0235583D03*
X0159495Y0235583D03*
X0159595Y0235583D03*
X0159695Y0235583D03*
X0159795Y0235583D03*
X0159895Y0235583D03*
X0159995Y0235583D03*
X0160095Y0235583D03*
X0160195Y0235583D03*
X0160295Y0235583D03*
X0160395Y0235583D03*
X0160495Y0235583D03*
X0160595Y0235583D03*
X0160695Y0235583D03*
X0160795Y0235583D03*
X0168195Y0265283D03*
X0171195Y0266183D03*
X0156795Y0271783D03*
D23*
X0141095Y0279483D03*
X0139895Y0279483D03*
X0161795Y0245283D03*
X0161895Y0245283D03*
X0162095Y0245383D03*
X0161595Y0245183D03*
X0161495Y0245183D03*
X0161395Y0245083D03*
X0155795Y0241283D03*
X0170995Y0245483D03*
X0171295Y0245383D03*
X0171495Y0245283D03*
X0171595Y0245283D03*
X0171695Y0245183D03*
X0171795Y0245183D03*
X0171895Y0245083D03*
X0171995Y0245083D03*
X0172195Y0244983D03*
X0155695Y0225383D03*
X0160795Y0221783D03*
X0161595Y0221483D03*
X0161695Y0221383D03*
X0161795Y0221383D03*
X0161895Y0221383D03*
X0161995Y0221283D03*
X0162095Y0221283D03*
X0162295Y0221183D03*
X0170395Y0220983D03*
X0170495Y0220983D03*
X0170595Y0221083D03*
X0170695Y0221083D03*
X0170895Y0221183D03*
X0170995Y0221183D03*
X0171195Y0221283D03*
X0144195Y0197183D03*
X0133195Y0205083D03*
X0137695Y0212383D03*
X0136795Y0225283D03*
X0136795Y0242083D03*
D24*
X0136895Y0242033D03*
X0155895Y0241333D03*
X0160795Y0244833D03*
X0160895Y0244833D03*
X0160995Y0244933D03*
X0161095Y0244933D03*
X0161195Y0245033D03*
X0161295Y0245033D03*
X0172095Y0245033D03*
X0172295Y0244933D03*
X0172395Y0244833D03*
X0155795Y0225333D03*
X0160495Y0222033D03*
X0160595Y0221933D03*
X0160695Y0221933D03*
X0160895Y0221733D03*
X0160995Y0221733D03*
X0161095Y0221733D03*
X0161195Y0221633D03*
X0161295Y0221633D03*
X0161395Y0221533D03*
X0161495Y0221533D03*
X0170795Y0221133D03*
X0171095Y0221233D03*
X0171295Y0221333D03*
X0171395Y0221333D03*
X0171495Y0221433D03*
X0171595Y0221433D03*
X0171695Y0221433D03*
X0171795Y0221533D03*
X0171895Y0221533D03*
X0172095Y0221633D03*
X0172295Y0221733D03*
X0172395Y0221733D03*
X0172495Y0221833D03*
X0143295Y0195233D03*
X0136495Y0188233D03*
X0136495Y0204233D03*
X0137695Y0207133D03*
X0133295Y0205233D03*
D25*
X0133395Y0205283D03*
X0137595Y0212483D03*
X0143295Y0212483D03*
X0144495Y0215283D03*
X0136995Y0225083D03*
X0136895Y0225183D03*
X0136495Y0232083D03*
X0136995Y0241983D03*
X0143295Y0246583D03*
X0144195Y0248583D03*
X0136495Y0255483D03*
X0144495Y0265983D03*
X0141195Y0279483D03*
X0139795Y0279483D03*
X0172495Y0244783D03*
X0172595Y0244783D03*
X0155995Y0241383D03*
X0155895Y0225283D03*
X0159995Y0222283D03*
X0160195Y0222183D03*
X0160295Y0222083D03*
X0160395Y0222083D03*
X0171995Y0221583D03*
X0172195Y0221683D03*
X0172595Y0221883D03*
X0172695Y0221983D03*
X0172795Y0221983D03*
X0172895Y0222083D03*
X0172995Y0222083D03*
X0173095Y0222183D03*
X0173295Y0222283D03*
X0144095Y0197083D03*
D26*
X0143895Y0196983D03*
X0133495Y0205383D03*
X0137395Y0224683D03*
X0137295Y0224883D03*
X0137195Y0224983D03*
X0137095Y0224983D03*
X0137395Y0241483D03*
X0137295Y0241683D03*
X0137195Y0241783D03*
X0143395Y0246683D03*
X0143995Y0248383D03*
X0156095Y0241383D03*
X0159495Y0244083D03*
X0159595Y0244183D03*
X0159695Y0244183D03*
X0159795Y0244283D03*
X0159895Y0244283D03*
X0159995Y0244383D03*
X0160095Y0244383D03*
X0160195Y0244483D03*
X0160395Y0244583D03*
X0173095Y0244483D03*
X0173295Y0244383D03*
X0173395Y0244283D03*
X0173795Y0244083D03*
X0173895Y0243983D03*
X0173895Y0222683D03*
X0173795Y0222583D03*
X0173595Y0222483D03*
X0159695Y0222483D03*
X0159495Y0222583D03*
X0159395Y0222683D03*
X0159295Y0222783D03*
X0139695Y0279483D03*
D27*
X0143295Y0263233D03*
X0144495Y0255533D03*
X0144095Y0248533D03*
X0143595Y0248033D03*
X0137095Y0241833D03*
X0144495Y0232133D03*
X0155995Y0225233D03*
X0159595Y0222533D03*
X0159795Y0222433D03*
X0159895Y0222333D03*
X0160095Y0222233D03*
X0173195Y0222233D03*
X0173395Y0222333D03*
X0173495Y0222433D03*
X0173695Y0222533D03*
X0173695Y0244133D03*
X0173595Y0244233D03*
X0173495Y0244233D03*
X0173195Y0244433D03*
X0172995Y0244533D03*
X0172895Y0244633D03*
X0172795Y0244633D03*
X0172695Y0244733D03*
X0160695Y0244733D03*
X0160595Y0244733D03*
X0160495Y0244633D03*
X0160295Y0244533D03*
X0136495Y0215233D03*
X0137595Y0207033D03*
X0133595Y0205633D03*
X0143995Y0197033D03*
X0143395Y0195333D03*
X0144495Y0188233D03*
D28*
X0143295Y0185983D03*
X0143295Y0190483D03*
X0142695Y0194783D03*
X0137595Y0190383D03*
X0137595Y0202083D03*
X0138395Y0207583D03*
X0138495Y0207583D03*
X0133895Y0206483D03*
X0138395Y0211983D03*
X0142595Y0211983D03*
X0137595Y0217383D03*
X0137695Y0223683D03*
X0143395Y0230083D03*
X0143295Y0234283D03*
X0137695Y0240483D03*
X0136495Y0242383D03*
X0142595Y0246083D03*
X0143295Y0253283D03*
X0143295Y0257683D03*
X0142595Y0262683D03*
X0143295Y0268183D03*
X0153595Y0271783D03*
X0156595Y0271783D03*
X0137595Y0253283D03*
X0176495Y0201183D03*
X0179395Y0201183D03*
X0156595Y0195283D03*
X0153595Y0195283D03*
D29*
X0153495Y0195283D03*
X0144695Y0188183D03*
X0142395Y0194683D03*
X0137795Y0190683D03*
X0137695Y0190583D03*
X0134095Y0206783D03*
X0138695Y0207683D03*
X0138695Y0211883D03*
X0142295Y0211883D03*
X0144695Y0215283D03*
X0143195Y0217683D03*
X0137795Y0217683D03*
X0137695Y0217583D03*
X0137795Y0223583D03*
X0137795Y0229683D03*
X0143195Y0229683D03*
X0143195Y0234583D03*
X0137795Y0240383D03*
X0142295Y0245983D03*
X0142395Y0245983D03*
X0144595Y0248983D03*
X0143195Y0253083D03*
X0137795Y0253083D03*
X0137695Y0253183D03*
X0137795Y0257883D03*
X0142195Y0262583D03*
X0142295Y0262583D03*
X0144695Y0265983D03*
X0143195Y0268483D03*
X0143795Y0276183D03*
X0137195Y0276183D03*
X0153495Y0271783D03*
X0170995Y0266183D03*
X0176395Y0201183D03*
X0179495Y0201183D03*
X0170995Y0200883D03*
D30*
X0164595Y0199733D03*
X0161395Y0199733D03*
X0143195Y0190733D03*
X0143095Y0190833D03*
X0142295Y0194633D03*
X0142195Y0194633D03*
X0137995Y0190933D03*
X0137895Y0190833D03*
X0137795Y0185833D03*
X0137895Y0185733D03*
X0137995Y0185633D03*
X0143095Y0185733D03*
X0143195Y0185833D03*
X0137895Y0201733D03*
X0137795Y0201833D03*
X0138795Y0207733D03*
X0138895Y0207733D03*
X0134295Y0206933D03*
X0134195Y0206833D03*
X0138795Y0211833D03*
X0138895Y0211833D03*
X0142195Y0211833D03*
X0143095Y0217833D03*
X0142995Y0217933D03*
X0137995Y0217933D03*
X0137895Y0217833D03*
X0136295Y0215233D03*
X0137995Y0223333D03*
X0137895Y0223433D03*
X0136395Y0225633D03*
X0137895Y0229533D03*
X0136295Y0232033D03*
X0137895Y0234633D03*
X0137995Y0234733D03*
X0143095Y0234633D03*
X0137995Y0240133D03*
X0137895Y0240233D03*
X0136395Y0242433D03*
X0142095Y0245933D03*
X0142195Y0245933D03*
X0142995Y0252833D03*
X0143095Y0252933D03*
X0143195Y0257933D03*
X0143095Y0258033D03*
X0142095Y0262533D03*
X0137995Y0258133D03*
X0137895Y0258033D03*
X0136295Y0255433D03*
X0137895Y0252933D03*
X0143095Y0268533D03*
X0143895Y0276133D03*
X0143695Y0276233D03*
X0143595Y0276333D03*
X0143495Y0276433D03*
X0143395Y0276533D03*
X0143295Y0276633D03*
X0143195Y0276833D03*
X0143095Y0276933D03*
X0142995Y0277033D03*
X0142895Y0277133D03*
X0142795Y0277233D03*
X0142695Y0277333D03*
X0142595Y0277433D03*
X0142495Y0277533D03*
X0142395Y0277633D03*
X0142295Y0277733D03*
X0142195Y0277833D03*
X0142095Y0277933D03*
X0141995Y0278033D03*
X0141895Y0278133D03*
X0141795Y0278133D03*
X0141695Y0278233D03*
X0141595Y0278333D03*
X0141495Y0278433D03*
X0140495Y0279533D03*
X0141495Y0280533D03*
X0141595Y0280633D03*
X0141695Y0280733D03*
X0141795Y0280833D03*
X0141895Y0280933D03*
X0141995Y0281033D03*
X0142095Y0281133D03*
X0142195Y0281233D03*
X0142295Y0281333D03*
X0142395Y0281433D03*
X0142495Y0281533D03*
X0142595Y0281633D03*
X0142695Y0281733D03*
X0142795Y0281833D03*
X0142895Y0281933D03*
X0142995Y0281933D03*
X0143095Y0282033D03*
X0143195Y0282133D03*
X0143295Y0282333D03*
X0143395Y0282433D03*
X0143495Y0282533D03*
X0143595Y0282633D03*
X0143695Y0282733D03*
X0143795Y0282833D03*
X0139395Y0280533D03*
X0139295Y0280733D03*
X0139195Y0280833D03*
X0139095Y0280933D03*
X0138995Y0281033D03*
X0138895Y0281133D03*
X0138795Y0281233D03*
X0138695Y0281333D03*
X0138595Y0281433D03*
X0138495Y0281533D03*
X0138395Y0281633D03*
X0138295Y0281733D03*
X0138195Y0281833D03*
X0138095Y0281933D03*
X0137995Y0281933D03*
X0137895Y0282033D03*
X0137795Y0282133D03*
X0137695Y0282233D03*
X0137595Y0282333D03*
X0137495Y0282433D03*
X0137395Y0282633D03*
X0137295Y0282733D03*
X0137195Y0282833D03*
X0139395Y0278433D03*
X0139295Y0278233D03*
X0139195Y0278133D03*
X0139095Y0278133D03*
X0138995Y0278033D03*
X0138895Y0277933D03*
X0138795Y0277833D03*
X0138695Y0277733D03*
X0138595Y0277633D03*
X0138495Y0277533D03*
X0138395Y0277433D03*
X0138295Y0277333D03*
X0138195Y0277233D03*
X0138095Y0277133D03*
X0137995Y0277033D03*
X0137895Y0276933D03*
X0137795Y0276833D03*
X0137695Y0276733D03*
X0137595Y0276633D03*
X0137495Y0276533D03*
X0137395Y0276333D03*
X0137295Y0276233D03*
X0137095Y0276133D03*
X0161395Y0267233D03*
X0164595Y0267233D03*
X0155095Y0241133D03*
X0143095Y0229533D03*
X0142995Y0229433D03*
X0155095Y0225533D03*
D31*
X0142595Y0229133D03*
X0142495Y0229033D03*
X0138195Y0229233D03*
X0138195Y0234933D03*
X0138295Y0235033D03*
X0138395Y0235133D03*
X0142595Y0235133D03*
X0142695Y0235033D03*
X0142795Y0234933D03*
X0138595Y0239733D03*
X0138395Y0239833D03*
X0141795Y0245833D03*
X0141895Y0245833D03*
X0142495Y0252433D03*
X0142695Y0252533D03*
X0142795Y0252633D03*
X0138495Y0252433D03*
X0138195Y0252633D03*
X0138195Y0258333D03*
X0138295Y0258433D03*
X0138395Y0258533D03*
X0138795Y0258733D03*
X0142195Y0258733D03*
X0142595Y0258533D03*
X0142695Y0258433D03*
X0142795Y0258333D03*
X0141795Y0262433D03*
X0141695Y0262433D03*
X0142695Y0268833D03*
X0142795Y0268833D03*
X0142595Y0268933D03*
X0144095Y0276033D03*
X0144095Y0283033D03*
X0136895Y0283033D03*
X0136895Y0276033D03*
X0176295Y0265833D03*
X0179595Y0265833D03*
X0142695Y0218233D03*
X0142795Y0218133D03*
X0142895Y0218033D03*
X0142495Y0218333D03*
X0142295Y0218433D03*
X0142095Y0218533D03*
X0138695Y0218433D03*
X0138295Y0218233D03*
X0138195Y0218133D03*
X0138095Y0218033D03*
X0139095Y0211733D03*
X0139195Y0211733D03*
X0141795Y0211733D03*
X0141895Y0211733D03*
X0139295Y0207833D03*
X0139195Y0207833D03*
X0136295Y0204233D03*
X0134595Y0207133D03*
X0134695Y0207233D03*
X0138195Y0201433D03*
X0138295Y0201333D03*
X0138395Y0201333D03*
X0138495Y0201233D03*
X0138595Y0201133D03*
X0138695Y0201133D03*
X0141895Y0194533D03*
X0141995Y0194533D03*
X0142895Y0191033D03*
X0138095Y0191033D03*
X0138095Y0185533D03*
X0138195Y0185433D03*
X0138295Y0185333D03*
X0142695Y0185333D03*
X0142795Y0185433D03*
D32*
X0142595Y0185283D03*
X0142495Y0185183D03*
X0142295Y0185083D03*
X0138695Y0185083D03*
X0138495Y0185183D03*
X0138395Y0185283D03*
X0138195Y0191083D03*
X0142795Y0191083D03*
X0141795Y0194483D03*
X0141695Y0194483D03*
X0141595Y0194483D03*
X0138995Y0200983D03*
X0138895Y0200983D03*
X0138795Y0201083D03*
X0139395Y0207883D03*
X0139395Y0211683D03*
X0139295Y0211683D03*
X0141595Y0211683D03*
X0141695Y0211683D03*
X0142595Y0218283D03*
X0142395Y0218383D03*
X0142195Y0218483D03*
X0141995Y0218583D03*
X0141895Y0218683D03*
X0141795Y0218683D03*
X0139195Y0218683D03*
X0138995Y0218583D03*
X0138895Y0218583D03*
X0138795Y0218483D03*
X0138595Y0218383D03*
X0138495Y0218383D03*
X0138395Y0218283D03*
X0138595Y0222883D03*
X0138495Y0222983D03*
X0138395Y0222983D03*
X0138295Y0223083D03*
X0138695Y0228883D03*
X0138595Y0228983D03*
X0138495Y0229083D03*
X0138395Y0229083D03*
X0138295Y0229183D03*
X0142095Y0228783D03*
X0142295Y0228883D03*
X0142395Y0228983D03*
X0142495Y0235183D03*
X0142395Y0235283D03*
X0142295Y0235283D03*
X0142195Y0235383D03*
X0138795Y0235383D03*
X0138695Y0235283D03*
X0138595Y0235283D03*
X0138495Y0235183D03*
X0138695Y0239683D03*
X0138795Y0239683D03*
X0138495Y0239783D03*
X0138295Y0239883D03*
X0141395Y0245783D03*
X0141495Y0245783D03*
X0141595Y0245783D03*
X0141695Y0245783D03*
X0144695Y0249083D03*
X0142595Y0252483D03*
X0142395Y0252383D03*
X0142295Y0252283D03*
X0142095Y0252183D03*
X0138695Y0252283D03*
X0138595Y0252383D03*
X0138395Y0252483D03*
X0138295Y0252583D03*
X0138495Y0258583D03*
X0138595Y0258683D03*
X0138695Y0258683D03*
X0138895Y0258783D03*
X0138995Y0258783D03*
X0139095Y0258883D03*
X0139195Y0258883D03*
X0141595Y0258983D03*
X0141795Y0258883D03*
X0141895Y0258883D03*
X0141995Y0258783D03*
X0142095Y0258783D03*
X0142295Y0258683D03*
X0142395Y0258683D03*
X0142495Y0258583D03*
X0141595Y0262383D03*
X0141495Y0262383D03*
X0141395Y0262383D03*
X0142495Y0268983D03*
X0142395Y0269083D03*
X0142195Y0269183D03*
X0144195Y0275983D03*
X0144195Y0283083D03*
X0136795Y0283083D03*
X0136795Y0275983D03*
X0153395Y0271783D03*
X0154995Y0241083D03*
X0154995Y0225583D03*
X0134895Y0207383D03*
X0134795Y0207283D03*
X0153395Y0195283D03*
D33*
X0156795Y0195233D03*
X0161295Y0199733D03*
X0144695Y0197633D03*
X0141495Y0194433D03*
X0141395Y0194433D03*
X0141295Y0194433D03*
X0142695Y0191133D03*
X0138295Y0191133D03*
X0138595Y0185133D03*
X0138795Y0185033D03*
X0138995Y0184933D03*
X0139195Y0184833D03*
X0139395Y0184733D03*
X0141495Y0184733D03*
X0141595Y0184733D03*
X0141795Y0184833D03*
X0141895Y0184833D03*
X0141995Y0184933D03*
X0142095Y0184933D03*
X0142195Y0185033D03*
X0142395Y0185133D03*
X0139595Y0200733D03*
X0139195Y0200933D03*
X0139095Y0200933D03*
X0139495Y0207933D03*
X0139595Y0207933D03*
X0139695Y0207933D03*
X0139795Y0207933D03*
X0139695Y0211633D03*
X0139595Y0211633D03*
X0139495Y0211633D03*
X0141295Y0211633D03*
X0141395Y0211633D03*
X0141495Y0211633D03*
X0135795Y0207833D03*
X0135495Y0207733D03*
X0135395Y0207633D03*
X0135295Y0207633D03*
X0135195Y0207533D03*
X0135095Y0207533D03*
X0134995Y0207433D03*
X0139095Y0218633D03*
X0139295Y0218733D03*
X0139395Y0218733D03*
X0141495Y0218733D03*
X0141595Y0218733D03*
X0141695Y0218733D03*
X0138795Y0222833D03*
X0138695Y0222833D03*
X0139195Y0228633D03*
X0139295Y0228633D03*
X0139095Y0228733D03*
X0138995Y0228733D03*
X0138895Y0228833D03*
X0138795Y0228833D03*
X0141495Y0228533D03*
X0141795Y0228633D03*
X0141995Y0228733D03*
X0142195Y0228833D03*
X0142095Y0235433D03*
X0141995Y0235433D03*
X0141895Y0235533D03*
X0141795Y0235533D03*
X0141595Y0235633D03*
X0141495Y0235633D03*
X0141395Y0235633D03*
X0141295Y0235633D03*
X0141195Y0235733D03*
X0141095Y0235733D03*
X0140995Y0235733D03*
X0140895Y0235733D03*
X0140095Y0235733D03*
X0139995Y0235733D03*
X0139895Y0235733D03*
X0139795Y0235733D03*
X0139695Y0235733D03*
X0139595Y0235633D03*
X0139495Y0235633D03*
X0139395Y0235633D03*
X0139195Y0235533D03*
X0139095Y0235533D03*
X0138995Y0235433D03*
X0138895Y0235433D03*
X0139195Y0239533D03*
X0139295Y0239533D03*
X0138995Y0239633D03*
X0138895Y0239633D03*
X0140795Y0239433D03*
X0140895Y0239433D03*
X0140995Y0239433D03*
X0141095Y0239433D03*
X0141195Y0239433D03*
X0141295Y0239433D03*
X0141395Y0239433D03*
X0141495Y0239433D03*
X0141595Y0239433D03*
X0141695Y0239433D03*
X0141795Y0239433D03*
X0141895Y0239433D03*
X0141995Y0239433D03*
X0142095Y0239433D03*
X0142195Y0239433D03*
X0142295Y0239433D03*
X0142395Y0239433D03*
X0142495Y0239433D03*
X0142595Y0239433D03*
X0142695Y0239433D03*
X0142795Y0239433D03*
X0142895Y0239433D03*
X0142995Y0239433D03*
X0143095Y0239433D03*
X0143195Y0239433D03*
X0143295Y0239433D03*
X0143395Y0239433D03*
X0143495Y0239433D03*
X0144895Y0239433D03*
X0144995Y0239433D03*
X0145095Y0239433D03*
X0145195Y0239433D03*
X0145295Y0239433D03*
X0145395Y0239433D03*
X0145495Y0239433D03*
X0145595Y0239433D03*
X0145695Y0239433D03*
X0145795Y0239433D03*
X0145895Y0239433D03*
X0145995Y0239433D03*
X0146095Y0239433D03*
X0146195Y0239433D03*
X0146295Y0239433D03*
X0146395Y0239433D03*
X0146495Y0239433D03*
X0146595Y0239433D03*
X0146695Y0239433D03*
X0146795Y0239433D03*
X0146895Y0239433D03*
X0146995Y0239433D03*
X0147095Y0239433D03*
X0147195Y0239433D03*
X0147295Y0239433D03*
X0147395Y0239433D03*
X0147495Y0239433D03*
X0147595Y0239433D03*
X0147695Y0239433D03*
X0147795Y0239433D03*
X0147895Y0239433D03*
X0147995Y0239433D03*
X0141295Y0245733D03*
X0141195Y0245733D03*
X0141095Y0245733D03*
X0140995Y0245733D03*
X0141495Y0251933D03*
X0141795Y0252033D03*
X0141995Y0252133D03*
X0142195Y0252233D03*
X0139395Y0251933D03*
X0139295Y0252033D03*
X0139195Y0252033D03*
X0139095Y0252133D03*
X0138995Y0252133D03*
X0138895Y0252233D03*
X0138795Y0252233D03*
X0139295Y0258933D03*
X0139395Y0259033D03*
X0139495Y0259033D03*
X0139595Y0259033D03*
X0139795Y0259133D03*
X0139895Y0259133D03*
X0139995Y0259133D03*
X0140095Y0259133D03*
X0140195Y0259133D03*
X0140795Y0259133D03*
X0140895Y0259133D03*
X0140995Y0259133D03*
X0141095Y0259133D03*
X0141195Y0259133D03*
X0141295Y0259033D03*
X0141395Y0259033D03*
X0141495Y0259033D03*
X0141695Y0258933D03*
X0141295Y0262333D03*
X0141195Y0262333D03*
X0141095Y0262333D03*
X0142295Y0269133D03*
X0142095Y0269233D03*
X0141995Y0269333D03*
X0141895Y0269333D03*
X0141695Y0269433D03*
X0144295Y0275933D03*
X0144295Y0283133D03*
X0136695Y0283133D03*
X0136695Y0275933D03*
X0161295Y0267233D03*
D34*
X0162295Y0265833D03*
X0162395Y0265833D03*
X0162595Y0265733D03*
X0163395Y0265733D03*
X0163495Y0265733D03*
X0163595Y0265833D03*
X0163695Y0265833D03*
X0163295Y0268833D03*
X0163195Y0268833D03*
X0163095Y0268833D03*
X0162995Y0268833D03*
X0162895Y0268833D03*
X0162795Y0268833D03*
X0162695Y0268833D03*
X0162495Y0268733D03*
X0167695Y0266133D03*
X0168695Y0267533D03*
X0168795Y0267633D03*
X0168895Y0267633D03*
X0169195Y0267733D03*
X0169295Y0267733D03*
X0169695Y0267733D03*
X0169795Y0267733D03*
X0170095Y0267633D03*
X0170195Y0267633D03*
X0170295Y0267533D03*
X0170195Y0264733D03*
X0169995Y0264633D03*
X0169895Y0264633D03*
X0169795Y0264633D03*
X0169595Y0264533D03*
X0169495Y0264533D03*
X0169395Y0264533D03*
X0169195Y0264633D03*
X0169095Y0264633D03*
X0168995Y0264633D03*
X0168795Y0264733D03*
X0168795Y0258333D03*
X0168695Y0258333D03*
X0168895Y0258333D03*
X0168995Y0258333D03*
X0169095Y0258333D03*
X0169195Y0258333D03*
X0169295Y0258333D03*
X0169395Y0258333D03*
X0169495Y0258333D03*
X0169595Y0258333D03*
X0169695Y0258333D03*
X0169795Y0258333D03*
X0169895Y0258333D03*
X0169995Y0258333D03*
X0170095Y0258333D03*
X0170195Y0258333D03*
X0170295Y0258333D03*
X0170395Y0258333D03*
X0170495Y0258333D03*
X0170595Y0258333D03*
X0170695Y0258333D03*
X0170795Y0258333D03*
X0170895Y0258333D03*
X0170995Y0258333D03*
X0171095Y0258333D03*
X0171195Y0258333D03*
X0171295Y0258333D03*
X0171395Y0258333D03*
X0171495Y0258333D03*
X0171595Y0258333D03*
X0171695Y0258333D03*
X0171795Y0258333D03*
X0171895Y0258333D03*
X0171995Y0258333D03*
X0172095Y0258333D03*
X0172195Y0258333D03*
X0172295Y0258333D03*
X0172395Y0258333D03*
X0172495Y0258333D03*
X0172595Y0258333D03*
X0172695Y0258333D03*
X0172795Y0258333D03*
X0172895Y0258333D03*
X0172995Y0258333D03*
X0173095Y0258333D03*
X0173195Y0258333D03*
X0173295Y0258333D03*
X0173395Y0258333D03*
X0173495Y0258333D03*
X0173595Y0258333D03*
X0173695Y0258333D03*
X0173795Y0258333D03*
X0173895Y0258333D03*
X0173995Y0258333D03*
X0174095Y0258333D03*
X0174195Y0258333D03*
X0174295Y0258333D03*
X0174395Y0258333D03*
X0174495Y0258333D03*
X0174595Y0258333D03*
X0174695Y0258333D03*
X0174795Y0258333D03*
X0174895Y0258333D03*
X0174995Y0258333D03*
X0175095Y0258333D03*
X0175195Y0258333D03*
X0175295Y0258333D03*
X0175395Y0258333D03*
X0175495Y0258333D03*
X0175595Y0258333D03*
X0175695Y0258333D03*
X0175795Y0258333D03*
X0175895Y0258333D03*
X0175995Y0258333D03*
X0176095Y0258333D03*
X0176195Y0258333D03*
X0176295Y0258333D03*
X0176395Y0258333D03*
X0176495Y0258333D03*
X0176595Y0258333D03*
X0176695Y0258333D03*
X0176795Y0258333D03*
X0176895Y0258333D03*
X0176995Y0258333D03*
X0177095Y0258333D03*
X0177195Y0258333D03*
X0177295Y0258333D03*
X0177395Y0258333D03*
X0177495Y0258333D03*
X0177595Y0258333D03*
X0177695Y0258333D03*
X0177695Y0264233D03*
X0177395Y0264333D03*
X0178495Y0264333D03*
X0178495Y0267333D03*
X0178395Y0267333D03*
X0178295Y0267333D03*
X0177495Y0267333D03*
X0177395Y0267333D03*
X0159895Y0262533D03*
X0159795Y0262533D03*
X0159695Y0262533D03*
X0159595Y0262533D03*
X0159495Y0262533D03*
X0159395Y0262533D03*
X0159295Y0262533D03*
X0159195Y0262533D03*
X0159095Y0262533D03*
X0158995Y0262533D03*
X0158895Y0262533D03*
X0158795Y0262533D03*
X0158695Y0262533D03*
X0158595Y0262533D03*
X0158495Y0262533D03*
X0158395Y0262533D03*
X0158295Y0262533D03*
X0158195Y0262533D03*
X0158095Y0262533D03*
X0157995Y0262533D03*
X0157895Y0262533D03*
X0157795Y0262533D03*
X0157695Y0262533D03*
X0157595Y0262533D03*
X0157495Y0262533D03*
X0157395Y0262533D03*
X0157295Y0262533D03*
X0157195Y0262533D03*
X0157095Y0262533D03*
X0156995Y0262533D03*
X0156895Y0262533D03*
X0156795Y0262533D03*
X0156695Y0262533D03*
X0156595Y0262533D03*
X0156495Y0262533D03*
X0156395Y0262533D03*
X0156295Y0262533D03*
X0156195Y0262533D03*
X0156095Y0262533D03*
X0155995Y0262533D03*
X0155895Y0262533D03*
X0155795Y0262533D03*
X0155695Y0262533D03*
X0155595Y0262533D03*
X0155495Y0262533D03*
X0155395Y0262533D03*
X0155295Y0262533D03*
X0155195Y0262533D03*
X0155095Y0262533D03*
X0155095Y0270133D03*
X0155195Y0270133D03*
X0155395Y0270233D03*
X0155495Y0270233D03*
X0154595Y0270233D03*
X0154195Y0273033D03*
X0154295Y0273133D03*
X0154395Y0273133D03*
X0154495Y0273233D03*
X0154595Y0273233D03*
X0154895Y0273333D03*
X0155195Y0273333D03*
X0155295Y0273333D03*
X0155595Y0273233D03*
X0155695Y0273233D03*
X0155795Y0273133D03*
X0144795Y0275833D03*
X0144795Y0283133D03*
X0144795Y0262233D03*
X0148095Y0231633D03*
X0136195Y0215333D03*
X0155095Y0204433D03*
X0155195Y0204433D03*
X0155295Y0204433D03*
X0155395Y0204433D03*
X0155495Y0204433D03*
X0155595Y0204433D03*
X0155695Y0204433D03*
X0155795Y0204433D03*
X0155895Y0204433D03*
X0155995Y0204433D03*
X0156095Y0204433D03*
X0156195Y0204433D03*
X0156295Y0204433D03*
X0156395Y0204433D03*
X0156495Y0204433D03*
X0156595Y0204433D03*
X0156695Y0204433D03*
X0156795Y0204433D03*
X0156895Y0204433D03*
X0156995Y0204433D03*
X0157095Y0204433D03*
X0157195Y0204433D03*
X0157295Y0204433D03*
X0157395Y0204433D03*
X0157495Y0204433D03*
X0157595Y0204433D03*
X0157695Y0204433D03*
X0157795Y0204433D03*
X0157895Y0204433D03*
X0157995Y0204433D03*
X0158095Y0204433D03*
X0158195Y0204433D03*
X0158295Y0204433D03*
X0158395Y0204433D03*
X0158495Y0204433D03*
X0158595Y0204433D03*
X0158695Y0204433D03*
X0158795Y0204433D03*
X0158895Y0204433D03*
X0158995Y0204433D03*
X0159095Y0204433D03*
X0159195Y0204433D03*
X0159295Y0204433D03*
X0159395Y0204433D03*
X0159495Y0204433D03*
X0159595Y0204433D03*
X0159695Y0204433D03*
X0159795Y0204433D03*
X0159895Y0204433D03*
X0162495Y0201233D03*
X0162695Y0201333D03*
X0163295Y0201333D03*
X0163795Y0198433D03*
X0163695Y0198333D03*
X0163595Y0198333D03*
X0163495Y0198233D03*
X0163395Y0198233D03*
X0162595Y0198233D03*
X0162395Y0198333D03*
X0162295Y0198333D03*
X0162195Y0198433D03*
X0167695Y0200833D03*
X0168695Y0202233D03*
X0168895Y0202333D03*
X0169295Y0202433D03*
X0169395Y0202433D03*
X0169495Y0202433D03*
X0169595Y0202433D03*
X0169695Y0202433D03*
X0170095Y0202333D03*
X0170295Y0202233D03*
X0169995Y0199333D03*
X0169895Y0199333D03*
X0169595Y0199233D03*
X0169495Y0199233D03*
X0169395Y0199233D03*
X0169095Y0199333D03*
X0168995Y0199333D03*
X0177395Y0199733D03*
X0177595Y0199633D03*
X0177695Y0199633D03*
X0177795Y0199633D03*
X0177895Y0199633D03*
X0177995Y0199633D03*
X0178095Y0199633D03*
X0178195Y0199633D03*
X0178495Y0199733D03*
X0178895Y0202433D03*
X0178495Y0202633D03*
X0177695Y0202733D03*
X0177395Y0202633D03*
X0177395Y0208633D03*
X0177295Y0208633D03*
X0177195Y0208633D03*
X0177095Y0208633D03*
X0176995Y0208633D03*
X0176895Y0208633D03*
X0176795Y0208633D03*
X0176695Y0208633D03*
X0176595Y0208633D03*
X0176495Y0208633D03*
X0176395Y0208633D03*
X0176295Y0208633D03*
X0176195Y0208633D03*
X0176095Y0208633D03*
X0175995Y0208633D03*
X0175895Y0208633D03*
X0175795Y0208633D03*
X0175695Y0208633D03*
X0175595Y0208633D03*
X0175495Y0208633D03*
X0175395Y0208633D03*
X0175295Y0208633D03*
X0175195Y0208633D03*
X0175095Y0208633D03*
X0174995Y0208633D03*
X0174895Y0208633D03*
X0174795Y0208633D03*
X0174695Y0208633D03*
X0174595Y0208633D03*
X0174495Y0208633D03*
X0174395Y0208633D03*
X0174295Y0208633D03*
X0174195Y0208633D03*
X0174095Y0208633D03*
X0173995Y0208633D03*
X0173895Y0208633D03*
X0173795Y0208633D03*
X0173695Y0208633D03*
X0173595Y0208633D03*
X0173495Y0208633D03*
X0173395Y0208633D03*
X0173295Y0208633D03*
X0173195Y0208633D03*
X0173095Y0208633D03*
X0172995Y0208633D03*
X0172895Y0208633D03*
X0172795Y0208633D03*
X0172695Y0208633D03*
X0172595Y0208633D03*
X0172495Y0208633D03*
X0172395Y0208633D03*
X0172295Y0208633D03*
X0172195Y0208633D03*
X0172095Y0208633D03*
X0171995Y0208633D03*
X0171895Y0208633D03*
X0171795Y0208633D03*
X0171695Y0208633D03*
X0171595Y0208633D03*
X0171495Y0208633D03*
X0171395Y0208633D03*
X0171295Y0208633D03*
X0171195Y0208633D03*
X0171095Y0208633D03*
X0170995Y0208633D03*
X0170895Y0208633D03*
X0170795Y0208633D03*
X0170695Y0208633D03*
X0170595Y0208633D03*
X0170495Y0208633D03*
X0170395Y0208633D03*
X0170295Y0208633D03*
X0170195Y0208633D03*
X0170095Y0208633D03*
X0169995Y0208633D03*
X0169895Y0208633D03*
X0169795Y0208633D03*
X0169695Y0208633D03*
X0169595Y0208633D03*
X0169495Y0208633D03*
X0169395Y0208633D03*
X0169295Y0208633D03*
X0169195Y0208633D03*
X0169095Y0208633D03*
X0168995Y0208633D03*
X0168895Y0208633D03*
X0168795Y0208633D03*
X0168695Y0208633D03*
X0177495Y0208633D03*
X0177595Y0208633D03*
X0177695Y0208633D03*
X0155995Y0196533D03*
X0155795Y0196633D03*
X0155495Y0196733D03*
X0155395Y0196733D03*
X0155195Y0196833D03*
X0155095Y0196833D03*
X0154595Y0196733D03*
X0154395Y0196633D03*
X0154295Y0196633D03*
X0154695Y0193733D03*
X0154795Y0193733D03*
X0154995Y0193633D03*
X0155095Y0193633D03*
X0155395Y0193733D03*
X0155495Y0193733D03*
X0144795Y0188233D03*
D35*
X0144595Y0194233D03*
X0144495Y0194233D03*
X0153795Y0194333D03*
X0153795Y0196133D03*
X0156395Y0196033D03*
X0156395Y0194433D03*
X0161795Y0198733D03*
X0161195Y0199733D03*
X0161795Y0200733D03*
X0164295Y0200633D03*
X0168295Y0201833D03*
X0148395Y0222633D03*
X0148495Y0231433D03*
X0148595Y0231433D03*
X0148695Y0231433D03*
X0148795Y0231433D03*
X0148295Y0235333D03*
X0148395Y0239433D03*
X0144595Y0245633D03*
X0136295Y0245733D03*
X0136295Y0262233D03*
X0144595Y0262233D03*
X0153895Y0270733D03*
X0156295Y0270833D03*
X0156395Y0270933D03*
X0156295Y0272733D03*
X0161795Y0268233D03*
X0161195Y0267233D03*
X0161795Y0266233D03*
X0168295Y0267133D03*
X0168295Y0265133D03*
X0170695Y0267133D03*
X0176695Y0266733D03*
X0176695Y0264933D03*
X0179195Y0264933D03*
X0179195Y0266733D03*
X0147395Y0272933D03*
X0144695Y0272933D03*
X0144695Y0275833D03*
X0136295Y0275833D03*
D36*
X0136295Y0269683D03*
X0144695Y0262183D03*
X0153895Y0272783D03*
X0156195Y0272883D03*
X0156195Y0270683D03*
X0156095Y0270583D03*
X0164095Y0268383D03*
X0164195Y0268283D03*
X0164195Y0266183D03*
X0164095Y0266083D03*
X0166495Y0263183D03*
X0166395Y0263083D03*
X0166295Y0262983D03*
X0166195Y0262883D03*
X0166095Y0262783D03*
X0165995Y0262683D03*
X0167795Y0264583D03*
X0167895Y0264683D03*
X0168395Y0265083D03*
X0170595Y0265083D03*
X0170695Y0265183D03*
X0176795Y0264783D03*
X0176795Y0266883D03*
X0179095Y0266883D03*
X0179095Y0264783D03*
X0178995Y0264683D03*
X0144695Y0283183D03*
X0136295Y0283183D03*
X0144695Y0245683D03*
X0148395Y0231483D03*
X0144595Y0211483D03*
X0144695Y0207983D03*
X0144695Y0200583D03*
X0142195Y0191183D03*
X0153895Y0196283D03*
X0156295Y0196183D03*
X0156295Y0194283D03*
X0156095Y0194083D03*
X0164195Y0198683D03*
X0164195Y0200783D03*
X0164095Y0200883D03*
X0166795Y0203483D03*
X0166695Y0203583D03*
X0166595Y0203683D03*
X0166895Y0203383D03*
X0166995Y0203283D03*
X0167095Y0203183D03*
X0168295Y0199883D03*
X0168395Y0199783D03*
X0170595Y0199783D03*
X0170695Y0199883D03*
X0170695Y0201783D03*
X0176195Y0201183D03*
X0176695Y0200283D03*
X0176695Y0202083D03*
X0179195Y0202083D03*
X0179195Y0200283D03*
D37*
X0164395Y0199733D03*
X0161595Y0199733D03*
X0153695Y0195233D03*
X0142995Y0194933D03*
X0137495Y0186233D03*
X0136395Y0204233D03*
X0138095Y0212133D03*
X0136595Y0225433D03*
X0143495Y0230333D03*
X0143495Y0233933D03*
X0137495Y0240833D03*
X0136595Y0242233D03*
X0142895Y0262833D03*
X0140795Y0279533D03*
X0140195Y0279533D03*
X0161595Y0267233D03*
X0164395Y0267233D03*
D38*
X0167995Y0265783D03*
X0167995Y0246183D03*
X0167895Y0246183D03*
X0167795Y0246183D03*
X0167695Y0246183D03*
X0167595Y0246183D03*
X0168095Y0246183D03*
X0168195Y0246183D03*
X0168295Y0246183D03*
X0168395Y0246183D03*
X0168495Y0246083D03*
X0168595Y0246083D03*
X0168695Y0246083D03*
X0168795Y0246083D03*
X0169095Y0245983D03*
X0169195Y0245983D03*
X0169695Y0245883D03*
X0169795Y0245883D03*
X0169895Y0245883D03*
X0169995Y0245883D03*
X0170095Y0245783D03*
X0170195Y0245783D03*
X0170295Y0245783D03*
X0165795Y0246183D03*
X0165695Y0246183D03*
X0165595Y0246183D03*
X0165495Y0246183D03*
X0165395Y0246183D03*
X0165295Y0246183D03*
X0164995Y0246083D03*
X0164895Y0246083D03*
X0164795Y0246083D03*
X0164695Y0246083D03*
X0164595Y0246083D03*
X0164495Y0245983D03*
X0164395Y0245983D03*
X0164295Y0245983D03*
X0164195Y0245983D03*
X0163895Y0245883D03*
X0163795Y0245883D03*
X0163695Y0245883D03*
X0163595Y0245883D03*
X0163495Y0245883D03*
X0163295Y0245783D03*
X0163195Y0245783D03*
X0163095Y0245783D03*
X0162995Y0245683D03*
X0162895Y0245683D03*
X0162795Y0245683D03*
X0143195Y0246383D03*
X0136695Y0242183D03*
X0144595Y0255483D03*
X0136695Y0225383D03*
X0136395Y0215183D03*
X0137795Y0212283D03*
X0137895Y0212283D03*
X0143095Y0212283D03*
X0144295Y0197283D03*
X0144595Y0188183D03*
X0168095Y0201083D03*
X0168595Y0220583D03*
X0168695Y0220583D03*
X0169095Y0220683D03*
X0169195Y0220683D03*
X0169295Y0220683D03*
X0169495Y0220783D03*
X0169595Y0220783D03*
X0169695Y0220783D03*
X0169895Y0220883D03*
X0169995Y0220883D03*
X0163295Y0220883D03*
X0163195Y0220883D03*
X0163095Y0220883D03*
X0162795Y0220983D03*
X0162595Y0221083D03*
X0155595Y0225383D03*
D39*
X0155495Y0225433D03*
X0163395Y0220833D03*
X0163495Y0220833D03*
X0163595Y0220833D03*
X0163695Y0220733D03*
X0163795Y0220733D03*
X0163895Y0220733D03*
X0163995Y0220733D03*
X0164195Y0220633D03*
X0164295Y0220633D03*
X0164395Y0220633D03*
X0164695Y0220533D03*
X0164795Y0220533D03*
X0165595Y0220433D03*
X0165695Y0220433D03*
X0167295Y0220433D03*
X0167395Y0220433D03*
X0167495Y0220433D03*
X0167595Y0220433D03*
X0167695Y0220433D03*
X0167795Y0220433D03*
X0167895Y0220433D03*
X0167995Y0220433D03*
X0168195Y0220533D03*
X0168295Y0220533D03*
X0168395Y0220533D03*
X0168495Y0220533D03*
X0168795Y0220633D03*
X0168895Y0220633D03*
X0168995Y0220633D03*
X0169395Y0220733D03*
X0167995Y0201233D03*
X0143195Y0195033D03*
X0143095Y0195033D03*
X0143495Y0190033D03*
X0137995Y0207333D03*
X0137895Y0207333D03*
X0137995Y0212233D03*
X0142995Y0212233D03*
X0144595Y0215233D03*
X0144595Y0232133D03*
X0155495Y0241233D03*
X0155595Y0241233D03*
X0163395Y0245833D03*
X0165095Y0246133D03*
X0165195Y0246133D03*
X0165895Y0246233D03*
X0165995Y0246233D03*
X0166095Y0246233D03*
X0166195Y0246233D03*
X0166295Y0246233D03*
X0166395Y0246233D03*
X0166495Y0246233D03*
X0166595Y0246233D03*
X0166695Y0246233D03*
X0166795Y0246233D03*
X0166895Y0246233D03*
X0166995Y0246233D03*
X0167095Y0246233D03*
X0167195Y0246233D03*
X0167295Y0246233D03*
X0167395Y0246233D03*
X0167495Y0246233D03*
X0144395Y0248733D03*
X0143095Y0246333D03*
X0136395Y0255433D03*
X0143095Y0262933D03*
X0144595Y0266033D03*
X0140895Y0279533D03*
X0140095Y0279533D03*
D40*
X0140295Y0279533D03*
X0140695Y0279533D03*
X0143395Y0268033D03*
X0142695Y0262733D03*
X0137595Y0257633D03*
X0143395Y0253433D03*
X0142695Y0246133D03*
X0137595Y0240633D03*
X0137595Y0234233D03*
X0137495Y0230133D03*
X0136495Y0225533D03*
X0137595Y0223833D03*
X0137495Y0217233D03*
X0138295Y0212033D03*
X0142695Y0212033D03*
X0143395Y0217233D03*
X0155295Y0225533D03*
X0143395Y0234133D03*
X0155295Y0241133D03*
X0164495Y0267233D03*
X0176495Y0265833D03*
X0179395Y0265833D03*
X0138295Y0207533D03*
X0144495Y0197433D03*
X0142795Y0194833D03*
X0137595Y0186033D03*
X0156495Y0195233D03*
X0164495Y0199733D03*
D41*
X0174195Y0222883D03*
X0174395Y0223083D03*
X0174495Y0223183D03*
X0158995Y0222983D03*
X0158895Y0223083D03*
X0158795Y0223083D03*
X0156195Y0225183D03*
X0156295Y0241483D03*
X0158795Y0243583D03*
X0158995Y0243683D03*
X0159095Y0243783D03*
X0159195Y0243883D03*
X0174395Y0243583D03*
X0174495Y0243483D03*
X0174595Y0243383D03*
X0143395Y0263383D03*
X0144395Y0265983D03*
X0136595Y0255483D03*
X0139595Y0279483D03*
X0141295Y0279483D03*
X0137495Y0206883D03*
X0136595Y0204183D03*
X0136595Y0188283D03*
D42*
X0136595Y0215283D03*
X0144395Y0215283D03*
X0156595Y0224983D03*
X0158395Y0223483D03*
X0158495Y0223383D03*
X0158595Y0223283D03*
X0144395Y0232083D03*
X0156595Y0241683D03*
X0158495Y0243283D03*
X0143495Y0246883D03*
X0144395Y0255483D03*
X0141395Y0279483D03*
X0139495Y0279483D03*
X0174795Y0243183D03*
X0174895Y0243083D03*
X0174995Y0223483D03*
X0174695Y0223283D03*
D43*
X0174595Y0223233D03*
X0174795Y0223333D03*
X0174895Y0223433D03*
X0158695Y0223233D03*
X0156495Y0225033D03*
X0156395Y0225133D03*
X0156295Y0225133D03*
X0156395Y0241533D03*
X0156495Y0241633D03*
X0158595Y0243333D03*
X0158695Y0243433D03*
X0158895Y0243633D03*
X0174695Y0243333D03*
X0136595Y0232133D03*
X0143495Y0195533D03*
X0144395Y0188233D03*
D44*
X0136695Y0188283D03*
X0136695Y0204183D03*
X0156795Y0224883D03*
X0157895Y0223883D03*
X0157995Y0223783D03*
X0175295Y0223783D03*
X0175395Y0223883D03*
X0175495Y0223983D03*
X0175595Y0242483D03*
X0175495Y0242583D03*
X0158095Y0242883D03*
X0157995Y0242783D03*
X0157895Y0242683D03*
X0156795Y0241783D03*
X0144295Y0265983D03*
D45*
X0157295Y0242233D03*
X0157195Y0242133D03*
X0144795Y0240133D03*
X0136695Y0215233D03*
X0175795Y0242333D03*
X0175895Y0242233D03*
X0175995Y0224533D03*
X0175895Y0224433D03*
D46*
X0175595Y0224133D03*
X0157795Y0224033D03*
X0157695Y0224133D03*
X0156895Y0224733D03*
X0156895Y0241933D03*
X0157595Y0242433D03*
X0157695Y0242533D03*
X0157795Y0242633D03*
X0175395Y0242633D03*
X0136695Y0232133D03*
X0136695Y0255533D03*
X0144295Y0188233D03*
D47*
X0136795Y0188283D03*
X0144195Y0215283D03*
X0143595Y0223283D03*
X0176095Y0224683D03*
X0176195Y0224783D03*
X0176095Y0241983D03*
X0175995Y0242083D03*
X0144195Y0265983D03*
D48*
X0144295Y0255483D03*
X0157095Y0242083D03*
X0156995Y0241983D03*
X0157395Y0242283D03*
X0157495Y0242383D03*
X0144295Y0232083D03*
X0144795Y0223283D03*
X0144295Y0215283D03*
X0136795Y0204283D03*
X0156995Y0224683D03*
X0157095Y0224683D03*
X0157195Y0224583D03*
X0157295Y0224483D03*
X0157395Y0224383D03*
X0157495Y0224283D03*
X0157595Y0224183D03*
X0175695Y0224183D03*
X0175795Y0224283D03*
X0175695Y0242383D03*
D49*
X0176395Y0225083D03*
X0176295Y0224983D03*
X0143595Y0195983D03*
X0136795Y0215183D03*
D50*
X0136895Y0204233D03*
X0144195Y0188233D03*
X0144195Y0232133D03*
X0136795Y0232133D03*
X0143595Y0240133D03*
X0144195Y0255533D03*
X0136795Y0255533D03*
X0176195Y0241833D03*
D51*
X0176295Y0241633D03*
X0180895Y0233333D03*
X0176495Y0225233D03*
X0144095Y0215233D03*
X0144095Y0188233D03*
X0136895Y0188233D03*
X0144095Y0266033D03*
D52*
X0144095Y0255483D03*
X0136895Y0255483D03*
X0144695Y0240183D03*
X0136895Y0232083D03*
X0143695Y0223283D03*
X0144695Y0223283D03*
X0136895Y0215183D03*
X0176595Y0225383D03*
X0176395Y0241483D03*
D53*
X0176595Y0241183D03*
X0176695Y0241083D03*
X0176795Y0225683D03*
X0144595Y0223283D03*
X0143795Y0223283D03*
X0143995Y0215183D03*
X0143795Y0240083D03*
X0144595Y0240083D03*
X0143995Y0255483D03*
X0136995Y0255483D03*
X0136995Y0188183D03*
D54*
X0136995Y0204233D03*
X0144095Y0232133D03*
X0143695Y0240133D03*
X0143995Y0266033D03*
X0176495Y0241333D03*
X0176695Y0225533D03*
D55*
X0176895Y0240783D03*
X0144395Y0240083D03*
X0144295Y0240083D03*
X0144195Y0240083D03*
X0144095Y0240083D03*
X0143995Y0240083D03*
X0143895Y0240083D03*
X0143895Y0223283D03*
X0143995Y0223283D03*
X0144095Y0223283D03*
X0144195Y0223283D03*
X0144295Y0223283D03*
X0144395Y0223283D03*
X0144495Y0223283D03*
X0136995Y0215183D03*
X0143895Y0266083D03*
D56*
X0144495Y0240133D03*
X0143995Y0232133D03*
X0136995Y0232133D03*
X0137095Y0204233D03*
X0143995Y0188233D03*
X0176895Y0225833D03*
X0176795Y0240933D03*
D57*
X0176995Y0240633D03*
X0176995Y0225933D03*
X0143895Y0215233D03*
X0137195Y0204233D03*
X0137095Y0188233D03*
X0143895Y0188233D03*
X0143895Y0255433D03*
X0137095Y0255433D03*
D58*
X0137095Y0232083D03*
X0143895Y0232083D03*
X0137095Y0215183D03*
D59*
X0143795Y0215233D03*
X0160895Y0233533D03*
X0177095Y0240433D03*
X0177095Y0226133D03*
X0143795Y0255433D03*
X0137195Y0255433D03*
X0143795Y0266033D03*
X0143795Y0188233D03*
X0137195Y0188233D03*
D60*
X0137295Y0204183D03*
X0137195Y0215183D03*
X0137195Y0232083D03*
X0143795Y0232083D03*
X0177195Y0226283D03*
X0177195Y0240283D03*
D61*
X0177295Y0240083D03*
X0180795Y0233283D03*
X0143695Y0232083D03*
X0137295Y0232083D03*
X0137295Y0255483D03*
X0143695Y0255483D03*
X0143695Y0188183D03*
X0137295Y0188183D03*
D62*
X0137295Y0214483D03*
X0177895Y0227883D03*
D63*
X0177395Y0239883D03*
X0143595Y0232083D03*
X0137395Y0232083D03*
X0137395Y0255483D03*
X0143595Y0255483D03*
X0137395Y0188183D03*
D64*
X0137395Y0204233D03*
X0143595Y0215233D03*
X0177395Y0226633D03*
X0143595Y0266033D03*
D65*
X0180595Y0233233D03*
X0137395Y0214533D03*
D66*
X0137495Y0212633D03*
X0143395Y0212633D03*
X0156095Y0225233D03*
X0159095Y0222933D03*
X0159195Y0222833D03*
X0173995Y0222733D03*
X0174095Y0222833D03*
X0174295Y0222933D03*
X0180995Y0233233D03*
X0174295Y0243733D03*
X0174195Y0243733D03*
X0174095Y0243833D03*
X0173995Y0243933D03*
X0159395Y0244033D03*
X0159295Y0243933D03*
X0156195Y0241433D03*
X0143895Y0248333D03*
X0143795Y0248233D03*
X0143695Y0248133D03*
X0143795Y0196833D03*
X0143695Y0196733D03*
D67*
X0144795Y0200583D03*
X0138895Y0191183D03*
X0144795Y0211583D03*
X0162495Y0198283D03*
X0162695Y0198183D03*
X0162795Y0198183D03*
X0162895Y0198183D03*
X0162995Y0198183D03*
X0163095Y0198183D03*
X0163195Y0198183D03*
X0163295Y0198183D03*
X0168795Y0202283D03*
X0168995Y0202383D03*
X0169095Y0202383D03*
X0169195Y0202383D03*
X0169795Y0202383D03*
X0169895Y0202383D03*
X0169995Y0202383D03*
X0170195Y0202283D03*
X0179795Y0201183D03*
X0147995Y0235083D03*
X0144795Y0245683D03*
X0162495Y0265783D03*
X0162695Y0265683D03*
X0163295Y0265683D03*
X0168995Y0267683D03*
X0169095Y0267683D03*
X0169395Y0267783D03*
X0169495Y0267783D03*
X0169595Y0267783D03*
X0169895Y0267683D03*
X0169995Y0267683D03*
X0177595Y0267383D03*
X0177695Y0267383D03*
X0177795Y0267383D03*
X0177895Y0267383D03*
X0177995Y0267383D03*
X0178095Y0267383D03*
X0178195Y0267383D03*
X0179795Y0265783D03*
X0155495Y0273283D03*
X0155395Y0273283D03*
X0155095Y0273383D03*
X0154995Y0273383D03*
X0154795Y0273283D03*
X0154695Y0273283D03*
D68*
X0143495Y0263533D03*
X0158395Y0243133D03*
X0158295Y0243033D03*
X0158195Y0242933D03*
X0156695Y0241733D03*
X0171395Y0238333D03*
X0171495Y0238333D03*
X0171595Y0238333D03*
X0171695Y0238333D03*
X0171795Y0238333D03*
X0171895Y0238333D03*
X0171995Y0238333D03*
X0172095Y0238333D03*
X0172195Y0238333D03*
X0172295Y0238333D03*
X0172395Y0238333D03*
X0172495Y0238333D03*
X0172595Y0238333D03*
X0172695Y0238333D03*
X0172795Y0238333D03*
X0175295Y0242733D03*
X0175195Y0242833D03*
X0175095Y0242933D03*
X0174995Y0243033D03*
X0172795Y0228733D03*
X0172695Y0228733D03*
X0172595Y0228733D03*
X0172495Y0228733D03*
X0172395Y0228733D03*
X0172295Y0228733D03*
X0172195Y0228733D03*
X0172095Y0228733D03*
X0171995Y0228733D03*
X0171895Y0228733D03*
X0171795Y0228733D03*
X0171695Y0228733D03*
X0171595Y0228733D03*
X0171495Y0228733D03*
X0171395Y0228733D03*
X0175195Y0223733D03*
X0175095Y0223633D03*
X0158295Y0223533D03*
X0158195Y0223633D03*
X0158095Y0223733D03*
X0156695Y0224933D03*
X0143495Y0212833D03*
D69*
X0143595Y0188233D03*
X0177495Y0226833D03*
X0177495Y0239733D03*
D70*
X0177295Y0226433D03*
X0143695Y0215233D03*
X0143695Y0266033D03*
D71*
X0144795Y0265883D03*
X0144795Y0272983D03*
X0154095Y0272983D03*
X0155895Y0273083D03*
X0155995Y0272983D03*
X0155995Y0270483D03*
X0155795Y0270383D03*
X0155695Y0270283D03*
X0155595Y0270283D03*
X0155295Y0270183D03*
X0154495Y0270283D03*
X0154395Y0270383D03*
X0154295Y0270383D03*
X0162195Y0268583D03*
X0162295Y0268683D03*
X0162395Y0268683D03*
X0162595Y0268783D03*
X0163395Y0268783D03*
X0163495Y0268783D03*
X0163595Y0268683D03*
X0163695Y0268683D03*
X0163795Y0268583D03*
X0163795Y0265883D03*
X0162195Y0265883D03*
X0167195Y0263983D03*
X0168695Y0264783D03*
X0168895Y0264683D03*
X0169295Y0264583D03*
X0169695Y0264583D03*
X0170095Y0264683D03*
X0170295Y0264783D03*
X0170495Y0267283D03*
X0170395Y0267483D03*
X0168595Y0267483D03*
X0168495Y0267283D03*
X0177095Y0267183D03*
X0177195Y0267283D03*
X0177295Y0267283D03*
X0178595Y0267283D03*
X0178795Y0267183D03*
X0178895Y0264583D03*
X0178795Y0264483D03*
X0178595Y0264383D03*
X0178395Y0264283D03*
X0178295Y0264283D03*
X0177595Y0264283D03*
X0177495Y0264283D03*
X0177295Y0264383D03*
X0177095Y0264483D03*
X0148095Y0235183D03*
X0148195Y0231583D03*
X0144795Y0215283D03*
X0144695Y0211483D03*
X0154195Y0196583D03*
X0154095Y0196483D03*
X0153995Y0196383D03*
X0154495Y0196683D03*
X0155295Y0196783D03*
X0155595Y0196683D03*
X0155695Y0196683D03*
X0155895Y0196583D03*
X0155795Y0193883D03*
X0155695Y0193783D03*
X0155595Y0193783D03*
X0155295Y0193683D03*
X0155195Y0193683D03*
X0154895Y0193683D03*
X0154595Y0193783D03*
X0154495Y0193783D03*
X0154395Y0193883D03*
X0154295Y0193883D03*
X0154195Y0193983D03*
X0161995Y0198583D03*
X0162095Y0198483D03*
X0163895Y0198483D03*
X0163995Y0198583D03*
X0163795Y0201083D03*
X0163695Y0201183D03*
X0163595Y0201183D03*
X0163495Y0201283D03*
X0163395Y0201283D03*
X0162595Y0201283D03*
X0162395Y0201183D03*
X0162295Y0201183D03*
X0162195Y0201083D03*
X0168495Y0201983D03*
X0168595Y0202183D03*
X0170395Y0202183D03*
X0170495Y0201983D03*
X0170295Y0199483D03*
X0170195Y0199383D03*
X0170095Y0199383D03*
X0169795Y0199283D03*
X0169695Y0199283D03*
X0169295Y0199283D03*
X0169195Y0199283D03*
X0168895Y0199383D03*
X0168795Y0199383D03*
X0168695Y0199483D03*
X0176895Y0199983D03*
X0176995Y0199883D03*
X0177095Y0199883D03*
X0177195Y0199783D03*
X0177295Y0199783D03*
X0177495Y0199683D03*
X0178295Y0199683D03*
X0178395Y0199683D03*
X0178595Y0199783D03*
X0178795Y0199883D03*
X0178895Y0199883D03*
X0178995Y0199983D03*
X0178795Y0202483D03*
X0178595Y0202583D03*
X0178395Y0202683D03*
X0178295Y0202683D03*
X0177595Y0202683D03*
X0177495Y0202683D03*
X0177295Y0202583D03*
X0177095Y0202483D03*
X0176995Y0202483D03*
X0176895Y0202383D03*
D72*
X0144795Y0194333D03*
X0147995Y0231733D03*
D73*
X0147895Y0234983D03*
X0144795Y0207983D03*
D74*
X0147895Y0231833D03*
D75*
X0154695Y0200583D03*
X0154795Y0200583D03*
X0154895Y0200583D03*
X0154895Y0266383D03*
X0154795Y0266383D03*
X0154695Y0266383D03*
D76*
X0154995Y0266333D03*
X0180495Y0233233D03*
X0154995Y0200633D03*
D77*
X0159995Y0210833D03*
X0160095Y0210833D03*
X0160195Y0210833D03*
X0160295Y0210833D03*
X0160395Y0210833D03*
X0165695Y0210833D03*
X0164095Y0233533D03*
X0163995Y0233533D03*
X0163895Y0233533D03*
X0163795Y0233533D03*
X0173095Y0233533D03*
X0173195Y0233533D03*
X0173295Y0233533D03*
X0173395Y0233533D03*
X0165795Y0256233D03*
D78*
X0165695Y0256183D03*
X0160395Y0256183D03*
X0160295Y0256183D03*
X0160195Y0256183D03*
X0160095Y0256183D03*
X0159995Y0256183D03*
X0179495Y0233283D03*
X0165595Y0210883D03*
D79*
X0162195Y0233483D03*
X0162095Y0233483D03*
X0161995Y0233483D03*
X0161895Y0233483D03*
X0161795Y0233483D03*
X0161695Y0233483D03*
X0161595Y0233483D03*
X0161495Y0233483D03*
X0161395Y0233483D03*
X0161295Y0233483D03*
X0161195Y0233483D03*
X0161095Y0233483D03*
X0160995Y0233483D03*
D80*
X0162295Y0233533D03*
D81*
X0162395Y0233533D03*
D82*
X0162495Y0233483D03*
X0180095Y0233283D03*
D83*
X0162595Y0233483D03*
D84*
X0162695Y0233483D03*
X0174395Y0233483D03*
D85*
X0163195Y0209283D03*
X0163095Y0209283D03*
X0162995Y0209283D03*
X0162895Y0209283D03*
X0162795Y0209283D03*
D86*
X0162795Y0233483D03*
D87*
X0178495Y0233333D03*
X0163195Y0257733D03*
X0163095Y0257733D03*
X0162995Y0257733D03*
X0162895Y0257733D03*
X0162795Y0257733D03*
D88*
X0162895Y0233483D03*
D89*
X0162995Y0233483D03*
X0174195Y0233483D03*
X0174295Y0233483D03*
X0179695Y0233283D03*
D90*
X0174095Y0233483D03*
X0163095Y0233483D03*
D91*
X0163195Y0233533D03*
X0163295Y0233533D03*
X0173995Y0233533D03*
D92*
X0173895Y0233533D03*
X0173795Y0233533D03*
X0163495Y0233533D03*
X0163395Y0233533D03*
D93*
X0163595Y0233533D03*
X0163695Y0233533D03*
X0173495Y0233533D03*
X0173595Y0233533D03*
X0173695Y0233533D03*
X0165595Y0256133D03*
X0165495Y0210933D03*
D94*
X0165495Y0233533D03*
X0165395Y0233533D03*
X0165295Y0233533D03*
X0165195Y0233533D03*
X0165095Y0233533D03*
X0164995Y0233533D03*
X0164895Y0233533D03*
X0164795Y0233533D03*
X0164695Y0233533D03*
X0164595Y0233533D03*
X0164495Y0233533D03*
X0164395Y0233533D03*
X0164295Y0233533D03*
X0164195Y0233533D03*
X0165595Y0233533D03*
X0165695Y0233533D03*
X0165795Y0233533D03*
X0165895Y0233533D03*
X0165995Y0233533D03*
X0166095Y0233533D03*
X0166195Y0233533D03*
X0166295Y0233533D03*
X0166395Y0233533D03*
X0166495Y0233533D03*
X0166595Y0233533D03*
X0166695Y0233533D03*
X0166795Y0233533D03*
X0166895Y0233533D03*
X0166995Y0233533D03*
X0167095Y0233533D03*
X0167195Y0233533D03*
X0167295Y0233533D03*
X0167395Y0233533D03*
X0167495Y0233533D03*
X0167595Y0233533D03*
X0167695Y0233533D03*
X0167795Y0233533D03*
X0167895Y0233533D03*
X0167995Y0233533D03*
X0168095Y0233533D03*
X0168195Y0233533D03*
X0168295Y0233533D03*
X0168395Y0233533D03*
X0168495Y0233533D03*
X0168595Y0233533D03*
X0168695Y0233533D03*
X0168795Y0233533D03*
X0168895Y0233533D03*
X0168995Y0233533D03*
X0169095Y0233533D03*
X0169195Y0233533D03*
X0169295Y0233533D03*
X0169395Y0233533D03*
X0169495Y0233533D03*
X0169595Y0233533D03*
X0169695Y0233533D03*
X0169795Y0233533D03*
X0169895Y0233533D03*
X0169995Y0233533D03*
X0170095Y0233533D03*
X0170195Y0233533D03*
X0170295Y0233533D03*
X0170395Y0233533D03*
X0170495Y0233533D03*
X0170595Y0233533D03*
X0170695Y0233533D03*
X0170795Y0233533D03*
X0170895Y0233533D03*
X0170995Y0233533D03*
X0171095Y0233533D03*
X0171195Y0233533D03*
X0171295Y0233533D03*
X0172895Y0233533D03*
X0172995Y0233533D03*
X0179395Y0233333D03*
D95*
X0165495Y0256083D03*
D96*
X0165895Y0256283D03*
X0165895Y0210783D03*
X0165795Y0210783D03*
D97*
X0168295Y0212933D03*
X0168395Y0212933D03*
X0168495Y0212933D03*
X0168595Y0212933D03*
X0174995Y0233533D03*
D98*
X0168595Y0254083D03*
X0168495Y0254083D03*
X0168395Y0254083D03*
X0168295Y0254083D03*
D99*
X0174495Y0233483D03*
X0179895Y0233283D03*
D100*
X0174595Y0233483D03*
D101*
X0174695Y0233483D03*
D102*
X0174795Y0233483D03*
D103*
X0174895Y0233533D03*
D104*
X0177595Y0227083D03*
D105*
X0177595Y0239533D03*
D106*
X0177695Y0227333D03*
D107*
X0180695Y0233283D03*
X0177695Y0239283D03*
D108*
X0177795Y0261283D03*
X0177895Y0261283D03*
X0177995Y0261283D03*
X0178095Y0261283D03*
X0178195Y0261283D03*
X0178195Y0205683D03*
X0178095Y0205683D03*
X0177995Y0205683D03*
X0177895Y0205683D03*
X0177795Y0205683D03*
D109*
X0177795Y0227583D03*
D110*
X0177795Y0239033D03*
D111*
X0177895Y0238683D03*
D112*
X0177995Y0228283D03*
D113*
X0177995Y0238333D03*
D114*
X0178095Y0233383D03*
D115*
X0178195Y0233333D03*
D116*
X0178295Y0233383D03*
D117*
X0178395Y0233333D03*
D118*
X0178595Y0233283D03*
D119*
X0178695Y0233283D03*
D120*
X0178795Y0233283D03*
D121*
X0178895Y0233283D03*
D122*
X0178995Y0233283D03*
D123*
X0179095Y0233283D03*
D124*
X0179195Y0233333D03*
D125*
X0179295Y0233333D03*
D126*
X0179595Y0233283D03*
D127*
X0179795Y0233233D03*
D128*
X0179995Y0233233D03*
D129*
X0180195Y0233283D03*
D130*
X0180295Y0233283D03*
D131*
X0180395Y0233283D03*
D132*
X0261345Y0229248D03*
X0276970Y0229248D03*
X0280720Y0219868D03*
X0296345Y0219868D03*
X0264470Y0246118D03*
X0267595Y0251118D03*
X0270095Y0251748D03*
X0270720Y0259868D03*
X0266345Y0259248D03*
X0266345Y0264248D03*
X0270095Y0274868D03*
X0283845Y0262058D03*
X0284470Y0261748D03*
X0285720Y0260808D03*
X0286345Y0260498D03*
X0286970Y0259868D03*
X0289470Y0259868D03*
X0290095Y0260498D03*
X0290720Y0261118D03*
X0291345Y0261748D03*
X0290095Y0282058D03*
D133*
X0271658Y0278773D03*
X0264783Y0253463D03*
X0268533Y0234713D03*
X0261658Y0229403D03*
X0268533Y0224093D03*
X0269783Y0224093D03*
X0271658Y0224403D03*
X0276658Y0229403D03*
X0281033Y0220023D03*
X0287908Y0214713D03*
X0289158Y0214713D03*
X0291033Y0215023D03*
X0296033Y0220023D03*
X0287908Y0225343D03*
X0291658Y0249403D03*
D134*
X0287595Y0249713D03*
X0283845Y0249713D03*
X0276345Y0229403D03*
X0261970Y0229403D03*
X0281970Y0284403D03*
D135*
X0285408Y0284558D03*
X0290408Y0284558D03*
X0276033Y0229248D03*
X0281658Y0219868D03*
X0295408Y0219868D03*
X0262283Y0229248D03*
D136*
X0262595Y0229243D03*
X0275720Y0229243D03*
X0281970Y0219873D03*
X0295095Y0219873D03*
D137*
X0294783Y0219868D03*
X0282283Y0219868D03*
X0275408Y0229248D03*
X0262908Y0229248D03*
D138*
X0263220Y0229403D03*
X0275095Y0229403D03*
D139*
X0274783Y0229398D03*
X0282908Y0220028D03*
X0294158Y0220028D03*
X0263533Y0229398D03*
D140*
X0263845Y0229403D03*
X0274470Y0229403D03*
D141*
X0264158Y0226433D03*
X0284158Y0240183D03*
X0271658Y0262683D03*
X0291033Y0273933D03*
X0281658Y0284243D03*
X0281033Y0283933D03*
D142*
X0264158Y0232838D03*
X0284158Y0223778D03*
X0284783Y0224088D03*
X0292908Y0216278D03*
D143*
X0267283Y0240183D03*
X0264158Y0246433D03*
X0273533Y0246433D03*
X0264158Y0261433D03*
X0268533Y0265183D03*
X0264783Y0268933D03*
X0265408Y0273933D03*
X0271658Y0270183D03*
X0272908Y0275183D03*
X0270408Y0280183D03*
X0269783Y0280183D03*
X0286658Y0281433D03*
X0287283Y0281433D03*
X0288533Y0281433D03*
X0289158Y0281433D03*
D144*
X0287908Y0281273D03*
X0287908Y0276903D03*
X0288533Y0276903D03*
X0287283Y0276903D03*
X0286658Y0276903D03*
X0286033Y0276903D03*
X0285408Y0276903D03*
X0284783Y0276903D03*
X0284158Y0276903D03*
X0283533Y0276903D03*
X0283533Y0271903D03*
X0284158Y0271903D03*
X0284783Y0271903D03*
X0285408Y0271903D03*
X0286033Y0271903D03*
X0286658Y0271903D03*
X0287283Y0271903D03*
X0287908Y0271903D03*
X0288533Y0271903D03*
X0289158Y0271903D03*
X0289783Y0271903D03*
X0289783Y0276593D03*
X0289783Y0266903D03*
X0290408Y0266903D03*
X0291033Y0266903D03*
X0291658Y0266903D03*
X0294158Y0266903D03*
X0294783Y0266903D03*
X0295408Y0266903D03*
X0289158Y0266903D03*
X0288533Y0266903D03*
X0287908Y0266903D03*
X0287283Y0266903D03*
X0286658Y0266903D03*
X0286033Y0266903D03*
X0285408Y0266903D03*
X0284783Y0266903D03*
X0284158Y0266903D03*
X0283533Y0266903D03*
X0286033Y0260653D03*
X0286033Y0256903D03*
X0286658Y0256903D03*
X0285408Y0256903D03*
X0284783Y0256903D03*
X0284158Y0256903D03*
X0283533Y0256903D03*
X0289783Y0256903D03*
X0290408Y0256903D03*
X0291033Y0256903D03*
X0291658Y0256903D03*
X0292283Y0256903D03*
X0292908Y0256903D03*
X0293533Y0256903D03*
X0294158Y0256903D03*
X0294783Y0256903D03*
X0295408Y0256903D03*
X0288533Y0251903D03*
X0286658Y0251903D03*
X0286033Y0251903D03*
X0285408Y0251903D03*
X0286658Y0247213D03*
X0286033Y0246903D03*
X0289783Y0242843D03*
X0285408Y0237523D03*
X0285408Y0230343D03*
X0286033Y0230343D03*
X0286658Y0230343D03*
X0287283Y0230343D03*
X0287908Y0230343D03*
X0288533Y0230343D03*
X0289158Y0230343D03*
X0289783Y0230343D03*
X0284783Y0230343D03*
X0284158Y0230343D03*
X0283533Y0230343D03*
X0272908Y0241273D03*
X0271658Y0240963D03*
X0271033Y0240963D03*
X0269783Y0240653D03*
X0267908Y0240343D03*
X0266658Y0240023D03*
X0266033Y0240023D03*
X0264783Y0239713D03*
X0266658Y0245343D03*
X0267283Y0245343D03*
X0269158Y0245653D03*
X0270408Y0245963D03*
X0269158Y0251273D03*
X0268533Y0251273D03*
X0267283Y0251273D03*
X0269783Y0251593D03*
X0264158Y0253773D03*
X0266658Y0259093D03*
X0267283Y0258773D03*
X0267908Y0258773D03*
X0268533Y0259093D03*
X0269158Y0259093D03*
X0269783Y0259403D03*
X0270408Y0259713D03*
X0269783Y0265343D03*
X0269158Y0265343D03*
X0267908Y0265023D03*
X0267283Y0264713D03*
X0266033Y0269093D03*
X0265408Y0269093D03*
X0267283Y0269403D03*
X0269158Y0269713D03*
X0270408Y0270023D03*
X0271033Y0270023D03*
X0272283Y0270343D03*
X0275408Y0270963D03*
X0276033Y0270963D03*
X0269158Y0274713D03*
X0268533Y0274403D03*
X0267908Y0274403D03*
X0266658Y0274093D03*
X0266033Y0274093D03*
X0264783Y0273773D03*
X0265408Y0279403D03*
X0267283Y0279713D03*
X0268533Y0280023D03*
X0269158Y0280023D03*
X0282283Y0286593D03*
X0286033Y0287213D03*
X0286658Y0287213D03*
X0287283Y0287213D03*
X0287908Y0287213D03*
X0288533Y0287213D03*
X0289158Y0287213D03*
X0289783Y0287213D03*
X0275408Y0241593D03*
D145*
X0265095Y0233308D03*
X0264470Y0225808D03*
D146*
X0270095Y0224248D03*
X0270720Y0224248D03*
X0271345Y0224248D03*
X0264470Y0232998D03*
X0271970Y0246748D03*
X0272595Y0246748D03*
X0265095Y0253308D03*
X0283220Y0249868D03*
X0291345Y0249558D03*
X0283845Y0223618D03*
X0288220Y0214558D03*
X0288845Y0214558D03*
X0289470Y0214868D03*
X0290095Y0214868D03*
X0290720Y0214868D03*
D147*
X0290095Y0230343D03*
X0289470Y0230343D03*
X0288845Y0230343D03*
X0288220Y0230343D03*
X0287595Y0230343D03*
X0286970Y0230343D03*
X0286345Y0230343D03*
X0285720Y0230343D03*
X0285095Y0230343D03*
X0284470Y0230343D03*
X0283845Y0230343D03*
X0283220Y0230343D03*
X0285720Y0237213D03*
X0290095Y0237523D03*
X0290095Y0242523D03*
X0285720Y0246903D03*
X0285095Y0247213D03*
X0285095Y0251903D03*
X0285720Y0251903D03*
X0286345Y0251903D03*
X0288845Y0251903D03*
X0290095Y0251593D03*
X0290095Y0256903D03*
X0289470Y0256903D03*
X0290720Y0256903D03*
X0291345Y0256903D03*
X0291970Y0256903D03*
X0292595Y0256903D03*
X0293220Y0256903D03*
X0293845Y0256903D03*
X0294470Y0256903D03*
X0295095Y0256903D03*
X0295720Y0256903D03*
X0286970Y0256903D03*
X0286345Y0256903D03*
X0285720Y0256903D03*
X0285095Y0256903D03*
X0284470Y0256903D03*
X0283845Y0256903D03*
X0283220Y0256903D03*
X0283220Y0262523D03*
X0283220Y0266903D03*
X0283845Y0266903D03*
X0284470Y0266903D03*
X0285095Y0266903D03*
X0285720Y0266903D03*
X0286345Y0266903D03*
X0286970Y0266903D03*
X0287595Y0266903D03*
X0288220Y0266903D03*
X0288845Y0266903D03*
X0289470Y0266903D03*
X0290095Y0266903D03*
X0290720Y0266903D03*
X0291345Y0266903D03*
X0291970Y0266903D03*
X0294470Y0266903D03*
X0295095Y0266903D03*
X0295720Y0266903D03*
X0290095Y0271903D03*
X0289470Y0271903D03*
X0288845Y0271903D03*
X0288220Y0271903D03*
X0287595Y0271903D03*
X0286970Y0271903D03*
X0286345Y0271903D03*
X0285720Y0271903D03*
X0285095Y0271903D03*
X0284470Y0271903D03*
X0283845Y0271903D03*
X0283220Y0271903D03*
X0283220Y0276903D03*
X0283845Y0276903D03*
X0284470Y0276903D03*
X0285095Y0276903D03*
X0285720Y0276903D03*
X0286345Y0276903D03*
X0286970Y0276903D03*
X0287595Y0276903D03*
X0288220Y0276903D03*
X0288220Y0281273D03*
X0287595Y0281273D03*
X0286345Y0281593D03*
X0289470Y0281593D03*
X0289470Y0287213D03*
X0288845Y0287213D03*
X0288220Y0287213D03*
X0287595Y0287213D03*
X0286970Y0287213D03*
X0286345Y0287213D03*
X0290095Y0287213D03*
X0282595Y0286903D03*
X0269470Y0280023D03*
X0268845Y0280023D03*
X0267595Y0279713D03*
X0266970Y0279713D03*
X0265720Y0279403D03*
X0266345Y0274093D03*
X0265095Y0273773D03*
X0264470Y0273773D03*
X0268220Y0274403D03*
X0269470Y0274713D03*
X0270720Y0270023D03*
X0271970Y0270343D03*
X0272595Y0270343D03*
X0275095Y0270963D03*
X0275720Y0270963D03*
X0270720Y0265023D03*
X0270095Y0265343D03*
X0269470Y0265343D03*
X0268845Y0265343D03*
X0268220Y0265023D03*
X0267595Y0265023D03*
X0266970Y0264713D03*
X0265720Y0269093D03*
X0264470Y0268773D03*
X0267595Y0269403D03*
X0268845Y0269713D03*
X0270095Y0259403D03*
X0269470Y0259093D03*
X0268845Y0259093D03*
X0267595Y0258773D03*
X0266970Y0259093D03*
X0266970Y0251273D03*
X0268220Y0251273D03*
X0268845Y0251273D03*
X0268845Y0245653D03*
X0267595Y0245343D03*
X0266970Y0245343D03*
X0266345Y0245343D03*
X0270720Y0245963D03*
X0273845Y0246593D03*
X0275720Y0241903D03*
X0272595Y0241273D03*
X0271345Y0240963D03*
X0269470Y0240653D03*
X0268220Y0240343D03*
X0267595Y0240343D03*
X0266345Y0240023D03*
X0265095Y0239713D03*
X0264470Y0239713D03*
D148*
X0270095Y0235028D03*
X0270720Y0235028D03*
X0273220Y0234088D03*
X0285720Y0225028D03*
X0286345Y0225338D03*
X0291345Y0225028D03*
X0291970Y0232528D03*
X0291970Y0249088D03*
X0272595Y0262838D03*
X0264470Y0253778D03*
X0284470Y0215338D03*
D149*
X0291970Y0214873D03*
X0292595Y0215183D03*
X0290720Y0225493D03*
X0272595Y0224243D03*
X0271345Y0234873D03*
X0272595Y0255183D03*
X0264470Y0261433D03*
D150*
X0266345Y0269248D03*
X0266970Y0269248D03*
X0269470Y0269868D03*
X0270095Y0269868D03*
X0267595Y0274248D03*
X0266970Y0274248D03*
X0271970Y0274868D03*
X0268220Y0279868D03*
X0265095Y0279248D03*
X0264470Y0279248D03*
X0288845Y0276748D03*
X0289470Y0276748D03*
X0289470Y0251748D03*
X0289470Y0242998D03*
X0288845Y0242998D03*
X0275095Y0241748D03*
X0271970Y0241118D03*
X0268845Y0240498D03*
X0265720Y0239868D03*
X0268220Y0245498D03*
X0274470Y0246748D03*
X0270720Y0229868D03*
X0290095Y0220498D03*
D151*
X0290408Y0225493D03*
X0284158Y0215493D03*
X0292283Y0214873D03*
X0272908Y0224243D03*
X0266033Y0223933D03*
X0264783Y0224873D03*
X0273533Y0233933D03*
X0271033Y0234873D03*
X0272283Y0278933D03*
D152*
X0293533Y0266903D03*
X0266033Y0255653D03*
X0264783Y0228463D03*
X0292283Y0220653D03*
D153*
X0283533Y0223463D03*
X0291033Y0231903D03*
X0291658Y0231903D03*
X0283533Y0240653D03*
X0291033Y0249713D03*
X0265408Y0253153D03*
X0265408Y0233463D03*
X0264783Y0233153D03*
X0273533Y0225653D03*
D154*
X0266658Y0223623D03*
X0286033Y0214243D03*
X0264783Y0246123D03*
X0266033Y0251743D03*
X0272908Y0255493D03*
X0271033Y0275493D03*
D155*
X0272283Y0262683D03*
X0264783Y0261433D03*
X0271658Y0246433D03*
X0269158Y0223933D03*
X0288533Y0225183D03*
X0293533Y0216433D03*
D156*
X0289783Y0220498D03*
X0286658Y0219868D03*
X0289783Y0237368D03*
X0289158Y0242998D03*
X0289158Y0251748D03*
X0289783Y0251748D03*
X0274783Y0246748D03*
X0274158Y0246748D03*
X0271033Y0246118D03*
X0268533Y0245498D03*
X0267908Y0245498D03*
X0267908Y0251118D03*
X0274783Y0241748D03*
X0276033Y0241748D03*
X0272283Y0241118D03*
X0269158Y0240498D03*
X0268533Y0240498D03*
X0265408Y0239868D03*
X0267283Y0229248D03*
X0270408Y0229868D03*
X0266658Y0269248D03*
X0269783Y0269868D03*
X0272908Y0270498D03*
X0271658Y0274868D03*
X0267283Y0274248D03*
X0264783Y0279248D03*
X0267908Y0279868D03*
X0272908Y0279248D03*
X0289158Y0276748D03*
D157*
X0271970Y0234403D03*
X0266970Y0234713D03*
X0266345Y0234403D03*
X0265095Y0224713D03*
X0289470Y0225653D03*
X0290095Y0225653D03*
X0292595Y0224713D03*
D158*
X0284470Y0219248D03*
X0265095Y0228618D03*
X0290095Y0247058D03*
D159*
X0265720Y0245968D03*
X0265095Y0245968D03*
X0266970Y0223468D03*
X0286345Y0214088D03*
D160*
X0283845Y0216433D03*
X0284470Y0223933D03*
X0288220Y0250183D03*
X0271970Y0262683D03*
X0265095Y0261433D03*
D161*
X0268220Y0258933D03*
X0265095Y0268933D03*
X0265720Y0273933D03*
X0271345Y0270183D03*
X0270095Y0280183D03*
X0286970Y0281433D03*
X0288845Y0281433D03*
X0273220Y0246433D03*
X0266970Y0240183D03*
D162*
X0265408Y0224558D03*
X0287283Y0214558D03*
D163*
X0284783Y0219248D03*
X0292908Y0220808D03*
X0265408Y0228618D03*
X0275408Y0247998D03*
D164*
X0265408Y0245968D03*
X0267283Y0223468D03*
X0286658Y0214088D03*
D165*
X0287908Y0250028D03*
X0283533Y0250028D03*
X0265408Y0261588D03*
X0284158Y0285338D03*
X0291658Y0285338D03*
X0291658Y0273778D03*
D166*
X0283220Y0240808D03*
X0265720Y0224558D03*
X0286970Y0214558D03*
X0287595Y0214558D03*
D167*
X0291345Y0215023D03*
X0291970Y0224713D03*
X0287595Y0225343D03*
X0285095Y0224713D03*
X0271970Y0224403D03*
X0272595Y0234093D03*
X0268220Y0234713D03*
X0265720Y0234093D03*
X0271970Y0254403D03*
X0287595Y0258153D03*
X0288845Y0258153D03*
X0291970Y0273773D03*
X0291970Y0285343D03*
D168*
X0265720Y0253153D03*
X0268845Y0234403D03*
X0273845Y0225653D03*
X0290720Y0231903D03*
X0291345Y0231903D03*
X0293220Y0223463D03*
X0290720Y0249713D03*
D169*
X0284470Y0240028D03*
X0281345Y0220028D03*
X0295720Y0220028D03*
X0265720Y0261588D03*
X0281345Y0284088D03*
X0284470Y0285028D03*
X0291345Y0285028D03*
X0290720Y0274088D03*
D170*
X0280408Y0283618D03*
X0287908Y0257998D03*
X0288533Y0257998D03*
X0272283Y0234248D03*
X0269783Y0234868D03*
X0267908Y0234868D03*
X0266033Y0234248D03*
X0285408Y0224868D03*
X0287283Y0225498D03*
X0289158Y0225498D03*
X0291658Y0224868D03*
D171*
X0266033Y0245653D03*
X0266033Y0259403D03*
D172*
X0271033Y0260183D03*
X0270408Y0265183D03*
X0266033Y0263933D03*
X0270408Y0275183D03*
X0271033Y0280183D03*
X0284783Y0261433D03*
X0286658Y0260183D03*
X0289783Y0260183D03*
X0291033Y0261433D03*
X0266658Y0251433D03*
D173*
X0269783Y0245808D03*
X0270408Y0240808D03*
X0286033Y0237058D03*
X0286658Y0237058D03*
X0289158Y0237058D03*
X0285408Y0247058D03*
X0296033Y0257058D03*
X0268533Y0269558D03*
X0267908Y0269558D03*
X0266658Y0279558D03*
X0266033Y0279558D03*
X0282908Y0287058D03*
X0283533Y0287058D03*
D174*
X0272595Y0279243D03*
X0266345Y0223623D03*
X0285720Y0214243D03*
D175*
X0285095Y0237838D03*
X0266345Y0251588D03*
X0270720Y0275338D03*
D176*
X0268845Y0274558D03*
X0268220Y0269558D03*
X0266345Y0279558D03*
X0283220Y0287058D03*
X0283845Y0287058D03*
X0286345Y0247058D03*
X0286345Y0237058D03*
X0288845Y0237058D03*
X0289470Y0237058D03*
X0270720Y0240808D03*
X0270095Y0240808D03*
X0270095Y0245808D03*
X0269470Y0245808D03*
D177*
X0272283Y0254713D03*
X0271658Y0234713D03*
X0267283Y0234713D03*
X0266658Y0234713D03*
X0289783Y0225653D03*
X0292283Y0224713D03*
X0291658Y0214713D03*
D178*
X0270408Y0252058D03*
X0283533Y0262368D03*
X0284158Y0262058D03*
X0285408Y0261118D03*
X0290408Y0260808D03*
X0291658Y0262058D03*
X0289783Y0281748D03*
X0286033Y0281748D03*
X0269783Y0274868D03*
X0271033Y0264868D03*
X0266658Y0264558D03*
D179*
X0266970Y0229243D03*
X0286345Y0219873D03*
D180*
X0285095Y0215183D03*
X0268220Y0223933D03*
X0267595Y0223933D03*
X0271970Y0278933D03*
D181*
X0276345Y0270963D03*
X0293845Y0266903D03*
X0276345Y0241903D03*
X0270095Y0229713D03*
X0268220Y0229403D03*
X0267595Y0229403D03*
D182*
X0267595Y0234868D03*
X0269470Y0234868D03*
X0286970Y0225498D03*
X0288845Y0225498D03*
X0288220Y0257998D03*
D183*
X0291658Y0240183D03*
X0267908Y0223933D03*
X0284783Y0215183D03*
D184*
X0267908Y0229403D03*
X0296033Y0266903D03*
X0274783Y0270963D03*
D185*
X0276658Y0270968D03*
X0292283Y0274398D03*
X0292283Y0284718D03*
X0276658Y0241898D03*
X0268533Y0229088D03*
X0287908Y0219718D03*
X0292283Y0232838D03*
D186*
X0291345Y0240183D03*
X0271345Y0246433D03*
X0269470Y0223933D03*
X0268845Y0223933D03*
D187*
X0270408Y0224248D03*
X0271033Y0224248D03*
X0274158Y0225808D03*
X0269158Y0234558D03*
X0272283Y0246748D03*
X0272908Y0246748D03*
X0271658Y0254248D03*
X0287283Y0258308D03*
X0289158Y0258308D03*
X0290408Y0231748D03*
X0290408Y0214868D03*
X0289783Y0214868D03*
X0288533Y0214558D03*
D188*
X0269470Y0251433D03*
X0285095Y0261433D03*
X0290095Y0276433D03*
X0270720Y0280183D03*
D189*
X0270408Y0235028D03*
X0272908Y0234088D03*
X0272283Y0224088D03*
X0286033Y0225338D03*
X0286658Y0225338D03*
X0291033Y0225338D03*
D190*
X0270720Y0252213D03*
X0271345Y0260653D03*
X0271345Y0264403D03*
X0291970Y0262213D03*
D191*
X0271033Y0229873D03*
X0290408Y0220493D03*
D192*
X0271033Y0252683D03*
D193*
X0271345Y0229558D03*
D194*
X0273845Y0232838D03*
X0288220Y0225028D03*
X0293220Y0216278D03*
X0271345Y0254088D03*
D195*
X0271345Y0277523D03*
X0285095Y0284713D03*
X0290720Y0284713D03*
D196*
X0272283Y0275028D03*
X0287283Y0220028D03*
D197*
X0287595Y0220028D03*
X0286970Y0220028D03*
X0289470Y0220338D03*
X0272595Y0275028D03*
D198*
X0282283Y0281278D03*
X0292283Y0240028D03*
X0272908Y0230028D03*
X0284158Y0219088D03*
D199*
X0272908Y0262838D03*
D200*
X0273220Y0224558D03*
D201*
X0273220Y0227993D03*
X0292595Y0218623D03*
X0280095Y0283623D03*
X0283845Y0284243D03*
D202*
X0273220Y0230028D03*
D203*
X0273533Y0230183D03*
D204*
X0274158Y0232213D03*
X0284158Y0249713D03*
X0287283Y0249713D03*
D205*
X0275095Y0247218D03*
X0274470Y0241588D03*
X0274470Y0270968D03*
D206*
X0280720Y0283623D03*
X0283845Y0240493D03*
D207*
X0282595Y0220028D03*
X0294470Y0220028D03*
D208*
X0282908Y0240493D03*
X0288533Y0249243D03*
D209*
X0282908Y0249558D03*
D210*
X0283220Y0220028D03*
X0293845Y0220028D03*
D211*
X0283533Y0217058D03*
D212*
X0284470Y0249558D03*
X0286970Y0249558D03*
D213*
X0284783Y0240028D03*
X0293533Y0222838D03*
X0290408Y0274088D03*
D214*
X0284783Y0249558D03*
D215*
X0284783Y0284868D03*
X0291033Y0284868D03*
D216*
X0296345Y0266903D03*
X0285095Y0243153D03*
X0292595Y0220653D03*
D217*
X0292908Y0224558D03*
X0285408Y0214558D03*
D218*
X0285720Y0284558D03*
D219*
X0286970Y0240028D03*
X0288220Y0240028D03*
D220*
X0287908Y0240028D03*
X0287283Y0240028D03*
D221*
X0287595Y0240028D03*
D222*
X0288533Y0240028D03*
D223*
X0290408Y0240183D03*
D224*
X0290408Y0249873D03*
D225*
X0290720Y0220183D03*
D226*
X0290720Y0240183D03*
X0291345Y0273933D03*
D227*
X0291033Y0240183D03*
D228*
X0291970Y0240183D03*
D229*
X0292283Y0249558D03*
M02*
