G75*
%MOIN*%
%OFA0B0*%
%FSLAX25Y25*%
%IPPOS*%
%LPD*%
%AMOC8*
5,1,8,0,0,1.08239X$1,22.5*
%
%ADD10R,0.07200X0.07200*%
%ADD11C,0.07200*%
%ADD12C,0.04537*%
%ADD13C,0.08000*%
%ADD14R,0.04931X0.04537*%
%ADD15R,0.04537X0.04931*%
%ADD16C,0.07096*%
%ADD17C,0.07687*%
%ADD18C,0.05100*%
%ADD19R,0.01978X0.09261*%
%ADD20C,0.02175*%
%ADD21C,0.13100*%
%ADD22OC8,0.06600*%
%ADD23C,0.04200*%
%ADD24C,0.05850*%
%ADD25C,0.03700*%
%ADD26C,0.04700*%
D10*
X0122595Y0068933D03*
X0282595Y0198933D03*
X0312595Y0273933D03*
X0122595Y0273933D03*
D11*
X0122595Y0263933D03*
X0122595Y0253933D03*
X0122595Y0243933D03*
X0122595Y0233933D03*
X0122595Y0223933D03*
X0122595Y0213933D03*
X0122595Y0203933D03*
X0122595Y0193933D03*
X0122595Y0183933D03*
X0122595Y0173933D03*
X0122595Y0163933D03*
X0122595Y0153933D03*
X0122595Y0143933D03*
X0122595Y0133933D03*
X0122595Y0123933D03*
X0122595Y0113933D03*
X0122595Y0103933D03*
X0122595Y0093933D03*
X0122595Y0083933D03*
X0132595Y0068933D03*
X0142595Y0068933D03*
X0152595Y0068933D03*
X0162595Y0068933D03*
X0172595Y0068933D03*
X0182595Y0068933D03*
X0192595Y0068933D03*
X0202595Y0068933D03*
X0212595Y0068933D03*
X0222595Y0068933D03*
X0232595Y0068933D03*
X0242595Y0068933D03*
X0252595Y0068933D03*
X0262595Y0068933D03*
X0272595Y0068933D03*
X0282595Y0068933D03*
X0292595Y0068933D03*
X0302595Y0068933D03*
X0312595Y0068933D03*
X0312595Y0083933D03*
X0312595Y0093933D03*
X0312595Y0103933D03*
X0312595Y0113933D03*
X0312595Y0123933D03*
X0312595Y0133933D03*
X0312595Y0143933D03*
X0312595Y0153933D03*
X0312595Y0163933D03*
X0312595Y0173933D03*
X0312595Y0183933D03*
X0312595Y0193933D03*
X0312595Y0203933D03*
X0312595Y0213933D03*
X0312595Y0223933D03*
X0312595Y0233933D03*
X0312595Y0243933D03*
X0312595Y0253933D03*
X0312595Y0263933D03*
X0282595Y0208933D03*
D12*
X0167595Y0123933D03*
X0163595Y0093933D03*
X0171595Y0093933D03*
D13*
X0174795Y0195033D03*
X0174795Y0212833D03*
X0187595Y0223933D03*
X0197595Y0223933D03*
X0207595Y0223933D03*
X0217595Y0223933D03*
X0227595Y0223933D03*
X0237595Y0223933D03*
X0247595Y0223933D03*
X0234795Y0212833D03*
X0234795Y0195033D03*
X0260395Y0195033D03*
X0260395Y0212833D03*
X0200395Y0212833D03*
X0200395Y0195033D03*
D14*
X0219249Y0173933D03*
X0225942Y0173933D03*
X0225942Y0166433D03*
X0219249Y0166433D03*
X0230749Y0136933D03*
X0237442Y0136933D03*
X0191095Y0265587D03*
X0191095Y0272280D03*
D15*
X0183595Y0272280D03*
X0183595Y0265587D03*
X0230095Y0265587D03*
X0230095Y0272280D03*
X0237595Y0272280D03*
X0237595Y0265587D03*
X0247095Y0265587D03*
X0247095Y0272280D03*
X0254595Y0272280D03*
X0254595Y0265587D03*
X0207595Y0194780D03*
X0207595Y0188087D03*
X0207595Y0170280D03*
X0207595Y0163587D03*
X0224095Y0138280D03*
X0224095Y0131587D03*
X0196095Y0129087D03*
X0196095Y0135780D03*
X0187595Y0137280D03*
X0187595Y0130587D03*
D16*
X0272438Y0123146D03*
X0272438Y0094720D03*
D17*
X0267162Y0104209D03*
X0267162Y0113657D03*
D18*
X0252595Y0143333D03*
X0252595Y0162533D03*
D19*
X0252044Y0284157D03*
X0254800Y0284157D03*
X0257556Y0284157D03*
X0249288Y0284157D03*
X0246532Y0284157D03*
X0243776Y0284157D03*
X0241020Y0284157D03*
X0238264Y0284157D03*
X0235509Y0284157D03*
X0232753Y0284157D03*
X0229997Y0284157D03*
X0227241Y0284157D03*
X0224485Y0284157D03*
X0221729Y0284157D03*
X0218973Y0284157D03*
X0216217Y0284157D03*
X0213461Y0284157D03*
X0210705Y0284157D03*
X0207949Y0284157D03*
X0205194Y0284157D03*
X0202438Y0284157D03*
X0199682Y0284157D03*
X0196926Y0284157D03*
X0194170Y0284157D03*
X0191414Y0284157D03*
X0188658Y0284157D03*
X0185902Y0284157D03*
X0183146Y0284157D03*
X0180390Y0284157D03*
X0177635Y0284157D03*
D20*
X0186099Y0300890D03*
X0249091Y0300890D03*
D21*
X0292595Y0298933D03*
X0142595Y0298933D03*
X0212595Y0098933D03*
D22*
X0187595Y0143933D03*
X0147595Y0133933D03*
X0278595Y0140433D03*
X0290095Y0161433D03*
X0297595Y0228933D03*
D23*
X0278095Y0223933D03*
X0247595Y0203933D03*
X0230595Y0186433D03*
X0231095Y0172433D03*
X0232595Y0163933D03*
X0233095Y0158933D03*
X0225095Y0158933D03*
X0214095Y0171433D03*
X0207595Y0175433D03*
X0202595Y0186433D03*
X0183095Y0167433D03*
X0171095Y0167433D03*
X0164095Y0139933D03*
X0191095Y0125433D03*
X0198095Y0121433D03*
X0203595Y0114433D03*
X0203095Y0102933D03*
X0198095Y0093933D03*
X0187595Y0083933D03*
X0149095Y0083933D03*
X0196095Y0140933D03*
X0202595Y0148933D03*
X0206595Y0151933D03*
X0202095Y0163433D03*
X0230095Y0131433D03*
X0239595Y0129933D03*
X0242095Y0140433D03*
X0264595Y0152933D03*
X0282095Y0169933D03*
X0282595Y0151933D03*
X0290595Y0132433D03*
X0256095Y0091933D03*
X0229095Y0110933D03*
X0152595Y0222933D03*
X0187595Y0250433D03*
X0187095Y0259933D03*
X0196595Y0251433D03*
X0203595Y0247933D03*
X0217595Y0253933D03*
X0234095Y0259933D03*
X0217595Y0271933D03*
X0224629Y0276433D03*
X0233595Y0276933D03*
X0230095Y0291933D03*
X0238095Y0291933D03*
X0243595Y0291933D03*
X0262095Y0283933D03*
X0179095Y0292433D03*
D24*
X0284095Y0113933D03*
X0284095Y0103433D03*
D25*
X0182615Y0108933D03*
X0177595Y0113933D03*
X0177595Y0118933D03*
X0177595Y0103933D03*
X0157595Y0098933D03*
X0157595Y0108933D03*
X0157595Y0118933D03*
X0155674Y0154012D03*
X0140595Y0168933D03*
X0151595Y0178933D03*
X0217595Y0194933D03*
D26*
X0227595Y0142933D03*
M02*
