G75*
%MOIN*%
%OFA0B0*%
%FSLAX25Y25*%
%IPPOS*%
%LPD*%
%AMOC8*
5,1,8,0,0,1.08239X$1,22.5*
%
%ADD10R,0.04331X0.03937*%
%ADD11R,0.03937X0.04331*%
%ADD12R,0.01378X0.08661*%
D10*
X0219249Y0166433D03*
X0225942Y0166433D03*
X0225942Y0173933D03*
X0219249Y0173933D03*
X0230749Y0136933D03*
X0237442Y0136933D03*
X0191095Y0265587D03*
X0191095Y0272280D03*
D11*
X0187595Y0130587D03*
X0187595Y0137280D03*
X0196095Y0135780D03*
X0196095Y0129087D03*
X0224095Y0131587D03*
X0224095Y0138280D03*
X0207595Y0163587D03*
X0207595Y0170280D03*
X0207595Y0188087D03*
X0207595Y0194780D03*
X0230095Y0265587D03*
X0230095Y0272280D03*
X0237595Y0272280D03*
X0237595Y0265587D03*
X0247095Y0265587D03*
X0247095Y0272280D03*
X0254595Y0272280D03*
X0254595Y0265587D03*
X0183595Y0265587D03*
X0183595Y0272280D03*
D12*
X0183146Y0284157D03*
X0180390Y0284157D03*
X0177635Y0284157D03*
X0185902Y0284157D03*
X0188658Y0284157D03*
X0191414Y0284157D03*
X0194170Y0284157D03*
X0196926Y0284157D03*
X0199682Y0284157D03*
X0202438Y0284157D03*
X0205194Y0284157D03*
X0207949Y0284157D03*
X0210705Y0284157D03*
X0213461Y0284157D03*
X0216217Y0284157D03*
X0218973Y0284157D03*
X0221729Y0284157D03*
X0224485Y0284157D03*
X0227241Y0284157D03*
X0229997Y0284157D03*
X0232753Y0284157D03*
X0235509Y0284157D03*
X0238264Y0284157D03*
X0241020Y0284157D03*
X0243776Y0284157D03*
X0246532Y0284157D03*
X0249288Y0284157D03*
X0252044Y0284157D03*
X0254800Y0284157D03*
X0257556Y0284157D03*
M02*
