%
M48
M72
T01C0.0150
T02C0.0157
T03C0.0200
T04C0.0250
T05C0.0350
T06C0.0394
T07C0.0400
T08C0.0433
T09C0.0472
T10C0.1250
%
T01
X15760Y9893
X15760Y10893
X15760Y11893
X17760Y11893
X17760Y11393
X18261Y10893
X17760Y10393
X15567Y15401
X14060Y16893
X15160Y17893
X21760Y19493
T02
X24909Y30089
X18610Y30089
T03
X17910Y29243
X18710Y25993
X18760Y25043
X19660Y25143
X20360Y24793
X21760Y25393
X23410Y25993
X21760Y27193
X22463Y27643
X23360Y27693
X23010Y29193
X23810Y29193
X24360Y29193
X26210Y28393
X27810Y22393
X24760Y20393
X23060Y18643
X23110Y17243
X23260Y16393
X23310Y15893
X22510Y15893
X21410Y17143
X20760Y17543
X20260Y18643
X18310Y16743
X17110Y16743
X16410Y13993
X19110Y12543
X19810Y12143
X20360Y11443
X20310Y10293
X19810Y9393
X18760Y8393
X14910Y8393
X19610Y14093
X20260Y14893
X20660Y15193
X20210Y16343
X23010Y13143
X23960Y12993
X24210Y14043
X26460Y15293
X28210Y16993
X28260Y15193
X29060Y13243
X25610Y9193
X22910Y11093
X15260Y22293
T04
X22760Y14293
X25260Y14333
X25260Y16253
T05
X28410Y11393
X28410Y10343
T06
X17160Y9393
X16360Y9393
X16760Y12393
T07
X12260Y6893
X13260Y6893
X14260Y6893
X15260Y6893
X16260Y6893
X17260Y6893
X18260Y6893
X19260Y6893
X20260Y6893
X21260Y6893
X22260Y6893
X23260Y6893
X24260Y6893
X25260Y6893
X26260Y6893
X27260Y6893
X28260Y6893
X29260Y6893
X30260Y6893
X31260Y6893
X31260Y8393
X31260Y9393
X31260Y10393
X31260Y11393
X31260Y12393
X31260Y13393
X31260Y14393
X31260Y15393
X31260Y16393
X31260Y17393
X31260Y18393
X31260Y19393
X31260Y20393
X31260Y21393
X31260Y22393
X31260Y23393
X31260Y24393
X31260Y25393
X31260Y26393
X31260Y27393
X29760Y22893
X28260Y20893
X28260Y19893
X26040Y19503
X26040Y21283
X24760Y22393
X23760Y22393
X22760Y22393
X21760Y22393
X20760Y22393
X19760Y22393
X18760Y22393
X20040Y21283
X20040Y19503
X17480Y19503
X17480Y21283
X12260Y21393
X12260Y20393
X12260Y19393
X12260Y18393
X12260Y17393
X12260Y16393
X12260Y15393
X12260Y14393
X12260Y13393
X12260Y12393
X12260Y11393
X12260Y10393
X12260Y9393
X12260Y8393
X14760Y13393
X18760Y14393
X23480Y19503
X23480Y21283
X29010Y16143
X27860Y14043
X12260Y22393
X12260Y23393
X12260Y24393
X12260Y25393
X12260Y26393
X12260Y27393
T08
X27244Y12315
X27244Y9472
T09
X26716Y10421
X26716Y11366
T10
X21260Y9893
X14260Y29893
X29260Y29893
M30
