G75*
%MOIN*%
%OFA0B0*%
%FSLAX25Y25*%
%IPPOS*%
%LPD*%
%AMOC8*
5,1,8,0,0,1.08239X$1,22.5*
%
%ADD10C,0.00500*%
%ADD11C,0.00600*%
%ADD12C,0.00800*%
%ADD13R,0.02000X0.02000*%
%ADD14R,0.02810X0.00312*%
%ADD15R,0.05000X0.00313*%
%ADD16R,0.06880X0.00312*%
%ADD17R,0.07810X0.00313*%
%ADD18R,0.09060X0.00312*%
%ADD19R,0.09690X0.00313*%
%ADD20R,0.10620X0.00312*%
%ADD21R,0.11250X0.00313*%
%ADD22R,0.11880X0.00312*%
%ADD23R,0.06560X0.00313*%
%ADD24R,0.05630X0.00313*%
%ADD25R,0.02180X0.00313*%
%ADD26R,0.02500X0.00313*%
%ADD27R,0.05930X0.00312*%
%ADD28R,0.05310X0.00312*%
%ADD29R,0.02500X0.00312*%
%ADD30R,0.04370X0.00312*%
%ADD31R,0.04060X0.00312*%
%ADD32R,0.02190X0.00312*%
%ADD33R,0.04060X0.00313*%
%ADD34R,0.00620X0.00313*%
%ADD35R,0.05620X0.00313*%
%ADD36R,0.03440X0.00313*%
%ADD37R,0.05320X0.00313*%
%ADD38R,0.02190X0.00313*%
%ADD39R,0.04380X0.00312*%
%ADD40R,0.00310X0.00312*%
%ADD41R,0.03750X0.00312*%
%ADD42R,0.05940X0.00312*%
%ADD43R,0.02180X0.00312*%
%ADD44R,0.04690X0.00313*%
%ADD45R,0.00310X0.00313*%
%ADD46R,0.03750X0.00313*%
%ADD47R,0.06250X0.00313*%
%ADD48R,0.04690X0.00312*%
%ADD49R,0.05000X0.00312*%
%ADD50R,0.05620X0.00312*%
%ADD51R,0.06870X0.00312*%
%ADD52R,0.04690X0.00313*%
%ADD53R,0.03120X0.00313*%
%ADD54R,0.02820X0.00313*%
%ADD55R,0.02190X0.00313*%
%ADD56R,0.03440X0.00312*%
%ADD57R,0.03130X0.00312*%
%ADD58R,0.02190X0.00312*%
%ADD59R,0.04380X0.00313*%
%ADD60R,0.02810X0.00313*%
%ADD61R,0.01560X0.00312*%
%ADD62R,0.04680X0.00312*%
%ADD63R,0.01880X0.00312*%
%ADD64R,0.04690X0.00312*%
%ADD65R,0.04680X0.00313*%
%ADD66R,0.01880X0.00313*%
%ADD67R,0.01250X0.00313*%
%ADD68R,0.05320X0.00312*%
%ADD69R,0.05310X0.00313*%
%ADD70R,0.02820X0.00312*%
%ADD71R,0.04370X0.00313*%
%ADD72R,0.03120X0.00312*%
%ADD73R,0.01560X0.00313*%
%ADD74R,0.03440X0.00313*%
%ADD75R,0.00930X0.00312*%
%ADD76R,0.05630X0.00312*%
%ADD77R,0.07500X0.00312*%
%ADD78R,0.01870X0.00313*%
%ADD79R,0.01870X0.00312*%
%ADD80R,0.00630X0.00313*%
%ADD81R,0.03130X0.00313*%
%ADD82R,0.04070X0.00312*%
%ADD83R,0.00940X0.00312*%
%ADD84R,0.00630X0.00312*%
%ADD85R,0.00320X0.00313*%
%ADD86R,0.06880X0.00313*%
%ADD87R,0.01250X0.00312*%
%ADD88R,0.05940X0.00312*%
%ADD89R,0.10630X0.00312*%
%ADD90R,0.00940X0.00313*%
%ADD91R,0.01570X0.00313*%
%ADD92R,0.11870X0.00312*%
%ADD93R,0.06570X0.00313*%
%ADD94R,0.07190X0.00312*%
%ADD95R,0.06870X0.00313*%
%ADD96R,0.07190X0.00313*%
%ADD97R,0.07190X0.00313*%
%ADD98R,0.00620X0.00312*%
%ADD99R,0.04070X0.00313*%
%ADD100R,0.07810X0.00312*%
%ADD101R,0.08130X0.00312*%
%ADD102R,0.08750X0.00313*%
%ADD103R,0.08750X0.00312*%
%ADD104R,0.08130X0.00313*%
%ADD105R,0.07180X0.00313*%
%ADD106R,0.05940X0.00313*%
%ADD107R,0.00940X0.00312*%
%ADD108R,0.06560X0.00312*%
%ADD109R,0.05940X0.00313*%
%ADD110R,0.03440X0.00312*%
%ADD111R,0.00930X0.00313*%
D10*
X0138341Y0122434D02*
X0138341Y0123935D01*
X0139092Y0124686D01*
X0140593Y0124686D02*
X0140593Y0123184D01*
X0140593Y0124686D02*
X0142095Y0124686D01*
X0142845Y0123935D01*
X0142845Y0122434D01*
X0142095Y0121683D01*
X0139092Y0121683D01*
X0138341Y0122434D01*
X0138341Y0126287D02*
X0142845Y0126287D01*
X0142845Y0129290D01*
X0142845Y0130891D02*
X0142845Y0132392D01*
X0142845Y0131642D02*
X0138341Y0131642D01*
X0138341Y0132392D02*
X0138341Y0130891D01*
X0138341Y0133960D02*
X0138341Y0136963D01*
X0138341Y0135461D02*
X0142845Y0135461D01*
X0142095Y0138564D02*
X0142845Y0139315D01*
X0142845Y0140816D01*
X0142095Y0141567D01*
X0142845Y0143168D02*
X0138341Y0143168D01*
X0139092Y0141567D02*
X0138341Y0140816D01*
X0138341Y0139315D01*
X0139092Y0138564D01*
X0142095Y0138564D01*
X0140593Y0143168D02*
X0140593Y0146171D01*
X0138341Y0146171D02*
X0142845Y0146171D01*
X0162595Y0128933D02*
X0172595Y0128933D01*
X0177595Y0123933D01*
X0177595Y0088933D01*
X0157595Y0088933D01*
X0157595Y0123933D01*
X0162595Y0128933D01*
X0171808Y0138421D02*
X0174957Y0138421D01*
X0174957Y0140783D01*
X0170233Y0143146D02*
X0170233Y0144720D01*
X0174957Y0147083D02*
X0174957Y0149445D01*
X0171808Y0149445D01*
X0185841Y0148183D02*
X0188844Y0148183D01*
X0190345Y0149684D01*
X0188844Y0151186D01*
X0185841Y0151186D01*
X0186592Y0152787D02*
X0189595Y0152787D01*
X0190345Y0153538D01*
X0190345Y0155039D01*
X0189595Y0155790D01*
X0189595Y0157391D02*
X0186592Y0157391D01*
X0185841Y0158142D01*
X0185841Y0159643D01*
X0186592Y0160393D01*
X0189595Y0160393D01*
X0190345Y0159643D01*
X0190345Y0158142D01*
X0189595Y0157391D01*
X0186592Y0155790D02*
X0185841Y0155039D01*
X0185841Y0153538D01*
X0186592Y0152787D01*
X0185841Y0161995D02*
X0185841Y0164247D01*
X0186592Y0164997D01*
X0188093Y0164997D01*
X0188844Y0164247D01*
X0188844Y0161995D01*
X0188844Y0163496D02*
X0190345Y0164997D01*
X0190345Y0166599D02*
X0190345Y0169601D01*
X0188093Y0168100D02*
X0188093Y0166599D01*
X0185841Y0166599D02*
X0190345Y0166599D01*
X0185841Y0166599D02*
X0185841Y0169601D01*
X0185841Y0161995D02*
X0190345Y0161995D01*
X0197910Y0175665D02*
X0197910Y0178618D01*
X0200863Y0178618D01*
X0234327Y0178618D02*
X0237280Y0178618D01*
X0237280Y0175665D01*
X0263345Y0198934D02*
X0264096Y0198183D01*
X0265597Y0198183D01*
X0266348Y0198934D01*
X0266348Y0199684D01*
X0265597Y0200435D01*
X0264846Y0200435D01*
X0265597Y0200435D02*
X0266348Y0201186D01*
X0266348Y0201936D01*
X0265597Y0202687D01*
X0264096Y0202687D01*
X0263345Y0201936D01*
X0265096Y0205683D02*
X0266597Y0205683D01*
X0267348Y0206434D01*
X0267348Y0207935D01*
X0265846Y0207935D01*
X0264345Y0209436D02*
X0264345Y0206434D01*
X0265096Y0205683D01*
X0264345Y0209436D02*
X0265096Y0210187D01*
X0266597Y0210187D01*
X0267348Y0209436D01*
X0268949Y0210187D02*
X0271952Y0205683D01*
X0271952Y0210187D01*
X0273553Y0210187D02*
X0275805Y0210187D01*
X0276556Y0209436D01*
X0276556Y0206434D01*
X0275805Y0205683D01*
X0273553Y0205683D01*
X0273553Y0210187D01*
X0268949Y0210187D02*
X0268949Y0205683D01*
X0271002Y0202687D02*
X0272503Y0202687D01*
X0273254Y0201936D01*
X0273254Y0201186D01*
X0272503Y0200435D01*
X0273254Y0199684D01*
X0273254Y0198934D01*
X0272503Y0198183D01*
X0271002Y0198183D01*
X0270251Y0198934D01*
X0268700Y0198934D02*
X0268700Y0198183D01*
X0267949Y0198183D01*
X0267949Y0198934D01*
X0268700Y0198934D01*
X0270251Y0201936D02*
X0271002Y0202687D01*
X0271752Y0200435D02*
X0272503Y0200435D01*
X0274855Y0199684D02*
X0274855Y0202687D01*
X0277858Y0202687D02*
X0277858Y0199684D01*
X0276356Y0198183D01*
X0274855Y0199684D01*
X0275095Y0180433D02*
X0272595Y0180433D01*
X0272595Y0177933D02*
X0275095Y0180433D01*
X0277595Y0177933D01*
X0272595Y0177933D01*
X0275095Y0180433D02*
X0277595Y0180433D01*
X0287595Y0180433D02*
X0290095Y0180433D01*
X0287595Y0177933D01*
X0292595Y0177933D01*
X0290095Y0180433D01*
X0292595Y0180433D01*
X0295341Y0169463D02*
X0299845Y0169463D01*
X0295341Y0166460D01*
X0299845Y0166460D01*
X0299845Y0164892D02*
X0299845Y0163391D01*
X0299845Y0164142D02*
X0295341Y0164142D01*
X0295341Y0164892D02*
X0295341Y0163391D01*
X0300596Y0161790D02*
X0300596Y0158787D01*
X0298344Y0157186D02*
X0299845Y0155684D01*
X0298344Y0154183D01*
X0295341Y0154183D01*
X0295341Y0157186D02*
X0298344Y0157186D01*
X0284501Y0153902D02*
X0284501Y0148980D01*
X0281548Y0148980D01*
X0275642Y0148980D02*
X0272690Y0148980D01*
X0272690Y0153902D01*
X0277611Y0154886D02*
X0279579Y0154886D01*
X0273344Y0146195D02*
X0270341Y0146195D01*
X0270341Y0143193D02*
X0273344Y0143193D01*
X0274845Y0144694D01*
X0273344Y0146195D01*
X0274095Y0141592D02*
X0271092Y0141592D01*
X0274095Y0138589D01*
X0274845Y0139340D01*
X0274845Y0140841D01*
X0274095Y0141592D01*
X0274095Y0138589D02*
X0271092Y0138589D01*
X0270341Y0139340D01*
X0270341Y0140841D01*
X0271092Y0141592D01*
X0274095Y0137038D02*
X0274845Y0137038D01*
X0274845Y0136287D01*
X0274095Y0136287D01*
X0274095Y0137038D01*
X0274095Y0134686D02*
X0274845Y0133935D01*
X0274845Y0132434D01*
X0274095Y0131683D01*
X0272593Y0131683D02*
X0271843Y0133184D01*
X0271843Y0133935D01*
X0272593Y0134686D01*
X0274095Y0134686D01*
X0272593Y0131683D02*
X0270341Y0131683D01*
X0270341Y0134686D01*
X0267753Y0123697D02*
X0267753Y0118776D01*
X0277595Y0116807D02*
X0277595Y0123697D01*
X0277595Y0101059D02*
X0277595Y0094169D01*
X0267753Y0094169D02*
X0267753Y0099091D01*
X0282845Y0081187D02*
X0285097Y0081187D01*
X0285848Y0080436D01*
X0285848Y0078935D01*
X0285097Y0078184D01*
X0282845Y0078184D01*
X0282845Y0076683D02*
X0282845Y0081187D01*
X0284346Y0078184D02*
X0285848Y0076683D01*
X0287449Y0077434D02*
X0287449Y0078935D01*
X0288200Y0079686D01*
X0289701Y0079686D01*
X0290452Y0078935D01*
X0290452Y0078184D01*
X0287449Y0078184D01*
X0287449Y0077434D02*
X0288200Y0076683D01*
X0289701Y0076683D01*
X0292053Y0079686D02*
X0293554Y0076683D01*
X0295056Y0079686D01*
X0296657Y0077434D02*
X0297408Y0077434D01*
X0297408Y0076683D01*
X0296657Y0076683D01*
X0296657Y0077434D01*
X0303563Y0076683D02*
X0303563Y0079686D01*
X0305064Y0081187D01*
X0306565Y0079686D01*
X0306565Y0076683D01*
X0306565Y0078935D02*
X0303563Y0078935D01*
X0237280Y0142201D02*
X0234327Y0139248D01*
X0200863Y0139248D02*
X0197910Y0139248D01*
X0197910Y0142201D01*
X0154595Y0213183D02*
X0150595Y0213183D01*
X0152595Y0214683D01*
X0154595Y0213183D01*
X0154595Y0214683D02*
X0152595Y0214683D01*
X0150595Y0214683D01*
X0184345Y0230433D02*
X0184345Y0239641D01*
X0186092Y0238290D02*
X0185341Y0237539D01*
X0185341Y0236038D01*
X0186092Y0235287D01*
X0186843Y0235287D01*
X0187593Y0236038D01*
X0187593Y0237539D01*
X0188344Y0238290D01*
X0189095Y0238290D01*
X0189845Y0237539D01*
X0189845Y0236038D01*
X0189095Y0235287D01*
X0189095Y0233686D02*
X0189845Y0232935D01*
X0189845Y0231434D01*
X0189095Y0230683D01*
X0186092Y0230683D01*
X0185341Y0231434D01*
X0185341Y0232935D01*
X0186092Y0233686D01*
X0195341Y0232935D02*
X0195341Y0230683D01*
X0199845Y0230683D01*
X0199845Y0232935D01*
X0199095Y0233686D01*
X0196092Y0233686D01*
X0195341Y0232935D01*
X0196092Y0235287D02*
X0199095Y0235287D01*
X0199845Y0236038D01*
X0199845Y0237539D01*
X0199095Y0238290D01*
X0196092Y0238290D02*
X0195341Y0237539D01*
X0195341Y0236038D01*
X0196092Y0235287D01*
X0204345Y0230433D02*
X0204345Y0244245D01*
X0206092Y0242893D02*
X0205341Y0242143D01*
X0205341Y0240642D01*
X0206092Y0239891D01*
X0206843Y0239891D01*
X0207593Y0240642D01*
X0207593Y0242143D01*
X0208344Y0242893D01*
X0209095Y0242893D01*
X0209845Y0242143D01*
X0209845Y0240642D01*
X0209095Y0239891D01*
X0209845Y0238290D02*
X0209845Y0235287D01*
X0205341Y0235287D01*
X0205341Y0238290D01*
X0207593Y0236788D02*
X0207593Y0235287D01*
X0207593Y0233686D02*
X0208344Y0232935D01*
X0208344Y0230683D01*
X0209845Y0230683D02*
X0205341Y0230683D01*
X0205341Y0232935D01*
X0206092Y0233686D01*
X0207593Y0233686D01*
X0208344Y0232184D02*
X0209845Y0233686D01*
X0215341Y0232935D02*
X0215341Y0230683D01*
X0219845Y0230683D01*
X0219845Y0232935D01*
X0219095Y0233686D01*
X0216092Y0233686D01*
X0215341Y0232935D01*
X0216843Y0235287D02*
X0215341Y0236788D01*
X0219845Y0236788D01*
X0219845Y0235287D02*
X0219845Y0238290D01*
X0225341Y0237539D02*
X0226092Y0238290D01*
X0229095Y0235287D01*
X0229845Y0236038D01*
X0229845Y0237539D01*
X0229095Y0238290D01*
X0226092Y0238290D01*
X0225341Y0237539D02*
X0225341Y0236038D01*
X0226092Y0235287D01*
X0229095Y0235287D01*
X0229095Y0233686D02*
X0226092Y0233686D01*
X0225341Y0232935D01*
X0225341Y0230683D01*
X0229845Y0230683D01*
X0229845Y0232935D01*
X0229095Y0233686D01*
X0234841Y0232935D02*
X0235592Y0233686D01*
X0236343Y0233686D01*
X0237093Y0232935D01*
X0237844Y0233686D01*
X0238595Y0233686D01*
X0239345Y0232935D01*
X0239345Y0231434D01*
X0238595Y0230683D01*
X0237093Y0232184D02*
X0237093Y0232935D01*
X0234841Y0232935D02*
X0234841Y0231434D01*
X0235592Y0230683D01*
X0238595Y0235287D02*
X0238595Y0236038D01*
X0239345Y0236038D01*
X0239345Y0235287D01*
X0238595Y0235287D01*
X0238595Y0237589D02*
X0239345Y0238340D01*
X0239345Y0239841D01*
X0238595Y0240592D01*
X0237844Y0240592D01*
X0237093Y0239841D01*
X0237093Y0239090D01*
X0237093Y0239841D02*
X0236343Y0240592D01*
X0235592Y0240592D01*
X0234841Y0239841D01*
X0234841Y0238340D01*
X0235592Y0237589D01*
X0234841Y0242193D02*
X0237844Y0242193D01*
X0239345Y0243694D01*
X0237844Y0245195D01*
X0234841Y0245195D01*
X0245341Y0242143D02*
X0245341Y0239891D01*
X0249845Y0239891D01*
X0249845Y0242143D01*
X0249095Y0242893D01*
X0246092Y0242893D01*
X0245341Y0242143D01*
X0245341Y0238290D02*
X0249845Y0238290D01*
X0245341Y0235287D01*
X0249845Y0235287D01*
X0249095Y0233686D02*
X0247593Y0233686D01*
X0247593Y0232184D01*
X0246092Y0230683D02*
X0249095Y0230683D01*
X0249845Y0231434D01*
X0249845Y0232935D01*
X0249095Y0233686D01*
X0246092Y0233686D02*
X0245341Y0232935D01*
X0245341Y0231434D01*
X0246092Y0230683D01*
X0294841Y0235184D02*
X0296343Y0233683D01*
X0294841Y0235184D02*
X0299345Y0235184D01*
X0299345Y0233683D02*
X0299345Y0236686D01*
X0299345Y0238287D02*
X0299345Y0239038D01*
X0298595Y0239038D01*
X0298595Y0238287D01*
X0299345Y0238287D01*
X0299345Y0240589D02*
X0296343Y0243592D01*
X0295592Y0243592D01*
X0294841Y0242841D01*
X0294841Y0241340D01*
X0295592Y0240589D01*
X0299345Y0240589D02*
X0299345Y0243592D01*
X0297844Y0245193D02*
X0299345Y0246694D01*
X0297844Y0248195D01*
X0294841Y0248195D01*
X0294841Y0245193D02*
X0297844Y0245193D01*
D11*
X0137129Y0088733D02*
X0136395Y0089467D01*
X0136395Y0092403D01*
X0137129Y0093137D01*
X0138597Y0093137D01*
X0139331Y0092403D01*
X0140999Y0091669D02*
X0142467Y0093137D01*
X0142467Y0088733D01*
X0140999Y0088733D02*
X0143935Y0088733D01*
X0139331Y0089467D02*
X0138597Y0088733D01*
X0137129Y0088733D01*
X0180395Y0124467D02*
X0180395Y0127403D01*
X0181129Y0128137D01*
X0182597Y0128137D01*
X0183331Y0127403D01*
X0184999Y0127403D02*
X0185733Y0128137D01*
X0187201Y0128137D01*
X0187935Y0127403D01*
X0187935Y0126669D01*
X0184999Y0123733D01*
X0187935Y0123733D01*
X0183331Y0124467D02*
X0182597Y0123733D01*
X0181129Y0123733D01*
X0180395Y0124467D01*
X0170201Y0130733D02*
X0170201Y0135137D01*
X0167999Y0132935D01*
X0170935Y0132935D01*
X0166331Y0135137D02*
X0164863Y0135137D01*
X0165597Y0135137D02*
X0165597Y0131467D01*
X0164863Y0130733D01*
X0164129Y0130733D01*
X0163395Y0131467D01*
X0152795Y0140233D02*
X0148391Y0140233D01*
X0148391Y0142435D01*
X0149125Y0143169D01*
X0150593Y0143169D01*
X0151327Y0142435D01*
X0151327Y0140233D01*
X0151327Y0141701D02*
X0152795Y0143169D01*
X0152061Y0144837D02*
X0151327Y0144837D01*
X0150593Y0145571D01*
X0150593Y0147039D01*
X0151327Y0147773D01*
X0152061Y0147773D01*
X0152795Y0147039D01*
X0152795Y0145571D01*
X0152061Y0144837D01*
X0150593Y0145571D02*
X0149859Y0144837D01*
X0149125Y0144837D01*
X0148391Y0145571D01*
X0148391Y0147039D01*
X0149125Y0147773D01*
X0149859Y0147773D01*
X0150593Y0147039D01*
X0169021Y0152341D02*
X0169755Y0151607D01*
X0171223Y0151607D01*
X0171957Y0152341D01*
X0171957Y0155277D01*
X0171223Y0156011D01*
X0169755Y0156011D01*
X0169021Y0155277D01*
X0169021Y0152341D01*
X0170489Y0153075D02*
X0171957Y0151607D01*
X0173625Y0151607D02*
X0176561Y0151607D01*
X0175093Y0151607D02*
X0175093Y0156011D01*
X0173625Y0154543D01*
X0175391Y0171233D02*
X0175391Y0173435D01*
X0176125Y0174169D01*
X0177593Y0174169D01*
X0178327Y0173435D01*
X0178327Y0171233D01*
X0178327Y0172701D02*
X0179795Y0174169D01*
X0179795Y0175837D02*
X0179795Y0178773D01*
X0179795Y0177305D02*
X0175391Y0177305D01*
X0176859Y0175837D01*
X0176125Y0180441D02*
X0175391Y0181175D01*
X0175391Y0182643D01*
X0176125Y0183377D01*
X0176859Y0183377D01*
X0177593Y0182643D01*
X0178327Y0183377D01*
X0179061Y0183377D01*
X0179795Y0182643D01*
X0179795Y0181175D01*
X0179061Y0180441D01*
X0177593Y0181909D02*
X0177593Y0182643D01*
X0167295Y0183377D02*
X0167295Y0180441D01*
X0164359Y0183377D01*
X0163625Y0183377D01*
X0162891Y0182643D01*
X0162891Y0181175D01*
X0163625Y0180441D01*
X0162891Y0177305D02*
X0167295Y0177305D01*
X0167295Y0175837D02*
X0167295Y0178773D01*
X0164359Y0175837D02*
X0162891Y0177305D01*
X0163625Y0174169D02*
X0162891Y0173435D01*
X0162891Y0171233D01*
X0167295Y0171233D01*
X0165827Y0171233D02*
X0165827Y0173435D01*
X0165093Y0174169D01*
X0163625Y0174169D01*
X0165827Y0172701D02*
X0167295Y0174169D01*
X0175391Y0171233D02*
X0179795Y0171233D01*
X0192895Y0180967D02*
X0193629Y0180233D01*
X0195097Y0180233D01*
X0195831Y0180967D01*
X0195831Y0184637D01*
X0197499Y0183169D02*
X0198967Y0184637D01*
X0198967Y0180233D01*
X0197499Y0180233D02*
X0200435Y0180233D01*
X0192895Y0180967D02*
X0192895Y0184637D01*
X0173435Y0202733D02*
X0170499Y0202733D01*
X0171967Y0202733D02*
X0171967Y0207137D01*
X0170499Y0205669D01*
X0168831Y0206403D02*
X0168097Y0207137D01*
X0166629Y0207137D01*
X0165895Y0206403D01*
X0165895Y0205669D01*
X0166629Y0204935D01*
X0168097Y0204935D01*
X0168831Y0204201D01*
X0168831Y0203467D01*
X0168097Y0202733D01*
X0166629Y0202733D01*
X0165895Y0203467D01*
X0147795Y0202773D02*
X0147795Y0199837D01*
X0144859Y0202773D01*
X0144125Y0202773D01*
X0143391Y0202039D01*
X0143391Y0200571D01*
X0144125Y0199837D01*
X0144125Y0198169D02*
X0145593Y0198169D01*
X0146327Y0197435D01*
X0146327Y0195233D01*
X0146327Y0196701D02*
X0147795Y0198169D01*
X0147795Y0195233D02*
X0143391Y0195233D01*
X0143391Y0197435D01*
X0144125Y0198169D01*
X0143391Y0210233D02*
X0143391Y0212435D01*
X0144125Y0213169D01*
X0147061Y0213169D01*
X0147795Y0212435D01*
X0147795Y0210233D01*
X0143391Y0210233D01*
X0144859Y0214837D02*
X0143391Y0216305D01*
X0147795Y0216305D01*
X0147795Y0214837D02*
X0147795Y0217773D01*
X0137295Y0230233D02*
X0132891Y0230233D01*
X0132891Y0232435D01*
X0133625Y0233169D01*
X0135093Y0233169D01*
X0135827Y0232435D01*
X0135827Y0230233D01*
X0135827Y0231701D02*
X0137295Y0233169D01*
X0137295Y0234837D02*
X0137295Y0237773D01*
X0137295Y0236305D02*
X0132891Y0236305D01*
X0134359Y0234837D01*
X0172595Y0225667D02*
X0173329Y0224933D01*
X0174063Y0224933D01*
X0174797Y0225667D01*
X0174797Y0229337D01*
X0174063Y0229337D02*
X0175531Y0229337D01*
X0177199Y0229337D02*
X0177199Y0227135D01*
X0178667Y0227869D01*
X0179401Y0227869D01*
X0180135Y0227135D01*
X0180135Y0225667D01*
X0179401Y0224933D01*
X0177933Y0224933D01*
X0177199Y0225667D01*
X0177199Y0229337D02*
X0180135Y0229337D01*
X0225895Y0205903D02*
X0225895Y0205169D01*
X0226629Y0204435D01*
X0228097Y0204435D01*
X0228831Y0203701D01*
X0228831Y0202967D01*
X0228097Y0202233D01*
X0226629Y0202233D01*
X0225895Y0202967D01*
X0225895Y0205903D02*
X0226629Y0206637D01*
X0228097Y0206637D01*
X0228831Y0205903D01*
X0230499Y0205903D02*
X0231233Y0206637D01*
X0232701Y0206637D01*
X0233435Y0205903D01*
X0233435Y0205169D01*
X0230499Y0202233D01*
X0233435Y0202233D01*
X0265454Y0182208D02*
X0265454Y0180740D01*
X0266188Y0180006D01*
X0266188Y0178338D02*
X0265454Y0177604D01*
X0265454Y0175402D01*
X0269858Y0175402D01*
X0269858Y0177604D01*
X0269124Y0178338D01*
X0266188Y0178338D01*
X0269124Y0180006D02*
X0269858Y0180740D01*
X0269858Y0182208D01*
X0269124Y0182942D01*
X0268390Y0182942D01*
X0267656Y0182208D01*
X0267656Y0181474D01*
X0267656Y0182208D02*
X0266922Y0182942D01*
X0266188Y0182942D01*
X0265454Y0182208D01*
X0267125Y0170877D02*
X0266391Y0170143D01*
X0266391Y0168675D01*
X0267125Y0167941D01*
X0267125Y0166273D02*
X0266391Y0165539D01*
X0266391Y0164071D01*
X0267125Y0163337D01*
X0267125Y0161669D02*
X0266391Y0160935D01*
X0266391Y0159467D01*
X0267125Y0158733D01*
X0270061Y0158733D01*
X0270795Y0159467D01*
X0270795Y0160935D01*
X0270061Y0161669D01*
X0270795Y0163337D02*
X0267859Y0166273D01*
X0267125Y0166273D01*
X0270795Y0166273D02*
X0270795Y0163337D01*
X0271437Y0156399D02*
X0271437Y0153463D01*
X0268501Y0156399D01*
X0267767Y0156399D01*
X0267033Y0155665D01*
X0267033Y0154197D01*
X0267767Y0153463D01*
X0267033Y0151795D02*
X0270703Y0151795D01*
X0271437Y0151061D01*
X0271437Y0149593D01*
X0270703Y0148859D01*
X0267033Y0148859D01*
X0266571Y0144637D02*
X0265103Y0143169D01*
X0266571Y0144637D02*
X0266571Y0140233D01*
X0265103Y0140233D02*
X0268039Y0140233D01*
X0263435Y0140233D02*
X0260499Y0140233D01*
X0261967Y0140233D02*
X0261967Y0144637D01*
X0260499Y0143169D01*
X0258831Y0143903D02*
X0258097Y0144637D01*
X0256629Y0144637D01*
X0255895Y0143903D01*
X0255895Y0140967D01*
X0256629Y0140233D01*
X0258097Y0140233D01*
X0258831Y0140967D01*
X0259201Y0127637D02*
X0257733Y0127637D01*
X0256999Y0126903D01*
X0256999Y0126169D01*
X0257733Y0125435D01*
X0259935Y0125435D01*
X0259935Y0123967D02*
X0259935Y0126903D01*
X0259201Y0127637D01*
X0259935Y0123967D02*
X0259201Y0123233D01*
X0257733Y0123233D01*
X0256999Y0123967D01*
X0255331Y0123233D02*
X0253863Y0124701D01*
X0254597Y0124701D02*
X0252395Y0124701D01*
X0252395Y0123233D02*
X0252395Y0127637D01*
X0254597Y0127637D01*
X0255331Y0126903D01*
X0255331Y0125435D01*
X0254597Y0124701D01*
X0249435Y0125467D02*
X0249435Y0126201D01*
X0248701Y0126935D01*
X0246499Y0126935D01*
X0246499Y0125467D01*
X0247233Y0124733D01*
X0248701Y0124733D01*
X0249435Y0125467D01*
X0247967Y0128403D02*
X0246499Y0126935D01*
X0244831Y0126935D02*
X0244097Y0126201D01*
X0241895Y0126201D01*
X0241895Y0124733D02*
X0241895Y0129137D01*
X0244097Y0129137D01*
X0244831Y0128403D01*
X0244831Y0126935D01*
X0243363Y0126201D02*
X0244831Y0124733D01*
X0247967Y0128403D02*
X0249435Y0129137D01*
X0245061Y0114877D02*
X0245795Y0114143D01*
X0245795Y0112675D01*
X0245061Y0111941D01*
X0242125Y0114877D01*
X0245061Y0114877D01*
X0242125Y0114877D02*
X0241391Y0114143D01*
X0241391Y0112675D01*
X0242125Y0111941D01*
X0245061Y0111941D01*
X0245795Y0110273D02*
X0245795Y0107337D01*
X0245795Y0108805D02*
X0241391Y0108805D01*
X0242859Y0107337D01*
X0242125Y0105669D02*
X0243593Y0105669D01*
X0244327Y0104935D01*
X0244327Y0102733D01*
X0244327Y0104201D02*
X0245795Y0105669D01*
X0245795Y0102733D02*
X0241391Y0102733D01*
X0241391Y0104935D01*
X0242125Y0105669D01*
X0239435Y0108467D02*
X0238701Y0107733D01*
X0237233Y0107733D01*
X0236499Y0108467D01*
X0236499Y0109935D02*
X0237967Y0110669D01*
X0238701Y0110669D01*
X0239435Y0109935D01*
X0239435Y0108467D01*
X0236499Y0109935D02*
X0236499Y0112137D01*
X0239435Y0112137D01*
X0234831Y0111403D02*
X0234831Y0109935D01*
X0234097Y0109201D01*
X0231895Y0109201D01*
X0231895Y0107733D02*
X0231895Y0112137D01*
X0234097Y0112137D01*
X0234831Y0111403D01*
X0233363Y0109201D02*
X0234831Y0107733D01*
X0226435Y0108467D02*
X0225701Y0107733D01*
X0224233Y0107733D01*
X0223499Y0108467D01*
X0221831Y0107733D02*
X0220363Y0109201D01*
X0221097Y0109201D02*
X0218895Y0109201D01*
X0218895Y0107733D02*
X0218895Y0112137D01*
X0221097Y0112137D01*
X0221831Y0111403D01*
X0221831Y0109935D01*
X0221097Y0109201D01*
X0223499Y0111403D02*
X0224233Y0112137D01*
X0225701Y0112137D01*
X0226435Y0111403D01*
X0226435Y0110669D01*
X0225701Y0109935D01*
X0226435Y0109201D01*
X0226435Y0108467D01*
X0225701Y0109935D02*
X0224967Y0109935D01*
X0241895Y0094137D02*
X0244097Y0094137D01*
X0244831Y0093403D01*
X0244831Y0091935D01*
X0244097Y0091201D01*
X0241895Y0091201D01*
X0241895Y0089733D02*
X0241895Y0094137D01*
X0243363Y0091201D02*
X0244831Y0089733D01*
X0246499Y0089733D02*
X0249435Y0089733D01*
X0247967Y0089733D02*
X0247967Y0094137D01*
X0246499Y0092669D01*
X0251103Y0092669D02*
X0252571Y0094137D01*
X0252571Y0089733D01*
X0251103Y0089733D02*
X0254039Y0089733D01*
X0269954Y0089462D02*
X0269954Y0086526D01*
X0269954Y0084858D02*
X0269954Y0083390D01*
X0269954Y0084124D02*
X0273624Y0084124D01*
X0274358Y0083390D01*
X0274358Y0082656D01*
X0273624Y0081922D01*
X0273624Y0086526D02*
X0274358Y0086526D01*
X0273624Y0086526D02*
X0270688Y0089462D01*
X0269954Y0089462D01*
X0284125Y0121733D02*
X0287061Y0121733D01*
X0287795Y0122467D01*
X0287795Y0123935D01*
X0287061Y0124669D01*
X0287795Y0126337D02*
X0287795Y0129273D01*
X0287795Y0127805D02*
X0283391Y0127805D01*
X0284859Y0126337D01*
X0284125Y0124669D02*
X0283391Y0123935D01*
X0283391Y0122467D01*
X0284125Y0121733D01*
X0293391Y0126967D02*
X0294125Y0126233D01*
X0297061Y0126233D01*
X0297795Y0126967D01*
X0297795Y0128435D01*
X0297061Y0129169D01*
X0297061Y0130837D02*
X0297795Y0131571D01*
X0297795Y0133039D01*
X0297061Y0133773D01*
X0295593Y0133773D01*
X0294859Y0133039D01*
X0294859Y0132305D01*
X0295593Y0130837D01*
X0293391Y0130837D01*
X0293391Y0133773D01*
X0287795Y0133143D02*
X0287795Y0131675D01*
X0287061Y0130941D01*
X0285593Y0130941D02*
X0284859Y0132409D01*
X0284859Y0133143D01*
X0285593Y0133877D01*
X0287061Y0133877D01*
X0287795Y0133143D01*
X0285593Y0130941D02*
X0283391Y0130941D01*
X0283391Y0133877D01*
X0293391Y0128435D02*
X0293391Y0126967D01*
X0293391Y0128435D02*
X0294125Y0129169D01*
X0262039Y0166233D02*
X0259103Y0166233D01*
X0262039Y0169169D01*
X0262039Y0169903D01*
X0261305Y0170637D01*
X0259837Y0170637D01*
X0259103Y0169903D01*
X0255967Y0170637D02*
X0255967Y0166233D01*
X0254499Y0166233D02*
X0257435Y0166233D01*
X0254499Y0169169D02*
X0255967Y0170637D01*
X0252831Y0169903D02*
X0252097Y0170637D01*
X0250629Y0170637D01*
X0249895Y0169903D01*
X0249895Y0166967D01*
X0250629Y0166233D01*
X0252097Y0166233D01*
X0252831Y0166967D01*
X0267125Y0170877D02*
X0267859Y0170877D01*
X0270795Y0167941D01*
X0270795Y0170877D01*
X0280954Y0175402D02*
X0280954Y0177604D01*
X0281688Y0178338D01*
X0284624Y0178338D01*
X0285358Y0177604D01*
X0285358Y0175402D01*
X0280954Y0175402D01*
X0281688Y0180006D02*
X0280954Y0180740D01*
X0280954Y0182208D01*
X0281688Y0182942D01*
X0282422Y0182942D01*
X0285358Y0180006D01*
X0285358Y0182942D01*
X0295625Y0206733D02*
X0298561Y0206733D01*
X0299295Y0207467D01*
X0299295Y0208935D01*
X0298561Y0209669D01*
X0297093Y0211337D02*
X0297093Y0214273D01*
X0294891Y0213539D02*
X0297093Y0211337D01*
X0295625Y0209669D02*
X0294891Y0208935D01*
X0294891Y0207467D01*
X0295625Y0206733D01*
X0294891Y0213539D02*
X0299295Y0213539D01*
X0291435Y0215967D02*
X0290701Y0215233D01*
X0289233Y0215233D01*
X0288499Y0215967D01*
X0286831Y0215967D02*
X0286097Y0215233D01*
X0284629Y0215233D01*
X0283895Y0215967D01*
X0283895Y0218903D01*
X0284629Y0219637D01*
X0286097Y0219637D01*
X0286831Y0218903D01*
X0288499Y0218903D02*
X0289233Y0219637D01*
X0290701Y0219637D01*
X0291435Y0218903D01*
X0291435Y0218169D01*
X0290701Y0217435D01*
X0291435Y0216701D01*
X0291435Y0215967D01*
X0290701Y0217435D02*
X0289967Y0217435D01*
X0276095Y0218271D02*
X0276095Y0219739D01*
X0275361Y0220473D01*
X0274627Y0220473D01*
X0273893Y0219739D01*
X0273893Y0217537D01*
X0275361Y0217537D01*
X0276095Y0218271D01*
X0273893Y0217537D02*
X0272425Y0219005D01*
X0271691Y0220473D01*
X0271691Y0215869D02*
X0271691Y0214401D01*
X0271691Y0215135D02*
X0275361Y0215135D01*
X0276095Y0214401D01*
X0276095Y0213667D01*
X0275361Y0212933D01*
X0284895Y0238233D02*
X0284895Y0242637D01*
X0287097Y0242637D01*
X0287831Y0241903D01*
X0287831Y0240435D01*
X0287097Y0239701D01*
X0284895Y0239701D01*
X0286363Y0239701D02*
X0287831Y0238233D01*
X0289499Y0238233D02*
X0289499Y0238967D01*
X0292435Y0241903D01*
X0292435Y0242637D01*
X0289499Y0242637D01*
X0174899Y0301739D02*
X0174166Y0301005D01*
X0172698Y0301005D01*
X0171964Y0301739D01*
X0170296Y0301739D02*
X0170296Y0305408D01*
X0171964Y0304675D02*
X0172698Y0305408D01*
X0174166Y0305408D01*
X0174899Y0304675D01*
X0174899Y0303941D01*
X0174166Y0303207D01*
X0174899Y0302473D01*
X0174899Y0301739D01*
X0174166Y0303207D02*
X0173432Y0303207D01*
X0170296Y0301739D02*
X0169562Y0301005D01*
X0168094Y0301005D01*
X0167360Y0301739D01*
X0167360Y0305408D01*
X0218395Y0132637D02*
X0220597Y0132637D01*
X0221331Y0131903D01*
X0221331Y0130435D01*
X0220597Y0129701D01*
X0218395Y0129701D01*
X0218395Y0128233D02*
X0218395Y0132637D01*
X0219863Y0129701D02*
X0221331Y0128233D01*
X0222999Y0130435D02*
X0225935Y0130435D01*
X0225201Y0132637D02*
X0222999Y0130435D01*
X0225201Y0128233D02*
X0225201Y0132637D01*
D12*
X0239095Y0191933D02*
X0256095Y0191933D01*
X0259595Y0199933D02*
X0259595Y0207862D01*
X0256095Y0215933D02*
X0239095Y0215933D01*
X0240095Y0218933D02*
X0235095Y0218933D01*
X0232595Y0221433D01*
X0230095Y0218933D01*
X0225095Y0218933D01*
X0222595Y0221433D01*
X0220095Y0218933D01*
X0215095Y0218933D01*
X0212595Y0221433D01*
X0210095Y0218933D01*
X0205095Y0218933D01*
X0202595Y0221433D01*
X0200095Y0218933D01*
X0195095Y0218933D01*
X0192595Y0221433D01*
X0190095Y0218933D01*
X0185095Y0218933D01*
X0182595Y0221433D01*
X0182595Y0226433D01*
X0185095Y0228933D01*
X0190095Y0228933D01*
X0192595Y0226433D01*
X0195095Y0228933D01*
X0200095Y0228933D01*
X0202595Y0226433D01*
X0205095Y0228933D01*
X0210095Y0228933D01*
X0212595Y0226433D01*
X0215095Y0228933D01*
X0220095Y0228933D01*
X0222595Y0226433D01*
X0225095Y0228933D01*
X0230095Y0228933D01*
X0232595Y0226433D01*
X0235095Y0228933D01*
X0240095Y0228933D01*
X0242595Y0226433D01*
X0245095Y0228933D01*
X0250095Y0228933D01*
X0252595Y0226433D01*
X0252595Y0221433D01*
X0250095Y0218933D01*
X0245095Y0218933D01*
X0242595Y0221433D01*
X0240095Y0218933D01*
X0235595Y0207980D02*
X0235595Y0199933D01*
X0240595Y0203933D02*
X0240597Y0204105D01*
X0240603Y0204276D01*
X0240614Y0204448D01*
X0240629Y0204619D01*
X0240648Y0204790D01*
X0240671Y0204960D01*
X0240698Y0205130D01*
X0240730Y0205299D01*
X0240765Y0205467D01*
X0240805Y0205634D01*
X0240849Y0205800D01*
X0240896Y0205965D01*
X0240948Y0206129D01*
X0241004Y0206291D01*
X0241064Y0206452D01*
X0241128Y0206612D01*
X0241196Y0206770D01*
X0241267Y0206926D01*
X0241342Y0207080D01*
X0241422Y0207233D01*
X0241504Y0207383D01*
X0241591Y0207532D01*
X0241681Y0207678D01*
X0241775Y0207822D01*
X0241872Y0207964D01*
X0241973Y0208103D01*
X0242077Y0208240D01*
X0242184Y0208374D01*
X0242295Y0208505D01*
X0242408Y0208634D01*
X0242525Y0208760D01*
X0242645Y0208883D01*
X0242768Y0209003D01*
X0242894Y0209120D01*
X0243023Y0209233D01*
X0243154Y0209344D01*
X0243288Y0209451D01*
X0243425Y0209555D01*
X0243564Y0209656D01*
X0243706Y0209753D01*
X0243850Y0209847D01*
X0243996Y0209937D01*
X0244145Y0210024D01*
X0244295Y0210106D01*
X0244448Y0210186D01*
X0244602Y0210261D01*
X0244758Y0210332D01*
X0244916Y0210400D01*
X0245076Y0210464D01*
X0245237Y0210524D01*
X0245399Y0210580D01*
X0245563Y0210632D01*
X0245728Y0210679D01*
X0245894Y0210723D01*
X0246061Y0210763D01*
X0246229Y0210798D01*
X0246398Y0210830D01*
X0246568Y0210857D01*
X0246738Y0210880D01*
X0246909Y0210899D01*
X0247080Y0210914D01*
X0247252Y0210925D01*
X0247423Y0210931D01*
X0247595Y0210933D01*
X0247767Y0210931D01*
X0247938Y0210925D01*
X0248110Y0210914D01*
X0248281Y0210899D01*
X0248452Y0210880D01*
X0248622Y0210857D01*
X0248792Y0210830D01*
X0248961Y0210798D01*
X0249129Y0210763D01*
X0249296Y0210723D01*
X0249462Y0210679D01*
X0249627Y0210632D01*
X0249791Y0210580D01*
X0249953Y0210524D01*
X0250114Y0210464D01*
X0250274Y0210400D01*
X0250432Y0210332D01*
X0250588Y0210261D01*
X0250742Y0210186D01*
X0250895Y0210106D01*
X0251045Y0210024D01*
X0251194Y0209937D01*
X0251340Y0209847D01*
X0251484Y0209753D01*
X0251626Y0209656D01*
X0251765Y0209555D01*
X0251902Y0209451D01*
X0252036Y0209344D01*
X0252167Y0209233D01*
X0252296Y0209120D01*
X0252422Y0209003D01*
X0252545Y0208883D01*
X0252665Y0208760D01*
X0252782Y0208634D01*
X0252895Y0208505D01*
X0253006Y0208374D01*
X0253113Y0208240D01*
X0253217Y0208103D01*
X0253318Y0207964D01*
X0253415Y0207822D01*
X0253509Y0207678D01*
X0253599Y0207532D01*
X0253686Y0207383D01*
X0253768Y0207233D01*
X0253848Y0207080D01*
X0253923Y0206926D01*
X0253994Y0206770D01*
X0254062Y0206612D01*
X0254126Y0206452D01*
X0254186Y0206291D01*
X0254242Y0206129D01*
X0254294Y0205965D01*
X0254341Y0205800D01*
X0254385Y0205634D01*
X0254425Y0205467D01*
X0254460Y0205299D01*
X0254492Y0205130D01*
X0254519Y0204960D01*
X0254542Y0204790D01*
X0254561Y0204619D01*
X0254576Y0204448D01*
X0254587Y0204276D01*
X0254593Y0204105D01*
X0254595Y0203933D01*
X0254593Y0203761D01*
X0254587Y0203590D01*
X0254576Y0203418D01*
X0254561Y0203247D01*
X0254542Y0203076D01*
X0254519Y0202906D01*
X0254492Y0202736D01*
X0254460Y0202567D01*
X0254425Y0202399D01*
X0254385Y0202232D01*
X0254341Y0202066D01*
X0254294Y0201901D01*
X0254242Y0201737D01*
X0254186Y0201575D01*
X0254126Y0201414D01*
X0254062Y0201254D01*
X0253994Y0201096D01*
X0253923Y0200940D01*
X0253848Y0200786D01*
X0253768Y0200633D01*
X0253686Y0200483D01*
X0253599Y0200334D01*
X0253509Y0200188D01*
X0253415Y0200044D01*
X0253318Y0199902D01*
X0253217Y0199763D01*
X0253113Y0199626D01*
X0253006Y0199492D01*
X0252895Y0199361D01*
X0252782Y0199232D01*
X0252665Y0199106D01*
X0252545Y0198983D01*
X0252422Y0198863D01*
X0252296Y0198746D01*
X0252167Y0198633D01*
X0252036Y0198522D01*
X0251902Y0198415D01*
X0251765Y0198311D01*
X0251626Y0198210D01*
X0251484Y0198113D01*
X0251340Y0198019D01*
X0251194Y0197929D01*
X0251045Y0197842D01*
X0250895Y0197760D01*
X0250742Y0197680D01*
X0250588Y0197605D01*
X0250432Y0197534D01*
X0250274Y0197466D01*
X0250114Y0197402D01*
X0249953Y0197342D01*
X0249791Y0197286D01*
X0249627Y0197234D01*
X0249462Y0197187D01*
X0249296Y0197143D01*
X0249129Y0197103D01*
X0248961Y0197068D01*
X0248792Y0197036D01*
X0248622Y0197009D01*
X0248452Y0196986D01*
X0248281Y0196967D01*
X0248110Y0196952D01*
X0247938Y0196941D01*
X0247767Y0196935D01*
X0247595Y0196933D01*
X0247423Y0196935D01*
X0247252Y0196941D01*
X0247080Y0196952D01*
X0246909Y0196967D01*
X0246738Y0196986D01*
X0246568Y0197009D01*
X0246398Y0197036D01*
X0246229Y0197068D01*
X0246061Y0197103D01*
X0245894Y0197143D01*
X0245728Y0197187D01*
X0245563Y0197234D01*
X0245399Y0197286D01*
X0245237Y0197342D01*
X0245076Y0197402D01*
X0244916Y0197466D01*
X0244758Y0197534D01*
X0244602Y0197605D01*
X0244448Y0197680D01*
X0244295Y0197760D01*
X0244145Y0197842D01*
X0243996Y0197929D01*
X0243850Y0198019D01*
X0243706Y0198113D01*
X0243564Y0198210D01*
X0243425Y0198311D01*
X0243288Y0198415D01*
X0243154Y0198522D01*
X0243023Y0198633D01*
X0242894Y0198746D01*
X0242768Y0198863D01*
X0242645Y0198983D01*
X0242525Y0199106D01*
X0242408Y0199232D01*
X0242295Y0199361D01*
X0242184Y0199492D01*
X0242077Y0199626D01*
X0241973Y0199763D01*
X0241872Y0199902D01*
X0241775Y0200044D01*
X0241681Y0200188D01*
X0241591Y0200334D01*
X0241504Y0200483D01*
X0241422Y0200633D01*
X0241342Y0200786D01*
X0241267Y0200940D01*
X0241196Y0201096D01*
X0241128Y0201254D01*
X0241064Y0201414D01*
X0241004Y0201575D01*
X0240948Y0201737D01*
X0240896Y0201901D01*
X0240849Y0202066D01*
X0240805Y0202232D01*
X0240765Y0202399D01*
X0240730Y0202567D01*
X0240698Y0202736D01*
X0240671Y0202906D01*
X0240648Y0203076D01*
X0240629Y0203247D01*
X0240614Y0203418D01*
X0240603Y0203590D01*
X0240597Y0203761D01*
X0240595Y0203933D01*
X0270166Y0222898D02*
X0270154Y0298724D01*
X0165036Y0298724D01*
X0165036Y0222898D01*
X0270166Y0222898D01*
X0280095Y0213933D02*
X0285095Y0213933D01*
X0287595Y0211433D01*
X0287595Y0206433D01*
X0285095Y0203933D01*
X0287595Y0201433D01*
X0287595Y0196433D01*
X0285095Y0193933D01*
X0280095Y0193933D01*
X0277595Y0196433D01*
X0277595Y0201433D01*
X0280095Y0203933D01*
X0277595Y0206433D01*
X0277595Y0211433D01*
X0280095Y0213933D01*
X0199595Y0207933D02*
X0199595Y0199886D01*
X0196095Y0191933D02*
X0179095Y0191933D01*
X0175595Y0200004D02*
X0175595Y0207933D01*
X0179095Y0215933D02*
X0196095Y0215933D01*
X0180595Y0203933D02*
X0180597Y0204105D01*
X0180603Y0204276D01*
X0180614Y0204448D01*
X0180629Y0204619D01*
X0180648Y0204790D01*
X0180671Y0204960D01*
X0180698Y0205130D01*
X0180730Y0205299D01*
X0180765Y0205467D01*
X0180805Y0205634D01*
X0180849Y0205800D01*
X0180896Y0205965D01*
X0180948Y0206129D01*
X0181004Y0206291D01*
X0181064Y0206452D01*
X0181128Y0206612D01*
X0181196Y0206770D01*
X0181267Y0206926D01*
X0181342Y0207080D01*
X0181422Y0207233D01*
X0181504Y0207383D01*
X0181591Y0207532D01*
X0181681Y0207678D01*
X0181775Y0207822D01*
X0181872Y0207964D01*
X0181973Y0208103D01*
X0182077Y0208240D01*
X0182184Y0208374D01*
X0182295Y0208505D01*
X0182408Y0208634D01*
X0182525Y0208760D01*
X0182645Y0208883D01*
X0182768Y0209003D01*
X0182894Y0209120D01*
X0183023Y0209233D01*
X0183154Y0209344D01*
X0183288Y0209451D01*
X0183425Y0209555D01*
X0183564Y0209656D01*
X0183706Y0209753D01*
X0183850Y0209847D01*
X0183996Y0209937D01*
X0184145Y0210024D01*
X0184295Y0210106D01*
X0184448Y0210186D01*
X0184602Y0210261D01*
X0184758Y0210332D01*
X0184916Y0210400D01*
X0185076Y0210464D01*
X0185237Y0210524D01*
X0185399Y0210580D01*
X0185563Y0210632D01*
X0185728Y0210679D01*
X0185894Y0210723D01*
X0186061Y0210763D01*
X0186229Y0210798D01*
X0186398Y0210830D01*
X0186568Y0210857D01*
X0186738Y0210880D01*
X0186909Y0210899D01*
X0187080Y0210914D01*
X0187252Y0210925D01*
X0187423Y0210931D01*
X0187595Y0210933D01*
X0187767Y0210931D01*
X0187938Y0210925D01*
X0188110Y0210914D01*
X0188281Y0210899D01*
X0188452Y0210880D01*
X0188622Y0210857D01*
X0188792Y0210830D01*
X0188961Y0210798D01*
X0189129Y0210763D01*
X0189296Y0210723D01*
X0189462Y0210679D01*
X0189627Y0210632D01*
X0189791Y0210580D01*
X0189953Y0210524D01*
X0190114Y0210464D01*
X0190274Y0210400D01*
X0190432Y0210332D01*
X0190588Y0210261D01*
X0190742Y0210186D01*
X0190895Y0210106D01*
X0191045Y0210024D01*
X0191194Y0209937D01*
X0191340Y0209847D01*
X0191484Y0209753D01*
X0191626Y0209656D01*
X0191765Y0209555D01*
X0191902Y0209451D01*
X0192036Y0209344D01*
X0192167Y0209233D01*
X0192296Y0209120D01*
X0192422Y0209003D01*
X0192545Y0208883D01*
X0192665Y0208760D01*
X0192782Y0208634D01*
X0192895Y0208505D01*
X0193006Y0208374D01*
X0193113Y0208240D01*
X0193217Y0208103D01*
X0193318Y0207964D01*
X0193415Y0207822D01*
X0193509Y0207678D01*
X0193599Y0207532D01*
X0193686Y0207383D01*
X0193768Y0207233D01*
X0193848Y0207080D01*
X0193923Y0206926D01*
X0193994Y0206770D01*
X0194062Y0206612D01*
X0194126Y0206452D01*
X0194186Y0206291D01*
X0194242Y0206129D01*
X0194294Y0205965D01*
X0194341Y0205800D01*
X0194385Y0205634D01*
X0194425Y0205467D01*
X0194460Y0205299D01*
X0194492Y0205130D01*
X0194519Y0204960D01*
X0194542Y0204790D01*
X0194561Y0204619D01*
X0194576Y0204448D01*
X0194587Y0204276D01*
X0194593Y0204105D01*
X0194595Y0203933D01*
X0194593Y0203761D01*
X0194587Y0203590D01*
X0194576Y0203418D01*
X0194561Y0203247D01*
X0194542Y0203076D01*
X0194519Y0202906D01*
X0194492Y0202736D01*
X0194460Y0202567D01*
X0194425Y0202399D01*
X0194385Y0202232D01*
X0194341Y0202066D01*
X0194294Y0201901D01*
X0194242Y0201737D01*
X0194186Y0201575D01*
X0194126Y0201414D01*
X0194062Y0201254D01*
X0193994Y0201096D01*
X0193923Y0200940D01*
X0193848Y0200786D01*
X0193768Y0200633D01*
X0193686Y0200483D01*
X0193599Y0200334D01*
X0193509Y0200188D01*
X0193415Y0200044D01*
X0193318Y0199902D01*
X0193217Y0199763D01*
X0193113Y0199626D01*
X0193006Y0199492D01*
X0192895Y0199361D01*
X0192782Y0199232D01*
X0192665Y0199106D01*
X0192545Y0198983D01*
X0192422Y0198863D01*
X0192296Y0198746D01*
X0192167Y0198633D01*
X0192036Y0198522D01*
X0191902Y0198415D01*
X0191765Y0198311D01*
X0191626Y0198210D01*
X0191484Y0198113D01*
X0191340Y0198019D01*
X0191194Y0197929D01*
X0191045Y0197842D01*
X0190895Y0197760D01*
X0190742Y0197680D01*
X0190588Y0197605D01*
X0190432Y0197534D01*
X0190274Y0197466D01*
X0190114Y0197402D01*
X0189953Y0197342D01*
X0189791Y0197286D01*
X0189627Y0197234D01*
X0189462Y0197187D01*
X0189296Y0197143D01*
X0189129Y0197103D01*
X0188961Y0197068D01*
X0188792Y0197036D01*
X0188622Y0197009D01*
X0188452Y0196986D01*
X0188281Y0196967D01*
X0188110Y0196952D01*
X0187938Y0196941D01*
X0187767Y0196935D01*
X0187595Y0196933D01*
X0187423Y0196935D01*
X0187252Y0196941D01*
X0187080Y0196952D01*
X0186909Y0196967D01*
X0186738Y0196986D01*
X0186568Y0197009D01*
X0186398Y0197036D01*
X0186229Y0197068D01*
X0186061Y0197103D01*
X0185894Y0197143D01*
X0185728Y0197187D01*
X0185563Y0197234D01*
X0185399Y0197286D01*
X0185237Y0197342D01*
X0185076Y0197402D01*
X0184916Y0197466D01*
X0184758Y0197534D01*
X0184602Y0197605D01*
X0184448Y0197680D01*
X0184295Y0197760D01*
X0184145Y0197842D01*
X0183996Y0197929D01*
X0183850Y0198019D01*
X0183706Y0198113D01*
X0183564Y0198210D01*
X0183425Y0198311D01*
X0183288Y0198415D01*
X0183154Y0198522D01*
X0183023Y0198633D01*
X0182894Y0198746D01*
X0182768Y0198863D01*
X0182645Y0198983D01*
X0182525Y0199106D01*
X0182408Y0199232D01*
X0182295Y0199361D01*
X0182184Y0199492D01*
X0182077Y0199626D01*
X0181973Y0199763D01*
X0181872Y0199902D01*
X0181775Y0200044D01*
X0181681Y0200188D01*
X0181591Y0200334D01*
X0181504Y0200483D01*
X0181422Y0200633D01*
X0181342Y0200786D01*
X0181267Y0200940D01*
X0181196Y0201096D01*
X0181128Y0201254D01*
X0181064Y0201414D01*
X0181004Y0201575D01*
X0180948Y0201737D01*
X0180896Y0201901D01*
X0180849Y0202066D01*
X0180805Y0202232D01*
X0180765Y0202399D01*
X0180730Y0202567D01*
X0180698Y0202736D01*
X0180671Y0202906D01*
X0180648Y0203076D01*
X0180629Y0203247D01*
X0180614Y0203418D01*
X0180603Y0203590D01*
X0180597Y0203761D01*
X0180595Y0203933D01*
D13*
X0282595Y0198933D03*
X0282595Y0208933D03*
D14*
X0231910Y0262683D03*
X0226910Y0262683D03*
X0227530Y0267058D03*
X0219410Y0266433D03*
X0218780Y0263933D03*
X0213780Y0260808D03*
X0196910Y0257683D03*
X0196910Y0273308D03*
X0187530Y0277058D03*
X0187530Y0292683D03*
X0227530Y0285808D03*
X0228160Y0286433D03*
X0228780Y0287058D03*
X0229410Y0287683D03*
X0227530Y0283308D03*
X0228160Y0282683D03*
X0228470Y0282058D03*
X0229410Y0280808D03*
X0229720Y0280183D03*
X0242530Y0266433D03*
X0249720Y0286433D03*
D15*
X0246435Y0267996D03*
X0221125Y0261121D03*
X0202375Y0264871D03*
X0197065Y0257996D03*
X0191755Y0264871D03*
X0191755Y0266121D03*
X0192065Y0267996D03*
X0197065Y0272996D03*
X0187685Y0277371D03*
X0182375Y0284246D03*
X0182375Y0285496D03*
X0182685Y0287371D03*
X0187685Y0292371D03*
X0193005Y0284246D03*
X0217065Y0287996D03*
D16*
X0217375Y0283933D03*
X0217375Y0280183D03*
X0197065Y0272683D03*
X0197065Y0258308D03*
X0252065Y0278308D03*
D17*
X0252220Y0281746D03*
X0252220Y0286746D03*
X0196910Y0272371D03*
X0187530Y0277996D03*
X0187530Y0291746D03*
X0196910Y0258621D03*
D18*
X0196905Y0258933D03*
X0196905Y0272058D03*
X0187535Y0278308D03*
X0187535Y0291433D03*
D19*
X0187530Y0291121D03*
X0187530Y0278621D03*
X0196910Y0271746D03*
X0196910Y0259246D03*
D20*
X0197065Y0259558D03*
X0197065Y0271433D03*
D21*
X0197060Y0271121D03*
X0197060Y0259871D03*
X0187690Y0279246D03*
X0187690Y0290496D03*
D22*
X0197065Y0270808D03*
X0197065Y0260183D03*
D23*
X0194095Y0260496D03*
X0207845Y0280496D03*
X0230345Y0267996D03*
X0241595Y0287371D03*
X0251905Y0277996D03*
X0251595Y0277371D03*
D24*
X0200500Y0260496D03*
X0191440Y0280496D03*
X0191750Y0281121D03*
X0183940Y0289246D03*
D25*
X0207845Y0263621D03*
X0214095Y0260496D03*
X0214095Y0269871D03*
X0229095Y0260496D03*
X0232845Y0264871D03*
X0236595Y0261121D03*
X0241595Y0261746D03*
X0247845Y0266121D03*
X0247845Y0266746D03*
X0242845Y0269246D03*
X0237845Y0267996D03*
X0249095Y0282996D03*
X0249095Y0283621D03*
X0249095Y0284871D03*
X0249095Y0285496D03*
D26*
X0248935Y0284246D03*
X0244565Y0284246D03*
X0244565Y0284871D03*
X0244565Y0283621D03*
X0244565Y0282996D03*
X0244565Y0282371D03*
X0244565Y0281746D03*
X0244565Y0281121D03*
X0244565Y0280496D03*
X0244565Y0279871D03*
X0239565Y0279871D03*
X0239565Y0280496D03*
X0239565Y0281121D03*
X0239565Y0281746D03*
X0239565Y0282371D03*
X0239565Y0282996D03*
X0239565Y0283621D03*
X0239565Y0284246D03*
X0239565Y0284871D03*
X0239565Y0285496D03*
X0239565Y0286121D03*
X0244255Y0286121D03*
X0234565Y0286121D03*
X0234565Y0286746D03*
X0234565Y0287371D03*
X0234565Y0287996D03*
X0234565Y0290496D03*
X0234565Y0291121D03*
X0234565Y0291746D03*
X0234565Y0285496D03*
X0234565Y0284871D03*
X0234565Y0284246D03*
X0234565Y0283621D03*
X0234565Y0282996D03*
X0234565Y0282371D03*
X0234565Y0281746D03*
X0234565Y0281121D03*
X0234565Y0280496D03*
X0234565Y0279871D03*
X0228315Y0282371D03*
X0224565Y0282371D03*
X0224565Y0282996D03*
X0224565Y0281746D03*
X0224565Y0281121D03*
X0224565Y0280496D03*
X0224565Y0279871D03*
X0219565Y0281746D03*
X0219565Y0282371D03*
X0219565Y0282996D03*
X0219565Y0284871D03*
X0214875Y0282996D03*
X0214565Y0282371D03*
X0210505Y0286121D03*
X0205185Y0281746D03*
X0198005Y0281746D03*
X0198005Y0282371D03*
X0198005Y0282996D03*
X0198005Y0283621D03*
X0198005Y0284246D03*
X0198005Y0284871D03*
X0198005Y0285496D03*
X0198005Y0286121D03*
X0198005Y0281121D03*
X0198005Y0280496D03*
X0198005Y0279871D03*
X0209255Y0271746D03*
X0208935Y0269246D03*
X0208625Y0267996D03*
X0208625Y0267371D03*
X0208315Y0266121D03*
X0208005Y0264246D03*
X0207685Y0262996D03*
X0207685Y0262371D03*
X0207375Y0261121D03*
X0213005Y0262996D03*
X0213005Y0263621D03*
X0213315Y0265496D03*
X0213625Y0266746D03*
X0218935Y0265496D03*
X0218935Y0264871D03*
X0218935Y0263621D03*
X0219255Y0266121D03*
X0221435Y0260496D03*
X0226755Y0262996D03*
X0226435Y0263621D03*
X0226435Y0264246D03*
X0226755Y0264871D03*
X0226755Y0265496D03*
X0227065Y0266121D03*
X0227375Y0266746D03*
X0233005Y0266121D03*
X0233005Y0265496D03*
X0232685Y0264246D03*
X0232375Y0263621D03*
X0236755Y0262371D03*
X0236755Y0261746D03*
X0237065Y0263621D03*
X0237375Y0265496D03*
X0237685Y0266746D03*
X0237685Y0267371D03*
X0238005Y0268621D03*
X0238625Y0271746D03*
X0238625Y0272371D03*
X0242375Y0265496D03*
X0242065Y0264871D03*
X0242065Y0264246D03*
X0241755Y0262996D03*
X0241755Y0262371D03*
X0241435Y0261121D03*
X0247065Y0261746D03*
X0247375Y0263621D03*
X0247685Y0264871D03*
X0247685Y0265496D03*
X0254255Y0278621D03*
X0254875Y0282371D03*
X0254875Y0282996D03*
X0254875Y0283621D03*
X0254875Y0284246D03*
X0254875Y0284871D03*
X0254875Y0285496D03*
X0254875Y0286121D03*
X0224565Y0286121D03*
X0224565Y0286746D03*
X0224565Y0287371D03*
X0224565Y0287996D03*
X0224565Y0288621D03*
X0224565Y0289246D03*
X0224565Y0289871D03*
X0224565Y0290496D03*
X0224565Y0291121D03*
X0224565Y0291746D03*
D27*
X0200970Y0261433D03*
X0193470Y0260808D03*
D28*
X0191910Y0266433D03*
X0191910Y0267058D03*
X0191910Y0267683D03*
X0200660Y0260808D03*
X0214410Y0268308D03*
X0214410Y0268933D03*
X0220970Y0261433D03*
X0217530Y0279558D03*
X0217220Y0287683D03*
X0191280Y0280183D03*
X0182220Y0284558D03*
X0182220Y0285183D03*
X0182530Y0285808D03*
X0182530Y0286433D03*
X0182530Y0287058D03*
D29*
X0198005Y0286433D03*
X0198005Y0285808D03*
X0198005Y0285183D03*
X0198005Y0284558D03*
X0198005Y0283933D03*
X0198005Y0283308D03*
X0198005Y0282683D03*
X0198005Y0282058D03*
X0198005Y0281433D03*
X0198005Y0280808D03*
X0198005Y0280183D03*
X0198005Y0279558D03*
X0204875Y0282058D03*
X0205185Y0286433D03*
X0210185Y0286433D03*
X0214565Y0282058D03*
X0214875Y0281433D03*
X0219565Y0281433D03*
X0219565Y0282058D03*
X0219565Y0282683D03*
X0219565Y0285183D03*
X0219255Y0286433D03*
X0224565Y0286433D03*
X0224565Y0285808D03*
X0224565Y0287058D03*
X0224565Y0287683D03*
X0224565Y0288308D03*
X0224565Y0288933D03*
X0224565Y0289558D03*
X0224565Y0290183D03*
X0224565Y0290808D03*
X0224565Y0291433D03*
X0224565Y0292058D03*
X0224565Y0283308D03*
X0224565Y0282683D03*
X0224565Y0282058D03*
X0224565Y0281433D03*
X0224565Y0280808D03*
X0224565Y0280183D03*
X0224565Y0279558D03*
X0230185Y0279558D03*
X0234565Y0279558D03*
X0234565Y0280183D03*
X0234565Y0280808D03*
X0234565Y0281433D03*
X0234565Y0282058D03*
X0234565Y0282683D03*
X0234565Y0283308D03*
X0234565Y0283933D03*
X0234565Y0284558D03*
X0234565Y0285183D03*
X0234565Y0285808D03*
X0234565Y0286433D03*
X0234565Y0287058D03*
X0234565Y0287683D03*
X0234565Y0288308D03*
X0234565Y0290808D03*
X0234565Y0291433D03*
X0234565Y0292058D03*
X0239565Y0286433D03*
X0239565Y0285808D03*
X0239565Y0285183D03*
X0239565Y0284558D03*
X0239565Y0283933D03*
X0239565Y0283308D03*
X0239565Y0282683D03*
X0239565Y0282058D03*
X0239565Y0281433D03*
X0239565Y0280808D03*
X0239565Y0280183D03*
X0239565Y0279558D03*
X0244565Y0279558D03*
X0244565Y0280183D03*
X0244565Y0280808D03*
X0244565Y0281433D03*
X0244565Y0282058D03*
X0244565Y0282683D03*
X0244565Y0283308D03*
X0244565Y0283933D03*
X0244565Y0284558D03*
X0248935Y0284558D03*
X0248935Y0283933D03*
X0249255Y0282683D03*
X0249255Y0285808D03*
X0254875Y0285808D03*
X0254875Y0285183D03*
X0254875Y0284558D03*
X0254875Y0283933D03*
X0254875Y0283308D03*
X0254875Y0282683D03*
X0254875Y0286433D03*
X0254565Y0278933D03*
X0247685Y0265808D03*
X0247685Y0265183D03*
X0247375Y0263933D03*
X0247375Y0263308D03*
X0247065Y0262058D03*
X0241755Y0262683D03*
X0241435Y0261433D03*
X0241435Y0260808D03*
X0242065Y0264558D03*
X0242375Y0265808D03*
X0237685Y0267058D03*
X0238005Y0268308D03*
X0238005Y0268933D03*
X0238625Y0271433D03*
X0238625Y0272058D03*
X0237375Y0265183D03*
X0237065Y0263933D03*
X0236755Y0262058D03*
X0236435Y0260808D03*
X0232375Y0263308D03*
X0232685Y0263933D03*
X0232685Y0264558D03*
X0233005Y0265183D03*
X0233005Y0265808D03*
X0233005Y0266433D03*
X0232685Y0267058D03*
X0227065Y0266433D03*
X0226755Y0265808D03*
X0226755Y0265183D03*
X0226435Y0263933D03*
X0226755Y0263308D03*
X0218935Y0263308D03*
X0218935Y0264558D03*
X0218935Y0265183D03*
X0213315Y0265183D03*
X0213005Y0263933D03*
X0213005Y0263308D03*
X0213005Y0262683D03*
X0213625Y0267058D03*
X0214255Y0270183D03*
X0209565Y0272058D03*
X0208935Y0268933D03*
X0208625Y0267683D03*
X0208315Y0265808D03*
X0208005Y0264558D03*
X0208005Y0263933D03*
X0207685Y0262683D03*
X0207375Y0261433D03*
X0207375Y0260808D03*
D30*
X0202690Y0266433D03*
X0202690Y0267058D03*
X0201750Y0269558D03*
X0192690Y0282058D03*
X0193000Y0282683D03*
X0192690Y0287683D03*
X0200190Y0288308D03*
X0216750Y0288308D03*
X0230500Y0268933D03*
X0221440Y0260808D03*
X0183000Y0280808D03*
D31*
X0182535Y0288308D03*
X0182845Y0288933D03*
X0193155Y0287058D03*
X0191905Y0268933D03*
X0202535Y0267683D03*
X0222845Y0268933D03*
X0229095Y0260808D03*
D32*
X0236910Y0262683D03*
X0236910Y0263308D03*
X0237530Y0265808D03*
X0237530Y0266433D03*
X0241910Y0263933D03*
X0241910Y0263308D03*
X0246910Y0261433D03*
X0246910Y0260808D03*
X0247530Y0264558D03*
X0242530Y0268308D03*
X0244410Y0285183D03*
X0244410Y0285808D03*
X0219410Y0285808D03*
X0210660Y0285808D03*
X0210660Y0285183D03*
X0209410Y0271433D03*
X0208780Y0268308D03*
X0208160Y0265183D03*
X0207530Y0262058D03*
X0213160Y0264558D03*
X0214410Y0270808D03*
X0197530Y0267058D03*
X0188160Y0286433D03*
D33*
X0193155Y0286746D03*
X0182535Y0288621D03*
X0183155Y0280496D03*
X0191905Y0269246D03*
X0191595Y0262371D03*
X0192535Y0261121D03*
X0202535Y0267371D03*
X0201595Y0269871D03*
X0246595Y0268621D03*
D34*
X0223315Y0262371D03*
X0196125Y0261121D03*
X0188315Y0288621D03*
X0234565Y0289871D03*
D35*
X0217375Y0287371D03*
X0208315Y0279871D03*
X0199565Y0287371D03*
X0199565Y0287996D03*
X0191125Y0279871D03*
X0193315Y0269871D03*
X0201125Y0261746D03*
X0200815Y0261121D03*
X0220815Y0261746D03*
D36*
X0219405Y0262371D03*
X0213785Y0261121D03*
X0223155Y0269246D03*
X0243155Y0267371D03*
X0191285Y0262996D03*
X0181905Y0282371D03*
D37*
X0184095Y0289871D03*
X0192845Y0284871D03*
X0191595Y0265496D03*
X0214095Y0267996D03*
X0230345Y0268621D03*
X0229095Y0261121D03*
D38*
X0236910Y0262996D03*
X0237530Y0266121D03*
X0238160Y0269246D03*
X0242530Y0267996D03*
X0246910Y0269246D03*
X0247530Y0264246D03*
X0246910Y0261121D03*
X0241910Y0263621D03*
X0244410Y0285496D03*
X0219410Y0285496D03*
X0219410Y0286121D03*
X0210660Y0285496D03*
X0205030Y0286121D03*
X0209410Y0272371D03*
X0209410Y0271121D03*
X0208780Y0268621D03*
X0208160Y0265496D03*
X0208160Y0264871D03*
X0207530Y0261746D03*
X0213160Y0264246D03*
X0213160Y0264871D03*
X0213780Y0267371D03*
X0214410Y0270496D03*
X0214410Y0271121D03*
X0218780Y0264246D03*
X0197530Y0266746D03*
X0196910Y0263621D03*
X0187530Y0282996D03*
X0188160Y0286121D03*
D39*
X0192375Y0288933D03*
X0193315Y0286433D03*
X0193315Y0285808D03*
X0202065Y0268308D03*
X0202375Y0263308D03*
X0202065Y0262683D03*
X0192375Y0261433D03*
D40*
X0196280Y0261433D03*
X0186910Y0280808D03*
X0214720Y0286433D03*
D41*
X0213630Y0262058D03*
X0213630Y0261433D03*
X0191130Y0263308D03*
X0181750Y0282683D03*
D42*
X0184095Y0280183D03*
X0191595Y0280808D03*
X0217845Y0284558D03*
X0230345Y0268308D03*
X0229095Y0261433D03*
D43*
X0226595Y0264558D03*
X0236595Y0261433D03*
X0241595Y0262058D03*
X0247845Y0266433D03*
X0237845Y0267683D03*
X0249095Y0283308D03*
X0249095Y0285183D03*
X0214095Y0269558D03*
X0207845Y0263308D03*
D44*
X0192220Y0261746D03*
X0182220Y0283621D03*
D45*
X0186910Y0281121D03*
X0188470Y0289246D03*
X0215660Y0271746D03*
X0196280Y0261746D03*
D46*
X0191130Y0263621D03*
X0181750Y0282996D03*
X0213630Y0261746D03*
D47*
X0229250Y0261746D03*
X0217690Y0279871D03*
X0217690Y0284246D03*
X0241440Y0287996D03*
X0253000Y0287996D03*
X0253000Y0280496D03*
D48*
X0208470Y0279558D03*
X0192220Y0262058D03*
X0182220Y0283308D03*
X0182220Y0283933D03*
D49*
X0182685Y0287683D03*
X0192375Y0288308D03*
X0193005Y0283933D03*
X0192375Y0281433D03*
X0192065Y0268308D03*
X0201755Y0268933D03*
X0202375Y0264558D03*
X0201755Y0262058D03*
X0222065Y0268308D03*
X0225815Y0283933D03*
X0225815Y0285183D03*
X0241435Y0288308D03*
X0253005Y0288308D03*
D50*
X0217375Y0287058D03*
X0199565Y0287058D03*
X0199565Y0287683D03*
X0191125Y0289558D03*
X0193315Y0270183D03*
X0202065Y0265183D03*
X0220815Y0262058D03*
D51*
X0229250Y0262058D03*
X0251750Y0277683D03*
X0252690Y0280808D03*
X0252690Y0287683D03*
X0241750Y0287058D03*
X0207690Y0280808D03*
X0187690Y0277683D03*
X0187690Y0292058D03*
D52*
X0192530Y0287996D03*
X0193160Y0285496D03*
X0193160Y0283621D03*
X0192530Y0281746D03*
X0201910Y0268621D03*
X0202530Y0266121D03*
X0202530Y0264246D03*
X0201910Y0262371D03*
X0225660Y0284246D03*
X0225660Y0284871D03*
X0251280Y0276746D03*
D53*
X0227065Y0262371D03*
X0213315Y0262371D03*
D54*
X0219095Y0262996D03*
X0227845Y0267371D03*
X0232845Y0266746D03*
X0231595Y0262371D03*
X0242845Y0266746D03*
X0247845Y0267371D03*
X0229095Y0281121D03*
X0227845Y0282996D03*
X0227845Y0286121D03*
X0229095Y0287371D03*
D55*
X0224720Y0292371D03*
X0214720Y0281746D03*
X0204720Y0282371D03*
X0204720Y0282996D03*
X0204720Y0285496D03*
X0208470Y0266746D03*
X0213470Y0266121D03*
X0237220Y0264871D03*
X0237220Y0264246D03*
X0247220Y0262996D03*
X0247220Y0262371D03*
X0254720Y0279246D03*
X0254720Y0279871D03*
D56*
X0246905Y0268933D03*
X0191285Y0262683D03*
X0181905Y0282058D03*
D57*
X0205500Y0281433D03*
X0219250Y0262683D03*
X0243000Y0267058D03*
D58*
X0242220Y0265183D03*
X0247220Y0262683D03*
X0237220Y0264558D03*
X0254720Y0279558D03*
X0254720Y0280183D03*
X0214720Y0282683D03*
X0204720Y0282683D03*
X0204720Y0285183D03*
X0204720Y0285808D03*
X0208470Y0267058D03*
X0208470Y0266433D03*
X0213470Y0266433D03*
X0213470Y0265808D03*
D59*
X0222375Y0268621D03*
X0202375Y0267996D03*
X0202375Y0263621D03*
X0202375Y0262996D03*
X0193315Y0286121D03*
X0192375Y0288621D03*
X0182375Y0287996D03*
D60*
X0219720Y0266746D03*
X0232530Y0267371D03*
X0232220Y0262996D03*
X0242530Y0266121D03*
X0230030Y0279871D03*
X0229720Y0280496D03*
X0228780Y0281746D03*
X0228470Y0286746D03*
X0229720Y0287996D03*
X0249410Y0286121D03*
X0249410Y0282371D03*
D61*
X0196905Y0263308D03*
X0187535Y0282683D03*
D62*
X0182845Y0281433D03*
X0191595Y0264558D03*
X0191595Y0263933D03*
X0246595Y0268308D03*
D63*
X0238625Y0272683D03*
X0234565Y0290183D03*
X0209565Y0272683D03*
X0197375Y0266433D03*
X0197065Y0264558D03*
X0197065Y0263933D03*
D64*
X0202530Y0263933D03*
X0202530Y0265808D03*
X0193160Y0283308D03*
X0193160Y0285183D03*
X0225660Y0284558D03*
D65*
X0207845Y0287996D03*
X0182845Y0281121D03*
X0191595Y0264246D03*
D66*
X0197065Y0264246D03*
X0234565Y0292371D03*
X0238625Y0271121D03*
D67*
X0238630Y0272996D03*
X0242060Y0288621D03*
X0252380Y0288621D03*
X0209560Y0272996D03*
X0196750Y0264871D03*
X0187380Y0284246D03*
X0200500Y0288621D03*
D68*
X0207845Y0287683D03*
X0214095Y0267683D03*
X0191595Y0265808D03*
X0191595Y0265183D03*
D69*
X0191910Y0266746D03*
X0191910Y0267371D03*
X0193470Y0270496D03*
X0202220Y0265496D03*
X0214410Y0268621D03*
X0214410Y0269246D03*
X0221910Y0267996D03*
X0225970Y0283621D03*
X0225970Y0285496D03*
X0199410Y0286746D03*
X0182530Y0286746D03*
X0182530Y0286121D03*
X0182220Y0284871D03*
D70*
X0219095Y0265808D03*
X0229095Y0281433D03*
X0244095Y0286433D03*
X0247845Y0267058D03*
D71*
X0202690Y0266746D03*
X0201750Y0269246D03*
X0191750Y0268621D03*
X0193000Y0282371D03*
X0193000Y0282996D03*
X0193000Y0287371D03*
D72*
X0219875Y0267058D03*
X0228315Y0267683D03*
X0232065Y0267683D03*
X0229875Y0288308D03*
D73*
X0197535Y0267371D03*
X0188155Y0286746D03*
D74*
X0220345Y0267371D03*
D75*
X0197220Y0267683D03*
D76*
X0200500Y0270183D03*
X0192690Y0284558D03*
X0183940Y0289558D03*
X0221750Y0267683D03*
D77*
X0245185Y0267683D03*
X0252375Y0281433D03*
X0252375Y0287058D03*
D78*
X0242690Y0268621D03*
X0187690Y0283621D03*
D79*
X0187690Y0283933D03*
X0187690Y0283308D03*
X0188000Y0285808D03*
X0242690Y0268933D03*
D80*
X0248940Y0278621D03*
X0207690Y0288621D03*
X0197690Y0269246D03*
X0186750Y0280496D03*
D81*
X0230500Y0269246D03*
D82*
X0192220Y0269558D03*
D83*
X0195655Y0269558D03*
X0186285Y0288933D03*
X0251285Y0276433D03*
X0251905Y0280183D03*
D84*
X0197690Y0269558D03*
D85*
X0197845Y0269871D03*
D86*
X0199875Y0270496D03*
X0217375Y0280496D03*
X0217375Y0283621D03*
D87*
X0214880Y0271433D03*
X0209250Y0270808D03*
X0238630Y0270808D03*
D88*
X0251285Y0277058D03*
X0208155Y0280183D03*
D89*
X0187690Y0278933D03*
X0187690Y0290808D03*
D90*
X0208155Y0279246D03*
X0216905Y0284871D03*
D91*
X0217220Y0279246D03*
D92*
X0187690Y0279558D03*
X0187690Y0290183D03*
D93*
X0184720Y0279871D03*
D94*
X0217220Y0280808D03*
X0217220Y0283308D03*
D95*
X0207690Y0281121D03*
X0190500Y0289871D03*
X0241750Y0286746D03*
D96*
X0217220Y0281121D03*
D97*
X0252530Y0281121D03*
X0252530Y0287371D03*
D98*
X0234565Y0292683D03*
X0210815Y0281433D03*
X0188315Y0288933D03*
D99*
X0192220Y0289246D03*
X0182220Y0281746D03*
D100*
X0252220Y0282058D03*
D101*
X0207690Y0283308D03*
X0207690Y0284558D03*
D102*
X0207690Y0284246D03*
X0207690Y0283621D03*
D103*
X0207690Y0283933D03*
D104*
X0207690Y0284871D03*
D105*
X0207845Y0286746D03*
D106*
X0217535Y0286746D03*
D107*
X0187845Y0287058D03*
D108*
X0207845Y0287058D03*
X0241595Y0287683D03*
D109*
X0207845Y0287371D03*
D110*
X0207845Y0288308D03*
D111*
X0217220Y0288621D03*
M02*
