G75*
%MOIN*%
%OFA0B0*%
%FSLAX25Y25*%
%IPPOS*%
%LPD*%
%AMOC8*
5,1,8,0,0,1.08239X$1,22.5*
%
%ADD10C,0.00000*%
D10*
X0112595Y0058933D02*
X0112595Y0308933D01*
X0178095Y0308933D01*
X0186095Y0300933D01*
X0249095Y0300933D01*
X0257095Y0308933D01*
X0322595Y0308933D01*
X0322595Y0058933D01*
X0112595Y0058933D01*
X0161626Y0098933D02*
X0161628Y0099021D01*
X0161634Y0099109D01*
X0161644Y0099197D01*
X0161658Y0099285D01*
X0161675Y0099371D01*
X0161697Y0099457D01*
X0161722Y0099541D01*
X0161752Y0099625D01*
X0161784Y0099707D01*
X0161821Y0099787D01*
X0161861Y0099866D01*
X0161905Y0099943D01*
X0161952Y0100018D01*
X0162002Y0100090D01*
X0162056Y0100161D01*
X0162112Y0100228D01*
X0162172Y0100294D01*
X0162234Y0100356D01*
X0162300Y0100416D01*
X0162367Y0100472D01*
X0162438Y0100526D01*
X0162510Y0100576D01*
X0162585Y0100623D01*
X0162662Y0100667D01*
X0162741Y0100707D01*
X0162821Y0100744D01*
X0162903Y0100776D01*
X0162987Y0100806D01*
X0163071Y0100831D01*
X0163157Y0100853D01*
X0163243Y0100870D01*
X0163331Y0100884D01*
X0163419Y0100894D01*
X0163507Y0100900D01*
X0163595Y0100902D01*
X0163683Y0100900D01*
X0163771Y0100894D01*
X0163859Y0100884D01*
X0163947Y0100870D01*
X0164033Y0100853D01*
X0164119Y0100831D01*
X0164203Y0100806D01*
X0164287Y0100776D01*
X0164369Y0100744D01*
X0164449Y0100707D01*
X0164528Y0100667D01*
X0164605Y0100623D01*
X0164680Y0100576D01*
X0164752Y0100526D01*
X0164823Y0100472D01*
X0164890Y0100416D01*
X0164956Y0100356D01*
X0165018Y0100294D01*
X0165078Y0100228D01*
X0165134Y0100161D01*
X0165188Y0100090D01*
X0165238Y0100018D01*
X0165285Y0099943D01*
X0165329Y0099866D01*
X0165369Y0099787D01*
X0165406Y0099707D01*
X0165438Y0099625D01*
X0165468Y0099541D01*
X0165493Y0099457D01*
X0165515Y0099371D01*
X0165532Y0099285D01*
X0165546Y0099197D01*
X0165556Y0099109D01*
X0165562Y0099021D01*
X0165564Y0098933D01*
X0165562Y0098845D01*
X0165556Y0098757D01*
X0165546Y0098669D01*
X0165532Y0098581D01*
X0165515Y0098495D01*
X0165493Y0098409D01*
X0165468Y0098325D01*
X0165438Y0098241D01*
X0165406Y0098159D01*
X0165369Y0098079D01*
X0165329Y0098000D01*
X0165285Y0097923D01*
X0165238Y0097848D01*
X0165188Y0097776D01*
X0165134Y0097705D01*
X0165078Y0097638D01*
X0165018Y0097572D01*
X0164956Y0097510D01*
X0164890Y0097450D01*
X0164823Y0097394D01*
X0164752Y0097340D01*
X0164680Y0097290D01*
X0164605Y0097243D01*
X0164528Y0097199D01*
X0164449Y0097159D01*
X0164369Y0097122D01*
X0164287Y0097090D01*
X0164203Y0097060D01*
X0164119Y0097035D01*
X0164033Y0097013D01*
X0163947Y0096996D01*
X0163859Y0096982D01*
X0163771Y0096972D01*
X0163683Y0096966D01*
X0163595Y0096964D01*
X0163507Y0096966D01*
X0163419Y0096972D01*
X0163331Y0096982D01*
X0163243Y0096996D01*
X0163157Y0097013D01*
X0163071Y0097035D01*
X0162987Y0097060D01*
X0162903Y0097090D01*
X0162821Y0097122D01*
X0162741Y0097159D01*
X0162662Y0097199D01*
X0162585Y0097243D01*
X0162510Y0097290D01*
X0162438Y0097340D01*
X0162367Y0097394D01*
X0162300Y0097450D01*
X0162234Y0097510D01*
X0162172Y0097572D01*
X0162112Y0097638D01*
X0162056Y0097705D01*
X0162002Y0097776D01*
X0161952Y0097848D01*
X0161905Y0097923D01*
X0161861Y0098000D01*
X0161821Y0098079D01*
X0161784Y0098159D01*
X0161752Y0098241D01*
X0161722Y0098325D01*
X0161697Y0098409D01*
X0161675Y0098495D01*
X0161658Y0098581D01*
X0161644Y0098669D01*
X0161634Y0098757D01*
X0161628Y0098845D01*
X0161626Y0098933D01*
X0169626Y0098933D02*
X0169628Y0099021D01*
X0169634Y0099109D01*
X0169644Y0099197D01*
X0169658Y0099285D01*
X0169675Y0099371D01*
X0169697Y0099457D01*
X0169722Y0099541D01*
X0169752Y0099625D01*
X0169784Y0099707D01*
X0169821Y0099787D01*
X0169861Y0099866D01*
X0169905Y0099943D01*
X0169952Y0100018D01*
X0170002Y0100090D01*
X0170056Y0100161D01*
X0170112Y0100228D01*
X0170172Y0100294D01*
X0170234Y0100356D01*
X0170300Y0100416D01*
X0170367Y0100472D01*
X0170438Y0100526D01*
X0170510Y0100576D01*
X0170585Y0100623D01*
X0170662Y0100667D01*
X0170741Y0100707D01*
X0170821Y0100744D01*
X0170903Y0100776D01*
X0170987Y0100806D01*
X0171071Y0100831D01*
X0171157Y0100853D01*
X0171243Y0100870D01*
X0171331Y0100884D01*
X0171419Y0100894D01*
X0171507Y0100900D01*
X0171595Y0100902D01*
X0171683Y0100900D01*
X0171771Y0100894D01*
X0171859Y0100884D01*
X0171947Y0100870D01*
X0172033Y0100853D01*
X0172119Y0100831D01*
X0172203Y0100806D01*
X0172287Y0100776D01*
X0172369Y0100744D01*
X0172449Y0100707D01*
X0172528Y0100667D01*
X0172605Y0100623D01*
X0172680Y0100576D01*
X0172752Y0100526D01*
X0172823Y0100472D01*
X0172890Y0100416D01*
X0172956Y0100356D01*
X0173018Y0100294D01*
X0173078Y0100228D01*
X0173134Y0100161D01*
X0173188Y0100090D01*
X0173238Y0100018D01*
X0173285Y0099943D01*
X0173329Y0099866D01*
X0173369Y0099787D01*
X0173406Y0099707D01*
X0173438Y0099625D01*
X0173468Y0099541D01*
X0173493Y0099457D01*
X0173515Y0099371D01*
X0173532Y0099285D01*
X0173546Y0099197D01*
X0173556Y0099109D01*
X0173562Y0099021D01*
X0173564Y0098933D01*
X0173562Y0098845D01*
X0173556Y0098757D01*
X0173546Y0098669D01*
X0173532Y0098581D01*
X0173515Y0098495D01*
X0173493Y0098409D01*
X0173468Y0098325D01*
X0173438Y0098241D01*
X0173406Y0098159D01*
X0173369Y0098079D01*
X0173329Y0098000D01*
X0173285Y0097923D01*
X0173238Y0097848D01*
X0173188Y0097776D01*
X0173134Y0097705D01*
X0173078Y0097638D01*
X0173018Y0097572D01*
X0172956Y0097510D01*
X0172890Y0097450D01*
X0172823Y0097394D01*
X0172752Y0097340D01*
X0172680Y0097290D01*
X0172605Y0097243D01*
X0172528Y0097199D01*
X0172449Y0097159D01*
X0172369Y0097122D01*
X0172287Y0097090D01*
X0172203Y0097060D01*
X0172119Y0097035D01*
X0172033Y0097013D01*
X0171947Y0096996D01*
X0171859Y0096982D01*
X0171771Y0096972D01*
X0171683Y0096966D01*
X0171595Y0096964D01*
X0171507Y0096966D01*
X0171419Y0096972D01*
X0171331Y0096982D01*
X0171243Y0096996D01*
X0171157Y0097013D01*
X0171071Y0097035D01*
X0170987Y0097060D01*
X0170903Y0097090D01*
X0170821Y0097122D01*
X0170741Y0097159D01*
X0170662Y0097199D01*
X0170585Y0097243D01*
X0170510Y0097290D01*
X0170438Y0097340D01*
X0170367Y0097394D01*
X0170300Y0097450D01*
X0170234Y0097510D01*
X0170172Y0097572D01*
X0170112Y0097638D01*
X0170056Y0097705D01*
X0170002Y0097776D01*
X0169952Y0097848D01*
X0169905Y0097923D01*
X0169861Y0098000D01*
X0169821Y0098079D01*
X0169784Y0098159D01*
X0169752Y0098241D01*
X0169722Y0098325D01*
X0169697Y0098409D01*
X0169675Y0098495D01*
X0169658Y0098581D01*
X0169644Y0098669D01*
X0169634Y0098757D01*
X0169628Y0098845D01*
X0169626Y0098933D01*
X0165626Y0128933D02*
X0165628Y0129021D01*
X0165634Y0129109D01*
X0165644Y0129197D01*
X0165658Y0129285D01*
X0165675Y0129371D01*
X0165697Y0129457D01*
X0165722Y0129541D01*
X0165752Y0129625D01*
X0165784Y0129707D01*
X0165821Y0129787D01*
X0165861Y0129866D01*
X0165905Y0129943D01*
X0165952Y0130018D01*
X0166002Y0130090D01*
X0166056Y0130161D01*
X0166112Y0130228D01*
X0166172Y0130294D01*
X0166234Y0130356D01*
X0166300Y0130416D01*
X0166367Y0130472D01*
X0166438Y0130526D01*
X0166510Y0130576D01*
X0166585Y0130623D01*
X0166662Y0130667D01*
X0166741Y0130707D01*
X0166821Y0130744D01*
X0166903Y0130776D01*
X0166987Y0130806D01*
X0167071Y0130831D01*
X0167157Y0130853D01*
X0167243Y0130870D01*
X0167331Y0130884D01*
X0167419Y0130894D01*
X0167507Y0130900D01*
X0167595Y0130902D01*
X0167683Y0130900D01*
X0167771Y0130894D01*
X0167859Y0130884D01*
X0167947Y0130870D01*
X0168033Y0130853D01*
X0168119Y0130831D01*
X0168203Y0130806D01*
X0168287Y0130776D01*
X0168369Y0130744D01*
X0168449Y0130707D01*
X0168528Y0130667D01*
X0168605Y0130623D01*
X0168680Y0130576D01*
X0168752Y0130526D01*
X0168823Y0130472D01*
X0168890Y0130416D01*
X0168956Y0130356D01*
X0169018Y0130294D01*
X0169078Y0130228D01*
X0169134Y0130161D01*
X0169188Y0130090D01*
X0169238Y0130018D01*
X0169285Y0129943D01*
X0169329Y0129866D01*
X0169369Y0129787D01*
X0169406Y0129707D01*
X0169438Y0129625D01*
X0169468Y0129541D01*
X0169493Y0129457D01*
X0169515Y0129371D01*
X0169532Y0129285D01*
X0169546Y0129197D01*
X0169556Y0129109D01*
X0169562Y0129021D01*
X0169564Y0128933D01*
X0169562Y0128845D01*
X0169556Y0128757D01*
X0169546Y0128669D01*
X0169532Y0128581D01*
X0169515Y0128495D01*
X0169493Y0128409D01*
X0169468Y0128325D01*
X0169438Y0128241D01*
X0169406Y0128159D01*
X0169369Y0128079D01*
X0169329Y0128000D01*
X0169285Y0127923D01*
X0169238Y0127848D01*
X0169188Y0127776D01*
X0169134Y0127705D01*
X0169078Y0127638D01*
X0169018Y0127572D01*
X0168956Y0127510D01*
X0168890Y0127450D01*
X0168823Y0127394D01*
X0168752Y0127340D01*
X0168680Y0127290D01*
X0168605Y0127243D01*
X0168528Y0127199D01*
X0168449Y0127159D01*
X0168369Y0127122D01*
X0168287Y0127090D01*
X0168203Y0127060D01*
X0168119Y0127035D01*
X0168033Y0127013D01*
X0167947Y0126996D01*
X0167859Y0126982D01*
X0167771Y0126972D01*
X0167683Y0126966D01*
X0167595Y0126964D01*
X0167507Y0126966D01*
X0167419Y0126972D01*
X0167331Y0126982D01*
X0167243Y0126996D01*
X0167157Y0127013D01*
X0167071Y0127035D01*
X0166987Y0127060D01*
X0166903Y0127090D01*
X0166821Y0127122D01*
X0166741Y0127159D01*
X0166662Y0127199D01*
X0166585Y0127243D01*
X0166510Y0127290D01*
X0166438Y0127340D01*
X0166367Y0127394D01*
X0166300Y0127450D01*
X0166234Y0127510D01*
X0166172Y0127572D01*
X0166112Y0127638D01*
X0166056Y0127705D01*
X0166002Y0127776D01*
X0165952Y0127848D01*
X0165905Y0127923D01*
X0165861Y0128000D01*
X0165821Y0128079D01*
X0165784Y0128159D01*
X0165752Y0128241D01*
X0165722Y0128325D01*
X0165697Y0128409D01*
X0165675Y0128495D01*
X0165658Y0128581D01*
X0165644Y0128669D01*
X0165634Y0128757D01*
X0165628Y0128845D01*
X0165626Y0128933D01*
X0206345Y0098933D02*
X0206347Y0099091D01*
X0206353Y0099248D01*
X0206363Y0099406D01*
X0206377Y0099563D01*
X0206395Y0099719D01*
X0206416Y0099876D01*
X0206442Y0100031D01*
X0206472Y0100186D01*
X0206505Y0100340D01*
X0206543Y0100493D01*
X0206584Y0100646D01*
X0206629Y0100797D01*
X0206678Y0100947D01*
X0206731Y0101095D01*
X0206787Y0101243D01*
X0206848Y0101388D01*
X0206911Y0101533D01*
X0206979Y0101675D01*
X0207050Y0101816D01*
X0207124Y0101955D01*
X0207202Y0102092D01*
X0207284Y0102227D01*
X0207368Y0102360D01*
X0207457Y0102491D01*
X0207548Y0102619D01*
X0207643Y0102746D01*
X0207740Y0102869D01*
X0207841Y0102991D01*
X0207945Y0103109D01*
X0208052Y0103225D01*
X0208162Y0103338D01*
X0208274Y0103449D01*
X0208390Y0103556D01*
X0208508Y0103661D01*
X0208628Y0103763D01*
X0208751Y0103861D01*
X0208877Y0103957D01*
X0209005Y0104049D01*
X0209135Y0104138D01*
X0209267Y0104224D01*
X0209402Y0104306D01*
X0209539Y0104385D01*
X0209677Y0104460D01*
X0209817Y0104532D01*
X0209960Y0104600D01*
X0210103Y0104665D01*
X0210249Y0104726D01*
X0210396Y0104783D01*
X0210544Y0104837D01*
X0210694Y0104887D01*
X0210844Y0104933D01*
X0210996Y0104975D01*
X0211149Y0105014D01*
X0211303Y0105048D01*
X0211458Y0105079D01*
X0211613Y0105105D01*
X0211769Y0105128D01*
X0211926Y0105147D01*
X0212083Y0105162D01*
X0212240Y0105173D01*
X0212398Y0105180D01*
X0212556Y0105183D01*
X0212713Y0105182D01*
X0212871Y0105177D01*
X0213028Y0105168D01*
X0213186Y0105155D01*
X0213342Y0105138D01*
X0213499Y0105117D01*
X0213654Y0105093D01*
X0213809Y0105064D01*
X0213964Y0105031D01*
X0214117Y0104995D01*
X0214270Y0104954D01*
X0214421Y0104910D01*
X0214571Y0104862D01*
X0214720Y0104811D01*
X0214868Y0104755D01*
X0215014Y0104696D01*
X0215159Y0104633D01*
X0215302Y0104566D01*
X0215443Y0104496D01*
X0215582Y0104423D01*
X0215720Y0104346D01*
X0215856Y0104265D01*
X0215989Y0104181D01*
X0216120Y0104094D01*
X0216249Y0104003D01*
X0216376Y0103909D01*
X0216501Y0103812D01*
X0216622Y0103712D01*
X0216742Y0103609D01*
X0216858Y0103503D01*
X0216972Y0103394D01*
X0217084Y0103282D01*
X0217192Y0103168D01*
X0217297Y0103050D01*
X0217400Y0102930D01*
X0217499Y0102808D01*
X0217595Y0102683D01*
X0217688Y0102555D01*
X0217778Y0102426D01*
X0217864Y0102294D01*
X0217948Y0102160D01*
X0218027Y0102024D01*
X0218104Y0101886D01*
X0218176Y0101746D01*
X0218245Y0101604D01*
X0218311Y0101461D01*
X0218373Y0101316D01*
X0218431Y0101169D01*
X0218486Y0101021D01*
X0218537Y0100872D01*
X0218584Y0100721D01*
X0218627Y0100570D01*
X0218666Y0100417D01*
X0218702Y0100263D01*
X0218733Y0100109D01*
X0218761Y0099954D01*
X0218785Y0099798D01*
X0218805Y0099641D01*
X0218821Y0099484D01*
X0218833Y0099327D01*
X0218841Y0099170D01*
X0218845Y0099012D01*
X0218845Y0098854D01*
X0218841Y0098696D01*
X0218833Y0098539D01*
X0218821Y0098382D01*
X0218805Y0098225D01*
X0218785Y0098068D01*
X0218761Y0097912D01*
X0218733Y0097757D01*
X0218702Y0097603D01*
X0218666Y0097449D01*
X0218627Y0097296D01*
X0218584Y0097145D01*
X0218537Y0096994D01*
X0218486Y0096845D01*
X0218431Y0096697D01*
X0218373Y0096550D01*
X0218311Y0096405D01*
X0218245Y0096262D01*
X0218176Y0096120D01*
X0218104Y0095980D01*
X0218027Y0095842D01*
X0217948Y0095706D01*
X0217864Y0095572D01*
X0217778Y0095440D01*
X0217688Y0095311D01*
X0217595Y0095183D01*
X0217499Y0095058D01*
X0217400Y0094936D01*
X0217297Y0094816D01*
X0217192Y0094698D01*
X0217084Y0094584D01*
X0216972Y0094472D01*
X0216858Y0094363D01*
X0216742Y0094257D01*
X0216622Y0094154D01*
X0216501Y0094054D01*
X0216376Y0093957D01*
X0216249Y0093863D01*
X0216120Y0093772D01*
X0215989Y0093685D01*
X0215856Y0093601D01*
X0215720Y0093520D01*
X0215582Y0093443D01*
X0215443Y0093370D01*
X0215302Y0093300D01*
X0215159Y0093233D01*
X0215014Y0093170D01*
X0214868Y0093111D01*
X0214720Y0093055D01*
X0214571Y0093004D01*
X0214421Y0092956D01*
X0214270Y0092912D01*
X0214117Y0092871D01*
X0213964Y0092835D01*
X0213809Y0092802D01*
X0213654Y0092773D01*
X0213499Y0092749D01*
X0213342Y0092728D01*
X0213186Y0092711D01*
X0213028Y0092698D01*
X0212871Y0092689D01*
X0212713Y0092684D01*
X0212556Y0092683D01*
X0212398Y0092686D01*
X0212240Y0092693D01*
X0212083Y0092704D01*
X0211926Y0092719D01*
X0211769Y0092738D01*
X0211613Y0092761D01*
X0211458Y0092787D01*
X0211303Y0092818D01*
X0211149Y0092852D01*
X0210996Y0092891D01*
X0210844Y0092933D01*
X0210694Y0092979D01*
X0210544Y0093029D01*
X0210396Y0093083D01*
X0210249Y0093140D01*
X0210103Y0093201D01*
X0209960Y0093266D01*
X0209817Y0093334D01*
X0209677Y0093406D01*
X0209539Y0093481D01*
X0209402Y0093560D01*
X0209267Y0093642D01*
X0209135Y0093728D01*
X0209005Y0093817D01*
X0208877Y0093909D01*
X0208751Y0094005D01*
X0208628Y0094103D01*
X0208508Y0094205D01*
X0208390Y0094310D01*
X0208274Y0094417D01*
X0208162Y0094528D01*
X0208052Y0094641D01*
X0207945Y0094757D01*
X0207841Y0094875D01*
X0207740Y0094997D01*
X0207643Y0095120D01*
X0207548Y0095247D01*
X0207457Y0095375D01*
X0207368Y0095506D01*
X0207284Y0095639D01*
X0207202Y0095774D01*
X0207124Y0095911D01*
X0207050Y0096050D01*
X0206979Y0096191D01*
X0206911Y0096333D01*
X0206848Y0096478D01*
X0206787Y0096623D01*
X0206731Y0096771D01*
X0206678Y0096919D01*
X0206629Y0097069D01*
X0206584Y0097220D01*
X0206543Y0097373D01*
X0206505Y0097526D01*
X0206472Y0097680D01*
X0206442Y0097835D01*
X0206416Y0097990D01*
X0206395Y0098147D01*
X0206377Y0098303D01*
X0206363Y0098460D01*
X0206353Y0098618D01*
X0206347Y0098775D01*
X0206345Y0098933D01*
X0136345Y0298933D02*
X0136347Y0299091D01*
X0136353Y0299248D01*
X0136363Y0299406D01*
X0136377Y0299563D01*
X0136395Y0299719D01*
X0136416Y0299876D01*
X0136442Y0300031D01*
X0136472Y0300186D01*
X0136505Y0300340D01*
X0136543Y0300493D01*
X0136584Y0300646D01*
X0136629Y0300797D01*
X0136678Y0300947D01*
X0136731Y0301095D01*
X0136787Y0301243D01*
X0136848Y0301388D01*
X0136911Y0301533D01*
X0136979Y0301675D01*
X0137050Y0301816D01*
X0137124Y0301955D01*
X0137202Y0302092D01*
X0137284Y0302227D01*
X0137368Y0302360D01*
X0137457Y0302491D01*
X0137548Y0302619D01*
X0137643Y0302746D01*
X0137740Y0302869D01*
X0137841Y0302991D01*
X0137945Y0303109D01*
X0138052Y0303225D01*
X0138162Y0303338D01*
X0138274Y0303449D01*
X0138390Y0303556D01*
X0138508Y0303661D01*
X0138628Y0303763D01*
X0138751Y0303861D01*
X0138877Y0303957D01*
X0139005Y0304049D01*
X0139135Y0304138D01*
X0139267Y0304224D01*
X0139402Y0304306D01*
X0139539Y0304385D01*
X0139677Y0304460D01*
X0139817Y0304532D01*
X0139960Y0304600D01*
X0140103Y0304665D01*
X0140249Y0304726D01*
X0140396Y0304783D01*
X0140544Y0304837D01*
X0140694Y0304887D01*
X0140844Y0304933D01*
X0140996Y0304975D01*
X0141149Y0305014D01*
X0141303Y0305048D01*
X0141458Y0305079D01*
X0141613Y0305105D01*
X0141769Y0305128D01*
X0141926Y0305147D01*
X0142083Y0305162D01*
X0142240Y0305173D01*
X0142398Y0305180D01*
X0142556Y0305183D01*
X0142713Y0305182D01*
X0142871Y0305177D01*
X0143028Y0305168D01*
X0143186Y0305155D01*
X0143342Y0305138D01*
X0143499Y0305117D01*
X0143654Y0305093D01*
X0143809Y0305064D01*
X0143964Y0305031D01*
X0144117Y0304995D01*
X0144270Y0304954D01*
X0144421Y0304910D01*
X0144571Y0304862D01*
X0144720Y0304811D01*
X0144868Y0304755D01*
X0145014Y0304696D01*
X0145159Y0304633D01*
X0145302Y0304566D01*
X0145443Y0304496D01*
X0145582Y0304423D01*
X0145720Y0304346D01*
X0145856Y0304265D01*
X0145989Y0304181D01*
X0146120Y0304094D01*
X0146249Y0304003D01*
X0146376Y0303909D01*
X0146501Y0303812D01*
X0146622Y0303712D01*
X0146742Y0303609D01*
X0146858Y0303503D01*
X0146972Y0303394D01*
X0147084Y0303282D01*
X0147192Y0303168D01*
X0147297Y0303050D01*
X0147400Y0302930D01*
X0147499Y0302808D01*
X0147595Y0302683D01*
X0147688Y0302555D01*
X0147778Y0302426D01*
X0147864Y0302294D01*
X0147948Y0302160D01*
X0148027Y0302024D01*
X0148104Y0301886D01*
X0148176Y0301746D01*
X0148245Y0301604D01*
X0148311Y0301461D01*
X0148373Y0301316D01*
X0148431Y0301169D01*
X0148486Y0301021D01*
X0148537Y0300872D01*
X0148584Y0300721D01*
X0148627Y0300570D01*
X0148666Y0300417D01*
X0148702Y0300263D01*
X0148733Y0300109D01*
X0148761Y0299954D01*
X0148785Y0299798D01*
X0148805Y0299641D01*
X0148821Y0299484D01*
X0148833Y0299327D01*
X0148841Y0299170D01*
X0148845Y0299012D01*
X0148845Y0298854D01*
X0148841Y0298696D01*
X0148833Y0298539D01*
X0148821Y0298382D01*
X0148805Y0298225D01*
X0148785Y0298068D01*
X0148761Y0297912D01*
X0148733Y0297757D01*
X0148702Y0297603D01*
X0148666Y0297449D01*
X0148627Y0297296D01*
X0148584Y0297145D01*
X0148537Y0296994D01*
X0148486Y0296845D01*
X0148431Y0296697D01*
X0148373Y0296550D01*
X0148311Y0296405D01*
X0148245Y0296262D01*
X0148176Y0296120D01*
X0148104Y0295980D01*
X0148027Y0295842D01*
X0147948Y0295706D01*
X0147864Y0295572D01*
X0147778Y0295440D01*
X0147688Y0295311D01*
X0147595Y0295183D01*
X0147499Y0295058D01*
X0147400Y0294936D01*
X0147297Y0294816D01*
X0147192Y0294698D01*
X0147084Y0294584D01*
X0146972Y0294472D01*
X0146858Y0294363D01*
X0146742Y0294257D01*
X0146622Y0294154D01*
X0146501Y0294054D01*
X0146376Y0293957D01*
X0146249Y0293863D01*
X0146120Y0293772D01*
X0145989Y0293685D01*
X0145856Y0293601D01*
X0145720Y0293520D01*
X0145582Y0293443D01*
X0145443Y0293370D01*
X0145302Y0293300D01*
X0145159Y0293233D01*
X0145014Y0293170D01*
X0144868Y0293111D01*
X0144720Y0293055D01*
X0144571Y0293004D01*
X0144421Y0292956D01*
X0144270Y0292912D01*
X0144117Y0292871D01*
X0143964Y0292835D01*
X0143809Y0292802D01*
X0143654Y0292773D01*
X0143499Y0292749D01*
X0143342Y0292728D01*
X0143186Y0292711D01*
X0143028Y0292698D01*
X0142871Y0292689D01*
X0142713Y0292684D01*
X0142556Y0292683D01*
X0142398Y0292686D01*
X0142240Y0292693D01*
X0142083Y0292704D01*
X0141926Y0292719D01*
X0141769Y0292738D01*
X0141613Y0292761D01*
X0141458Y0292787D01*
X0141303Y0292818D01*
X0141149Y0292852D01*
X0140996Y0292891D01*
X0140844Y0292933D01*
X0140694Y0292979D01*
X0140544Y0293029D01*
X0140396Y0293083D01*
X0140249Y0293140D01*
X0140103Y0293201D01*
X0139960Y0293266D01*
X0139817Y0293334D01*
X0139677Y0293406D01*
X0139539Y0293481D01*
X0139402Y0293560D01*
X0139267Y0293642D01*
X0139135Y0293728D01*
X0139005Y0293817D01*
X0138877Y0293909D01*
X0138751Y0294005D01*
X0138628Y0294103D01*
X0138508Y0294205D01*
X0138390Y0294310D01*
X0138274Y0294417D01*
X0138162Y0294528D01*
X0138052Y0294641D01*
X0137945Y0294757D01*
X0137841Y0294875D01*
X0137740Y0294997D01*
X0137643Y0295120D01*
X0137548Y0295247D01*
X0137457Y0295375D01*
X0137368Y0295506D01*
X0137284Y0295639D01*
X0137202Y0295774D01*
X0137124Y0295911D01*
X0137050Y0296050D01*
X0136979Y0296191D01*
X0136911Y0296333D01*
X0136848Y0296478D01*
X0136787Y0296623D01*
X0136731Y0296771D01*
X0136678Y0296919D01*
X0136629Y0297069D01*
X0136584Y0297220D01*
X0136543Y0297373D01*
X0136505Y0297526D01*
X0136472Y0297680D01*
X0136442Y0297835D01*
X0136416Y0297990D01*
X0136395Y0298147D01*
X0136377Y0298303D01*
X0136363Y0298460D01*
X0136353Y0298618D01*
X0136347Y0298775D01*
X0136345Y0298933D01*
X0286345Y0298933D02*
X0286347Y0299091D01*
X0286353Y0299248D01*
X0286363Y0299406D01*
X0286377Y0299563D01*
X0286395Y0299719D01*
X0286416Y0299876D01*
X0286442Y0300031D01*
X0286472Y0300186D01*
X0286505Y0300340D01*
X0286543Y0300493D01*
X0286584Y0300646D01*
X0286629Y0300797D01*
X0286678Y0300947D01*
X0286731Y0301095D01*
X0286787Y0301243D01*
X0286848Y0301388D01*
X0286911Y0301533D01*
X0286979Y0301675D01*
X0287050Y0301816D01*
X0287124Y0301955D01*
X0287202Y0302092D01*
X0287284Y0302227D01*
X0287368Y0302360D01*
X0287457Y0302491D01*
X0287548Y0302619D01*
X0287643Y0302746D01*
X0287740Y0302869D01*
X0287841Y0302991D01*
X0287945Y0303109D01*
X0288052Y0303225D01*
X0288162Y0303338D01*
X0288274Y0303449D01*
X0288390Y0303556D01*
X0288508Y0303661D01*
X0288628Y0303763D01*
X0288751Y0303861D01*
X0288877Y0303957D01*
X0289005Y0304049D01*
X0289135Y0304138D01*
X0289267Y0304224D01*
X0289402Y0304306D01*
X0289539Y0304385D01*
X0289677Y0304460D01*
X0289817Y0304532D01*
X0289960Y0304600D01*
X0290103Y0304665D01*
X0290249Y0304726D01*
X0290396Y0304783D01*
X0290544Y0304837D01*
X0290694Y0304887D01*
X0290844Y0304933D01*
X0290996Y0304975D01*
X0291149Y0305014D01*
X0291303Y0305048D01*
X0291458Y0305079D01*
X0291613Y0305105D01*
X0291769Y0305128D01*
X0291926Y0305147D01*
X0292083Y0305162D01*
X0292240Y0305173D01*
X0292398Y0305180D01*
X0292556Y0305183D01*
X0292713Y0305182D01*
X0292871Y0305177D01*
X0293028Y0305168D01*
X0293186Y0305155D01*
X0293342Y0305138D01*
X0293499Y0305117D01*
X0293654Y0305093D01*
X0293809Y0305064D01*
X0293964Y0305031D01*
X0294117Y0304995D01*
X0294270Y0304954D01*
X0294421Y0304910D01*
X0294571Y0304862D01*
X0294720Y0304811D01*
X0294868Y0304755D01*
X0295014Y0304696D01*
X0295159Y0304633D01*
X0295302Y0304566D01*
X0295443Y0304496D01*
X0295582Y0304423D01*
X0295720Y0304346D01*
X0295856Y0304265D01*
X0295989Y0304181D01*
X0296120Y0304094D01*
X0296249Y0304003D01*
X0296376Y0303909D01*
X0296501Y0303812D01*
X0296622Y0303712D01*
X0296742Y0303609D01*
X0296858Y0303503D01*
X0296972Y0303394D01*
X0297084Y0303282D01*
X0297192Y0303168D01*
X0297297Y0303050D01*
X0297400Y0302930D01*
X0297499Y0302808D01*
X0297595Y0302683D01*
X0297688Y0302555D01*
X0297778Y0302426D01*
X0297864Y0302294D01*
X0297948Y0302160D01*
X0298027Y0302024D01*
X0298104Y0301886D01*
X0298176Y0301746D01*
X0298245Y0301604D01*
X0298311Y0301461D01*
X0298373Y0301316D01*
X0298431Y0301169D01*
X0298486Y0301021D01*
X0298537Y0300872D01*
X0298584Y0300721D01*
X0298627Y0300570D01*
X0298666Y0300417D01*
X0298702Y0300263D01*
X0298733Y0300109D01*
X0298761Y0299954D01*
X0298785Y0299798D01*
X0298805Y0299641D01*
X0298821Y0299484D01*
X0298833Y0299327D01*
X0298841Y0299170D01*
X0298845Y0299012D01*
X0298845Y0298854D01*
X0298841Y0298696D01*
X0298833Y0298539D01*
X0298821Y0298382D01*
X0298805Y0298225D01*
X0298785Y0298068D01*
X0298761Y0297912D01*
X0298733Y0297757D01*
X0298702Y0297603D01*
X0298666Y0297449D01*
X0298627Y0297296D01*
X0298584Y0297145D01*
X0298537Y0296994D01*
X0298486Y0296845D01*
X0298431Y0296697D01*
X0298373Y0296550D01*
X0298311Y0296405D01*
X0298245Y0296262D01*
X0298176Y0296120D01*
X0298104Y0295980D01*
X0298027Y0295842D01*
X0297948Y0295706D01*
X0297864Y0295572D01*
X0297778Y0295440D01*
X0297688Y0295311D01*
X0297595Y0295183D01*
X0297499Y0295058D01*
X0297400Y0294936D01*
X0297297Y0294816D01*
X0297192Y0294698D01*
X0297084Y0294584D01*
X0296972Y0294472D01*
X0296858Y0294363D01*
X0296742Y0294257D01*
X0296622Y0294154D01*
X0296501Y0294054D01*
X0296376Y0293957D01*
X0296249Y0293863D01*
X0296120Y0293772D01*
X0295989Y0293685D01*
X0295856Y0293601D01*
X0295720Y0293520D01*
X0295582Y0293443D01*
X0295443Y0293370D01*
X0295302Y0293300D01*
X0295159Y0293233D01*
X0295014Y0293170D01*
X0294868Y0293111D01*
X0294720Y0293055D01*
X0294571Y0293004D01*
X0294421Y0292956D01*
X0294270Y0292912D01*
X0294117Y0292871D01*
X0293964Y0292835D01*
X0293809Y0292802D01*
X0293654Y0292773D01*
X0293499Y0292749D01*
X0293342Y0292728D01*
X0293186Y0292711D01*
X0293028Y0292698D01*
X0292871Y0292689D01*
X0292713Y0292684D01*
X0292556Y0292683D01*
X0292398Y0292686D01*
X0292240Y0292693D01*
X0292083Y0292704D01*
X0291926Y0292719D01*
X0291769Y0292738D01*
X0291613Y0292761D01*
X0291458Y0292787D01*
X0291303Y0292818D01*
X0291149Y0292852D01*
X0290996Y0292891D01*
X0290844Y0292933D01*
X0290694Y0292979D01*
X0290544Y0293029D01*
X0290396Y0293083D01*
X0290249Y0293140D01*
X0290103Y0293201D01*
X0289960Y0293266D01*
X0289817Y0293334D01*
X0289677Y0293406D01*
X0289539Y0293481D01*
X0289402Y0293560D01*
X0289267Y0293642D01*
X0289135Y0293728D01*
X0289005Y0293817D01*
X0288877Y0293909D01*
X0288751Y0294005D01*
X0288628Y0294103D01*
X0288508Y0294205D01*
X0288390Y0294310D01*
X0288274Y0294417D01*
X0288162Y0294528D01*
X0288052Y0294641D01*
X0287945Y0294757D01*
X0287841Y0294875D01*
X0287740Y0294997D01*
X0287643Y0295120D01*
X0287548Y0295247D01*
X0287457Y0295375D01*
X0287368Y0295506D01*
X0287284Y0295639D01*
X0287202Y0295774D01*
X0287124Y0295911D01*
X0287050Y0296050D01*
X0286979Y0296191D01*
X0286911Y0296333D01*
X0286848Y0296478D01*
X0286787Y0296623D01*
X0286731Y0296771D01*
X0286678Y0296919D01*
X0286629Y0297069D01*
X0286584Y0297220D01*
X0286543Y0297373D01*
X0286505Y0297526D01*
X0286472Y0297680D01*
X0286442Y0297835D01*
X0286416Y0297990D01*
X0286395Y0298147D01*
X0286377Y0298303D01*
X0286363Y0298460D01*
X0286353Y0298618D01*
X0286347Y0298775D01*
X0286345Y0298933D01*
M02*
