%
M48
M72
T01C0.0150
T02C0.0200
T03C0.0250
T04C0.0350
T05C0.0394
T06C0.0400
T07C0.0433
T08C0.0472
T09C0.1250
%
T01
X15760Y10393
X15760Y11393
X15760Y12393
X17760Y12393
X17760Y11893
X18261Y11393
X17760Y10893
X15567Y15901
X14060Y17393
X15160Y18393
T02
X17110Y17243
X18310Y17243
X20210Y16843
X20660Y15693
X20260Y15393
X19610Y14593
X19110Y13043
X19810Y12643
X20360Y11943
X20310Y10793
X19810Y9893
X18760Y8893
X14910Y8893
X16410Y14493
X20760Y18043
X21410Y17643
X22510Y16393
X23310Y16393
X23260Y16893
X23110Y17743
X23060Y19143
X21765Y20043
X20260Y19143
X24210Y14543
X23960Y13493
X23010Y13643
X22910Y11593
X25610Y9693
X29060Y13743
X28260Y15693
X28210Y17493
X26460Y15793
X27810Y22893
X23410Y25993
X21760Y25893
X21760Y26893
X22463Y27643
X23360Y27693
X23010Y29193
X23810Y29193
X24360Y29193
X26210Y28393
X20360Y24893
X19660Y25143
X18760Y25043
X18710Y25993
X17910Y29243
X15260Y22793
T03
X22760Y14793
X25260Y14833
X25260Y16753
T04
X28410Y11893
X28410Y10843
T05
X17160Y9893
X16360Y9893
X16760Y12893
T06
X12260Y6893
X13260Y6893
X14260Y6893
X15260Y6893
X16260Y6893
X17260Y6893
X18260Y6893
X19260Y6893
X20260Y6893
X21260Y6893
X22260Y6893
X23260Y6893
X24260Y6893
X25260Y6893
X26260Y6893
X27260Y6893
X28260Y6893
X29260Y6893
X30260Y6893
X31260Y6893
X31260Y8893
X31260Y9893
X31260Y10893
X31260Y11893
X31260Y12893
X31260Y13893
X31260Y14893
X31260Y15893
X31260Y16893
X31260Y17893
X31260Y18893
X31260Y19893
X31260Y20893
X31260Y21893
X31260Y22893
X31260Y23893
X31260Y24893
X31260Y25893
X31260Y26893
X31260Y27893
X29760Y23393
X28260Y21393
X28260Y20393
X26040Y20003
X26040Y21783
X24760Y22893
X23760Y22893
X22760Y22893
X21760Y22893
X20760Y22893
X19760Y22893
X18760Y22893
X20040Y21783
X20040Y20003
X17480Y20003
X17480Y21783
X12260Y21893
X12260Y22893
X12260Y23893
X12260Y24893
X12260Y25893
X12260Y26893
X12260Y27893
X12260Y20893
X12260Y19893
X12260Y18893
X12260Y17893
X12260Y16893
X12260Y15893
X12260Y14893
X12260Y13893
X12260Y12893
X12260Y11893
X12260Y10893
X12260Y9893
X12260Y8893
X14760Y13893
X18760Y14893
X23480Y20003
X23480Y21783
X29010Y16643
X27860Y14543
T07
X27244Y12815
X27244Y9972
T08
X26716Y10921
X26716Y11866
T09
X21260Y9893
X14260Y29893
X29260Y29893
M30
