G75*
%MOIN*%
%OFA0B0*%
%FSLAX25Y25*%
%IPPOS*%
%LPD*%
%AMOC8*
5,1,8,0,0,1.08239X$1,22.5*
%
%ADD10C,0.00500*%
%ADD11C,0.00600*%
%ADD12C,0.00800*%
%ADD13R,0.02000X0.02000*%
%ADD14R,0.02810X0.00312*%
%ADD15R,0.05000X0.00313*%
%ADD16R,0.06880X0.00312*%
%ADD17R,0.07810X0.00313*%
%ADD18R,0.09060X0.00312*%
%ADD19R,0.09690X0.00313*%
%ADD20R,0.10620X0.00312*%
%ADD21R,0.11250X0.00313*%
%ADD22R,0.11880X0.00312*%
%ADD23R,0.06560X0.00313*%
%ADD24R,0.05630X0.00313*%
%ADD25R,0.02180X0.00313*%
%ADD26R,0.02500X0.00313*%
%ADD27R,0.05930X0.00312*%
%ADD28R,0.05310X0.00312*%
%ADD29R,0.02500X0.00312*%
%ADD30R,0.04370X0.00312*%
%ADD31R,0.04060X0.00312*%
%ADD32R,0.02190X0.00312*%
%ADD33R,0.04060X0.00313*%
%ADD34R,0.00620X0.00313*%
%ADD35R,0.05620X0.00313*%
%ADD36R,0.03440X0.00313*%
%ADD37R,0.05320X0.00313*%
%ADD38R,0.02190X0.00313*%
%ADD39R,0.04380X0.00312*%
%ADD40R,0.00310X0.00312*%
%ADD41R,0.03750X0.00312*%
%ADD42R,0.05940X0.00312*%
%ADD43R,0.02180X0.00312*%
%ADD44R,0.04690X0.00313*%
%ADD45R,0.00310X0.00313*%
%ADD46R,0.03750X0.00313*%
%ADD47R,0.06250X0.00313*%
%ADD48R,0.04690X0.00312*%
%ADD49R,0.05000X0.00312*%
%ADD50R,0.05620X0.00312*%
%ADD51R,0.06870X0.00312*%
%ADD52R,0.04690X0.00313*%
%ADD53R,0.03120X0.00313*%
%ADD54R,0.02820X0.00313*%
%ADD55R,0.02190X0.00313*%
%ADD56R,0.03440X0.00312*%
%ADD57R,0.03130X0.00312*%
%ADD58R,0.02190X0.00312*%
%ADD59R,0.04380X0.00313*%
%ADD60R,0.02810X0.00313*%
%ADD61R,0.01560X0.00312*%
%ADD62R,0.04680X0.00312*%
%ADD63R,0.01880X0.00312*%
%ADD64R,0.04690X0.00312*%
%ADD65R,0.04680X0.00313*%
%ADD66R,0.01880X0.00313*%
%ADD67R,0.01250X0.00313*%
%ADD68R,0.05320X0.00312*%
%ADD69R,0.05310X0.00313*%
%ADD70R,0.02820X0.00312*%
%ADD71R,0.04370X0.00313*%
%ADD72R,0.03120X0.00312*%
%ADD73R,0.01560X0.00313*%
%ADD74R,0.03440X0.00313*%
%ADD75R,0.00930X0.00312*%
%ADD76R,0.05630X0.00312*%
%ADD77R,0.07500X0.00312*%
%ADD78R,0.01870X0.00313*%
%ADD79R,0.01870X0.00312*%
%ADD80R,0.00630X0.00313*%
%ADD81R,0.03130X0.00313*%
%ADD82R,0.04070X0.00312*%
%ADD83R,0.00940X0.00312*%
%ADD84R,0.00630X0.00312*%
%ADD85R,0.00320X0.00313*%
%ADD86R,0.06880X0.00313*%
%ADD87R,0.01250X0.00312*%
%ADD88R,0.05940X0.00312*%
%ADD89R,0.10630X0.00312*%
%ADD90R,0.00940X0.00313*%
%ADD91R,0.01570X0.00313*%
%ADD92R,0.11870X0.00312*%
%ADD93R,0.06570X0.00313*%
%ADD94R,0.07190X0.00312*%
%ADD95R,0.06870X0.00313*%
%ADD96R,0.07190X0.00313*%
%ADD97R,0.07190X0.00313*%
%ADD98R,0.00620X0.00312*%
%ADD99R,0.04070X0.00313*%
%ADD100R,0.07810X0.00312*%
%ADD101R,0.08130X0.00312*%
%ADD102R,0.08750X0.00313*%
%ADD103R,0.08750X0.00312*%
%ADD104R,0.08130X0.00313*%
%ADD105R,0.07180X0.00313*%
%ADD106R,0.05940X0.00313*%
%ADD107R,0.00940X0.00312*%
%ADD108R,0.06560X0.00312*%
%ADD109R,0.05940X0.00313*%
%ADD110R,0.03440X0.00312*%
%ADD111R,0.00930X0.00313*%
D10*
X0138341Y0127434D02*
X0139092Y0126683D01*
X0142095Y0126683D01*
X0142845Y0127434D01*
X0142845Y0128935D01*
X0142095Y0129686D01*
X0140593Y0129686D01*
X0140593Y0128184D01*
X0139092Y0129686D02*
X0138341Y0128935D01*
X0138341Y0127434D01*
X0138341Y0131287D02*
X0142845Y0131287D01*
X0142845Y0134290D01*
X0142845Y0135891D02*
X0142845Y0137392D01*
X0142845Y0136642D02*
X0138341Y0136642D01*
X0138341Y0137392D02*
X0138341Y0135891D01*
X0138341Y0138960D02*
X0138341Y0141963D01*
X0138341Y0140461D02*
X0142845Y0140461D01*
X0142095Y0143564D02*
X0142845Y0144315D01*
X0142845Y0145816D01*
X0142095Y0146567D01*
X0142845Y0148168D02*
X0138341Y0148168D01*
X0139092Y0146567D02*
X0138341Y0145816D01*
X0138341Y0144315D01*
X0139092Y0143564D01*
X0142095Y0143564D01*
X0140593Y0148168D02*
X0140593Y0151171D01*
X0138341Y0151171D02*
X0142845Y0151171D01*
X0162595Y0133933D02*
X0172595Y0133933D01*
X0177595Y0128933D01*
X0177595Y0093933D01*
X0157595Y0093933D01*
X0157595Y0128933D01*
X0162595Y0133933D01*
X0171808Y0143421D02*
X0174957Y0143421D01*
X0174957Y0145783D01*
X0170233Y0148146D02*
X0170233Y0149720D01*
X0174957Y0152083D02*
X0174957Y0154445D01*
X0171808Y0154445D01*
X0185841Y0153183D02*
X0188844Y0153183D01*
X0190345Y0154684D01*
X0188844Y0156186D01*
X0185841Y0156186D01*
X0186592Y0157787D02*
X0189595Y0157787D01*
X0190345Y0158538D01*
X0190345Y0160039D01*
X0189595Y0160790D01*
X0189595Y0162391D02*
X0186592Y0162391D01*
X0185841Y0163142D01*
X0185841Y0164643D01*
X0186592Y0165393D01*
X0189595Y0165393D01*
X0190345Y0164643D01*
X0190345Y0163142D01*
X0189595Y0162391D01*
X0186592Y0160790D02*
X0185841Y0160039D01*
X0185841Y0158538D01*
X0186592Y0157787D01*
X0185841Y0166995D02*
X0185841Y0169247D01*
X0186592Y0169997D01*
X0188093Y0169997D01*
X0188844Y0169247D01*
X0188844Y0166995D01*
X0188844Y0168496D02*
X0190345Y0169997D01*
X0190345Y0171599D02*
X0190345Y0174601D01*
X0188093Y0173100D02*
X0188093Y0171599D01*
X0185841Y0171599D02*
X0190345Y0171599D01*
X0185841Y0171599D02*
X0185841Y0174601D01*
X0185841Y0166995D02*
X0190345Y0166995D01*
X0197910Y0180665D02*
X0197910Y0183618D01*
X0200863Y0183618D01*
X0234327Y0183618D02*
X0237280Y0183618D01*
X0237280Y0180665D01*
X0263345Y0203934D02*
X0264096Y0203183D01*
X0265597Y0203183D01*
X0266348Y0203934D01*
X0266348Y0204684D01*
X0265597Y0205435D01*
X0264846Y0205435D01*
X0265597Y0205435D02*
X0266348Y0206186D01*
X0266348Y0206936D01*
X0265597Y0207687D01*
X0264096Y0207687D01*
X0263345Y0206936D01*
X0265096Y0210683D02*
X0266597Y0210683D01*
X0267348Y0211434D01*
X0267348Y0212935D01*
X0265846Y0212935D01*
X0264345Y0214436D02*
X0264345Y0211434D01*
X0265096Y0210683D01*
X0264345Y0214436D02*
X0265096Y0215187D01*
X0266597Y0215187D01*
X0267348Y0214436D01*
X0268949Y0215187D02*
X0268949Y0210683D01*
X0271952Y0210683D02*
X0271952Y0215187D01*
X0273553Y0215187D02*
X0275805Y0215187D01*
X0276556Y0214436D01*
X0276556Y0211434D01*
X0275805Y0210683D01*
X0273553Y0210683D01*
X0273553Y0215187D01*
X0268949Y0215187D02*
X0271952Y0210683D01*
X0272503Y0207687D02*
X0273254Y0206936D01*
X0273254Y0206186D01*
X0272503Y0205435D01*
X0273254Y0204684D01*
X0273254Y0203934D01*
X0272503Y0203183D01*
X0271002Y0203183D01*
X0270251Y0203934D01*
X0268700Y0203934D02*
X0268700Y0203183D01*
X0267949Y0203183D01*
X0267949Y0203934D01*
X0268700Y0203934D01*
X0270251Y0206936D02*
X0271002Y0207687D01*
X0272503Y0207687D01*
X0272503Y0205435D02*
X0271752Y0205435D01*
X0274855Y0204684D02*
X0276356Y0203183D01*
X0277858Y0204684D01*
X0277858Y0207687D01*
X0274855Y0207687D02*
X0274855Y0204684D01*
X0275095Y0185433D02*
X0272595Y0185433D01*
X0272595Y0182933D02*
X0275095Y0185433D01*
X0277595Y0182933D01*
X0272595Y0182933D01*
X0275095Y0185433D02*
X0277595Y0185433D01*
X0287595Y0185433D02*
X0290095Y0185433D01*
X0287595Y0182933D01*
X0292595Y0182933D01*
X0290095Y0185433D01*
X0292595Y0185433D01*
X0295341Y0174463D02*
X0299845Y0174463D01*
X0295341Y0171460D01*
X0299845Y0171460D01*
X0299845Y0169892D02*
X0299845Y0168391D01*
X0299845Y0169142D02*
X0295341Y0169142D01*
X0295341Y0169892D02*
X0295341Y0168391D01*
X0300596Y0166790D02*
X0300596Y0163787D01*
X0298344Y0162186D02*
X0299845Y0160684D01*
X0298344Y0159183D01*
X0295341Y0159183D01*
X0295341Y0162186D02*
X0298344Y0162186D01*
X0284501Y0158902D02*
X0284501Y0153980D01*
X0281548Y0153980D01*
X0275642Y0153980D02*
X0272690Y0153980D01*
X0272690Y0158902D01*
X0277611Y0159886D02*
X0279579Y0159886D01*
X0273344Y0151195D02*
X0270341Y0151195D01*
X0270341Y0148193D02*
X0273344Y0148193D01*
X0274845Y0149694D01*
X0273344Y0151195D01*
X0274095Y0146592D02*
X0271092Y0146592D01*
X0274095Y0143589D01*
X0274845Y0144340D01*
X0274845Y0145841D01*
X0274095Y0146592D01*
X0274095Y0143589D02*
X0271092Y0143589D01*
X0270341Y0144340D01*
X0270341Y0145841D01*
X0271092Y0146592D01*
X0274095Y0142038D02*
X0274845Y0142038D01*
X0274845Y0141287D01*
X0274095Y0141287D01*
X0274095Y0142038D01*
X0274095Y0139686D02*
X0274845Y0138935D01*
X0274845Y0137434D01*
X0274095Y0136683D01*
X0272593Y0136683D02*
X0271843Y0138184D01*
X0271843Y0138935D01*
X0272593Y0139686D01*
X0274095Y0139686D01*
X0272593Y0136683D02*
X0270341Y0136683D01*
X0270341Y0139686D01*
X0267753Y0128697D02*
X0267753Y0123776D01*
X0277595Y0121807D02*
X0277595Y0128697D01*
X0277595Y0106059D02*
X0277595Y0099169D01*
X0267753Y0099169D02*
X0267753Y0104091D01*
X0282845Y0081187D02*
X0285097Y0081187D01*
X0285848Y0080436D01*
X0285848Y0078935D01*
X0285097Y0078184D01*
X0282845Y0078184D01*
X0282845Y0076683D02*
X0282845Y0081187D01*
X0284346Y0078184D02*
X0285848Y0076683D01*
X0287449Y0077434D02*
X0287449Y0078935D01*
X0288200Y0079686D01*
X0289701Y0079686D01*
X0290452Y0078935D01*
X0290452Y0078184D01*
X0287449Y0078184D01*
X0287449Y0077434D02*
X0288200Y0076683D01*
X0289701Y0076683D01*
X0292053Y0079686D02*
X0293554Y0076683D01*
X0295056Y0079686D01*
X0296657Y0077434D02*
X0297408Y0077434D01*
X0297408Y0076683D01*
X0296657Y0076683D01*
X0296657Y0077434D01*
X0303563Y0076683D02*
X0305815Y0076683D01*
X0306565Y0077434D01*
X0306565Y0078184D01*
X0305815Y0078935D01*
X0303563Y0078935D01*
X0305815Y0078935D02*
X0306565Y0079686D01*
X0306565Y0080436D01*
X0305815Y0081187D01*
X0303563Y0081187D01*
X0303563Y0076683D01*
X0234327Y0144248D02*
X0237280Y0147201D01*
X0200863Y0144248D02*
X0197910Y0144248D01*
X0197910Y0147201D01*
X0154595Y0218183D02*
X0150595Y0218183D01*
X0152595Y0219683D01*
X0154595Y0218183D01*
X0154595Y0219683D02*
X0152595Y0219683D01*
X0150595Y0219683D01*
X0184345Y0235433D02*
X0184345Y0244641D01*
X0186092Y0243290D02*
X0185341Y0242539D01*
X0185341Y0241038D01*
X0186092Y0240287D01*
X0186843Y0240287D01*
X0187593Y0241038D01*
X0187593Y0242539D01*
X0188344Y0243290D01*
X0189095Y0243290D01*
X0189845Y0242539D01*
X0189845Y0241038D01*
X0189095Y0240287D01*
X0189095Y0238686D02*
X0189845Y0237935D01*
X0189845Y0236434D01*
X0189095Y0235683D01*
X0186092Y0235683D01*
X0185341Y0236434D01*
X0185341Y0237935D01*
X0186092Y0238686D01*
X0195341Y0237935D02*
X0195341Y0235683D01*
X0199845Y0235683D01*
X0199845Y0237935D01*
X0199095Y0238686D01*
X0196092Y0238686D01*
X0195341Y0237935D01*
X0196092Y0240287D02*
X0199095Y0240287D01*
X0199845Y0241038D01*
X0199845Y0242539D01*
X0199095Y0243290D01*
X0196092Y0243290D02*
X0195341Y0242539D01*
X0195341Y0241038D01*
X0196092Y0240287D01*
X0204345Y0235433D02*
X0204345Y0249245D01*
X0206092Y0247893D02*
X0205341Y0247143D01*
X0205341Y0245642D01*
X0206092Y0244891D01*
X0206843Y0244891D01*
X0207593Y0245642D01*
X0207593Y0247143D01*
X0208344Y0247893D01*
X0209095Y0247893D01*
X0209845Y0247143D01*
X0209845Y0245642D01*
X0209095Y0244891D01*
X0209845Y0243290D02*
X0209845Y0240287D01*
X0205341Y0240287D01*
X0205341Y0243290D01*
X0207593Y0241788D02*
X0207593Y0240287D01*
X0207593Y0238686D02*
X0208344Y0237935D01*
X0208344Y0235683D01*
X0209845Y0235683D02*
X0205341Y0235683D01*
X0205341Y0237935D01*
X0206092Y0238686D01*
X0207593Y0238686D01*
X0208344Y0237184D02*
X0209845Y0238686D01*
X0215341Y0237935D02*
X0215341Y0235683D01*
X0219845Y0235683D01*
X0219845Y0237935D01*
X0219095Y0238686D01*
X0216092Y0238686D01*
X0215341Y0237935D01*
X0216843Y0240287D02*
X0215341Y0241788D01*
X0219845Y0241788D01*
X0219845Y0240287D02*
X0219845Y0243290D01*
X0225341Y0242539D02*
X0226092Y0243290D01*
X0229095Y0240287D01*
X0229845Y0241038D01*
X0229845Y0242539D01*
X0229095Y0243290D01*
X0226092Y0243290D01*
X0225341Y0242539D02*
X0225341Y0241038D01*
X0226092Y0240287D01*
X0229095Y0240287D01*
X0229095Y0238686D02*
X0226092Y0238686D01*
X0225341Y0237935D01*
X0225341Y0235683D01*
X0229845Y0235683D01*
X0229845Y0237935D01*
X0229095Y0238686D01*
X0234841Y0237935D02*
X0234841Y0236434D01*
X0235592Y0235683D01*
X0237093Y0237184D02*
X0237093Y0237935D01*
X0237844Y0238686D01*
X0238595Y0238686D01*
X0239345Y0237935D01*
X0239345Y0236434D01*
X0238595Y0235683D01*
X0237093Y0237935D02*
X0236343Y0238686D01*
X0235592Y0238686D01*
X0234841Y0237935D01*
X0238595Y0240287D02*
X0238595Y0241038D01*
X0239345Y0241038D01*
X0239345Y0240287D01*
X0238595Y0240287D01*
X0238595Y0242589D02*
X0239345Y0243340D01*
X0239345Y0244841D01*
X0238595Y0245592D01*
X0237844Y0245592D01*
X0237093Y0244841D01*
X0237093Y0244090D01*
X0237093Y0244841D02*
X0236343Y0245592D01*
X0235592Y0245592D01*
X0234841Y0244841D01*
X0234841Y0243340D01*
X0235592Y0242589D01*
X0234841Y0247193D02*
X0237844Y0247193D01*
X0239345Y0248694D01*
X0237844Y0250195D01*
X0234841Y0250195D01*
X0245341Y0247143D02*
X0245341Y0244891D01*
X0249845Y0244891D01*
X0249845Y0247143D01*
X0249095Y0247893D01*
X0246092Y0247893D01*
X0245341Y0247143D01*
X0245341Y0243290D02*
X0249845Y0243290D01*
X0245341Y0240287D01*
X0249845Y0240287D01*
X0249095Y0238686D02*
X0249845Y0237935D01*
X0249845Y0236434D01*
X0249095Y0235683D01*
X0246092Y0235683D01*
X0245341Y0236434D01*
X0245341Y0237935D01*
X0246092Y0238686D01*
X0247593Y0238686D02*
X0247593Y0237184D01*
X0247593Y0238686D02*
X0249095Y0238686D01*
X0294841Y0240184D02*
X0299345Y0240184D01*
X0299345Y0238683D02*
X0299345Y0241686D01*
X0299345Y0243287D02*
X0299345Y0244038D01*
X0298595Y0244038D01*
X0298595Y0243287D01*
X0299345Y0243287D01*
X0299345Y0245589D02*
X0296343Y0248592D01*
X0295592Y0248592D01*
X0294841Y0247841D01*
X0294841Y0246340D01*
X0295592Y0245589D01*
X0299345Y0245589D02*
X0299345Y0248592D01*
X0297844Y0250193D02*
X0299345Y0251694D01*
X0297844Y0253195D01*
X0294841Y0253195D01*
X0294841Y0250193D02*
X0297844Y0250193D01*
X0294841Y0240184D02*
X0296343Y0238683D01*
D11*
X0137129Y0093733D02*
X0136395Y0094467D01*
X0136395Y0097403D01*
X0137129Y0098137D01*
X0138597Y0098137D01*
X0139331Y0097403D01*
X0140999Y0096669D02*
X0142467Y0098137D01*
X0142467Y0093733D01*
X0140999Y0093733D02*
X0143935Y0093733D01*
X0139331Y0094467D02*
X0138597Y0093733D01*
X0137129Y0093733D01*
X0180395Y0129467D02*
X0180395Y0132403D01*
X0181129Y0133137D01*
X0182597Y0133137D01*
X0183331Y0132403D01*
X0184999Y0132403D02*
X0185733Y0133137D01*
X0187201Y0133137D01*
X0187935Y0132403D01*
X0187935Y0131669D01*
X0184999Y0128733D01*
X0187935Y0128733D01*
X0183331Y0129467D02*
X0182597Y0128733D01*
X0181129Y0128733D01*
X0180395Y0129467D01*
X0170201Y0135733D02*
X0170201Y0140137D01*
X0167999Y0137935D01*
X0170935Y0137935D01*
X0166331Y0140137D02*
X0164863Y0140137D01*
X0165597Y0140137D02*
X0165597Y0136467D01*
X0164863Y0135733D01*
X0164129Y0135733D01*
X0163395Y0136467D01*
X0152795Y0145233D02*
X0148391Y0145233D01*
X0148391Y0147435D01*
X0149125Y0148169D01*
X0150593Y0148169D01*
X0151327Y0147435D01*
X0151327Y0145233D01*
X0151327Y0146701D02*
X0152795Y0148169D01*
X0152061Y0149837D02*
X0151327Y0149837D01*
X0150593Y0150571D01*
X0150593Y0152039D01*
X0151327Y0152773D01*
X0152061Y0152773D01*
X0152795Y0152039D01*
X0152795Y0150571D01*
X0152061Y0149837D01*
X0150593Y0150571D02*
X0149859Y0149837D01*
X0149125Y0149837D01*
X0148391Y0150571D01*
X0148391Y0152039D01*
X0149125Y0152773D01*
X0149859Y0152773D01*
X0150593Y0152039D01*
X0169021Y0157341D02*
X0169755Y0156607D01*
X0171223Y0156607D01*
X0171957Y0157341D01*
X0171957Y0160277D01*
X0171223Y0161011D01*
X0169755Y0161011D01*
X0169021Y0160277D01*
X0169021Y0157341D01*
X0170489Y0158075D02*
X0171957Y0156607D01*
X0173625Y0156607D02*
X0176561Y0156607D01*
X0175093Y0156607D02*
X0175093Y0161011D01*
X0173625Y0159543D01*
X0175391Y0176233D02*
X0175391Y0178435D01*
X0176125Y0179169D01*
X0177593Y0179169D01*
X0178327Y0178435D01*
X0178327Y0176233D01*
X0178327Y0177701D02*
X0179795Y0179169D01*
X0179795Y0180837D02*
X0179795Y0183773D01*
X0179795Y0182305D02*
X0175391Y0182305D01*
X0176859Y0180837D01*
X0176125Y0185441D02*
X0175391Y0186175D01*
X0175391Y0187643D01*
X0176125Y0188377D01*
X0176859Y0188377D01*
X0177593Y0187643D01*
X0178327Y0188377D01*
X0179061Y0188377D01*
X0179795Y0187643D01*
X0179795Y0186175D01*
X0179061Y0185441D01*
X0177593Y0186909D02*
X0177593Y0187643D01*
X0167295Y0188377D02*
X0167295Y0185441D01*
X0164359Y0188377D01*
X0163625Y0188377D01*
X0162891Y0187643D01*
X0162891Y0186175D01*
X0163625Y0185441D01*
X0162891Y0182305D02*
X0167295Y0182305D01*
X0167295Y0180837D02*
X0167295Y0183773D01*
X0164359Y0180837D02*
X0162891Y0182305D01*
X0163625Y0179169D02*
X0162891Y0178435D01*
X0162891Y0176233D01*
X0167295Y0176233D01*
X0165827Y0176233D02*
X0165827Y0178435D01*
X0165093Y0179169D01*
X0163625Y0179169D01*
X0165827Y0177701D02*
X0167295Y0179169D01*
X0175391Y0176233D02*
X0179795Y0176233D01*
X0192895Y0185967D02*
X0192895Y0189637D01*
X0195831Y0189637D02*
X0195831Y0185967D01*
X0195097Y0185233D01*
X0193629Y0185233D01*
X0192895Y0185967D01*
X0197499Y0185233D02*
X0200435Y0185233D01*
X0198967Y0185233D02*
X0198967Y0189637D01*
X0197499Y0188169D01*
X0173435Y0207733D02*
X0170499Y0207733D01*
X0171967Y0207733D02*
X0171967Y0212137D01*
X0170499Y0210669D01*
X0168831Y0211403D02*
X0168097Y0212137D01*
X0166629Y0212137D01*
X0165895Y0211403D01*
X0165895Y0210669D01*
X0166629Y0209935D01*
X0168097Y0209935D01*
X0168831Y0209201D01*
X0168831Y0208467D01*
X0168097Y0207733D01*
X0166629Y0207733D01*
X0165895Y0208467D01*
X0147795Y0207773D02*
X0147795Y0204837D01*
X0144859Y0207773D01*
X0144125Y0207773D01*
X0143391Y0207039D01*
X0143391Y0205571D01*
X0144125Y0204837D01*
X0144125Y0203169D02*
X0145593Y0203169D01*
X0146327Y0202435D01*
X0146327Y0200233D01*
X0146327Y0201701D02*
X0147795Y0203169D01*
X0147795Y0200233D02*
X0143391Y0200233D01*
X0143391Y0202435D01*
X0144125Y0203169D01*
X0143391Y0215233D02*
X0143391Y0217435D01*
X0144125Y0218169D01*
X0147061Y0218169D01*
X0147795Y0217435D01*
X0147795Y0215233D01*
X0143391Y0215233D01*
X0144859Y0219837D02*
X0143391Y0221305D01*
X0147795Y0221305D01*
X0147795Y0219837D02*
X0147795Y0222773D01*
X0137295Y0235233D02*
X0132891Y0235233D01*
X0132891Y0237435D01*
X0133625Y0238169D01*
X0135093Y0238169D01*
X0135827Y0237435D01*
X0135827Y0235233D01*
X0135827Y0236701D02*
X0137295Y0238169D01*
X0137295Y0239837D02*
X0137295Y0242773D01*
X0137295Y0241305D02*
X0132891Y0241305D01*
X0134359Y0239837D01*
X0172595Y0230667D02*
X0173329Y0229933D01*
X0174063Y0229933D01*
X0174797Y0230667D01*
X0174797Y0234337D01*
X0174063Y0234337D02*
X0175531Y0234337D01*
X0177199Y0234337D02*
X0177199Y0232135D01*
X0178667Y0232869D01*
X0179401Y0232869D01*
X0180135Y0232135D01*
X0180135Y0230667D01*
X0179401Y0229933D01*
X0177933Y0229933D01*
X0177199Y0230667D01*
X0177199Y0234337D02*
X0180135Y0234337D01*
X0225895Y0210903D02*
X0225895Y0210169D01*
X0226629Y0209435D01*
X0228097Y0209435D01*
X0228831Y0208701D01*
X0228831Y0207967D01*
X0228097Y0207233D01*
X0226629Y0207233D01*
X0225895Y0207967D01*
X0225895Y0210903D02*
X0226629Y0211637D01*
X0228097Y0211637D01*
X0228831Y0210903D01*
X0230499Y0210903D02*
X0231233Y0211637D01*
X0232701Y0211637D01*
X0233435Y0210903D01*
X0233435Y0210169D01*
X0230499Y0207233D01*
X0233435Y0207233D01*
X0265454Y0187208D02*
X0266188Y0187942D01*
X0266922Y0187942D01*
X0267656Y0187208D01*
X0268390Y0187942D01*
X0269124Y0187942D01*
X0269858Y0187208D01*
X0269858Y0185740D01*
X0269124Y0185006D01*
X0269124Y0183338D02*
X0266188Y0183338D01*
X0265454Y0182604D01*
X0265454Y0180402D01*
X0269858Y0180402D01*
X0269858Y0182604D01*
X0269124Y0183338D01*
X0266188Y0185006D02*
X0265454Y0185740D01*
X0265454Y0187208D01*
X0267656Y0187208D02*
X0267656Y0186474D01*
X0267859Y0175877D02*
X0267125Y0175877D01*
X0266391Y0175143D01*
X0266391Y0173675D01*
X0267125Y0172941D01*
X0267125Y0171273D02*
X0266391Y0170539D01*
X0266391Y0169071D01*
X0267125Y0168337D01*
X0267125Y0166669D02*
X0266391Y0165935D01*
X0266391Y0164467D01*
X0267125Y0163733D01*
X0270061Y0163733D01*
X0270795Y0164467D01*
X0270795Y0165935D01*
X0270061Y0166669D01*
X0270795Y0168337D02*
X0267859Y0171273D01*
X0267125Y0171273D01*
X0270795Y0171273D02*
X0270795Y0168337D01*
X0270795Y0172941D02*
X0267859Y0175877D01*
X0270795Y0175877D02*
X0270795Y0172941D01*
X0262039Y0174169D02*
X0262039Y0174903D01*
X0261305Y0175637D01*
X0259837Y0175637D01*
X0259103Y0174903D01*
X0262039Y0174169D02*
X0259103Y0171233D01*
X0262039Y0171233D01*
X0257435Y0171233D02*
X0254499Y0171233D01*
X0255967Y0171233D02*
X0255967Y0175637D01*
X0254499Y0174169D01*
X0252831Y0174903D02*
X0252097Y0175637D01*
X0250629Y0175637D01*
X0249895Y0174903D01*
X0249895Y0171967D01*
X0250629Y0171233D01*
X0252097Y0171233D01*
X0252831Y0171967D01*
X0267033Y0160665D02*
X0267033Y0159197D01*
X0267767Y0158463D01*
X0267033Y0156795D02*
X0270703Y0156795D01*
X0271437Y0156061D01*
X0271437Y0154593D01*
X0270703Y0153859D01*
X0267033Y0153859D01*
X0266571Y0149637D02*
X0265103Y0148169D01*
X0266571Y0149637D02*
X0266571Y0145233D01*
X0265103Y0145233D02*
X0268039Y0145233D01*
X0263435Y0145233D02*
X0260499Y0145233D01*
X0261967Y0145233D02*
X0261967Y0149637D01*
X0260499Y0148169D01*
X0258831Y0148903D02*
X0258097Y0149637D01*
X0256629Y0149637D01*
X0255895Y0148903D01*
X0255895Y0145967D01*
X0256629Y0145233D01*
X0258097Y0145233D01*
X0258831Y0145967D01*
X0259201Y0132637D02*
X0257733Y0132637D01*
X0256999Y0131903D01*
X0256999Y0131169D01*
X0257733Y0130435D01*
X0259935Y0130435D01*
X0259935Y0128967D02*
X0259935Y0131903D01*
X0259201Y0132637D01*
X0259935Y0128967D02*
X0259201Y0128233D01*
X0257733Y0128233D01*
X0256999Y0128967D01*
X0255331Y0128233D02*
X0253863Y0129701D01*
X0254597Y0129701D02*
X0252395Y0129701D01*
X0252395Y0128233D02*
X0252395Y0132637D01*
X0254597Y0132637D01*
X0255331Y0131903D01*
X0255331Y0130435D01*
X0254597Y0129701D01*
X0249435Y0130467D02*
X0249435Y0131201D01*
X0248701Y0131935D01*
X0246499Y0131935D01*
X0246499Y0130467D01*
X0247233Y0129733D01*
X0248701Y0129733D01*
X0249435Y0130467D01*
X0247967Y0133403D02*
X0246499Y0131935D01*
X0244831Y0131935D02*
X0244097Y0131201D01*
X0241895Y0131201D01*
X0241895Y0129733D02*
X0241895Y0134137D01*
X0244097Y0134137D01*
X0244831Y0133403D01*
X0244831Y0131935D01*
X0243363Y0131201D02*
X0244831Y0129733D01*
X0247967Y0133403D02*
X0249435Y0134137D01*
X0245061Y0119877D02*
X0245795Y0119143D01*
X0245795Y0117675D01*
X0245061Y0116941D01*
X0242125Y0119877D01*
X0245061Y0119877D01*
X0242125Y0119877D02*
X0241391Y0119143D01*
X0241391Y0117675D01*
X0242125Y0116941D01*
X0245061Y0116941D01*
X0245795Y0115273D02*
X0245795Y0112337D01*
X0245795Y0113805D02*
X0241391Y0113805D01*
X0242859Y0112337D01*
X0242125Y0110669D02*
X0243593Y0110669D01*
X0244327Y0109935D01*
X0244327Y0107733D01*
X0244327Y0109201D02*
X0245795Y0110669D01*
X0245795Y0107733D02*
X0241391Y0107733D01*
X0241391Y0109935D01*
X0242125Y0110669D01*
X0239435Y0113467D02*
X0238701Y0112733D01*
X0237233Y0112733D01*
X0236499Y0113467D01*
X0236499Y0114935D02*
X0237967Y0115669D01*
X0238701Y0115669D01*
X0239435Y0114935D01*
X0239435Y0113467D01*
X0236499Y0114935D02*
X0236499Y0117137D01*
X0239435Y0117137D01*
X0234831Y0116403D02*
X0234831Y0114935D01*
X0234097Y0114201D01*
X0231895Y0114201D01*
X0231895Y0112733D02*
X0231895Y0117137D01*
X0234097Y0117137D01*
X0234831Y0116403D01*
X0233363Y0114201D02*
X0234831Y0112733D01*
X0226435Y0113467D02*
X0225701Y0112733D01*
X0224233Y0112733D01*
X0223499Y0113467D01*
X0221831Y0112733D02*
X0220363Y0114201D01*
X0221097Y0114201D02*
X0218895Y0114201D01*
X0218895Y0112733D02*
X0218895Y0117137D01*
X0221097Y0117137D01*
X0221831Y0116403D01*
X0221831Y0114935D01*
X0221097Y0114201D01*
X0223499Y0116403D02*
X0224233Y0117137D01*
X0225701Y0117137D01*
X0226435Y0116403D01*
X0226435Y0115669D01*
X0225701Y0114935D01*
X0226435Y0114201D01*
X0226435Y0113467D01*
X0225701Y0114935D02*
X0224967Y0114935D01*
X0241895Y0099137D02*
X0244097Y0099137D01*
X0244831Y0098403D01*
X0244831Y0096935D01*
X0244097Y0096201D01*
X0241895Y0096201D01*
X0241895Y0094733D02*
X0241895Y0099137D01*
X0243363Y0096201D02*
X0244831Y0094733D01*
X0246499Y0094733D02*
X0249435Y0094733D01*
X0247967Y0094733D02*
X0247967Y0099137D01*
X0246499Y0097669D01*
X0251103Y0097669D02*
X0252571Y0099137D01*
X0252571Y0094733D01*
X0251103Y0094733D02*
X0254039Y0094733D01*
X0269954Y0094462D02*
X0269954Y0091526D01*
X0269954Y0089858D02*
X0269954Y0088390D01*
X0269954Y0089124D02*
X0273624Y0089124D01*
X0274358Y0088390D01*
X0274358Y0087656D01*
X0273624Y0086922D01*
X0273624Y0091526D02*
X0274358Y0091526D01*
X0273624Y0091526D02*
X0270688Y0094462D01*
X0269954Y0094462D01*
X0284125Y0126733D02*
X0287061Y0126733D01*
X0287795Y0127467D01*
X0287795Y0128935D01*
X0287061Y0129669D01*
X0287795Y0131337D02*
X0287795Y0134273D01*
X0287795Y0132805D02*
X0283391Y0132805D01*
X0284859Y0131337D01*
X0284125Y0129669D02*
X0283391Y0128935D01*
X0283391Y0127467D01*
X0284125Y0126733D01*
X0293391Y0131967D02*
X0294125Y0131233D01*
X0297061Y0131233D01*
X0297795Y0131967D01*
X0297795Y0133435D01*
X0297061Y0134169D01*
X0297061Y0135837D02*
X0297795Y0136571D01*
X0297795Y0138039D01*
X0297061Y0138773D01*
X0295593Y0138773D01*
X0294859Y0138039D01*
X0294859Y0137305D01*
X0295593Y0135837D01*
X0293391Y0135837D01*
X0293391Y0138773D01*
X0294125Y0134169D02*
X0293391Y0133435D01*
X0293391Y0131967D01*
X0287795Y0136675D02*
X0287061Y0135941D01*
X0287795Y0136675D02*
X0287795Y0138143D01*
X0287061Y0138877D01*
X0285593Y0138877D01*
X0284859Y0138143D01*
X0284859Y0137409D01*
X0285593Y0135941D01*
X0283391Y0135941D01*
X0283391Y0138877D01*
X0271437Y0158463D02*
X0268501Y0161399D01*
X0267767Y0161399D01*
X0267033Y0160665D01*
X0271437Y0161399D02*
X0271437Y0158463D01*
X0280954Y0180402D02*
X0280954Y0182604D01*
X0281688Y0183338D01*
X0284624Y0183338D01*
X0285358Y0182604D01*
X0285358Y0180402D01*
X0280954Y0180402D01*
X0281688Y0185006D02*
X0280954Y0185740D01*
X0280954Y0187208D01*
X0281688Y0187942D01*
X0282422Y0187942D01*
X0285358Y0185006D01*
X0285358Y0187942D01*
X0295625Y0211733D02*
X0298561Y0211733D01*
X0299295Y0212467D01*
X0299295Y0213935D01*
X0298561Y0214669D01*
X0297093Y0216337D02*
X0297093Y0219273D01*
X0294891Y0218539D02*
X0297093Y0216337D01*
X0295625Y0214669D02*
X0294891Y0213935D01*
X0294891Y0212467D01*
X0295625Y0211733D01*
X0294891Y0218539D02*
X0299295Y0218539D01*
X0291435Y0220967D02*
X0290701Y0220233D01*
X0289233Y0220233D01*
X0288499Y0220967D01*
X0286831Y0220967D02*
X0286097Y0220233D01*
X0284629Y0220233D01*
X0283895Y0220967D01*
X0283895Y0223903D01*
X0284629Y0224637D01*
X0286097Y0224637D01*
X0286831Y0223903D01*
X0288499Y0223903D02*
X0289233Y0224637D01*
X0290701Y0224637D01*
X0291435Y0223903D01*
X0291435Y0223169D01*
X0290701Y0222435D01*
X0291435Y0221701D01*
X0291435Y0220967D01*
X0290701Y0222435D02*
X0289967Y0222435D01*
X0276095Y0223271D02*
X0276095Y0224739D01*
X0275361Y0225473D01*
X0274627Y0225473D01*
X0273893Y0224739D01*
X0273893Y0222537D01*
X0275361Y0222537D01*
X0276095Y0223271D01*
X0273893Y0222537D02*
X0272425Y0224005D01*
X0271691Y0225473D01*
X0271691Y0220869D02*
X0271691Y0219401D01*
X0271691Y0220135D02*
X0275361Y0220135D01*
X0276095Y0219401D01*
X0276095Y0218667D01*
X0275361Y0217933D01*
X0284895Y0243233D02*
X0284895Y0247637D01*
X0287097Y0247637D01*
X0287831Y0246903D01*
X0287831Y0245435D01*
X0287097Y0244701D01*
X0284895Y0244701D01*
X0286363Y0244701D02*
X0287831Y0243233D01*
X0289499Y0243233D02*
X0289499Y0243967D01*
X0292435Y0246903D01*
X0292435Y0247637D01*
X0289499Y0247637D01*
X0174899Y0301739D02*
X0174166Y0301005D01*
X0172698Y0301005D01*
X0171964Y0301739D01*
X0170296Y0301739D02*
X0169562Y0301005D01*
X0168094Y0301005D01*
X0167360Y0301739D01*
X0167360Y0305408D01*
X0170296Y0305408D02*
X0170296Y0301739D01*
X0171964Y0304675D02*
X0172698Y0305408D01*
X0174166Y0305408D01*
X0174899Y0304675D01*
X0174899Y0303941D01*
X0174166Y0303207D01*
X0174899Y0302473D01*
X0174899Y0301739D01*
X0174166Y0303207D02*
X0173432Y0303207D01*
X0218395Y0137637D02*
X0220597Y0137637D01*
X0221331Y0136903D01*
X0221331Y0135435D01*
X0220597Y0134701D01*
X0218395Y0134701D01*
X0218395Y0133233D02*
X0218395Y0137637D01*
X0219863Y0134701D02*
X0221331Y0133233D01*
X0222999Y0135435D02*
X0225935Y0135435D01*
X0225201Y0133233D02*
X0225201Y0137637D01*
X0222999Y0135435D01*
D12*
X0239095Y0196933D02*
X0256095Y0196933D01*
X0259595Y0204933D02*
X0259595Y0212862D01*
X0256095Y0220933D02*
X0239095Y0220933D01*
X0240095Y0223933D02*
X0235095Y0223933D01*
X0232595Y0226433D01*
X0230095Y0223933D01*
X0225095Y0223933D01*
X0222595Y0226433D01*
X0220095Y0223933D01*
X0215095Y0223933D01*
X0212595Y0226433D01*
X0210095Y0223933D01*
X0205095Y0223933D01*
X0202595Y0226433D01*
X0200095Y0223933D01*
X0195095Y0223933D01*
X0192595Y0226433D01*
X0190095Y0223933D01*
X0185095Y0223933D01*
X0182595Y0226433D01*
X0182595Y0231433D01*
X0185095Y0233933D01*
X0190095Y0233933D01*
X0192595Y0231433D01*
X0195095Y0233933D01*
X0200095Y0233933D01*
X0202595Y0231433D01*
X0205095Y0233933D01*
X0210095Y0233933D01*
X0212595Y0231433D01*
X0215095Y0233933D01*
X0220095Y0233933D01*
X0222595Y0231433D01*
X0225095Y0233933D01*
X0230095Y0233933D01*
X0232595Y0231433D01*
X0235095Y0233933D01*
X0240095Y0233933D01*
X0242595Y0231433D01*
X0245095Y0233933D01*
X0250095Y0233933D01*
X0252595Y0231433D01*
X0252595Y0226433D01*
X0250095Y0223933D01*
X0245095Y0223933D01*
X0242595Y0226433D01*
X0240095Y0223933D01*
X0235595Y0212980D02*
X0235595Y0204933D01*
X0240595Y0208933D02*
X0240597Y0209105D01*
X0240603Y0209276D01*
X0240614Y0209448D01*
X0240629Y0209619D01*
X0240648Y0209790D01*
X0240671Y0209960D01*
X0240698Y0210130D01*
X0240730Y0210299D01*
X0240765Y0210467D01*
X0240805Y0210634D01*
X0240849Y0210800D01*
X0240896Y0210965D01*
X0240948Y0211129D01*
X0241004Y0211291D01*
X0241064Y0211452D01*
X0241128Y0211612D01*
X0241196Y0211770D01*
X0241267Y0211926D01*
X0241342Y0212080D01*
X0241422Y0212233D01*
X0241504Y0212383D01*
X0241591Y0212532D01*
X0241681Y0212678D01*
X0241775Y0212822D01*
X0241872Y0212964D01*
X0241973Y0213103D01*
X0242077Y0213240D01*
X0242184Y0213374D01*
X0242295Y0213505D01*
X0242408Y0213634D01*
X0242525Y0213760D01*
X0242645Y0213883D01*
X0242768Y0214003D01*
X0242894Y0214120D01*
X0243023Y0214233D01*
X0243154Y0214344D01*
X0243288Y0214451D01*
X0243425Y0214555D01*
X0243564Y0214656D01*
X0243706Y0214753D01*
X0243850Y0214847D01*
X0243996Y0214937D01*
X0244145Y0215024D01*
X0244295Y0215106D01*
X0244448Y0215186D01*
X0244602Y0215261D01*
X0244758Y0215332D01*
X0244916Y0215400D01*
X0245076Y0215464D01*
X0245237Y0215524D01*
X0245399Y0215580D01*
X0245563Y0215632D01*
X0245728Y0215679D01*
X0245894Y0215723D01*
X0246061Y0215763D01*
X0246229Y0215798D01*
X0246398Y0215830D01*
X0246568Y0215857D01*
X0246738Y0215880D01*
X0246909Y0215899D01*
X0247080Y0215914D01*
X0247252Y0215925D01*
X0247423Y0215931D01*
X0247595Y0215933D01*
X0247767Y0215931D01*
X0247938Y0215925D01*
X0248110Y0215914D01*
X0248281Y0215899D01*
X0248452Y0215880D01*
X0248622Y0215857D01*
X0248792Y0215830D01*
X0248961Y0215798D01*
X0249129Y0215763D01*
X0249296Y0215723D01*
X0249462Y0215679D01*
X0249627Y0215632D01*
X0249791Y0215580D01*
X0249953Y0215524D01*
X0250114Y0215464D01*
X0250274Y0215400D01*
X0250432Y0215332D01*
X0250588Y0215261D01*
X0250742Y0215186D01*
X0250895Y0215106D01*
X0251045Y0215024D01*
X0251194Y0214937D01*
X0251340Y0214847D01*
X0251484Y0214753D01*
X0251626Y0214656D01*
X0251765Y0214555D01*
X0251902Y0214451D01*
X0252036Y0214344D01*
X0252167Y0214233D01*
X0252296Y0214120D01*
X0252422Y0214003D01*
X0252545Y0213883D01*
X0252665Y0213760D01*
X0252782Y0213634D01*
X0252895Y0213505D01*
X0253006Y0213374D01*
X0253113Y0213240D01*
X0253217Y0213103D01*
X0253318Y0212964D01*
X0253415Y0212822D01*
X0253509Y0212678D01*
X0253599Y0212532D01*
X0253686Y0212383D01*
X0253768Y0212233D01*
X0253848Y0212080D01*
X0253923Y0211926D01*
X0253994Y0211770D01*
X0254062Y0211612D01*
X0254126Y0211452D01*
X0254186Y0211291D01*
X0254242Y0211129D01*
X0254294Y0210965D01*
X0254341Y0210800D01*
X0254385Y0210634D01*
X0254425Y0210467D01*
X0254460Y0210299D01*
X0254492Y0210130D01*
X0254519Y0209960D01*
X0254542Y0209790D01*
X0254561Y0209619D01*
X0254576Y0209448D01*
X0254587Y0209276D01*
X0254593Y0209105D01*
X0254595Y0208933D01*
X0254593Y0208761D01*
X0254587Y0208590D01*
X0254576Y0208418D01*
X0254561Y0208247D01*
X0254542Y0208076D01*
X0254519Y0207906D01*
X0254492Y0207736D01*
X0254460Y0207567D01*
X0254425Y0207399D01*
X0254385Y0207232D01*
X0254341Y0207066D01*
X0254294Y0206901D01*
X0254242Y0206737D01*
X0254186Y0206575D01*
X0254126Y0206414D01*
X0254062Y0206254D01*
X0253994Y0206096D01*
X0253923Y0205940D01*
X0253848Y0205786D01*
X0253768Y0205633D01*
X0253686Y0205483D01*
X0253599Y0205334D01*
X0253509Y0205188D01*
X0253415Y0205044D01*
X0253318Y0204902D01*
X0253217Y0204763D01*
X0253113Y0204626D01*
X0253006Y0204492D01*
X0252895Y0204361D01*
X0252782Y0204232D01*
X0252665Y0204106D01*
X0252545Y0203983D01*
X0252422Y0203863D01*
X0252296Y0203746D01*
X0252167Y0203633D01*
X0252036Y0203522D01*
X0251902Y0203415D01*
X0251765Y0203311D01*
X0251626Y0203210D01*
X0251484Y0203113D01*
X0251340Y0203019D01*
X0251194Y0202929D01*
X0251045Y0202842D01*
X0250895Y0202760D01*
X0250742Y0202680D01*
X0250588Y0202605D01*
X0250432Y0202534D01*
X0250274Y0202466D01*
X0250114Y0202402D01*
X0249953Y0202342D01*
X0249791Y0202286D01*
X0249627Y0202234D01*
X0249462Y0202187D01*
X0249296Y0202143D01*
X0249129Y0202103D01*
X0248961Y0202068D01*
X0248792Y0202036D01*
X0248622Y0202009D01*
X0248452Y0201986D01*
X0248281Y0201967D01*
X0248110Y0201952D01*
X0247938Y0201941D01*
X0247767Y0201935D01*
X0247595Y0201933D01*
X0247423Y0201935D01*
X0247252Y0201941D01*
X0247080Y0201952D01*
X0246909Y0201967D01*
X0246738Y0201986D01*
X0246568Y0202009D01*
X0246398Y0202036D01*
X0246229Y0202068D01*
X0246061Y0202103D01*
X0245894Y0202143D01*
X0245728Y0202187D01*
X0245563Y0202234D01*
X0245399Y0202286D01*
X0245237Y0202342D01*
X0245076Y0202402D01*
X0244916Y0202466D01*
X0244758Y0202534D01*
X0244602Y0202605D01*
X0244448Y0202680D01*
X0244295Y0202760D01*
X0244145Y0202842D01*
X0243996Y0202929D01*
X0243850Y0203019D01*
X0243706Y0203113D01*
X0243564Y0203210D01*
X0243425Y0203311D01*
X0243288Y0203415D01*
X0243154Y0203522D01*
X0243023Y0203633D01*
X0242894Y0203746D01*
X0242768Y0203863D01*
X0242645Y0203983D01*
X0242525Y0204106D01*
X0242408Y0204232D01*
X0242295Y0204361D01*
X0242184Y0204492D01*
X0242077Y0204626D01*
X0241973Y0204763D01*
X0241872Y0204902D01*
X0241775Y0205044D01*
X0241681Y0205188D01*
X0241591Y0205334D01*
X0241504Y0205483D01*
X0241422Y0205633D01*
X0241342Y0205786D01*
X0241267Y0205940D01*
X0241196Y0206096D01*
X0241128Y0206254D01*
X0241064Y0206414D01*
X0241004Y0206575D01*
X0240948Y0206737D01*
X0240896Y0206901D01*
X0240849Y0207066D01*
X0240805Y0207232D01*
X0240765Y0207399D01*
X0240730Y0207567D01*
X0240698Y0207736D01*
X0240671Y0207906D01*
X0240648Y0208076D01*
X0240629Y0208247D01*
X0240614Y0208418D01*
X0240603Y0208590D01*
X0240597Y0208761D01*
X0240595Y0208933D01*
X0270166Y0222898D02*
X0270154Y0298724D01*
X0165036Y0298724D01*
X0165036Y0222898D01*
X0270166Y0222898D01*
X0277595Y0216433D02*
X0280095Y0218933D01*
X0285095Y0218933D01*
X0287595Y0216433D01*
X0287595Y0211433D01*
X0285095Y0208933D01*
X0287595Y0206433D01*
X0287595Y0201433D01*
X0285095Y0198933D01*
X0280095Y0198933D01*
X0277595Y0201433D01*
X0277595Y0206433D01*
X0280095Y0208933D01*
X0277595Y0211433D01*
X0277595Y0216433D01*
X0199595Y0212933D02*
X0199595Y0204886D01*
X0196095Y0196933D02*
X0179095Y0196933D01*
X0175595Y0205004D02*
X0175595Y0212933D01*
X0179095Y0220933D02*
X0196095Y0220933D01*
X0180595Y0208933D02*
X0180597Y0209105D01*
X0180603Y0209276D01*
X0180614Y0209448D01*
X0180629Y0209619D01*
X0180648Y0209790D01*
X0180671Y0209960D01*
X0180698Y0210130D01*
X0180730Y0210299D01*
X0180765Y0210467D01*
X0180805Y0210634D01*
X0180849Y0210800D01*
X0180896Y0210965D01*
X0180948Y0211129D01*
X0181004Y0211291D01*
X0181064Y0211452D01*
X0181128Y0211612D01*
X0181196Y0211770D01*
X0181267Y0211926D01*
X0181342Y0212080D01*
X0181422Y0212233D01*
X0181504Y0212383D01*
X0181591Y0212532D01*
X0181681Y0212678D01*
X0181775Y0212822D01*
X0181872Y0212964D01*
X0181973Y0213103D01*
X0182077Y0213240D01*
X0182184Y0213374D01*
X0182295Y0213505D01*
X0182408Y0213634D01*
X0182525Y0213760D01*
X0182645Y0213883D01*
X0182768Y0214003D01*
X0182894Y0214120D01*
X0183023Y0214233D01*
X0183154Y0214344D01*
X0183288Y0214451D01*
X0183425Y0214555D01*
X0183564Y0214656D01*
X0183706Y0214753D01*
X0183850Y0214847D01*
X0183996Y0214937D01*
X0184145Y0215024D01*
X0184295Y0215106D01*
X0184448Y0215186D01*
X0184602Y0215261D01*
X0184758Y0215332D01*
X0184916Y0215400D01*
X0185076Y0215464D01*
X0185237Y0215524D01*
X0185399Y0215580D01*
X0185563Y0215632D01*
X0185728Y0215679D01*
X0185894Y0215723D01*
X0186061Y0215763D01*
X0186229Y0215798D01*
X0186398Y0215830D01*
X0186568Y0215857D01*
X0186738Y0215880D01*
X0186909Y0215899D01*
X0187080Y0215914D01*
X0187252Y0215925D01*
X0187423Y0215931D01*
X0187595Y0215933D01*
X0187767Y0215931D01*
X0187938Y0215925D01*
X0188110Y0215914D01*
X0188281Y0215899D01*
X0188452Y0215880D01*
X0188622Y0215857D01*
X0188792Y0215830D01*
X0188961Y0215798D01*
X0189129Y0215763D01*
X0189296Y0215723D01*
X0189462Y0215679D01*
X0189627Y0215632D01*
X0189791Y0215580D01*
X0189953Y0215524D01*
X0190114Y0215464D01*
X0190274Y0215400D01*
X0190432Y0215332D01*
X0190588Y0215261D01*
X0190742Y0215186D01*
X0190895Y0215106D01*
X0191045Y0215024D01*
X0191194Y0214937D01*
X0191340Y0214847D01*
X0191484Y0214753D01*
X0191626Y0214656D01*
X0191765Y0214555D01*
X0191902Y0214451D01*
X0192036Y0214344D01*
X0192167Y0214233D01*
X0192296Y0214120D01*
X0192422Y0214003D01*
X0192545Y0213883D01*
X0192665Y0213760D01*
X0192782Y0213634D01*
X0192895Y0213505D01*
X0193006Y0213374D01*
X0193113Y0213240D01*
X0193217Y0213103D01*
X0193318Y0212964D01*
X0193415Y0212822D01*
X0193509Y0212678D01*
X0193599Y0212532D01*
X0193686Y0212383D01*
X0193768Y0212233D01*
X0193848Y0212080D01*
X0193923Y0211926D01*
X0193994Y0211770D01*
X0194062Y0211612D01*
X0194126Y0211452D01*
X0194186Y0211291D01*
X0194242Y0211129D01*
X0194294Y0210965D01*
X0194341Y0210800D01*
X0194385Y0210634D01*
X0194425Y0210467D01*
X0194460Y0210299D01*
X0194492Y0210130D01*
X0194519Y0209960D01*
X0194542Y0209790D01*
X0194561Y0209619D01*
X0194576Y0209448D01*
X0194587Y0209276D01*
X0194593Y0209105D01*
X0194595Y0208933D01*
X0194593Y0208761D01*
X0194587Y0208590D01*
X0194576Y0208418D01*
X0194561Y0208247D01*
X0194542Y0208076D01*
X0194519Y0207906D01*
X0194492Y0207736D01*
X0194460Y0207567D01*
X0194425Y0207399D01*
X0194385Y0207232D01*
X0194341Y0207066D01*
X0194294Y0206901D01*
X0194242Y0206737D01*
X0194186Y0206575D01*
X0194126Y0206414D01*
X0194062Y0206254D01*
X0193994Y0206096D01*
X0193923Y0205940D01*
X0193848Y0205786D01*
X0193768Y0205633D01*
X0193686Y0205483D01*
X0193599Y0205334D01*
X0193509Y0205188D01*
X0193415Y0205044D01*
X0193318Y0204902D01*
X0193217Y0204763D01*
X0193113Y0204626D01*
X0193006Y0204492D01*
X0192895Y0204361D01*
X0192782Y0204232D01*
X0192665Y0204106D01*
X0192545Y0203983D01*
X0192422Y0203863D01*
X0192296Y0203746D01*
X0192167Y0203633D01*
X0192036Y0203522D01*
X0191902Y0203415D01*
X0191765Y0203311D01*
X0191626Y0203210D01*
X0191484Y0203113D01*
X0191340Y0203019D01*
X0191194Y0202929D01*
X0191045Y0202842D01*
X0190895Y0202760D01*
X0190742Y0202680D01*
X0190588Y0202605D01*
X0190432Y0202534D01*
X0190274Y0202466D01*
X0190114Y0202402D01*
X0189953Y0202342D01*
X0189791Y0202286D01*
X0189627Y0202234D01*
X0189462Y0202187D01*
X0189296Y0202143D01*
X0189129Y0202103D01*
X0188961Y0202068D01*
X0188792Y0202036D01*
X0188622Y0202009D01*
X0188452Y0201986D01*
X0188281Y0201967D01*
X0188110Y0201952D01*
X0187938Y0201941D01*
X0187767Y0201935D01*
X0187595Y0201933D01*
X0187423Y0201935D01*
X0187252Y0201941D01*
X0187080Y0201952D01*
X0186909Y0201967D01*
X0186738Y0201986D01*
X0186568Y0202009D01*
X0186398Y0202036D01*
X0186229Y0202068D01*
X0186061Y0202103D01*
X0185894Y0202143D01*
X0185728Y0202187D01*
X0185563Y0202234D01*
X0185399Y0202286D01*
X0185237Y0202342D01*
X0185076Y0202402D01*
X0184916Y0202466D01*
X0184758Y0202534D01*
X0184602Y0202605D01*
X0184448Y0202680D01*
X0184295Y0202760D01*
X0184145Y0202842D01*
X0183996Y0202929D01*
X0183850Y0203019D01*
X0183706Y0203113D01*
X0183564Y0203210D01*
X0183425Y0203311D01*
X0183288Y0203415D01*
X0183154Y0203522D01*
X0183023Y0203633D01*
X0182894Y0203746D01*
X0182768Y0203863D01*
X0182645Y0203983D01*
X0182525Y0204106D01*
X0182408Y0204232D01*
X0182295Y0204361D01*
X0182184Y0204492D01*
X0182077Y0204626D01*
X0181973Y0204763D01*
X0181872Y0204902D01*
X0181775Y0205044D01*
X0181681Y0205188D01*
X0181591Y0205334D01*
X0181504Y0205483D01*
X0181422Y0205633D01*
X0181342Y0205786D01*
X0181267Y0205940D01*
X0181196Y0206096D01*
X0181128Y0206254D01*
X0181064Y0206414D01*
X0181004Y0206575D01*
X0180948Y0206737D01*
X0180896Y0206901D01*
X0180849Y0207066D01*
X0180805Y0207232D01*
X0180765Y0207399D01*
X0180730Y0207567D01*
X0180698Y0207736D01*
X0180671Y0207906D01*
X0180648Y0208076D01*
X0180629Y0208247D01*
X0180614Y0208418D01*
X0180603Y0208590D01*
X0180597Y0208761D01*
X0180595Y0208933D01*
X0296845Y0092933D02*
X0303345Y0092933D01*
X0303405Y0092931D01*
X0303466Y0092926D01*
X0303525Y0092917D01*
X0303584Y0092904D01*
X0303643Y0092888D01*
X0303700Y0092868D01*
X0303755Y0092845D01*
X0303810Y0092818D01*
X0303862Y0092789D01*
X0303913Y0092756D01*
X0303962Y0092720D01*
X0304008Y0092682D01*
X0304052Y0092640D01*
X0304094Y0092596D01*
X0304132Y0092550D01*
X0304168Y0092501D01*
X0304201Y0092450D01*
X0304230Y0092398D01*
X0304257Y0092343D01*
X0304280Y0092288D01*
X0304300Y0092231D01*
X0304316Y0092172D01*
X0304329Y0092113D01*
X0304338Y0092054D01*
X0304343Y0091993D01*
X0304345Y0091933D01*
X0304345Y0085933D02*
X0304343Y0085873D01*
X0304338Y0085812D01*
X0304329Y0085753D01*
X0304316Y0085694D01*
X0304300Y0085635D01*
X0304280Y0085578D01*
X0304257Y0085523D01*
X0304230Y0085468D01*
X0304201Y0085416D01*
X0304168Y0085365D01*
X0304132Y0085316D01*
X0304094Y0085270D01*
X0304052Y0085226D01*
X0304008Y0085184D01*
X0303962Y0085146D01*
X0303913Y0085110D01*
X0303862Y0085077D01*
X0303810Y0085048D01*
X0303755Y0085021D01*
X0303700Y0084998D01*
X0303643Y0084978D01*
X0303584Y0084962D01*
X0303525Y0084949D01*
X0303466Y0084940D01*
X0303405Y0084935D01*
X0303345Y0084933D01*
X0296845Y0084933D01*
X0296785Y0084935D01*
X0296724Y0084940D01*
X0296665Y0084949D01*
X0296606Y0084962D01*
X0296547Y0084978D01*
X0296490Y0084998D01*
X0296435Y0085021D01*
X0296380Y0085048D01*
X0296328Y0085077D01*
X0296277Y0085110D01*
X0296228Y0085146D01*
X0296182Y0085184D01*
X0296138Y0085226D01*
X0296096Y0085270D01*
X0296058Y0085316D01*
X0296022Y0085365D01*
X0295989Y0085416D01*
X0295960Y0085468D01*
X0295933Y0085523D01*
X0295910Y0085578D01*
X0295890Y0085635D01*
X0295874Y0085694D01*
X0295861Y0085753D01*
X0295852Y0085812D01*
X0295847Y0085873D01*
X0295845Y0085933D01*
X0295845Y0091933D02*
X0295847Y0091993D01*
X0295852Y0092054D01*
X0295861Y0092113D01*
X0295874Y0092172D01*
X0295890Y0092231D01*
X0295910Y0092288D01*
X0295933Y0092343D01*
X0295960Y0092398D01*
X0295989Y0092450D01*
X0296022Y0092501D01*
X0296058Y0092550D01*
X0296096Y0092596D01*
X0296138Y0092640D01*
X0296182Y0092682D01*
X0296228Y0092720D01*
X0296277Y0092756D01*
X0296328Y0092789D01*
X0296380Y0092818D01*
X0296435Y0092845D01*
X0296490Y0092868D01*
X0296547Y0092888D01*
X0296606Y0092904D01*
X0296665Y0092917D01*
X0296724Y0092926D01*
X0296785Y0092931D01*
X0296845Y0092933D01*
D13*
X0282595Y0203933D03*
X0282595Y0213933D03*
D14*
X0231910Y0267683D03*
X0226910Y0267683D03*
X0227530Y0272058D03*
X0219410Y0271433D03*
X0218780Y0268933D03*
X0213780Y0265808D03*
X0196910Y0262683D03*
X0196910Y0278308D03*
X0187530Y0282058D03*
X0187530Y0297683D03*
X0227530Y0290808D03*
X0228160Y0291433D03*
X0228780Y0292058D03*
X0229410Y0292683D03*
X0227530Y0288308D03*
X0228160Y0287683D03*
X0228470Y0287058D03*
X0229410Y0285808D03*
X0229720Y0285183D03*
X0242530Y0271433D03*
X0249720Y0291433D03*
D15*
X0246435Y0272996D03*
X0221125Y0266121D03*
X0202375Y0269871D03*
X0197065Y0262996D03*
X0191755Y0269871D03*
X0191755Y0271121D03*
X0192065Y0272996D03*
X0197065Y0277996D03*
X0187685Y0282371D03*
X0182375Y0289246D03*
X0182375Y0290496D03*
X0182685Y0292371D03*
X0187685Y0297371D03*
X0193005Y0289246D03*
X0217065Y0292996D03*
D16*
X0217375Y0288933D03*
X0217375Y0285183D03*
X0197065Y0277683D03*
X0197065Y0263308D03*
X0252065Y0283308D03*
D17*
X0252220Y0286746D03*
X0252220Y0291746D03*
X0196910Y0277371D03*
X0187530Y0282996D03*
X0187530Y0296746D03*
X0196910Y0263621D03*
D18*
X0196905Y0263933D03*
X0196905Y0277058D03*
X0187535Y0283308D03*
X0187535Y0296433D03*
D19*
X0187530Y0296121D03*
X0187530Y0283621D03*
X0196910Y0276746D03*
X0196910Y0264246D03*
D20*
X0197065Y0264558D03*
X0197065Y0276433D03*
D21*
X0197060Y0276121D03*
X0197060Y0264871D03*
X0187690Y0284246D03*
X0187690Y0295496D03*
D22*
X0197065Y0275808D03*
X0197065Y0265183D03*
D23*
X0194095Y0265496D03*
X0207845Y0285496D03*
X0230345Y0272996D03*
X0241595Y0292371D03*
X0251905Y0282996D03*
X0251595Y0282371D03*
D24*
X0200500Y0265496D03*
X0191440Y0285496D03*
X0191750Y0286121D03*
X0183940Y0294246D03*
D25*
X0207845Y0268621D03*
X0214095Y0265496D03*
X0214095Y0274871D03*
X0229095Y0265496D03*
X0232845Y0269871D03*
X0236595Y0266121D03*
X0241595Y0266746D03*
X0237845Y0272996D03*
X0242845Y0274246D03*
X0247845Y0271746D03*
X0247845Y0271121D03*
X0249095Y0287996D03*
X0249095Y0288621D03*
X0249095Y0289871D03*
X0249095Y0290496D03*
D26*
X0248935Y0289246D03*
X0244565Y0289246D03*
X0244565Y0289871D03*
X0244565Y0288621D03*
X0244565Y0287996D03*
X0244565Y0287371D03*
X0244565Y0286746D03*
X0244565Y0286121D03*
X0244565Y0285496D03*
X0244565Y0284871D03*
X0239565Y0284871D03*
X0239565Y0285496D03*
X0239565Y0286121D03*
X0239565Y0286746D03*
X0239565Y0287371D03*
X0239565Y0287996D03*
X0239565Y0288621D03*
X0239565Y0289246D03*
X0239565Y0289871D03*
X0239565Y0290496D03*
X0239565Y0291121D03*
X0244255Y0291121D03*
X0234565Y0291121D03*
X0234565Y0291746D03*
X0234565Y0292371D03*
X0234565Y0292996D03*
X0234565Y0295496D03*
X0234565Y0296121D03*
X0234565Y0296746D03*
X0234565Y0290496D03*
X0234565Y0289871D03*
X0234565Y0289246D03*
X0234565Y0288621D03*
X0234565Y0287996D03*
X0234565Y0287371D03*
X0234565Y0286746D03*
X0234565Y0286121D03*
X0234565Y0285496D03*
X0234565Y0284871D03*
X0228315Y0287371D03*
X0224565Y0287371D03*
X0224565Y0287996D03*
X0224565Y0286746D03*
X0224565Y0286121D03*
X0224565Y0285496D03*
X0224565Y0284871D03*
X0219565Y0286746D03*
X0219565Y0287371D03*
X0219565Y0287996D03*
X0219565Y0289871D03*
X0214875Y0287996D03*
X0214565Y0287371D03*
X0210505Y0291121D03*
X0205185Y0286746D03*
X0198005Y0286746D03*
X0198005Y0287371D03*
X0198005Y0287996D03*
X0198005Y0288621D03*
X0198005Y0289246D03*
X0198005Y0289871D03*
X0198005Y0290496D03*
X0198005Y0291121D03*
X0198005Y0286121D03*
X0198005Y0285496D03*
X0198005Y0284871D03*
X0209255Y0276746D03*
X0208935Y0274246D03*
X0208625Y0272996D03*
X0208625Y0272371D03*
X0208315Y0271121D03*
X0208005Y0269246D03*
X0207685Y0267996D03*
X0207685Y0267371D03*
X0207375Y0266121D03*
X0213005Y0267996D03*
X0213005Y0268621D03*
X0213315Y0270496D03*
X0213625Y0271746D03*
X0218935Y0270496D03*
X0218935Y0269871D03*
X0218935Y0268621D03*
X0219255Y0271121D03*
X0221435Y0265496D03*
X0226755Y0267996D03*
X0226435Y0268621D03*
X0226435Y0269246D03*
X0226755Y0269871D03*
X0226755Y0270496D03*
X0227065Y0271121D03*
X0227375Y0271746D03*
X0233005Y0271121D03*
X0233005Y0270496D03*
X0232685Y0269246D03*
X0232375Y0268621D03*
X0236755Y0267371D03*
X0236755Y0266746D03*
X0237065Y0268621D03*
X0237375Y0270496D03*
X0237685Y0271746D03*
X0237685Y0272371D03*
X0238005Y0273621D03*
X0238625Y0276746D03*
X0238625Y0277371D03*
X0242375Y0270496D03*
X0242065Y0269871D03*
X0242065Y0269246D03*
X0241755Y0267996D03*
X0241755Y0267371D03*
X0241435Y0266121D03*
X0247065Y0266746D03*
X0247375Y0268621D03*
X0247685Y0269871D03*
X0247685Y0270496D03*
X0254255Y0283621D03*
X0254875Y0287371D03*
X0254875Y0287996D03*
X0254875Y0288621D03*
X0254875Y0289246D03*
X0254875Y0289871D03*
X0254875Y0290496D03*
X0254875Y0291121D03*
X0224565Y0291121D03*
X0224565Y0291746D03*
X0224565Y0292371D03*
X0224565Y0292996D03*
X0224565Y0293621D03*
X0224565Y0294246D03*
X0224565Y0294871D03*
X0224565Y0295496D03*
X0224565Y0296121D03*
X0224565Y0296746D03*
D27*
X0200970Y0266433D03*
X0193470Y0265808D03*
D28*
X0191910Y0271433D03*
X0191910Y0272058D03*
X0191910Y0272683D03*
X0200660Y0265808D03*
X0214410Y0273308D03*
X0214410Y0273933D03*
X0220970Y0266433D03*
X0217530Y0284558D03*
X0217220Y0292683D03*
X0191280Y0285183D03*
X0182220Y0289558D03*
X0182220Y0290183D03*
X0182530Y0290808D03*
X0182530Y0291433D03*
X0182530Y0292058D03*
D29*
X0198005Y0291433D03*
X0198005Y0290808D03*
X0198005Y0290183D03*
X0198005Y0289558D03*
X0198005Y0288933D03*
X0198005Y0288308D03*
X0198005Y0287683D03*
X0198005Y0287058D03*
X0198005Y0286433D03*
X0198005Y0285808D03*
X0198005Y0285183D03*
X0198005Y0284558D03*
X0204875Y0287058D03*
X0205185Y0291433D03*
X0210185Y0291433D03*
X0214565Y0287058D03*
X0214875Y0286433D03*
X0219565Y0286433D03*
X0219565Y0287058D03*
X0219565Y0287683D03*
X0219565Y0290183D03*
X0219255Y0291433D03*
X0224565Y0291433D03*
X0224565Y0290808D03*
X0224565Y0292058D03*
X0224565Y0292683D03*
X0224565Y0293308D03*
X0224565Y0293933D03*
X0224565Y0294558D03*
X0224565Y0295183D03*
X0224565Y0295808D03*
X0224565Y0296433D03*
X0224565Y0297058D03*
X0224565Y0288308D03*
X0224565Y0287683D03*
X0224565Y0287058D03*
X0224565Y0286433D03*
X0224565Y0285808D03*
X0224565Y0285183D03*
X0224565Y0284558D03*
X0230185Y0284558D03*
X0234565Y0284558D03*
X0234565Y0285183D03*
X0234565Y0285808D03*
X0234565Y0286433D03*
X0234565Y0287058D03*
X0234565Y0287683D03*
X0234565Y0288308D03*
X0234565Y0288933D03*
X0234565Y0289558D03*
X0234565Y0290183D03*
X0234565Y0290808D03*
X0234565Y0291433D03*
X0234565Y0292058D03*
X0234565Y0292683D03*
X0234565Y0293308D03*
X0234565Y0295808D03*
X0234565Y0296433D03*
X0234565Y0297058D03*
X0239565Y0291433D03*
X0239565Y0290808D03*
X0239565Y0290183D03*
X0239565Y0289558D03*
X0239565Y0288933D03*
X0239565Y0288308D03*
X0239565Y0287683D03*
X0239565Y0287058D03*
X0239565Y0286433D03*
X0239565Y0285808D03*
X0239565Y0285183D03*
X0239565Y0284558D03*
X0244565Y0284558D03*
X0244565Y0285183D03*
X0244565Y0285808D03*
X0244565Y0286433D03*
X0244565Y0287058D03*
X0244565Y0287683D03*
X0244565Y0288308D03*
X0244565Y0288933D03*
X0244565Y0289558D03*
X0248935Y0289558D03*
X0248935Y0288933D03*
X0249255Y0287683D03*
X0249255Y0290808D03*
X0254875Y0290808D03*
X0254875Y0290183D03*
X0254875Y0289558D03*
X0254875Y0288933D03*
X0254875Y0288308D03*
X0254875Y0287683D03*
X0254875Y0291433D03*
X0254565Y0283933D03*
X0247685Y0270808D03*
X0247685Y0270183D03*
X0247375Y0268933D03*
X0247375Y0268308D03*
X0247065Y0267058D03*
X0241755Y0267683D03*
X0241435Y0266433D03*
X0241435Y0265808D03*
X0242065Y0269558D03*
X0242375Y0270808D03*
X0237685Y0272058D03*
X0238005Y0273308D03*
X0238005Y0273933D03*
X0238625Y0276433D03*
X0238625Y0277058D03*
X0237375Y0270183D03*
X0237065Y0268933D03*
X0236755Y0267058D03*
X0236435Y0265808D03*
X0232375Y0268308D03*
X0232685Y0268933D03*
X0232685Y0269558D03*
X0233005Y0270183D03*
X0233005Y0270808D03*
X0233005Y0271433D03*
X0232685Y0272058D03*
X0227065Y0271433D03*
X0226755Y0270808D03*
X0226755Y0270183D03*
X0226435Y0268933D03*
X0226755Y0268308D03*
X0218935Y0268308D03*
X0218935Y0269558D03*
X0218935Y0270183D03*
X0213315Y0270183D03*
X0213005Y0268933D03*
X0213005Y0268308D03*
X0213005Y0267683D03*
X0213625Y0272058D03*
X0214255Y0275183D03*
X0209565Y0277058D03*
X0208935Y0273933D03*
X0208625Y0272683D03*
X0208315Y0270808D03*
X0208005Y0269558D03*
X0208005Y0268933D03*
X0207685Y0267683D03*
X0207375Y0266433D03*
X0207375Y0265808D03*
D30*
X0202690Y0271433D03*
X0202690Y0272058D03*
X0201750Y0274558D03*
X0192690Y0287058D03*
X0193000Y0287683D03*
X0192690Y0292683D03*
X0200190Y0293308D03*
X0216750Y0293308D03*
X0230500Y0273933D03*
X0221440Y0265808D03*
X0183000Y0285808D03*
D31*
X0182535Y0293308D03*
X0182845Y0293933D03*
X0193155Y0292058D03*
X0191905Y0273933D03*
X0202535Y0272683D03*
X0222845Y0273933D03*
X0229095Y0265808D03*
D32*
X0236910Y0267683D03*
X0236910Y0268308D03*
X0237530Y0270808D03*
X0237530Y0271433D03*
X0241910Y0268933D03*
X0241910Y0268308D03*
X0242530Y0273308D03*
X0247530Y0269558D03*
X0246910Y0266433D03*
X0246910Y0265808D03*
X0244410Y0290183D03*
X0244410Y0290808D03*
X0219410Y0290808D03*
X0210660Y0290808D03*
X0210660Y0290183D03*
X0209410Y0276433D03*
X0208780Y0273308D03*
X0208160Y0270183D03*
X0207530Y0267058D03*
X0213160Y0269558D03*
X0214410Y0275808D03*
X0197530Y0272058D03*
X0188160Y0291433D03*
D33*
X0193155Y0291746D03*
X0182535Y0293621D03*
X0183155Y0285496D03*
X0191905Y0274246D03*
X0191595Y0267371D03*
X0192535Y0266121D03*
X0202535Y0272371D03*
X0201595Y0274871D03*
X0246595Y0273621D03*
D34*
X0223315Y0267371D03*
X0196125Y0266121D03*
X0188315Y0293621D03*
X0234565Y0294871D03*
D35*
X0217375Y0292371D03*
X0208315Y0284871D03*
X0199565Y0292371D03*
X0199565Y0292996D03*
X0191125Y0284871D03*
X0193315Y0274871D03*
X0201125Y0266746D03*
X0200815Y0266121D03*
X0220815Y0266746D03*
D36*
X0219405Y0267371D03*
X0213785Y0266121D03*
X0223155Y0274246D03*
X0243155Y0272371D03*
X0191285Y0267996D03*
X0181905Y0287371D03*
D37*
X0184095Y0294871D03*
X0192845Y0289871D03*
X0191595Y0270496D03*
X0214095Y0272996D03*
X0230345Y0273621D03*
X0229095Y0266121D03*
D38*
X0236910Y0267996D03*
X0237530Y0271121D03*
X0238160Y0274246D03*
X0242530Y0272996D03*
X0241910Y0268621D03*
X0246910Y0266121D03*
X0247530Y0269246D03*
X0246910Y0274246D03*
X0244410Y0290496D03*
X0219410Y0290496D03*
X0219410Y0291121D03*
X0210660Y0290496D03*
X0205030Y0291121D03*
X0209410Y0277371D03*
X0209410Y0276121D03*
X0208780Y0273621D03*
X0208160Y0270496D03*
X0208160Y0269871D03*
X0207530Y0266746D03*
X0213160Y0269246D03*
X0213160Y0269871D03*
X0213780Y0272371D03*
X0214410Y0275496D03*
X0214410Y0276121D03*
X0218780Y0269246D03*
X0197530Y0271746D03*
X0196910Y0268621D03*
X0187530Y0287996D03*
X0188160Y0291121D03*
D39*
X0192375Y0293933D03*
X0193315Y0291433D03*
X0193315Y0290808D03*
X0202065Y0273308D03*
X0202375Y0268308D03*
X0202065Y0267683D03*
X0192375Y0266433D03*
D40*
X0196280Y0266433D03*
X0186910Y0285808D03*
X0214720Y0291433D03*
D41*
X0191130Y0268308D03*
X0181750Y0287683D03*
X0213630Y0267058D03*
X0213630Y0266433D03*
D42*
X0229095Y0266433D03*
X0230345Y0273308D03*
X0217845Y0289558D03*
X0191595Y0285808D03*
X0184095Y0285183D03*
D43*
X0207845Y0268308D03*
X0214095Y0274558D03*
X0226595Y0269558D03*
X0236595Y0266433D03*
X0241595Y0267058D03*
X0237845Y0272683D03*
X0247845Y0271433D03*
X0249095Y0288308D03*
X0249095Y0290183D03*
D44*
X0192220Y0266746D03*
X0182220Y0288621D03*
D45*
X0186910Y0286121D03*
X0188470Y0294246D03*
X0215660Y0276746D03*
X0196280Y0266746D03*
D46*
X0191130Y0268621D03*
X0181750Y0287996D03*
X0213630Y0266746D03*
D47*
X0229250Y0266746D03*
X0217690Y0284871D03*
X0217690Y0289246D03*
X0241440Y0292996D03*
X0253000Y0292996D03*
X0253000Y0285496D03*
D48*
X0208470Y0284558D03*
X0192220Y0267058D03*
X0182220Y0288308D03*
X0182220Y0288933D03*
D49*
X0182685Y0292683D03*
X0192375Y0293308D03*
X0193005Y0288933D03*
X0192375Y0286433D03*
X0192065Y0273308D03*
X0201755Y0273933D03*
X0202375Y0269558D03*
X0201755Y0267058D03*
X0222065Y0273308D03*
X0225815Y0288933D03*
X0225815Y0290183D03*
X0241435Y0293308D03*
X0253005Y0293308D03*
D50*
X0217375Y0292058D03*
X0199565Y0292058D03*
X0199565Y0292683D03*
X0191125Y0294558D03*
X0193315Y0275183D03*
X0202065Y0270183D03*
X0220815Y0267058D03*
D51*
X0229250Y0267058D03*
X0251750Y0282683D03*
X0252690Y0285808D03*
X0252690Y0292683D03*
X0241750Y0292058D03*
X0207690Y0285808D03*
X0187690Y0282683D03*
X0187690Y0297058D03*
D52*
X0192530Y0292996D03*
X0193160Y0290496D03*
X0193160Y0288621D03*
X0192530Y0286746D03*
X0201910Y0273621D03*
X0202530Y0271121D03*
X0202530Y0269246D03*
X0201910Y0267371D03*
X0225660Y0289246D03*
X0225660Y0289871D03*
X0251280Y0281746D03*
D53*
X0227065Y0267371D03*
X0213315Y0267371D03*
D54*
X0219095Y0267996D03*
X0227845Y0272371D03*
X0232845Y0271746D03*
X0231595Y0267371D03*
X0242845Y0271746D03*
X0247845Y0272371D03*
X0229095Y0286121D03*
X0227845Y0287996D03*
X0227845Y0291121D03*
X0229095Y0292371D03*
D55*
X0224720Y0297371D03*
X0214720Y0286746D03*
X0204720Y0287371D03*
X0204720Y0287996D03*
X0204720Y0290496D03*
X0208470Y0271746D03*
X0213470Y0271121D03*
X0237220Y0269871D03*
X0237220Y0269246D03*
X0247220Y0267996D03*
X0247220Y0267371D03*
X0254720Y0284246D03*
X0254720Y0284871D03*
D56*
X0246905Y0273933D03*
X0191285Y0267683D03*
X0181905Y0287058D03*
D57*
X0205500Y0286433D03*
X0219250Y0267683D03*
X0243000Y0272058D03*
D58*
X0242220Y0270183D03*
X0247220Y0267683D03*
X0237220Y0269558D03*
X0254720Y0284558D03*
X0254720Y0285183D03*
X0214720Y0287683D03*
X0204720Y0287683D03*
X0204720Y0290183D03*
X0204720Y0290808D03*
X0208470Y0272058D03*
X0208470Y0271433D03*
X0213470Y0271433D03*
X0213470Y0270808D03*
D59*
X0222375Y0273621D03*
X0202375Y0272996D03*
X0202375Y0268621D03*
X0202375Y0267996D03*
X0193315Y0291121D03*
X0192375Y0293621D03*
X0182375Y0292996D03*
D60*
X0219720Y0271746D03*
X0232530Y0272371D03*
X0232220Y0267996D03*
X0242530Y0271121D03*
X0230030Y0284871D03*
X0229720Y0285496D03*
X0228780Y0286746D03*
X0228470Y0291746D03*
X0229720Y0292996D03*
X0249410Y0291121D03*
X0249410Y0287371D03*
D61*
X0196905Y0268308D03*
X0187535Y0287683D03*
D62*
X0182845Y0286433D03*
X0191595Y0269558D03*
X0191595Y0268933D03*
X0246595Y0273308D03*
D63*
X0238625Y0277683D03*
X0234565Y0295183D03*
X0209565Y0277683D03*
X0197375Y0271433D03*
X0197065Y0269558D03*
X0197065Y0268933D03*
D64*
X0202530Y0268933D03*
X0202530Y0270808D03*
X0193160Y0288308D03*
X0193160Y0290183D03*
X0225660Y0289558D03*
D65*
X0207845Y0292996D03*
X0182845Y0286121D03*
X0191595Y0269246D03*
D66*
X0197065Y0269246D03*
X0234565Y0297371D03*
X0238625Y0276121D03*
D67*
X0238630Y0277996D03*
X0242060Y0293621D03*
X0252380Y0293621D03*
X0209560Y0277996D03*
X0196750Y0269871D03*
X0187380Y0289246D03*
X0200500Y0293621D03*
D68*
X0207845Y0292683D03*
X0214095Y0272683D03*
X0191595Y0270808D03*
X0191595Y0270183D03*
D69*
X0191910Y0271746D03*
X0191910Y0272371D03*
X0193470Y0275496D03*
X0202220Y0270496D03*
X0214410Y0273621D03*
X0214410Y0274246D03*
X0221910Y0272996D03*
X0225970Y0288621D03*
X0225970Y0290496D03*
X0199410Y0291746D03*
X0182530Y0291746D03*
X0182530Y0291121D03*
X0182220Y0289871D03*
D70*
X0219095Y0270808D03*
X0229095Y0286433D03*
X0244095Y0291433D03*
X0247845Y0272058D03*
D71*
X0202690Y0271746D03*
X0201750Y0274246D03*
X0191750Y0273621D03*
X0193000Y0287371D03*
X0193000Y0287996D03*
X0193000Y0292371D03*
D72*
X0219875Y0272058D03*
X0228315Y0272683D03*
X0232065Y0272683D03*
X0229875Y0293308D03*
D73*
X0197535Y0272371D03*
X0188155Y0291746D03*
D74*
X0220345Y0272371D03*
D75*
X0197220Y0272683D03*
D76*
X0200500Y0275183D03*
X0192690Y0289558D03*
X0183940Y0294558D03*
X0221750Y0272683D03*
D77*
X0245185Y0272683D03*
X0252375Y0286433D03*
X0252375Y0292058D03*
D78*
X0242690Y0273621D03*
X0187690Y0288621D03*
D79*
X0187690Y0288933D03*
X0187690Y0288308D03*
X0188000Y0290808D03*
X0242690Y0273933D03*
D80*
X0248940Y0283621D03*
X0207690Y0293621D03*
X0197690Y0274246D03*
X0186750Y0285496D03*
D81*
X0230500Y0274246D03*
D82*
X0192220Y0274558D03*
D83*
X0195655Y0274558D03*
X0186285Y0293933D03*
X0251285Y0281433D03*
X0251905Y0285183D03*
D84*
X0197690Y0274558D03*
D85*
X0197845Y0274871D03*
D86*
X0199875Y0275496D03*
X0217375Y0285496D03*
X0217375Y0288621D03*
D87*
X0214880Y0276433D03*
X0209250Y0275808D03*
X0238630Y0275808D03*
D88*
X0251285Y0282058D03*
X0208155Y0285183D03*
D89*
X0187690Y0283933D03*
X0187690Y0295808D03*
D90*
X0208155Y0284246D03*
X0216905Y0289871D03*
D91*
X0217220Y0284246D03*
D92*
X0187690Y0284558D03*
X0187690Y0295183D03*
D93*
X0184720Y0284871D03*
D94*
X0217220Y0285808D03*
X0217220Y0288308D03*
D95*
X0207690Y0286121D03*
X0190500Y0294871D03*
X0241750Y0291746D03*
D96*
X0217220Y0286121D03*
D97*
X0252530Y0286121D03*
X0252530Y0292371D03*
D98*
X0234565Y0297683D03*
X0210815Y0286433D03*
X0188315Y0293933D03*
D99*
X0192220Y0294246D03*
X0182220Y0286746D03*
D100*
X0252220Y0287058D03*
D101*
X0207690Y0288308D03*
X0207690Y0289558D03*
D102*
X0207690Y0289246D03*
X0207690Y0288621D03*
D103*
X0207690Y0288933D03*
D104*
X0207690Y0289871D03*
D105*
X0207845Y0291746D03*
D106*
X0217535Y0291746D03*
D107*
X0187845Y0292058D03*
D108*
X0207845Y0292058D03*
X0241595Y0292683D03*
D109*
X0207845Y0292371D03*
D110*
X0207845Y0293308D03*
D111*
X0217220Y0293621D03*
M02*
