G75*
%MOIN*%
%OFA0B0*%
%FSLAX25Y25*%
%IPPOS*%
%LPD*%
%AMOC8*
5,1,8,0,0,1.08239X$1,22.5*
%
%ADD10C,0.00500*%
%ADD11C,0.00600*%
%ADD12R,0.00100X0.01200*%
%ADD13R,0.00100X0.00700*%
%ADD14R,0.00100X0.01800*%
%ADD15R,0.00100X0.01000*%
%ADD16R,0.00100X0.02100*%
%ADD17R,0.00100X0.01100*%
%ADD18R,0.00100X0.02400*%
%ADD19R,0.00100X0.01300*%
%ADD20R,0.00100X0.02600*%
%ADD21R,0.00100X0.02900*%
%ADD22R,0.00100X0.01400*%
%ADD23R,0.00100X0.03000*%
%ADD24R,0.00100X0.03100*%
%ADD25R,0.00100X0.03200*%
%ADD26R,0.00100X0.03400*%
%ADD27R,0.00100X0.03300*%
%ADD28R,0.00100X0.02200*%
%ADD29R,0.00100X0.02000*%
%ADD30R,0.00100X0.01900*%
%ADD31R,0.00100X0.01700*%
%ADD32R,0.00100X0.01600*%
%ADD33R,0.00100X0.01500*%
%ADD34R,0.00100X0.00500*%
%ADD35R,0.00100X0.00900*%
%ADD36R,0.00100X0.00800*%
%ADD37R,0.00100X0.02500*%
%ADD38R,0.00100X0.02800*%
%ADD39R,0.00100X0.02700*%
%ADD40R,0.00100X0.02300*%
%ADD41R,0.00100X0.03600*%
%ADD42R,0.00100X0.03800*%
%ADD43R,0.00100X0.03700*%
%ADD44R,0.00100X0.04000*%
%ADD45R,0.00100X0.04300*%
%ADD46R,0.00100X0.04100*%
%ADD47R,0.00100X0.04400*%
%ADD48R,0.00100X0.04200*%
%ADD49R,0.00100X0.04600*%
%ADD50R,0.00100X0.04500*%
%ADD51R,0.00100X0.04700*%
%ADD52R,0.00100X0.04800*%
%ADD53R,0.00100X0.05000*%
%ADD54R,0.00100X0.04900*%
%ADD55R,0.00100X0.05200*%
%ADD56R,0.00100X0.05100*%
%ADD57R,0.00100X0.05300*%
%ADD58R,0.00100X0.05400*%
%ADD59R,0.00100X0.05500*%
%ADD60R,0.00100X0.05600*%
%ADD61R,0.00100X0.05800*%
%ADD62R,0.00100X0.07200*%
%ADD63R,0.00100X0.06000*%
%ADD64R,0.00100X0.05900*%
%ADD65R,0.00100X0.07300*%
%ADD66R,0.00100X0.03500*%
%ADD67R,0.00100X0.00400*%
%ADD68R,0.00100X0.03900*%
%ADD69R,0.00100X0.06100*%
%ADD70R,0.00100X0.05700*%
%ADD71R,0.00100X0.00600*%
%ADD72R,0.00100X0.00300*%
%ADD73R,0.00100X0.00200*%
%ADD74R,0.00100X0.00100*%
%ADD75R,0.00100X0.08200*%
%ADD76R,0.00100X0.08100*%
%ADD77R,0.00100X0.13300*%
%ADD78R,0.00100X0.13200*%
%ADD79R,0.00100X0.07000*%
%ADD80R,0.00100X0.09700*%
%ADD81R,0.00100X0.10300*%
%ADD82R,0.00100X0.10800*%
%ADD83R,0.00100X0.11200*%
%ADD84R,0.00100X0.11800*%
%ADD85R,0.00100X0.16400*%
%ADD86R,0.00100X0.12000*%
%ADD87R,0.00100X0.16300*%
%ADD88R,0.00100X0.12200*%
%ADD89R,0.00100X0.12400*%
%ADD90R,0.00100X0.12600*%
%ADD91R,0.00100X0.12700*%
%ADD92R,0.00100X0.12900*%
%ADD93R,0.00100X0.13100*%
%ADD94R,0.00100X0.13500*%
%ADD95R,0.00100X0.13000*%
%ADD96R,0.00100X0.13400*%
%ADD97R,0.00100X0.09100*%
%ADD98R,0.00100X0.09000*%
%ADD99R,0.00100X0.11600*%
%ADD100R,0.00100X0.11400*%
%ADD101R,0.00100X0.11000*%
%ADD102R,0.00100X0.10600*%
%ADD103R,0.00100X0.10100*%
%ADD104R,0.00100X0.06200*%
%ADD105R,0.00100X0.06300*%
%ADD106R,0.00100X0.06500*%
%ADD107R,0.00100X0.06600*%
%ADD108R,0.00100X0.06400*%
%ADD109R,0.00100X0.06800*%
%ADD110R,0.00100X0.06900*%
%ADD111R,0.00100X0.07400*%
%ADD112R,0.00100X0.07800*%
%ADD113R,0.00100X0.07900*%
%ADD114R,0.00100X0.17600*%
%ADD115R,0.00100X0.17300*%
%ADD116R,0.00100X0.16800*%
%ADD117R,0.00100X0.16500*%
%ADD118R,0.00100X0.16000*%
%ADD119R,0.00100X0.15800*%
%ADD120R,0.00100X0.15400*%
%ADD121R,0.00100X0.15200*%
%ADD122R,0.00100X0.14800*%
%ADD123R,0.00100X0.14600*%
%ADD124R,0.00100X0.14300*%
%ADD125R,0.00100X0.13900*%
%ADD126R,0.00100X0.12800*%
%ADD127R,0.00100X0.12100*%
%ADD128R,0.00100X0.11100*%
%ADD129R,0.00100X0.09800*%
%ADD130R,0.00100X0.09200*%
%ADD131R,0.00100X0.08600*%
%ADD132R,0.00312X0.02810*%
%ADD133R,0.00313X0.05000*%
%ADD134R,0.00312X0.06880*%
%ADD135R,0.00313X0.07810*%
%ADD136R,0.00312X0.09060*%
%ADD137R,0.00313X0.09690*%
%ADD138R,0.00312X0.10620*%
%ADD139R,0.00313X0.11250*%
%ADD140R,0.00312X0.11880*%
%ADD141R,0.00313X0.06560*%
%ADD142R,0.00313X0.05630*%
%ADD143R,0.00313X0.02180*%
%ADD144R,0.00313X0.02500*%
%ADD145R,0.00312X0.05930*%
%ADD146R,0.00312X0.05310*%
%ADD147R,0.00312X0.02500*%
%ADD148R,0.00312X0.04370*%
%ADD149R,0.00312X0.04060*%
%ADD150R,0.00312X0.02190*%
%ADD151R,0.00313X0.04060*%
%ADD152R,0.00313X0.00620*%
%ADD153R,0.00313X0.05620*%
%ADD154R,0.00313X0.03440*%
%ADD155R,0.00313X0.05320*%
%ADD156R,0.00313X0.02190*%
%ADD157R,0.00312X0.04380*%
%ADD158R,0.00312X0.00310*%
%ADD159R,0.00312X0.03750*%
%ADD160R,0.00312X0.05940*%
%ADD161R,0.00312X0.02180*%
%ADD162R,0.00313X0.04690*%
%ADD163R,0.00313X0.00310*%
%ADD164R,0.00313X0.03750*%
%ADD165R,0.00313X0.06250*%
%ADD166R,0.00312X0.04690*%
%ADD167R,0.00312X0.05000*%
%ADD168R,0.00312X0.05620*%
%ADD169R,0.00312X0.06870*%
%ADD170R,0.00313X0.04690*%
%ADD171R,0.00313X0.03120*%
%ADD172R,0.00313X0.02820*%
%ADD173R,0.00313X0.02190*%
%ADD174R,0.00312X0.03440*%
%ADD175R,0.00312X0.03130*%
%ADD176R,0.00312X0.02190*%
%ADD177R,0.00313X0.04380*%
%ADD178R,0.00313X0.02810*%
%ADD179R,0.00312X0.01560*%
%ADD180R,0.00312X0.04680*%
%ADD181R,0.00312X0.01880*%
%ADD182R,0.00312X0.04690*%
%ADD183R,0.00313X0.04680*%
%ADD184R,0.00313X0.01880*%
%ADD185R,0.00313X0.01250*%
%ADD186R,0.00312X0.05320*%
%ADD187R,0.00313X0.05310*%
%ADD188R,0.00312X0.02820*%
%ADD189R,0.00313X0.04370*%
%ADD190R,0.00312X0.03120*%
%ADD191R,0.00313X0.01560*%
%ADD192R,0.00313X0.03440*%
%ADD193R,0.00312X0.00930*%
%ADD194R,0.00312X0.05630*%
%ADD195R,0.00312X0.07500*%
%ADD196R,0.00313X0.01870*%
%ADD197R,0.00312X0.01870*%
%ADD198R,0.00313X0.00630*%
%ADD199R,0.00313X0.03130*%
%ADD200R,0.00312X0.04070*%
%ADD201R,0.00312X0.00940*%
%ADD202R,0.00312X0.00630*%
%ADD203R,0.00313X0.00320*%
%ADD204R,0.00313X0.06880*%
%ADD205R,0.00312X0.01250*%
%ADD206R,0.00312X0.05940*%
%ADD207R,0.00312X0.10630*%
%ADD208R,0.00313X0.00940*%
%ADD209R,0.00313X0.01570*%
%ADD210R,0.00312X0.11870*%
%ADD211R,0.00313X0.06570*%
%ADD212R,0.00312X0.07190*%
%ADD213R,0.00313X0.06870*%
%ADD214R,0.00313X0.07190*%
%ADD215R,0.00313X0.07190*%
%ADD216R,0.00312X0.00620*%
%ADD217R,0.00313X0.04070*%
%ADD218R,0.00312X0.07810*%
%ADD219R,0.00312X0.08130*%
%ADD220R,0.00313X0.08750*%
%ADD221R,0.00312X0.08750*%
%ADD222R,0.00313X0.08130*%
%ADD223R,0.00313X0.07180*%
%ADD224R,0.00313X0.05940*%
%ADD225R,0.00312X0.00940*%
%ADD226R,0.00312X0.06560*%
%ADD227R,0.00313X0.05940*%
%ADD228R,0.00312X0.03440*%
%ADD229R,0.00313X0.00930*%
D10*
X0117595Y0063933D02*
X0317595Y0063933D01*
X0317595Y0073933D01*
X0117595Y0073933D01*
X0117595Y0063933D01*
X0120345Y0074183D02*
X0120345Y0077186D01*
X0120345Y0075684D02*
X0124849Y0075684D01*
X0123348Y0074183D01*
X0130345Y0074183D02*
X0130345Y0077186D01*
X0130345Y0074183D02*
X0133348Y0077186D01*
X0134098Y0077186D01*
X0134849Y0076435D01*
X0134849Y0074934D01*
X0134098Y0074183D01*
X0140345Y0074934D02*
X0141096Y0074183D01*
X0140345Y0074934D02*
X0140345Y0076435D01*
X0141096Y0077186D01*
X0141846Y0077186D01*
X0142597Y0076435D01*
X0142597Y0075684D01*
X0142597Y0076435D02*
X0143348Y0077186D01*
X0144098Y0077186D01*
X0144849Y0076435D01*
X0144849Y0074934D01*
X0144098Y0074183D01*
X0150345Y0076435D02*
X0154849Y0076435D01*
X0152597Y0074183D01*
X0152597Y0077186D01*
X0154136Y0081683D02*
X0152635Y0084686D01*
X0151033Y0082434D02*
X0150283Y0082434D01*
X0150283Y0081683D01*
X0151033Y0081683D01*
X0151033Y0082434D01*
X0154136Y0081683D02*
X0155637Y0084686D01*
X0157239Y0083935D02*
X0157239Y0083184D01*
X0160241Y0083184D01*
X0160241Y0082434D02*
X0160241Y0083935D01*
X0159491Y0084686D01*
X0157989Y0084686D01*
X0157239Y0083935D01*
X0157989Y0081683D02*
X0159491Y0081683D01*
X0160241Y0082434D01*
X0161843Y0081683D02*
X0163344Y0083184D01*
X0162593Y0083184D02*
X0164845Y0083184D01*
X0164845Y0081683D02*
X0164845Y0086187D01*
X0162593Y0086187D01*
X0161843Y0085436D01*
X0161843Y0083935D01*
X0162593Y0083184D01*
X0162597Y0077186D02*
X0161096Y0077186D01*
X0160345Y0076435D01*
X0160345Y0074934D01*
X0161096Y0074183D01*
X0162597Y0074183D02*
X0163348Y0075684D01*
X0163348Y0076435D01*
X0162597Y0077186D01*
X0164849Y0077186D02*
X0164849Y0074183D01*
X0162597Y0074183D01*
X0170345Y0074934D02*
X0170345Y0076435D01*
X0171096Y0077186D01*
X0171846Y0077186D01*
X0172597Y0076435D01*
X0172597Y0074183D01*
X0171096Y0074183D01*
X0170345Y0074934D01*
X0172597Y0074183D02*
X0174098Y0075684D01*
X0174849Y0077186D01*
X0180345Y0074183D02*
X0181096Y0074183D01*
X0184098Y0077186D01*
X0184849Y0077186D01*
X0184849Y0074183D01*
X0190345Y0074934D02*
X0190345Y0076435D01*
X0191096Y0077186D01*
X0191846Y0077186D01*
X0192597Y0076435D01*
X0192597Y0074934D01*
X0193348Y0074183D01*
X0194098Y0074183D01*
X0194849Y0074934D01*
X0194849Y0076435D01*
X0194098Y0077186D01*
X0193348Y0077186D01*
X0192597Y0076435D01*
X0192597Y0074934D02*
X0191846Y0074183D01*
X0191096Y0074183D01*
X0190345Y0074934D01*
X0200345Y0074934D02*
X0200345Y0076435D01*
X0201096Y0077186D01*
X0204098Y0077186D01*
X0204849Y0076435D01*
X0204849Y0074934D01*
X0204098Y0074183D01*
X0203348Y0074183D01*
X0202597Y0074934D01*
X0202597Y0077186D01*
X0200345Y0074934D02*
X0201096Y0074183D01*
X0210345Y0074183D02*
X0210345Y0077186D01*
X0210345Y0075684D02*
X0214849Y0075684D01*
X0213348Y0074183D01*
X0214098Y0078787D02*
X0211096Y0078787D01*
X0214098Y0081790D01*
X0211096Y0081790D01*
X0210345Y0081039D01*
X0210345Y0079538D01*
X0211096Y0078787D01*
X0214098Y0078787D02*
X0214849Y0079538D01*
X0214849Y0081039D01*
X0214098Y0081790D01*
X0220345Y0081790D02*
X0220345Y0078787D01*
X0220345Y0080288D02*
X0224849Y0080288D01*
X0223348Y0078787D01*
X0220345Y0077186D02*
X0220345Y0074183D01*
X0220345Y0075684D02*
X0224849Y0075684D01*
X0223348Y0074183D01*
X0230345Y0074183D02*
X0230345Y0077186D01*
X0230345Y0075684D02*
X0234849Y0075684D01*
X0233348Y0074183D01*
X0234098Y0078787D02*
X0234849Y0079538D01*
X0234849Y0081039D01*
X0234098Y0081790D01*
X0233348Y0081790D01*
X0230345Y0078787D01*
X0230345Y0081790D01*
X0240345Y0081039D02*
X0240345Y0079538D01*
X0241096Y0078787D01*
X0240345Y0077186D02*
X0240345Y0074183D01*
X0240345Y0075684D02*
X0244849Y0075684D01*
X0243348Y0074183D01*
X0244098Y0078787D02*
X0244849Y0079538D01*
X0244849Y0081039D01*
X0244098Y0081790D01*
X0243348Y0081790D01*
X0242597Y0081039D01*
X0241846Y0081790D01*
X0241096Y0081790D01*
X0240345Y0081039D01*
X0242597Y0081039D02*
X0242597Y0080288D01*
X0250345Y0081039D02*
X0254849Y0081039D01*
X0252597Y0078787D01*
X0252597Y0081790D01*
X0250345Y0077186D02*
X0250345Y0074183D01*
X0250345Y0075684D02*
X0254849Y0075684D01*
X0253348Y0074183D01*
X0260345Y0074183D02*
X0260345Y0077186D01*
X0260345Y0075684D02*
X0264849Y0075684D01*
X0263348Y0074183D01*
X0262597Y0078787D02*
X0263348Y0080288D01*
X0263348Y0081039D01*
X0262597Y0081790D01*
X0261096Y0081790D01*
X0260345Y0081039D01*
X0260345Y0079538D01*
X0261096Y0078787D01*
X0262597Y0078787D02*
X0264849Y0078787D01*
X0264849Y0081790D01*
X0270345Y0081039D02*
X0271096Y0081790D01*
X0271846Y0081790D01*
X0272597Y0081039D01*
X0272597Y0078787D01*
X0271096Y0078787D01*
X0270345Y0079538D01*
X0270345Y0081039D01*
X0272597Y0078787D02*
X0274098Y0080288D01*
X0274849Y0081790D01*
X0274849Y0075684D02*
X0270345Y0075684D01*
X0270345Y0074183D02*
X0270345Y0077186D01*
X0273348Y0074183D02*
X0274849Y0075684D01*
X0280345Y0075684D02*
X0284849Y0075684D01*
X0283348Y0074183D01*
X0280345Y0074183D02*
X0280345Y0077186D01*
X0280345Y0078787D02*
X0281096Y0078787D01*
X0284098Y0081790D01*
X0284849Y0081790D01*
X0284849Y0078787D01*
X0290345Y0079538D02*
X0291096Y0078787D01*
X0291846Y0078787D01*
X0292597Y0079538D01*
X0292597Y0081039D01*
X0291846Y0081790D01*
X0291096Y0081790D01*
X0290345Y0081039D01*
X0290345Y0079538D01*
X0292597Y0079538D02*
X0293348Y0078787D01*
X0294098Y0078787D01*
X0294849Y0079538D01*
X0294849Y0081039D01*
X0294098Y0081790D01*
X0293348Y0081790D01*
X0292597Y0081039D01*
X0290345Y0077186D02*
X0290345Y0074183D01*
X0290345Y0075684D02*
X0294849Y0075684D01*
X0293348Y0074183D01*
X0300345Y0074183D02*
X0300345Y0077186D01*
X0300345Y0075684D02*
X0304849Y0075684D01*
X0303348Y0074183D01*
X0303348Y0078787D02*
X0302597Y0079538D01*
X0302597Y0081790D01*
X0301096Y0081790D02*
X0304098Y0081790D01*
X0304849Y0081039D01*
X0304849Y0079538D01*
X0304098Y0078787D01*
X0303348Y0078787D01*
X0301096Y0078787D02*
X0300345Y0079538D01*
X0300345Y0081039D01*
X0301096Y0081790D01*
X0307595Y0083933D02*
X0307595Y0283933D01*
X0317595Y0283933D01*
X0317595Y0083933D01*
X0307595Y0083933D01*
X0310345Y0081039D02*
X0310345Y0079538D01*
X0311096Y0078787D01*
X0314098Y0081790D01*
X0311096Y0081790D01*
X0310345Y0081039D01*
X0311096Y0078787D02*
X0314098Y0078787D01*
X0314849Y0079538D01*
X0314849Y0081039D01*
X0314098Y0081790D01*
X0314098Y0077186D02*
X0314849Y0076435D01*
X0314849Y0074934D01*
X0314098Y0074183D01*
X0314098Y0077186D02*
X0313348Y0077186D01*
X0310345Y0074183D01*
X0310345Y0077186D01*
X0319697Y0086683D02*
X0318947Y0087434D01*
X0318947Y0090436D01*
X0321949Y0087434D01*
X0321198Y0086683D01*
X0319697Y0086683D01*
X0321949Y0087434D02*
X0321949Y0090436D01*
X0321198Y0091187D01*
X0319697Y0091187D01*
X0318947Y0090436D01*
X0319697Y0096683D02*
X0318947Y0097434D01*
X0318947Y0100436D01*
X0319697Y0101187D01*
X0321198Y0101187D01*
X0321949Y0100436D01*
X0321949Y0099686D01*
X0321198Y0098935D01*
X0318947Y0098935D01*
X0319697Y0096683D02*
X0321198Y0096683D01*
X0321949Y0097434D01*
X0323550Y0096683D02*
X0326553Y0096683D01*
X0325052Y0096683D02*
X0325052Y0101187D01*
X0326553Y0099686D01*
X0326553Y0106683D02*
X0323550Y0106683D01*
X0325052Y0106683D02*
X0325052Y0111187D01*
X0326553Y0109686D01*
X0321949Y0109686D02*
X0321198Y0108935D01*
X0319697Y0108935D01*
X0318947Y0108184D01*
X0318947Y0107434D01*
X0319697Y0106683D01*
X0321198Y0106683D01*
X0321949Y0107434D01*
X0321949Y0108184D01*
X0321198Y0108935D01*
X0321949Y0109686D02*
X0321949Y0110436D01*
X0321198Y0111187D01*
X0319697Y0111187D01*
X0318947Y0110436D01*
X0318947Y0109686D01*
X0319697Y0108935D01*
X0321949Y0116683D02*
X0321949Y0117434D01*
X0318947Y0120436D01*
X0318947Y0121187D01*
X0321949Y0121187D01*
X0325052Y0121187D02*
X0326553Y0119686D01*
X0325052Y0121187D02*
X0325052Y0116683D01*
X0326553Y0116683D02*
X0323550Y0116683D01*
X0323550Y0126683D02*
X0326553Y0126683D01*
X0325052Y0126683D02*
X0325052Y0131187D01*
X0326553Y0129686D01*
X0321949Y0128935D02*
X0321949Y0127434D01*
X0321198Y0126683D01*
X0319697Y0126683D01*
X0318947Y0127434D01*
X0318947Y0128184D01*
X0319697Y0128935D01*
X0321949Y0128935D01*
X0320448Y0130436D01*
X0318947Y0131187D01*
X0319697Y0136683D02*
X0318947Y0137434D01*
X0318947Y0138935D01*
X0319697Y0139686D01*
X0320448Y0139686D01*
X0321949Y0138935D01*
X0321949Y0141187D01*
X0318947Y0141187D01*
X0319697Y0136683D02*
X0321198Y0136683D01*
X0321949Y0137434D01*
X0323550Y0136683D02*
X0326553Y0136683D01*
X0325052Y0136683D02*
X0325052Y0141187D01*
X0326553Y0139686D01*
X0326553Y0146683D02*
X0323550Y0146683D01*
X0325052Y0146683D02*
X0325052Y0151187D01*
X0326553Y0149686D01*
X0321949Y0148935D02*
X0319697Y0151187D01*
X0319697Y0146683D01*
X0318947Y0148935D02*
X0321949Y0148935D01*
X0321198Y0156683D02*
X0321949Y0157434D01*
X0321198Y0156683D02*
X0319697Y0156683D01*
X0318947Y0157434D01*
X0318947Y0158184D01*
X0319697Y0158935D01*
X0320448Y0158935D01*
X0319697Y0158935D02*
X0318947Y0159686D01*
X0318947Y0160436D01*
X0319697Y0161187D01*
X0321198Y0161187D01*
X0321949Y0160436D01*
X0325052Y0161187D02*
X0325052Y0156683D01*
X0326553Y0156683D02*
X0323550Y0156683D01*
X0326553Y0159686D02*
X0325052Y0161187D01*
X0325052Y0166683D02*
X0325052Y0171187D01*
X0326553Y0169686D01*
X0326553Y0166683D02*
X0323550Y0166683D01*
X0321949Y0166683D02*
X0318947Y0169686D01*
X0318947Y0170436D01*
X0319697Y0171187D01*
X0321198Y0171187D01*
X0321949Y0170436D01*
X0321949Y0166683D02*
X0318947Y0166683D01*
X0318947Y0176683D02*
X0321949Y0176683D01*
X0320448Y0176683D02*
X0320448Y0181187D01*
X0321949Y0179686D01*
X0323550Y0176683D02*
X0326553Y0176683D01*
X0325052Y0176683D02*
X0325052Y0181187D01*
X0326553Y0179686D01*
X0326553Y0186683D02*
X0323550Y0186683D01*
X0325052Y0186683D02*
X0325052Y0191187D01*
X0326553Y0189686D01*
X0321949Y0190436D02*
X0321949Y0187434D01*
X0318947Y0190436D01*
X0318947Y0187434D01*
X0319697Y0186683D01*
X0321198Y0186683D01*
X0321949Y0187434D01*
X0321949Y0190436D02*
X0321198Y0191187D01*
X0319697Y0191187D01*
X0318947Y0190436D01*
X0319697Y0196683D02*
X0318947Y0197434D01*
X0318947Y0200436D01*
X0319697Y0201187D01*
X0321198Y0201187D01*
X0321949Y0200436D01*
X0321949Y0199686D01*
X0321198Y0198935D01*
X0318947Y0198935D01*
X0319697Y0196683D02*
X0321198Y0196683D01*
X0321949Y0197434D01*
X0321198Y0206683D02*
X0321949Y0207434D01*
X0321949Y0208184D01*
X0321198Y0208935D01*
X0319697Y0208935D01*
X0318947Y0208184D01*
X0318947Y0207434D01*
X0319697Y0206683D01*
X0321198Y0206683D01*
X0321198Y0208935D02*
X0321949Y0209686D01*
X0321949Y0210436D01*
X0321198Y0211187D01*
X0319697Y0211187D01*
X0318947Y0210436D01*
X0318947Y0209686D01*
X0319697Y0208935D01*
X0321949Y0216683D02*
X0321949Y0217434D01*
X0318947Y0220436D01*
X0318947Y0221187D01*
X0321949Y0221187D01*
X0321198Y0226683D02*
X0319697Y0226683D01*
X0318947Y0227434D01*
X0318947Y0228184D01*
X0319697Y0228935D01*
X0321949Y0228935D01*
X0321949Y0227434D01*
X0321198Y0226683D01*
X0321949Y0228935D02*
X0320448Y0230436D01*
X0318947Y0231187D01*
X0319697Y0236683D02*
X0321198Y0236683D01*
X0321949Y0237434D01*
X0321949Y0238935D02*
X0320448Y0239686D01*
X0319697Y0239686D01*
X0318947Y0238935D01*
X0318947Y0237434D01*
X0319697Y0236683D01*
X0321949Y0238935D02*
X0321949Y0241187D01*
X0318947Y0241187D01*
X0319697Y0246683D02*
X0319697Y0251187D01*
X0321949Y0248935D01*
X0318947Y0248935D01*
X0319697Y0256683D02*
X0318947Y0257434D01*
X0318947Y0258184D01*
X0319697Y0258935D01*
X0320448Y0258935D01*
X0319697Y0258935D02*
X0318947Y0259686D01*
X0318947Y0260436D01*
X0319697Y0261187D01*
X0321198Y0261187D01*
X0321949Y0260436D01*
X0321949Y0257434D02*
X0321198Y0256683D01*
X0319697Y0256683D01*
X0318947Y0266683D02*
X0321949Y0266683D01*
X0318947Y0269686D01*
X0318947Y0270436D01*
X0319697Y0271187D01*
X0321198Y0271187D01*
X0321949Y0270436D01*
X0321949Y0276683D02*
X0318947Y0276683D01*
X0320448Y0276683D02*
X0320448Y0281187D01*
X0321949Y0279686D01*
X0262595Y0170433D02*
X0262595Y0145433D01*
X0262592Y0145191D01*
X0262583Y0144950D01*
X0262569Y0144709D01*
X0262548Y0144468D01*
X0262522Y0144228D01*
X0262490Y0143988D01*
X0262452Y0143749D01*
X0262409Y0143512D01*
X0262359Y0143275D01*
X0262304Y0143040D01*
X0262244Y0142806D01*
X0262177Y0142574D01*
X0262106Y0142343D01*
X0262028Y0142114D01*
X0261945Y0141887D01*
X0261857Y0141662D01*
X0261763Y0141439D01*
X0261664Y0141219D01*
X0261559Y0141001D01*
X0261450Y0140786D01*
X0261335Y0140573D01*
X0261215Y0140363D01*
X0261090Y0140157D01*
X0260960Y0139953D01*
X0260825Y0139752D01*
X0260685Y0139555D01*
X0260541Y0139361D01*
X0260392Y0139171D01*
X0260238Y0138985D01*
X0260080Y0138802D01*
X0259918Y0138623D01*
X0259751Y0138448D01*
X0259580Y0138277D01*
X0259405Y0138110D01*
X0259226Y0137948D01*
X0259043Y0137790D01*
X0258857Y0137636D01*
X0258667Y0137487D01*
X0258473Y0137343D01*
X0258276Y0137203D01*
X0258075Y0137068D01*
X0257871Y0136938D01*
X0257665Y0136813D01*
X0257455Y0136693D01*
X0257242Y0136578D01*
X0257027Y0136469D01*
X0256809Y0136364D01*
X0256589Y0136265D01*
X0256366Y0136171D01*
X0256141Y0136083D01*
X0255914Y0136000D01*
X0255685Y0135922D01*
X0255454Y0135851D01*
X0255222Y0135784D01*
X0254988Y0135724D01*
X0254753Y0135669D01*
X0254516Y0135619D01*
X0254279Y0135576D01*
X0254040Y0135538D01*
X0253800Y0135506D01*
X0253560Y0135480D01*
X0253319Y0135459D01*
X0253078Y0135445D01*
X0252837Y0135436D01*
X0252595Y0135433D01*
X0252353Y0135436D01*
X0252112Y0135445D01*
X0251871Y0135459D01*
X0251630Y0135480D01*
X0251390Y0135506D01*
X0251150Y0135538D01*
X0250911Y0135576D01*
X0250674Y0135619D01*
X0250437Y0135669D01*
X0250202Y0135724D01*
X0249968Y0135784D01*
X0249736Y0135851D01*
X0249505Y0135922D01*
X0249276Y0136000D01*
X0249049Y0136083D01*
X0248824Y0136171D01*
X0248601Y0136265D01*
X0248381Y0136364D01*
X0248163Y0136469D01*
X0247948Y0136578D01*
X0247735Y0136693D01*
X0247525Y0136813D01*
X0247319Y0136938D01*
X0247115Y0137068D01*
X0246914Y0137203D01*
X0246717Y0137343D01*
X0246523Y0137487D01*
X0246333Y0137636D01*
X0246147Y0137790D01*
X0245964Y0137948D01*
X0245785Y0138110D01*
X0245610Y0138277D01*
X0245439Y0138448D01*
X0245272Y0138623D01*
X0245110Y0138802D01*
X0244952Y0138985D01*
X0244798Y0139171D01*
X0244649Y0139361D01*
X0244505Y0139555D01*
X0244365Y0139752D01*
X0244230Y0139953D01*
X0244100Y0140157D01*
X0243975Y0140363D01*
X0243855Y0140573D01*
X0243740Y0140786D01*
X0243631Y0141001D01*
X0243526Y0141219D01*
X0243427Y0141439D01*
X0243333Y0141662D01*
X0243245Y0141887D01*
X0243162Y0142114D01*
X0243084Y0142343D01*
X0243013Y0142574D01*
X0242946Y0142806D01*
X0242886Y0143040D01*
X0242831Y0143275D01*
X0242781Y0143512D01*
X0242738Y0143749D01*
X0242700Y0143988D01*
X0242668Y0144228D01*
X0242642Y0144468D01*
X0242621Y0144709D01*
X0242607Y0144950D01*
X0242598Y0145191D01*
X0242595Y0145433D01*
X0242595Y0170433D01*
X0252595Y0180433D02*
X0252837Y0180430D01*
X0253078Y0180421D01*
X0253319Y0180407D01*
X0253560Y0180386D01*
X0253800Y0180360D01*
X0254040Y0180328D01*
X0254279Y0180290D01*
X0254516Y0180247D01*
X0254753Y0180197D01*
X0254988Y0180142D01*
X0255222Y0180082D01*
X0255454Y0180015D01*
X0255685Y0179944D01*
X0255914Y0179866D01*
X0256141Y0179783D01*
X0256366Y0179695D01*
X0256589Y0179601D01*
X0256809Y0179502D01*
X0257027Y0179397D01*
X0257242Y0179288D01*
X0257455Y0179173D01*
X0257665Y0179053D01*
X0257871Y0178928D01*
X0258075Y0178798D01*
X0258276Y0178663D01*
X0258473Y0178523D01*
X0258667Y0178379D01*
X0258857Y0178230D01*
X0259043Y0178076D01*
X0259226Y0177918D01*
X0259405Y0177756D01*
X0259580Y0177589D01*
X0259751Y0177418D01*
X0259918Y0177243D01*
X0260080Y0177064D01*
X0260238Y0176881D01*
X0260392Y0176695D01*
X0260541Y0176505D01*
X0260685Y0176311D01*
X0260825Y0176114D01*
X0260960Y0175913D01*
X0261090Y0175709D01*
X0261215Y0175503D01*
X0261335Y0175293D01*
X0261450Y0175080D01*
X0261559Y0174865D01*
X0261664Y0174647D01*
X0261763Y0174427D01*
X0261857Y0174204D01*
X0261945Y0173979D01*
X0262028Y0173752D01*
X0262106Y0173523D01*
X0262177Y0173292D01*
X0262244Y0173060D01*
X0262304Y0172826D01*
X0262359Y0172591D01*
X0262409Y0172354D01*
X0262452Y0172117D01*
X0262490Y0171878D01*
X0262522Y0171638D01*
X0262548Y0171398D01*
X0262569Y0171157D01*
X0262583Y0170916D01*
X0262592Y0170675D01*
X0262595Y0170433D01*
X0252595Y0180433D02*
X0252353Y0180430D01*
X0252112Y0180421D01*
X0251871Y0180407D01*
X0251630Y0180386D01*
X0251390Y0180360D01*
X0251150Y0180328D01*
X0250911Y0180290D01*
X0250674Y0180247D01*
X0250437Y0180197D01*
X0250202Y0180142D01*
X0249968Y0180082D01*
X0249736Y0180015D01*
X0249505Y0179944D01*
X0249276Y0179866D01*
X0249049Y0179783D01*
X0248824Y0179695D01*
X0248601Y0179601D01*
X0248381Y0179502D01*
X0248163Y0179397D01*
X0247948Y0179288D01*
X0247735Y0179173D01*
X0247525Y0179053D01*
X0247319Y0178928D01*
X0247115Y0178798D01*
X0246914Y0178663D01*
X0246717Y0178523D01*
X0246523Y0178379D01*
X0246333Y0178230D01*
X0246147Y0178076D01*
X0245964Y0177918D01*
X0245785Y0177756D01*
X0245610Y0177589D01*
X0245439Y0177418D01*
X0245272Y0177243D01*
X0245110Y0177064D01*
X0244952Y0176881D01*
X0244798Y0176695D01*
X0244649Y0176505D01*
X0244505Y0176311D01*
X0244365Y0176114D01*
X0244230Y0175913D01*
X0244100Y0175709D01*
X0243975Y0175503D01*
X0243855Y0175293D01*
X0243740Y0175080D01*
X0243631Y0174865D01*
X0243526Y0174647D01*
X0243427Y0174427D01*
X0243333Y0174204D01*
X0243245Y0173979D01*
X0243162Y0173752D01*
X0243084Y0173523D01*
X0243013Y0173292D01*
X0242946Y0173060D01*
X0242886Y0172826D01*
X0242831Y0172591D01*
X0242781Y0172354D01*
X0242738Y0172117D01*
X0242700Y0171878D01*
X0242668Y0171638D01*
X0242642Y0171398D01*
X0242621Y0171157D01*
X0242607Y0170916D01*
X0242598Y0170675D01*
X0242595Y0170433D01*
X0323550Y0090436D02*
X0324301Y0091187D01*
X0325802Y0091187D01*
X0326553Y0090436D01*
X0323550Y0090436D02*
X0323550Y0089686D01*
X0326553Y0086683D01*
X0323550Y0086683D01*
X0144127Y0086187D02*
X0144127Y0081683D01*
X0141876Y0081683D01*
X0141125Y0082434D01*
X0141125Y0083184D01*
X0141876Y0083935D01*
X0144127Y0083935D01*
X0141876Y0083935D02*
X0141125Y0084686D01*
X0141125Y0085436D01*
X0141876Y0086187D01*
X0144127Y0086187D01*
X0136553Y0086683D02*
X0133550Y0089686D01*
X0133550Y0090436D01*
X0134301Y0091187D01*
X0135802Y0091187D01*
X0136553Y0090436D01*
X0136553Y0086683D02*
X0133550Y0086683D01*
X0131949Y0087434D02*
X0128947Y0090436D01*
X0128947Y0087434D01*
X0129697Y0086683D01*
X0131198Y0086683D01*
X0131949Y0087434D01*
X0131949Y0090436D01*
X0131198Y0091187D01*
X0129697Y0091187D01*
X0128947Y0090436D01*
X0129697Y0096683D02*
X0128947Y0097434D01*
X0128947Y0100436D01*
X0129697Y0101187D01*
X0131198Y0101187D01*
X0131949Y0100436D01*
X0131949Y0099686D01*
X0131198Y0098935D01*
X0128947Y0098935D01*
X0129697Y0096683D02*
X0131198Y0096683D01*
X0131949Y0097434D01*
X0133550Y0096683D02*
X0136553Y0096683D01*
X0135052Y0096683D02*
X0135052Y0101187D01*
X0136553Y0099686D01*
X0136553Y0106683D02*
X0133550Y0106683D01*
X0135052Y0106683D02*
X0135052Y0111187D01*
X0136553Y0109686D01*
X0131949Y0109686D02*
X0131198Y0108935D01*
X0129697Y0108935D01*
X0128947Y0108184D01*
X0128947Y0107434D01*
X0129697Y0106683D01*
X0131198Y0106683D01*
X0131949Y0107434D01*
X0131949Y0108184D01*
X0131198Y0108935D01*
X0131949Y0109686D02*
X0131949Y0110436D01*
X0131198Y0111187D01*
X0129697Y0111187D01*
X0128947Y0110436D01*
X0128947Y0109686D01*
X0129697Y0108935D01*
X0131949Y0116683D02*
X0131949Y0117434D01*
X0128947Y0120436D01*
X0128947Y0121187D01*
X0131949Y0121187D01*
X0135052Y0121187D02*
X0136553Y0119686D01*
X0135052Y0121187D02*
X0135052Y0116683D01*
X0136553Y0116683D02*
X0133550Y0116683D01*
X0133550Y0126683D02*
X0136553Y0126683D01*
X0135052Y0126683D02*
X0135052Y0131187D01*
X0136553Y0129686D01*
X0131949Y0128935D02*
X0131949Y0127434D01*
X0131198Y0126683D01*
X0129697Y0126683D01*
X0128947Y0127434D01*
X0128947Y0128184D01*
X0129697Y0128935D01*
X0131949Y0128935D01*
X0130448Y0130436D01*
X0128947Y0131187D01*
X0129697Y0136683D02*
X0131198Y0136683D01*
X0131949Y0137434D01*
X0131949Y0138935D02*
X0130448Y0139686D01*
X0129697Y0139686D01*
X0128947Y0138935D01*
X0128947Y0137434D01*
X0129697Y0136683D01*
X0131949Y0138935D02*
X0131949Y0141187D01*
X0128947Y0141187D01*
X0129697Y0146683D02*
X0129697Y0151187D01*
X0131949Y0148935D01*
X0128947Y0148935D01*
X0133550Y0146683D02*
X0136553Y0146683D01*
X0135052Y0146683D02*
X0135052Y0151187D01*
X0136553Y0149686D01*
X0136553Y0156683D02*
X0133550Y0156683D01*
X0135052Y0156683D02*
X0135052Y0161187D01*
X0136553Y0159686D01*
X0131949Y0160436D02*
X0131198Y0161187D01*
X0129697Y0161187D01*
X0128947Y0160436D01*
X0128947Y0159686D01*
X0129697Y0158935D01*
X0128947Y0158184D01*
X0128947Y0157434D01*
X0129697Y0156683D01*
X0131198Y0156683D01*
X0131949Y0157434D01*
X0130448Y0158935D02*
X0129697Y0158935D01*
X0128947Y0166683D02*
X0131949Y0166683D01*
X0128947Y0169686D01*
X0128947Y0170436D01*
X0129697Y0171187D01*
X0131198Y0171187D01*
X0131949Y0170436D01*
X0135052Y0171187D02*
X0135052Y0166683D01*
X0136553Y0166683D02*
X0133550Y0166683D01*
X0136553Y0169686D02*
X0135052Y0171187D01*
X0135052Y0176683D02*
X0135052Y0181187D01*
X0136553Y0179686D01*
X0136553Y0176683D02*
X0133550Y0176683D01*
X0131949Y0176683D02*
X0128947Y0176683D01*
X0130448Y0176683D02*
X0130448Y0181187D01*
X0131949Y0179686D01*
X0131198Y0186683D02*
X0129697Y0186683D01*
X0128947Y0187434D01*
X0128947Y0190436D01*
X0131949Y0187434D01*
X0131198Y0186683D01*
X0131949Y0187434D02*
X0131949Y0190436D01*
X0131198Y0191187D01*
X0129697Y0191187D01*
X0128947Y0190436D01*
X0133550Y0186683D02*
X0136553Y0186683D01*
X0135052Y0186683D02*
X0135052Y0191187D01*
X0136553Y0189686D01*
X0131198Y0196683D02*
X0129697Y0196683D01*
X0128947Y0197434D01*
X0128947Y0200436D01*
X0129697Y0201187D01*
X0131198Y0201187D01*
X0131949Y0200436D01*
X0131949Y0199686D01*
X0131198Y0198935D01*
X0128947Y0198935D01*
X0131198Y0196683D02*
X0131949Y0197434D01*
X0131198Y0206683D02*
X0129697Y0206683D01*
X0128947Y0207434D01*
X0128947Y0208184D01*
X0129697Y0208935D01*
X0131198Y0208935D01*
X0131949Y0209686D01*
X0131949Y0210436D01*
X0131198Y0211187D01*
X0129697Y0211187D01*
X0128947Y0210436D01*
X0128947Y0209686D01*
X0129697Y0208935D01*
X0131198Y0208935D02*
X0131949Y0208184D01*
X0131949Y0207434D01*
X0131198Y0206683D01*
X0131949Y0216683D02*
X0131949Y0217434D01*
X0128947Y0220436D01*
X0128947Y0221187D01*
X0131949Y0221187D01*
X0131198Y0226683D02*
X0129697Y0226683D01*
X0128947Y0227434D01*
X0128947Y0228184D01*
X0129697Y0228935D01*
X0131949Y0228935D01*
X0131949Y0227434D01*
X0131198Y0226683D01*
X0131949Y0228935D02*
X0130448Y0230436D01*
X0128947Y0231187D01*
X0129697Y0236683D02*
X0131198Y0236683D01*
X0131949Y0237434D01*
X0131949Y0238935D02*
X0130448Y0239686D01*
X0129697Y0239686D01*
X0128947Y0238935D01*
X0128947Y0237434D01*
X0129697Y0236683D01*
X0131949Y0238935D02*
X0131949Y0241187D01*
X0128947Y0241187D01*
X0129697Y0246683D02*
X0129697Y0251187D01*
X0131949Y0248935D01*
X0128947Y0248935D01*
X0129697Y0256683D02*
X0131198Y0256683D01*
X0131949Y0257434D01*
X0130448Y0258935D02*
X0129697Y0258935D01*
X0128947Y0258184D01*
X0128947Y0257434D01*
X0129697Y0256683D01*
X0129697Y0258935D02*
X0128947Y0259686D01*
X0128947Y0260436D01*
X0129697Y0261187D01*
X0131198Y0261187D01*
X0131949Y0260436D01*
X0131949Y0266683D02*
X0128947Y0266683D01*
X0131949Y0266683D02*
X0128947Y0269686D01*
X0128947Y0270436D01*
X0129697Y0271187D01*
X0131198Y0271187D01*
X0131949Y0270436D01*
X0131949Y0276683D02*
X0128947Y0276683D01*
X0130448Y0276683D02*
X0130448Y0281187D01*
X0131949Y0279686D01*
X0127595Y0283933D02*
X0127595Y0083933D01*
X0117595Y0083933D01*
X0117595Y0283933D01*
X0127595Y0283933D01*
X0135052Y0141187D02*
X0135052Y0136683D01*
X0136553Y0136683D02*
X0133550Y0136683D01*
X0136553Y0139686D02*
X0135052Y0141187D01*
D11*
X0178895Y0139837D02*
X0179629Y0139837D01*
X0182565Y0142773D01*
X0183299Y0142773D01*
X0183299Y0139837D01*
X0182565Y0138169D02*
X0183299Y0137435D01*
X0183299Y0135967D01*
X0182565Y0135233D01*
X0179629Y0135233D01*
X0178895Y0135967D01*
X0178895Y0137435D01*
X0179629Y0138169D01*
X0200395Y0137805D02*
X0204799Y0137805D01*
X0203331Y0136337D01*
X0204065Y0134669D02*
X0204799Y0133935D01*
X0204799Y0132467D01*
X0204065Y0131733D01*
X0201129Y0131733D01*
X0200395Y0132467D01*
X0200395Y0133935D01*
X0201129Y0134669D01*
X0200395Y0136337D02*
X0200395Y0139273D01*
X0202597Y0140941D02*
X0202597Y0143877D01*
X0200395Y0143143D02*
X0204799Y0143143D01*
X0202597Y0140941D01*
X0221895Y0131643D02*
X0222629Y0132377D01*
X0223363Y0132377D01*
X0224097Y0131643D01*
X0224097Y0129441D01*
X0222629Y0129441D01*
X0221895Y0130175D01*
X0221895Y0131643D01*
X0224097Y0129441D02*
X0225565Y0130909D01*
X0226299Y0132377D01*
X0226299Y0126305D02*
X0221895Y0126305D01*
X0221895Y0124837D02*
X0221895Y0127773D01*
X0224831Y0124837D02*
X0226299Y0126305D01*
X0225565Y0123169D02*
X0226299Y0122435D01*
X0226299Y0120967D01*
X0225565Y0120233D01*
X0222629Y0120233D01*
X0221895Y0120967D01*
X0221895Y0122435D01*
X0222629Y0123169D01*
X0231989Y0146233D02*
X0233457Y0146233D01*
X0234191Y0146967D01*
X0234191Y0147701D01*
X0233457Y0148435D01*
X0231989Y0148435D01*
X0231255Y0147701D01*
X0231255Y0146967D01*
X0231989Y0146233D01*
X0231989Y0148435D02*
X0231255Y0149169D01*
X0231255Y0149903D01*
X0231989Y0150637D01*
X0233457Y0150637D01*
X0234191Y0149903D01*
X0234191Y0149169D01*
X0233457Y0148435D01*
X0235859Y0149903D02*
X0236593Y0150637D01*
X0238061Y0150637D01*
X0238795Y0149903D01*
X0238795Y0146967D01*
X0238061Y0146233D01*
X0236593Y0146233D01*
X0235859Y0146967D01*
X0221561Y0162733D02*
X0220093Y0162733D01*
X0219359Y0163467D01*
X0217691Y0163467D02*
X0216957Y0162733D01*
X0215489Y0162733D01*
X0214755Y0163467D01*
X0214755Y0166403D01*
X0215489Y0167137D01*
X0216957Y0167137D01*
X0217691Y0166403D01*
X0217691Y0165669D01*
X0216957Y0164935D01*
X0214755Y0164935D01*
X0219359Y0166403D02*
X0220093Y0167137D01*
X0221561Y0167137D01*
X0222295Y0166403D01*
X0222295Y0163467D01*
X0221561Y0162733D01*
X0203799Y0172467D02*
X0203065Y0171733D01*
X0200129Y0171733D01*
X0199395Y0172467D01*
X0199395Y0173935D01*
X0200129Y0174669D01*
X0200129Y0176337D02*
X0199395Y0177071D01*
X0199395Y0178539D01*
X0200129Y0179273D01*
X0200863Y0179273D01*
X0201597Y0178539D01*
X0201597Y0176337D01*
X0200129Y0176337D01*
X0201597Y0176337D02*
X0203065Y0177805D01*
X0203799Y0179273D01*
X0203065Y0174669D02*
X0203799Y0173935D01*
X0203799Y0172467D01*
X0216651Y0183967D02*
X0217385Y0183233D01*
X0218853Y0183233D01*
X0219587Y0183967D01*
X0216651Y0186903D01*
X0216651Y0183967D01*
X0216651Y0186903D02*
X0217385Y0187637D01*
X0218853Y0187637D01*
X0219587Y0186903D01*
X0219587Y0183967D01*
X0221255Y0183233D02*
X0224191Y0183233D01*
X0222723Y0183233D02*
X0222723Y0187637D01*
X0224191Y0186169D01*
X0225859Y0186903D02*
X0226593Y0187637D01*
X0228061Y0187637D01*
X0228795Y0186903D01*
X0228795Y0183967D01*
X0228061Y0183233D01*
X0226593Y0183233D01*
X0225859Y0183967D01*
X0215799Y0191467D02*
X0215799Y0192935D01*
X0215065Y0193669D01*
X0214331Y0195337D02*
X0215799Y0196805D01*
X0211395Y0196805D01*
X0211395Y0195337D02*
X0211395Y0198273D01*
X0212129Y0199941D02*
X0211395Y0200675D01*
X0211395Y0202143D01*
X0212129Y0202877D01*
X0212863Y0202877D01*
X0213597Y0202143D01*
X0213597Y0201409D01*
X0213597Y0202143D02*
X0214331Y0202877D01*
X0215065Y0202877D01*
X0215799Y0202143D01*
X0215799Y0200675D01*
X0215065Y0199941D01*
X0212129Y0193669D02*
X0211395Y0192935D01*
X0211395Y0191467D01*
X0212129Y0190733D01*
X0215065Y0190733D01*
X0215799Y0191467D01*
X0263895Y0152273D02*
X0263895Y0149337D01*
X0263895Y0150805D02*
X0268299Y0150805D01*
X0266831Y0149337D01*
X0268299Y0147669D02*
X0263895Y0144733D01*
X0263895Y0147669D02*
X0268299Y0144733D01*
X0218827Y0087637D02*
X0217359Y0087637D01*
X0218093Y0087637D02*
X0218093Y0083967D01*
X0218827Y0083233D01*
X0219561Y0083233D01*
X0220295Y0083967D01*
X0215691Y0083233D02*
X0212755Y0086169D01*
X0212755Y0086903D01*
X0213489Y0087637D01*
X0214957Y0087637D01*
X0215691Y0086903D01*
X0215691Y0083233D02*
X0212755Y0083233D01*
X0194799Y0249733D02*
X0190395Y0249733D01*
X0191863Y0249733D02*
X0191863Y0251935D01*
X0192597Y0252669D01*
X0194065Y0252669D01*
X0194799Y0251935D01*
X0194799Y0249733D01*
X0191863Y0251201D02*
X0190395Y0252669D01*
X0190395Y0254337D02*
X0190395Y0257273D01*
X0190395Y0255805D02*
X0194799Y0255805D01*
X0193331Y0254337D01*
X0192597Y0258941D02*
X0192597Y0261877D01*
X0190395Y0261143D02*
X0194799Y0261143D01*
X0192597Y0258941D01*
X0184299Y0259675D02*
X0184299Y0261143D01*
X0183565Y0261877D01*
X0180629Y0258941D01*
X0179895Y0259675D01*
X0179895Y0261143D01*
X0180629Y0261877D01*
X0183565Y0261877D01*
X0184299Y0259675D02*
X0183565Y0258941D01*
X0180629Y0258941D01*
X0179895Y0257273D02*
X0179895Y0254337D01*
X0182831Y0257273D01*
X0183565Y0257273D01*
X0184299Y0256539D01*
X0184299Y0255071D01*
X0183565Y0254337D01*
X0183565Y0252669D02*
X0184299Y0251935D01*
X0184299Y0250467D01*
X0183565Y0249733D01*
X0180629Y0249733D01*
X0179895Y0250467D01*
X0179895Y0251935D01*
X0180629Y0252669D01*
X0226395Y0252435D02*
X0226395Y0250967D01*
X0227129Y0250233D01*
X0230065Y0250233D01*
X0230799Y0250967D01*
X0230799Y0252435D01*
X0230065Y0253169D01*
X0229331Y0254837D02*
X0230799Y0256305D01*
X0226395Y0256305D01*
X0226395Y0254837D02*
X0226395Y0257773D01*
X0227129Y0259441D02*
X0227863Y0259441D01*
X0228597Y0260175D01*
X0228597Y0261643D01*
X0227863Y0262377D01*
X0227129Y0262377D01*
X0226395Y0261643D01*
X0226395Y0260175D01*
X0227129Y0259441D01*
X0228597Y0260175D02*
X0229331Y0259441D01*
X0230065Y0259441D01*
X0230799Y0260175D01*
X0230799Y0261643D01*
X0230065Y0262377D01*
X0229331Y0262377D01*
X0228597Y0261643D01*
X0227129Y0253169D02*
X0226395Y0252435D01*
X0237395Y0252435D02*
X0237395Y0250967D01*
X0238129Y0250233D01*
X0241065Y0250233D01*
X0241799Y0250967D01*
X0241799Y0252435D01*
X0241065Y0253169D01*
X0240331Y0254837D02*
X0241799Y0256305D01*
X0237395Y0256305D01*
X0237395Y0254837D02*
X0237395Y0257773D01*
X0237395Y0259441D02*
X0238129Y0259441D01*
X0241065Y0262377D01*
X0241799Y0262377D01*
X0241799Y0259441D01*
X0244895Y0259675D02*
X0244895Y0261143D01*
X0245629Y0261877D01*
X0248565Y0261877D01*
X0249299Y0261143D01*
X0249299Y0259675D01*
X0248565Y0258941D01*
X0247831Y0258941D01*
X0247097Y0259675D01*
X0247097Y0261877D01*
X0244895Y0259675D02*
X0245629Y0258941D01*
X0244895Y0257273D02*
X0244895Y0254337D01*
X0244895Y0255805D02*
X0249299Y0255805D01*
X0247831Y0254337D01*
X0248565Y0252669D02*
X0249299Y0251935D01*
X0249299Y0250467D01*
X0248565Y0249733D01*
X0245629Y0249733D01*
X0244895Y0250467D01*
X0244895Y0251935D01*
X0245629Y0252669D01*
X0252895Y0251935D02*
X0253629Y0252669D01*
X0252895Y0251935D02*
X0252895Y0250467D01*
X0253629Y0249733D01*
X0256565Y0249733D01*
X0257299Y0250467D01*
X0257299Y0251935D01*
X0256565Y0252669D01*
X0256565Y0254337D02*
X0257299Y0255071D01*
X0257299Y0256539D01*
X0256565Y0257273D01*
X0255831Y0257273D01*
X0252895Y0254337D01*
X0252895Y0257273D01*
X0252895Y0258941D02*
X0252895Y0261877D01*
X0252895Y0260409D02*
X0257299Y0260409D01*
X0255831Y0258941D01*
X0238129Y0253169D02*
X0237395Y0252435D01*
X0309755Y0287467D02*
X0310489Y0286733D01*
X0311957Y0286733D01*
X0312691Y0287467D01*
X0311223Y0288935D02*
X0310489Y0288935D01*
X0309755Y0288201D01*
X0309755Y0287467D01*
X0310489Y0288935D02*
X0309755Y0289669D01*
X0309755Y0290403D01*
X0310489Y0291137D01*
X0311957Y0291137D01*
X0312691Y0290403D01*
X0314359Y0291137D02*
X0315827Y0291137D01*
X0315093Y0291137D02*
X0315093Y0287467D01*
X0315827Y0286733D01*
X0316561Y0286733D01*
X0317295Y0287467D01*
X0127295Y0287467D02*
X0126561Y0286733D01*
X0125827Y0286733D01*
X0125093Y0287467D01*
X0125093Y0291137D01*
X0125827Y0291137D02*
X0124359Y0291137D01*
X0122691Y0289669D02*
X0121223Y0291137D01*
X0121223Y0286733D01*
X0122691Y0286733D02*
X0119755Y0286733D01*
D12*
X0136495Y0288183D03*
X0144495Y0288183D03*
X0144595Y0280783D03*
X0144495Y0277983D03*
X0136495Y0274683D03*
X0136495Y0267283D03*
X0144195Y0267183D03*
X0144295Y0267183D03*
X0153295Y0276783D03*
X0167795Y0271183D03*
X0168195Y0271883D03*
X0170795Y0271883D03*
X0176595Y0271583D03*
X0179295Y0271483D03*
X0154895Y0246083D03*
X0148795Y0240483D03*
X0148695Y0240483D03*
X0147595Y0238383D03*
X0154895Y0230583D03*
X0144295Y0216483D03*
X0144195Y0216483D03*
X0144095Y0216483D03*
X0143995Y0216483D03*
X0144495Y0212983D03*
X0132595Y0209583D03*
X0138695Y0196183D03*
X0142295Y0196183D03*
X0142395Y0196183D03*
X0143695Y0199283D03*
X0143795Y0199283D03*
X0143895Y0199283D03*
X0143995Y0199283D03*
X0170795Y0206583D03*
X0144395Y0250583D03*
D13*
X0144795Y0254333D03*
X0154795Y0246033D03*
X0148195Y0240233D03*
X0148295Y0236533D03*
X0154795Y0230533D03*
X0132595Y0216533D03*
X0144795Y0202933D03*
X0144695Y0199233D03*
X0136295Y0199333D03*
X0153895Y0199233D03*
X0153995Y0199133D03*
X0154095Y0199033D03*
X0155895Y0198933D03*
X0155995Y0199033D03*
X0156195Y0199133D03*
X0156195Y0201333D03*
X0156095Y0201433D03*
X0161895Y0203633D03*
X0161895Y0205833D03*
X0161995Y0205933D03*
X0162095Y0206033D03*
X0163895Y0206033D03*
X0163995Y0205933D03*
X0164095Y0203633D03*
X0168495Y0204733D03*
X0168595Y0204533D03*
X0170395Y0204533D03*
X0170495Y0204733D03*
X0171295Y0205833D03*
X0170595Y0206933D03*
X0168395Y0206933D03*
X0167895Y0207333D03*
X0167795Y0207433D03*
X0167695Y0207533D03*
X0167595Y0207633D03*
X0167495Y0207733D03*
X0167395Y0207833D03*
X0167295Y0207933D03*
X0167195Y0208033D03*
X0166495Y0208833D03*
X0166395Y0208933D03*
X0166295Y0209033D03*
X0166195Y0209133D03*
X0166095Y0209233D03*
X0165995Y0209333D03*
X0176795Y0207233D03*
X0177195Y0207533D03*
X0178695Y0207533D03*
X0178995Y0207333D03*
X0179095Y0207233D03*
X0179095Y0205133D03*
X0178695Y0204833D03*
X0176795Y0205133D03*
X0166595Y0268333D03*
X0166695Y0268433D03*
X0166795Y0268533D03*
X0166895Y0268633D03*
X0166995Y0268733D03*
X0167095Y0268833D03*
X0167295Y0269033D03*
X0167395Y0269133D03*
X0167495Y0269233D03*
X0167595Y0269333D03*
X0167695Y0269433D03*
X0168595Y0269833D03*
X0168495Y0270033D03*
X0170395Y0269833D03*
X0170495Y0270033D03*
X0171295Y0271133D03*
X0170595Y0272233D03*
X0168395Y0272233D03*
X0163995Y0271033D03*
X0163895Y0270933D03*
X0162095Y0270933D03*
X0161995Y0271033D03*
X0161895Y0271133D03*
X0161895Y0273333D03*
X0161995Y0273433D03*
X0162095Y0273533D03*
X0163895Y0273533D03*
X0163995Y0273433D03*
X0155895Y0275433D03*
X0154195Y0275433D03*
X0154095Y0275533D03*
X0153995Y0275633D03*
X0153995Y0277933D03*
X0156095Y0277933D03*
X0148395Y0277933D03*
X0147295Y0277933D03*
X0136295Y0277933D03*
X0176195Y0270833D03*
X0176895Y0269633D03*
X0176995Y0269533D03*
X0177195Y0269433D03*
X0178695Y0269433D03*
X0178995Y0272033D03*
X0178895Y0272133D03*
X0178695Y0272233D03*
X0176995Y0272133D03*
X0176895Y0272033D03*
D14*
X0171095Y0271183D03*
X0167895Y0271183D03*
X0156695Y0276783D03*
X0143995Y0281083D03*
X0143895Y0287883D03*
X0143995Y0287983D03*
X0137095Y0287883D03*
X0136995Y0287983D03*
X0136995Y0281083D03*
X0142895Y0273683D03*
X0142995Y0273583D03*
X0141995Y0267483D03*
X0141895Y0267483D03*
X0142895Y0263283D03*
X0142995Y0263183D03*
X0138095Y0263283D03*
X0137995Y0257883D03*
X0138095Y0257783D03*
X0142895Y0257783D03*
X0141995Y0250883D03*
X0138095Y0245083D03*
X0138195Y0244983D03*
X0138095Y0239883D03*
X0142895Y0239883D03*
X0142995Y0239783D03*
X0142895Y0234383D03*
X0142795Y0234283D03*
X0142695Y0234183D03*
X0138095Y0234383D03*
X0137995Y0234483D03*
X0138095Y0228283D03*
X0138195Y0228183D03*
X0138995Y0216783D03*
X0141995Y0216783D03*
X0142095Y0216783D03*
X0139095Y0212783D03*
X0138995Y0212783D03*
X0134495Y0212083D03*
X0134395Y0211983D03*
X0132695Y0209683D03*
X0137995Y0206583D03*
X0138095Y0206483D03*
X0142095Y0199583D03*
X0142995Y0195983D03*
X0136295Y0193183D03*
X0142895Y0190483D03*
X0142995Y0190583D03*
X0156695Y0200283D03*
X0167895Y0205883D03*
X0171095Y0205883D03*
X0176295Y0206183D03*
X0179595Y0206183D03*
D15*
X0176595Y0206883D03*
X0164295Y0203883D03*
X0161695Y0205583D03*
X0144595Y0212983D03*
X0144495Y0216483D03*
X0132695Y0216583D03*
X0138795Y0196183D03*
X0144795Y0237083D03*
X0148895Y0236383D03*
X0148995Y0236383D03*
X0148495Y0240383D03*
X0148395Y0240383D03*
X0144795Y0260483D03*
X0144495Y0267183D03*
X0136395Y0267283D03*
X0136395Y0274683D03*
X0136395Y0277983D03*
X0136395Y0288183D03*
X0144595Y0288183D03*
X0148295Y0277983D03*
X0153795Y0277683D03*
X0153795Y0275883D03*
X0156395Y0277583D03*
X0161695Y0273083D03*
X0164295Y0273083D03*
X0164295Y0271383D03*
X0176595Y0270083D03*
D16*
X0176395Y0270833D03*
X0179495Y0270833D03*
X0161495Y0272233D03*
X0144695Y0260433D03*
X0137695Y0262833D03*
X0142395Y0267633D03*
X0142495Y0267633D03*
X0140595Y0284533D03*
X0140395Y0284533D03*
X0142495Y0251033D03*
X0137795Y0239533D03*
X0137695Y0239433D03*
X0137595Y0234933D03*
X0137695Y0234833D03*
X0143295Y0234933D03*
X0144695Y0237033D03*
X0155195Y0230533D03*
X0143295Y0222433D03*
X0142495Y0216933D03*
X0142395Y0216933D03*
X0138595Y0216933D03*
X0138495Y0216933D03*
X0138595Y0212633D03*
X0133995Y0211633D03*
X0132795Y0209833D03*
X0137695Y0206933D03*
X0142495Y0199733D03*
X0142595Y0199733D03*
X0144595Y0202533D03*
X0137695Y0190933D03*
X0161495Y0204733D03*
X0155195Y0246133D03*
D17*
X0148295Y0244433D03*
X0148595Y0240433D03*
X0149095Y0236333D03*
X0149195Y0236333D03*
X0149295Y0236333D03*
X0149395Y0236333D03*
X0149495Y0236333D03*
X0149595Y0236333D03*
X0149695Y0236333D03*
X0149795Y0236333D03*
X0149895Y0236333D03*
X0149995Y0236333D03*
X0150095Y0236333D03*
X0150195Y0236333D03*
X0150295Y0236333D03*
X0150395Y0236333D03*
X0150495Y0236333D03*
X0150595Y0236333D03*
X0150695Y0236333D03*
X0150795Y0236333D03*
X0150895Y0236333D03*
X0150995Y0236333D03*
X0151095Y0236333D03*
X0151195Y0236333D03*
X0151295Y0236333D03*
X0151395Y0236333D03*
X0151495Y0236333D03*
X0151595Y0236333D03*
X0151695Y0236333D03*
X0151795Y0236333D03*
X0151895Y0236333D03*
X0151995Y0236333D03*
X0152095Y0236333D03*
X0152195Y0236333D03*
X0152295Y0236333D03*
X0152395Y0236333D03*
X0152495Y0236333D03*
X0152595Y0236333D03*
X0152695Y0236333D03*
X0152795Y0236333D03*
X0152895Y0236333D03*
X0152995Y0236333D03*
X0153095Y0236333D03*
X0153195Y0236333D03*
X0153295Y0236333D03*
X0153395Y0236333D03*
X0153495Y0236333D03*
X0153595Y0236333D03*
X0153695Y0236333D03*
X0153795Y0236333D03*
X0153895Y0236333D03*
X0153995Y0236333D03*
X0154095Y0236333D03*
X0154195Y0236333D03*
X0154295Y0236333D03*
X0154395Y0236333D03*
X0154495Y0236333D03*
X0154595Y0236333D03*
X0154695Y0236333D03*
X0154795Y0236333D03*
X0154895Y0236333D03*
X0154995Y0236333D03*
X0155095Y0236333D03*
X0155195Y0236333D03*
X0155295Y0236333D03*
X0155395Y0236333D03*
X0155495Y0236333D03*
X0155595Y0236333D03*
X0155695Y0236333D03*
X0155795Y0236333D03*
X0155895Y0236333D03*
X0155995Y0236333D03*
X0156095Y0236333D03*
X0156195Y0236333D03*
X0156295Y0236333D03*
X0156395Y0236333D03*
X0156495Y0236333D03*
X0156595Y0236333D03*
X0156695Y0236333D03*
X0156795Y0236333D03*
X0156895Y0236333D03*
X0156995Y0236333D03*
X0157095Y0236333D03*
X0157195Y0236333D03*
X0157295Y0236333D03*
X0157395Y0236333D03*
X0157495Y0236333D03*
X0157595Y0236333D03*
X0157695Y0236333D03*
X0157795Y0236333D03*
X0157895Y0236333D03*
X0157995Y0236333D03*
X0158095Y0236333D03*
X0158195Y0236333D03*
X0158295Y0236333D03*
X0158395Y0236333D03*
X0158495Y0236333D03*
X0158595Y0236333D03*
X0158695Y0236333D03*
X0158795Y0236333D03*
X0158895Y0236333D03*
X0158995Y0236333D03*
X0159095Y0236333D03*
X0159195Y0236333D03*
X0159295Y0236333D03*
X0159395Y0236333D03*
X0159495Y0236333D03*
X0159595Y0236333D03*
X0159695Y0236333D03*
X0159795Y0236333D03*
X0159895Y0236333D03*
X0159995Y0236333D03*
X0160095Y0236333D03*
X0160195Y0236333D03*
X0160295Y0236333D03*
X0160395Y0236333D03*
X0160495Y0236333D03*
X0160595Y0236333D03*
X0160695Y0236333D03*
X0160795Y0236333D03*
X0148295Y0227633D03*
X0144395Y0216433D03*
X0144495Y0205633D03*
X0144595Y0205633D03*
X0144395Y0199233D03*
X0144295Y0199233D03*
X0144195Y0199233D03*
X0144095Y0199233D03*
X0136495Y0199333D03*
X0136395Y0199333D03*
X0132795Y0216533D03*
X0161695Y0203933D03*
X0164695Y0204733D03*
X0168195Y0205133D03*
X0170795Y0205133D03*
X0176595Y0205433D03*
X0179295Y0205533D03*
X0179295Y0206833D03*
X0181095Y0238333D03*
X0179295Y0270133D03*
X0170795Y0270433D03*
X0164695Y0272233D03*
X0161695Y0271433D03*
X0148195Y0277933D03*
X0147495Y0277933D03*
X0144595Y0277933D03*
X0136495Y0277933D03*
X0136395Y0280833D03*
X0144395Y0267233D03*
X0144495Y0250633D03*
X0136395Y0250733D03*
D18*
X0142795Y0251183D03*
X0142895Y0251183D03*
X0144495Y0253883D03*
X0137495Y0258483D03*
X0137495Y0262483D03*
X0143395Y0262483D03*
X0142795Y0267783D03*
X0156495Y0276783D03*
X0170895Y0271183D03*
X0155395Y0246183D03*
X0155395Y0230483D03*
X0137495Y0228983D03*
X0137495Y0239083D03*
X0138195Y0217083D03*
X0138195Y0212483D03*
X0133795Y0211283D03*
X0132895Y0209883D03*
X0137495Y0207283D03*
X0142895Y0199883D03*
X0143395Y0195283D03*
X0143395Y0191183D03*
X0137495Y0195283D03*
X0142795Y0217083D03*
X0170895Y0205883D03*
D19*
X0167795Y0205833D03*
X0153295Y0200233D03*
X0144395Y0205633D03*
X0144295Y0205633D03*
X0144195Y0205633D03*
X0144095Y0205633D03*
X0143995Y0205633D03*
X0143895Y0205633D03*
X0143795Y0205633D03*
X0143695Y0205633D03*
X0143595Y0205633D03*
X0143495Y0205633D03*
X0143395Y0205633D03*
X0143295Y0205633D03*
X0143195Y0205633D03*
X0143095Y0205633D03*
X0142995Y0205633D03*
X0142895Y0205633D03*
X0142795Y0205633D03*
X0142695Y0205633D03*
X0142595Y0205633D03*
X0142495Y0205633D03*
X0142395Y0205633D03*
X0142295Y0205633D03*
X0142195Y0205633D03*
X0142095Y0205633D03*
X0141995Y0205633D03*
X0141895Y0205633D03*
X0141795Y0205633D03*
X0141695Y0205633D03*
X0141595Y0205633D03*
X0141495Y0205633D03*
X0141395Y0205633D03*
X0141295Y0205633D03*
X0141195Y0205633D03*
X0141095Y0205633D03*
X0140995Y0205633D03*
X0140895Y0205633D03*
X0140795Y0205633D03*
X0140695Y0205633D03*
X0140595Y0205633D03*
X0140495Y0205633D03*
X0140395Y0205633D03*
X0140295Y0205633D03*
X0140195Y0205633D03*
X0140195Y0199333D03*
X0140095Y0199333D03*
X0139995Y0199333D03*
X0139895Y0199333D03*
X0139795Y0199333D03*
X0139695Y0199333D03*
X0139595Y0199333D03*
X0139495Y0199333D03*
X0139395Y0199333D03*
X0139295Y0199333D03*
X0139195Y0199333D03*
X0139095Y0199333D03*
X0138995Y0199333D03*
X0138895Y0199333D03*
X0138795Y0199333D03*
X0138695Y0199333D03*
X0138595Y0199333D03*
X0138495Y0199333D03*
X0138395Y0199333D03*
X0138295Y0199333D03*
X0138195Y0199333D03*
X0138095Y0199333D03*
X0137995Y0199333D03*
X0137895Y0199333D03*
X0137795Y0199333D03*
X0137695Y0199333D03*
X0137595Y0199333D03*
X0137495Y0199333D03*
X0137395Y0199333D03*
X0137295Y0199333D03*
X0137195Y0199333D03*
X0137095Y0199333D03*
X0136995Y0199333D03*
X0136895Y0199333D03*
X0136795Y0199333D03*
X0136695Y0199333D03*
X0136595Y0199333D03*
X0138495Y0196233D03*
X0138595Y0196233D03*
X0140295Y0199333D03*
X0140395Y0199333D03*
X0140495Y0199333D03*
X0140595Y0199333D03*
X0142495Y0196233D03*
X0140495Y0189533D03*
X0139795Y0189633D03*
X0136295Y0212933D03*
X0136195Y0212933D03*
X0132995Y0216533D03*
X0132895Y0216533D03*
X0143595Y0216533D03*
X0143695Y0216533D03*
X0143795Y0216533D03*
X0143895Y0216533D03*
X0144395Y0212933D03*
X0148095Y0227633D03*
X0148195Y0227633D03*
X0140595Y0227633D03*
X0140495Y0227633D03*
X0140395Y0227633D03*
X0140295Y0227633D03*
X0140195Y0227633D03*
X0140095Y0227633D03*
X0139995Y0227633D03*
X0139895Y0227633D03*
X0139795Y0227633D03*
X0139695Y0227633D03*
X0139595Y0227633D03*
X0139495Y0227633D03*
X0139395Y0227633D03*
X0139895Y0233433D03*
X0141095Y0233433D03*
X0148895Y0240533D03*
X0148995Y0240533D03*
X0148195Y0244433D03*
X0148095Y0244433D03*
X0144295Y0250633D03*
X0144195Y0250633D03*
X0144095Y0250633D03*
X0143995Y0250633D03*
X0143895Y0250633D03*
X0143795Y0250633D03*
X0143695Y0250633D03*
X0143595Y0250633D03*
X0141195Y0256833D03*
X0139895Y0256833D03*
X0136595Y0250733D03*
X0136495Y0250733D03*
X0136595Y0267333D03*
X0143695Y0267233D03*
X0143795Y0267233D03*
X0143895Y0267233D03*
X0143995Y0267233D03*
X0144095Y0267233D03*
X0140895Y0274633D03*
X0140795Y0274633D03*
X0140695Y0274633D03*
X0140595Y0274633D03*
X0140495Y0274633D03*
X0140395Y0274633D03*
X0140295Y0274633D03*
X0140195Y0274633D03*
X0140095Y0274633D03*
X0139995Y0274633D03*
X0139895Y0274633D03*
X0139795Y0274633D03*
X0139695Y0274633D03*
X0139595Y0274633D03*
X0139495Y0274633D03*
X0139395Y0274633D03*
X0139295Y0274633D03*
X0139195Y0274633D03*
X0139095Y0274633D03*
X0138995Y0274633D03*
X0138895Y0274633D03*
X0138795Y0274633D03*
X0138695Y0274633D03*
X0138595Y0274633D03*
X0138495Y0274633D03*
X0138395Y0274633D03*
X0138295Y0274633D03*
X0138195Y0274633D03*
X0138095Y0274633D03*
X0137995Y0274633D03*
X0137895Y0274633D03*
X0137795Y0274633D03*
X0137695Y0274633D03*
X0137595Y0274633D03*
X0137495Y0274633D03*
X0137395Y0274633D03*
X0137295Y0274633D03*
X0137195Y0274633D03*
X0137095Y0274633D03*
X0136995Y0274633D03*
X0136895Y0274633D03*
X0136795Y0274633D03*
X0136695Y0274633D03*
X0136595Y0274633D03*
X0136595Y0277933D03*
X0136695Y0277933D03*
X0136795Y0277933D03*
X0136895Y0277933D03*
X0136995Y0277933D03*
X0137095Y0277933D03*
X0137195Y0277933D03*
X0137295Y0277933D03*
X0137395Y0277933D03*
X0137495Y0277933D03*
X0137595Y0277933D03*
X0137695Y0277933D03*
X0137795Y0277933D03*
X0137895Y0277933D03*
X0137995Y0277933D03*
X0138095Y0277933D03*
X0138195Y0277933D03*
X0138295Y0277933D03*
X0138395Y0277933D03*
X0138495Y0277933D03*
X0138595Y0277933D03*
X0138695Y0277933D03*
X0138795Y0277933D03*
X0138895Y0277933D03*
X0138995Y0277933D03*
X0139095Y0277933D03*
X0139195Y0277933D03*
X0139295Y0277933D03*
X0139395Y0277933D03*
X0139495Y0277933D03*
X0139595Y0277933D03*
X0139695Y0277933D03*
X0139795Y0277933D03*
X0139895Y0277933D03*
X0139995Y0277933D03*
X0140095Y0277933D03*
X0140195Y0277933D03*
X0140295Y0277933D03*
X0140395Y0277933D03*
X0140495Y0277933D03*
X0140595Y0277933D03*
X0140695Y0277933D03*
X0140795Y0277933D03*
X0140895Y0277933D03*
X0140995Y0277933D03*
X0141095Y0277933D03*
X0141195Y0277933D03*
X0141295Y0277933D03*
X0141395Y0277933D03*
X0141495Y0277933D03*
X0141595Y0277933D03*
X0141695Y0277933D03*
X0141795Y0277933D03*
X0141895Y0277933D03*
X0141995Y0277933D03*
X0142095Y0277933D03*
X0142195Y0277933D03*
X0142295Y0277933D03*
X0142395Y0277933D03*
X0142495Y0277933D03*
X0142595Y0277933D03*
X0142695Y0277933D03*
X0142795Y0277933D03*
X0142895Y0277933D03*
X0142995Y0277933D03*
X0143095Y0277933D03*
X0143195Y0277933D03*
X0143295Y0277933D03*
X0143395Y0277933D03*
X0143495Y0277933D03*
X0143595Y0277933D03*
X0143695Y0277933D03*
X0143795Y0277933D03*
X0143895Y0277933D03*
X0143995Y0277933D03*
X0144095Y0277933D03*
X0144195Y0277933D03*
X0144295Y0277933D03*
X0144395Y0277933D03*
X0144495Y0280833D03*
X0147595Y0277933D03*
X0147695Y0277933D03*
X0147795Y0277933D03*
X0147895Y0277933D03*
X0147995Y0277933D03*
X0148095Y0277933D03*
X0136495Y0280833D03*
X0179695Y0270833D03*
D20*
X0153695Y0276783D03*
X0143495Y0272783D03*
X0142995Y0267883D03*
X0143495Y0262283D03*
X0143495Y0258683D03*
X0142995Y0251283D03*
X0136395Y0237083D03*
X0143495Y0221983D03*
X0142895Y0217183D03*
X0138095Y0212383D03*
X0132995Y0209983D03*
X0144395Y0202383D03*
X0136395Y0193183D03*
X0143495Y0191383D03*
X0164095Y0225683D03*
X0164495Y0225583D03*
X0164595Y0225583D03*
X0164895Y0225483D03*
X0164995Y0225483D03*
X0165095Y0225483D03*
X0165195Y0225483D03*
X0165295Y0225483D03*
X0165395Y0225483D03*
X0165495Y0225483D03*
X0165795Y0225383D03*
X0165895Y0225383D03*
X0165995Y0225383D03*
X0166095Y0225383D03*
X0166195Y0225383D03*
X0166295Y0225383D03*
X0166395Y0225383D03*
X0166495Y0225383D03*
X0166595Y0225383D03*
X0166695Y0225383D03*
X0166795Y0225383D03*
X0166895Y0225383D03*
X0166995Y0225383D03*
X0167095Y0225383D03*
X0167195Y0225383D03*
X0168095Y0225483D03*
D21*
X0169795Y0225833D03*
X0170095Y0225933D03*
X0170195Y0225933D03*
X0170295Y0225933D03*
X0162995Y0225933D03*
X0162895Y0225933D03*
X0162695Y0226033D03*
X0162495Y0226133D03*
X0162395Y0226133D03*
X0162195Y0226233D03*
X0143195Y0217333D03*
X0137795Y0212233D03*
X0133695Y0210933D03*
X0133095Y0210033D03*
X0155695Y0246233D03*
X0161695Y0250233D03*
X0161995Y0250333D03*
X0162195Y0250433D03*
X0162295Y0250433D03*
X0162395Y0250533D03*
X0162495Y0250533D03*
X0162595Y0250533D03*
X0162695Y0250633D03*
X0163995Y0250933D03*
X0164095Y0250933D03*
X0168895Y0251033D03*
X0168995Y0251033D03*
X0169295Y0250933D03*
X0169395Y0250933D03*
X0169495Y0250933D03*
X0169595Y0250933D03*
X0170395Y0250733D03*
X0170495Y0250633D03*
X0170595Y0250633D03*
X0170695Y0250633D03*
X0170795Y0250533D03*
X0170895Y0250533D03*
X0171095Y0250433D03*
X0171195Y0250433D03*
X0171395Y0250333D03*
X0168095Y0270933D03*
X0143195Y0268033D03*
X0144295Y0253633D03*
X0140995Y0284533D03*
X0139995Y0284533D03*
D22*
X0136595Y0280883D03*
X0136595Y0288183D03*
X0144395Y0288183D03*
X0144395Y0280883D03*
X0141595Y0274483D03*
X0141495Y0274483D03*
X0141395Y0274483D03*
X0141295Y0274583D03*
X0141195Y0274583D03*
X0141095Y0274583D03*
X0140995Y0274583D03*
X0141795Y0274383D03*
X0140995Y0267283D03*
X0140895Y0267283D03*
X0140795Y0267283D03*
X0140695Y0267283D03*
X0140595Y0267283D03*
X0140495Y0267283D03*
X0140395Y0267283D03*
X0140295Y0267283D03*
X0140195Y0267283D03*
X0140095Y0267283D03*
X0139995Y0267283D03*
X0139895Y0267283D03*
X0139795Y0267283D03*
X0139695Y0267283D03*
X0139595Y0267283D03*
X0139495Y0267283D03*
X0139395Y0267283D03*
X0139295Y0267283D03*
X0139195Y0267283D03*
X0139095Y0267283D03*
X0138995Y0267283D03*
X0138895Y0267283D03*
X0138795Y0267283D03*
X0138695Y0267283D03*
X0138595Y0267283D03*
X0138495Y0267283D03*
X0138395Y0267283D03*
X0138295Y0267283D03*
X0138195Y0267283D03*
X0138095Y0267283D03*
X0137995Y0267283D03*
X0137895Y0267283D03*
X0137795Y0267283D03*
X0137695Y0267283D03*
X0137595Y0267283D03*
X0137495Y0267283D03*
X0137395Y0267283D03*
X0137295Y0267283D03*
X0137195Y0267283D03*
X0137095Y0267283D03*
X0136995Y0267283D03*
X0136895Y0267283D03*
X0136795Y0267283D03*
X0136695Y0267283D03*
X0139695Y0264083D03*
X0140295Y0264183D03*
X0140395Y0264183D03*
X0140495Y0264183D03*
X0140595Y0264183D03*
X0140695Y0264183D03*
X0143595Y0267283D03*
X0141895Y0257083D03*
X0141695Y0256983D03*
X0141595Y0256983D03*
X0141395Y0256883D03*
X0141295Y0256883D03*
X0141095Y0256783D03*
X0140995Y0256783D03*
X0140895Y0256783D03*
X0140795Y0256783D03*
X0140695Y0256783D03*
X0140595Y0256783D03*
X0140495Y0256783D03*
X0140395Y0256783D03*
X0140295Y0256783D03*
X0140195Y0256783D03*
X0140095Y0256783D03*
X0139995Y0256783D03*
X0139795Y0256883D03*
X0139695Y0256883D03*
X0139595Y0256883D03*
X0139495Y0256883D03*
X0139495Y0250683D03*
X0139395Y0250683D03*
X0139295Y0250683D03*
X0139195Y0250683D03*
X0139095Y0250683D03*
X0138995Y0250683D03*
X0138895Y0250683D03*
X0138795Y0250683D03*
X0138695Y0250683D03*
X0138595Y0250683D03*
X0138495Y0250683D03*
X0138395Y0250683D03*
X0138295Y0250683D03*
X0138195Y0250683D03*
X0138095Y0250683D03*
X0137995Y0250683D03*
X0137895Y0250683D03*
X0137795Y0250683D03*
X0137695Y0250683D03*
X0137595Y0250683D03*
X0137495Y0250683D03*
X0137395Y0250683D03*
X0137295Y0250683D03*
X0137195Y0250683D03*
X0137095Y0250683D03*
X0136995Y0250683D03*
X0136895Y0250683D03*
X0136795Y0250683D03*
X0136695Y0250683D03*
X0139595Y0250683D03*
X0139695Y0250683D03*
X0139795Y0250683D03*
X0139895Y0250683D03*
X0139995Y0250683D03*
X0140095Y0250683D03*
X0140195Y0250683D03*
X0140295Y0250683D03*
X0140395Y0250683D03*
X0140495Y0250683D03*
X0140595Y0250683D03*
X0140695Y0250683D03*
X0140795Y0250683D03*
X0140895Y0250683D03*
X0136295Y0247583D03*
X0139095Y0244583D03*
X0139395Y0244483D03*
X0139495Y0244483D03*
X0139595Y0244483D03*
X0139695Y0244483D03*
X0139795Y0244483D03*
X0139895Y0244483D03*
X0139995Y0244483D03*
X0140095Y0244483D03*
X0140195Y0244483D03*
X0140295Y0244483D03*
X0140395Y0244483D03*
X0140495Y0244483D03*
X0140595Y0244483D03*
X0140695Y0244483D03*
X0140695Y0240783D03*
X0140595Y0240783D03*
X0140495Y0240783D03*
X0140395Y0240783D03*
X0140295Y0240783D03*
X0140195Y0240783D03*
X0140795Y0240783D03*
X0141695Y0240583D03*
X0139295Y0240583D03*
X0139395Y0233583D03*
X0139495Y0233483D03*
X0139595Y0233483D03*
X0139695Y0233483D03*
X0139795Y0233483D03*
X0139995Y0233383D03*
X0140095Y0233383D03*
X0140195Y0233383D03*
X0140295Y0233383D03*
X0140395Y0233383D03*
X0140495Y0233383D03*
X0140595Y0233383D03*
X0140695Y0233383D03*
X0140795Y0233383D03*
X0140895Y0233383D03*
X0140995Y0233383D03*
X0141195Y0233483D03*
X0141295Y0233483D03*
X0141395Y0233483D03*
X0141595Y0233583D03*
X0141695Y0233583D03*
X0141895Y0233683D03*
X0136295Y0230783D03*
X0138895Y0227783D03*
X0138995Y0227783D03*
X0139095Y0227683D03*
X0139195Y0227683D03*
X0139295Y0227683D03*
X0140695Y0227583D03*
X0140795Y0227583D03*
X0140895Y0227583D03*
X0140995Y0227583D03*
X0141095Y0227583D03*
X0141195Y0227583D03*
X0141295Y0227583D03*
X0141395Y0227583D03*
X0141495Y0227583D03*
X0141595Y0227583D03*
X0141695Y0227583D03*
X0141795Y0227583D03*
X0141895Y0227583D03*
X0141995Y0227583D03*
X0142095Y0227583D03*
X0142195Y0227583D03*
X0142295Y0227583D03*
X0142395Y0227583D03*
X0142495Y0227583D03*
X0142595Y0227583D03*
X0142695Y0227583D03*
X0142795Y0227583D03*
X0142895Y0227583D03*
X0142995Y0227583D03*
X0143095Y0227583D03*
X0143195Y0227583D03*
X0143295Y0227583D03*
X0143395Y0227583D03*
X0143495Y0227583D03*
X0144895Y0227583D03*
X0144995Y0227583D03*
X0145095Y0227583D03*
X0145195Y0227583D03*
X0145295Y0227583D03*
X0145395Y0227583D03*
X0145495Y0227583D03*
X0145595Y0227583D03*
X0145695Y0227583D03*
X0145795Y0227583D03*
X0145895Y0227583D03*
X0145995Y0227583D03*
X0146095Y0227583D03*
X0146195Y0227583D03*
X0146295Y0227583D03*
X0146395Y0227583D03*
X0146495Y0227583D03*
X0146595Y0227583D03*
X0146695Y0227583D03*
X0146795Y0227583D03*
X0146895Y0227583D03*
X0146995Y0227583D03*
X0147095Y0227583D03*
X0147195Y0227583D03*
X0147295Y0227583D03*
X0147395Y0227583D03*
X0147495Y0227583D03*
X0147595Y0227583D03*
X0147695Y0227583D03*
X0147795Y0227583D03*
X0147895Y0227583D03*
X0147995Y0227583D03*
X0141395Y0223783D03*
X0141295Y0223783D03*
X0141195Y0223883D03*
X0141095Y0223883D03*
X0140995Y0223883D03*
X0140895Y0223883D03*
X0140795Y0223883D03*
X0140695Y0223883D03*
X0140595Y0223883D03*
X0140495Y0223883D03*
X0140395Y0223883D03*
X0140295Y0223883D03*
X0140195Y0223883D03*
X0140095Y0223883D03*
X0139995Y0223883D03*
X0139895Y0223883D03*
X0139795Y0223883D03*
X0139695Y0223783D03*
X0139595Y0223783D03*
X0139495Y0223783D03*
X0139795Y0216583D03*
X0139895Y0216583D03*
X0139995Y0216583D03*
X0140095Y0216583D03*
X0140195Y0216583D03*
X0140295Y0216583D03*
X0140395Y0216583D03*
X0140495Y0216583D03*
X0140595Y0216583D03*
X0140695Y0216583D03*
X0140795Y0216583D03*
X0140895Y0216583D03*
X0140995Y0216583D03*
X0141095Y0216583D03*
X0141195Y0216583D03*
X0141195Y0212983D03*
X0141095Y0212983D03*
X0140995Y0212983D03*
X0140895Y0212983D03*
X0140795Y0212983D03*
X0140695Y0212983D03*
X0140595Y0212983D03*
X0140495Y0212983D03*
X0140395Y0212983D03*
X0140295Y0212983D03*
X0140195Y0212983D03*
X0140095Y0212983D03*
X0139995Y0212983D03*
X0139895Y0212983D03*
X0141295Y0212983D03*
X0141395Y0212983D03*
X0141495Y0212983D03*
X0141595Y0212983D03*
X0141695Y0212983D03*
X0141795Y0212983D03*
X0141895Y0212983D03*
X0141995Y0212983D03*
X0142095Y0212983D03*
X0142195Y0212983D03*
X0142295Y0212983D03*
X0142395Y0212983D03*
X0142495Y0212983D03*
X0142595Y0212983D03*
X0142695Y0212983D03*
X0142795Y0212983D03*
X0142895Y0212983D03*
X0142995Y0212983D03*
X0143095Y0212983D03*
X0143195Y0212983D03*
X0143295Y0212983D03*
X0143395Y0212983D03*
X0143495Y0212983D03*
X0143595Y0212983D03*
X0143695Y0212983D03*
X0143795Y0212983D03*
X0143895Y0212983D03*
X0143995Y0212983D03*
X0144095Y0212983D03*
X0144195Y0212983D03*
X0144295Y0212983D03*
X0137395Y0212983D03*
X0137295Y0212983D03*
X0137195Y0212983D03*
X0137095Y0212983D03*
X0136995Y0212983D03*
X0136895Y0212983D03*
X0136795Y0212983D03*
X0136695Y0212983D03*
X0136595Y0212983D03*
X0136495Y0212983D03*
X0136395Y0212983D03*
X0136095Y0212883D03*
X0135995Y0212883D03*
X0135895Y0212883D03*
X0135695Y0212783D03*
X0135595Y0212783D03*
X0135595Y0216583D03*
X0135495Y0216583D03*
X0135395Y0216583D03*
X0135295Y0216583D03*
X0135195Y0216583D03*
X0135095Y0216583D03*
X0134995Y0216583D03*
X0134895Y0216583D03*
X0134795Y0216583D03*
X0134695Y0216583D03*
X0134595Y0216583D03*
X0134495Y0216583D03*
X0134395Y0216583D03*
X0134295Y0216583D03*
X0134195Y0216583D03*
X0134095Y0216583D03*
X0133995Y0216583D03*
X0133895Y0216583D03*
X0133795Y0216583D03*
X0133695Y0216583D03*
X0133595Y0216583D03*
X0133495Y0216583D03*
X0133395Y0216583D03*
X0133295Y0216583D03*
X0133195Y0216583D03*
X0133095Y0216583D03*
X0135695Y0216583D03*
X0135795Y0216583D03*
X0135895Y0216583D03*
X0135995Y0216583D03*
X0136095Y0216583D03*
X0136195Y0216583D03*
X0136295Y0216583D03*
X0136395Y0216583D03*
X0136495Y0216583D03*
X0136595Y0216583D03*
X0136695Y0216583D03*
X0136795Y0216583D03*
X0136895Y0216583D03*
X0136995Y0216583D03*
X0137095Y0216583D03*
X0137195Y0216583D03*
X0139295Y0205883D03*
X0139395Y0205783D03*
X0139495Y0205783D03*
X0139695Y0205683D03*
X0139795Y0205683D03*
X0139895Y0205683D03*
X0139995Y0205683D03*
X0140095Y0205683D03*
X0140695Y0199383D03*
X0140795Y0199383D03*
X0140895Y0199383D03*
X0140995Y0199383D03*
X0141095Y0199383D03*
X0141195Y0199383D03*
X0142595Y0196183D03*
X0138395Y0196183D03*
X0138895Y0189983D03*
X0139095Y0189883D03*
X0139295Y0189783D03*
X0139495Y0189683D03*
X0139595Y0189683D03*
X0139695Y0189683D03*
X0139895Y0189583D03*
X0139995Y0189583D03*
X0140095Y0189583D03*
X0140195Y0189583D03*
X0140295Y0189583D03*
X0140395Y0189583D03*
X0140595Y0189583D03*
X0140695Y0189583D03*
X0140795Y0189583D03*
X0140895Y0189583D03*
X0140995Y0189583D03*
X0141095Y0189583D03*
X0141195Y0189583D03*
X0141295Y0189683D03*
X0141395Y0189683D03*
X0141695Y0189783D03*
X0168195Y0206683D03*
X0171195Y0205883D03*
X0179695Y0206183D03*
X0160795Y0238383D03*
X0160695Y0238383D03*
X0160595Y0238383D03*
X0160495Y0238383D03*
X0160395Y0238383D03*
X0160295Y0238383D03*
X0160195Y0238383D03*
X0160095Y0238383D03*
X0159995Y0238383D03*
X0159895Y0238383D03*
X0159795Y0238383D03*
X0159695Y0238383D03*
X0159595Y0238383D03*
X0159495Y0238383D03*
X0159395Y0238383D03*
X0159295Y0238383D03*
X0159195Y0238383D03*
X0159095Y0238383D03*
X0158995Y0238383D03*
X0158895Y0238383D03*
X0158795Y0238383D03*
X0158695Y0238383D03*
X0158595Y0238383D03*
X0158495Y0238383D03*
X0158395Y0238383D03*
X0158295Y0238383D03*
X0158195Y0238383D03*
X0158095Y0238383D03*
X0157995Y0238383D03*
X0157895Y0238383D03*
X0157795Y0238383D03*
X0157695Y0238383D03*
X0157595Y0238383D03*
X0157495Y0238383D03*
X0157395Y0238383D03*
X0157295Y0238383D03*
X0157195Y0238383D03*
X0157095Y0238383D03*
X0156995Y0238383D03*
X0156895Y0238383D03*
X0156795Y0238383D03*
X0156695Y0238383D03*
X0156595Y0238383D03*
X0156495Y0238383D03*
X0156395Y0238383D03*
X0156295Y0238383D03*
X0156195Y0238383D03*
X0156095Y0238383D03*
X0155995Y0238383D03*
X0155895Y0238383D03*
X0155795Y0238383D03*
X0155695Y0238383D03*
X0155595Y0238383D03*
X0155495Y0238383D03*
X0155395Y0238383D03*
X0155295Y0238383D03*
X0155195Y0238383D03*
X0155095Y0238383D03*
X0154995Y0238383D03*
X0154895Y0238383D03*
X0154795Y0238383D03*
X0154695Y0238383D03*
X0154595Y0238383D03*
X0154495Y0238383D03*
X0154395Y0238383D03*
X0154295Y0238383D03*
X0154195Y0238383D03*
X0154095Y0238383D03*
X0153995Y0238383D03*
X0153895Y0238383D03*
X0153795Y0238383D03*
X0153695Y0238383D03*
X0153595Y0238383D03*
X0153495Y0238383D03*
X0153395Y0238383D03*
X0153295Y0238383D03*
X0153195Y0238383D03*
X0153095Y0238383D03*
X0152995Y0238383D03*
X0152895Y0238383D03*
X0152795Y0238383D03*
X0152695Y0238383D03*
X0152595Y0238383D03*
X0152495Y0238383D03*
X0152395Y0238383D03*
X0152295Y0238383D03*
X0152195Y0238383D03*
X0152095Y0238383D03*
X0151995Y0238383D03*
X0151895Y0238383D03*
X0151795Y0238383D03*
X0151695Y0238383D03*
X0151595Y0238383D03*
X0151495Y0238383D03*
X0151395Y0238383D03*
X0151295Y0238383D03*
X0151195Y0238383D03*
X0151095Y0238383D03*
X0150995Y0238383D03*
X0150895Y0238383D03*
X0150795Y0238383D03*
X0150695Y0238383D03*
X0150595Y0238383D03*
X0150495Y0238383D03*
X0150395Y0238383D03*
X0150295Y0238383D03*
X0150195Y0238383D03*
X0150095Y0238383D03*
X0149995Y0238383D03*
X0149895Y0238383D03*
X0149795Y0238383D03*
X0149695Y0238383D03*
X0149595Y0238383D03*
X0149495Y0238383D03*
X0149395Y0238383D03*
X0149295Y0238383D03*
X0149195Y0238383D03*
X0149095Y0238383D03*
X0148995Y0238383D03*
X0148895Y0238383D03*
X0148795Y0238383D03*
X0148695Y0238383D03*
X0148595Y0238383D03*
X0148495Y0238383D03*
X0148395Y0238383D03*
X0148295Y0238383D03*
X0148195Y0238383D03*
X0148095Y0238383D03*
X0147995Y0238383D03*
X0147895Y0238383D03*
X0147795Y0238383D03*
X0147695Y0238383D03*
X0149095Y0240583D03*
X0149195Y0240583D03*
X0149295Y0240583D03*
X0149395Y0240583D03*
X0149495Y0240583D03*
X0149595Y0240583D03*
X0149695Y0240583D03*
X0149795Y0240583D03*
X0149895Y0240583D03*
X0149995Y0240583D03*
X0150095Y0240583D03*
X0150195Y0240583D03*
X0150295Y0240583D03*
X0150395Y0240583D03*
X0150495Y0240583D03*
X0150595Y0240583D03*
X0150695Y0240583D03*
X0150795Y0240583D03*
X0150895Y0240583D03*
X0150995Y0240583D03*
X0151095Y0240583D03*
X0151195Y0240583D03*
X0151295Y0240583D03*
X0151395Y0240583D03*
X0151495Y0240583D03*
X0151595Y0240583D03*
X0151695Y0240583D03*
X0151795Y0240583D03*
X0151895Y0240583D03*
X0151995Y0240583D03*
X0152095Y0240583D03*
X0152195Y0240583D03*
X0152295Y0240583D03*
X0152395Y0240583D03*
X0152495Y0240583D03*
X0152595Y0240583D03*
X0152695Y0240583D03*
X0152795Y0240583D03*
X0152895Y0240583D03*
X0152995Y0240583D03*
X0153095Y0240583D03*
X0153195Y0240583D03*
X0153295Y0240583D03*
X0153395Y0240583D03*
X0153495Y0240583D03*
X0153595Y0240583D03*
X0153695Y0240583D03*
X0153795Y0240583D03*
X0153895Y0240583D03*
X0153995Y0240583D03*
X0154095Y0240583D03*
X0154195Y0240583D03*
X0154295Y0240583D03*
X0154395Y0240583D03*
X0154495Y0240583D03*
X0154595Y0240583D03*
X0154695Y0240583D03*
X0154795Y0240583D03*
X0154895Y0240583D03*
X0154995Y0240583D03*
X0155095Y0240583D03*
X0155195Y0240583D03*
X0155295Y0240583D03*
X0155395Y0240583D03*
X0155495Y0240583D03*
X0155595Y0240583D03*
X0155695Y0240583D03*
X0155795Y0240583D03*
X0155895Y0240583D03*
X0155995Y0240583D03*
X0156095Y0240583D03*
X0156195Y0240583D03*
X0156295Y0240583D03*
X0156395Y0240583D03*
X0156495Y0240583D03*
X0156595Y0240583D03*
X0156695Y0240583D03*
X0156795Y0240583D03*
X0156895Y0240583D03*
X0156995Y0240583D03*
X0157095Y0240583D03*
X0157195Y0240583D03*
X0157295Y0240583D03*
X0157395Y0240583D03*
X0157495Y0240583D03*
X0157595Y0240583D03*
X0157695Y0240583D03*
X0157795Y0240583D03*
X0157895Y0240583D03*
X0157995Y0240583D03*
X0158095Y0240583D03*
X0158195Y0240583D03*
X0158295Y0240583D03*
X0158395Y0240583D03*
X0158495Y0240583D03*
X0158595Y0240583D03*
X0158695Y0240583D03*
X0158795Y0240583D03*
X0158895Y0240583D03*
X0158995Y0240583D03*
X0159095Y0240583D03*
X0159195Y0240583D03*
X0159295Y0240583D03*
X0159395Y0240583D03*
X0159495Y0240583D03*
X0159595Y0240583D03*
X0159695Y0240583D03*
X0159795Y0240583D03*
X0159895Y0240583D03*
X0159995Y0240583D03*
X0160095Y0240583D03*
X0160195Y0240583D03*
X0160295Y0240583D03*
X0160395Y0240583D03*
X0160495Y0240583D03*
X0160595Y0240583D03*
X0160695Y0240583D03*
X0160795Y0240583D03*
X0168195Y0270283D03*
X0171195Y0271183D03*
X0156795Y0276783D03*
D23*
X0141095Y0284483D03*
X0139895Y0284483D03*
X0161495Y0250183D03*
X0161595Y0250183D03*
X0161395Y0250083D03*
X0161795Y0250283D03*
X0161895Y0250283D03*
X0162095Y0250383D03*
X0155795Y0246283D03*
X0170995Y0250483D03*
X0171295Y0250383D03*
X0171495Y0250283D03*
X0171595Y0250283D03*
X0171695Y0250183D03*
X0171795Y0250183D03*
X0171895Y0250083D03*
X0171995Y0250083D03*
X0172195Y0249983D03*
X0155695Y0230383D03*
X0160795Y0226783D03*
X0161595Y0226483D03*
X0161695Y0226383D03*
X0161795Y0226383D03*
X0161895Y0226383D03*
X0161995Y0226283D03*
X0162095Y0226283D03*
X0162295Y0226183D03*
X0170395Y0225983D03*
X0170495Y0225983D03*
X0170595Y0226083D03*
X0170695Y0226083D03*
X0170895Y0226183D03*
X0170995Y0226183D03*
X0171195Y0226283D03*
X0144195Y0202183D03*
X0133195Y0210083D03*
X0137695Y0217383D03*
X0136795Y0230283D03*
X0136795Y0247083D03*
D24*
X0136895Y0247033D03*
X0155895Y0246333D03*
X0160795Y0249833D03*
X0160895Y0249833D03*
X0160995Y0249933D03*
X0161095Y0249933D03*
X0161195Y0250033D03*
X0161295Y0250033D03*
X0172095Y0250033D03*
X0172295Y0249933D03*
X0172395Y0249833D03*
X0155795Y0230333D03*
X0160495Y0227033D03*
X0160595Y0226933D03*
X0160695Y0226933D03*
X0160895Y0226733D03*
X0160995Y0226733D03*
X0161095Y0226733D03*
X0161195Y0226633D03*
X0161295Y0226633D03*
X0161395Y0226533D03*
X0161495Y0226533D03*
X0170795Y0226133D03*
X0171095Y0226233D03*
X0171295Y0226333D03*
X0171395Y0226333D03*
X0171495Y0226433D03*
X0171595Y0226433D03*
X0171695Y0226433D03*
X0171795Y0226533D03*
X0171895Y0226533D03*
X0172095Y0226633D03*
X0172295Y0226733D03*
X0172395Y0226733D03*
X0172495Y0226833D03*
X0143295Y0200233D03*
X0136495Y0193233D03*
X0136495Y0209233D03*
X0137695Y0212133D03*
X0133295Y0210233D03*
D25*
X0133395Y0210283D03*
X0137595Y0217483D03*
X0143295Y0217483D03*
X0144495Y0220283D03*
X0136995Y0230083D03*
X0136895Y0230183D03*
X0136495Y0237083D03*
X0136995Y0246983D03*
X0143295Y0251583D03*
X0144195Y0253583D03*
X0136495Y0260483D03*
X0144495Y0270983D03*
X0141195Y0284483D03*
X0139795Y0284483D03*
X0172495Y0249783D03*
X0172595Y0249783D03*
X0155995Y0246383D03*
X0155895Y0230283D03*
X0159995Y0227283D03*
X0160195Y0227183D03*
X0160295Y0227083D03*
X0160395Y0227083D03*
X0171995Y0226583D03*
X0172195Y0226683D03*
X0172595Y0226883D03*
X0172695Y0226983D03*
X0172795Y0226983D03*
X0172895Y0227083D03*
X0172995Y0227083D03*
X0173095Y0227183D03*
X0173295Y0227283D03*
X0144095Y0202083D03*
D26*
X0143895Y0201983D03*
X0133495Y0210383D03*
X0137395Y0229683D03*
X0137295Y0229883D03*
X0137195Y0229983D03*
X0137095Y0229983D03*
X0137395Y0246483D03*
X0137295Y0246683D03*
X0137195Y0246783D03*
X0143395Y0251683D03*
X0143995Y0253383D03*
X0156095Y0246383D03*
X0159495Y0249083D03*
X0159595Y0249183D03*
X0159695Y0249183D03*
X0159795Y0249283D03*
X0159895Y0249283D03*
X0159995Y0249383D03*
X0160095Y0249383D03*
X0160195Y0249483D03*
X0160395Y0249583D03*
X0173095Y0249483D03*
X0173295Y0249383D03*
X0173395Y0249283D03*
X0173795Y0249083D03*
X0173895Y0248983D03*
X0173895Y0227683D03*
X0173795Y0227583D03*
X0173595Y0227483D03*
X0159695Y0227483D03*
X0159495Y0227583D03*
X0159395Y0227683D03*
X0159295Y0227783D03*
X0139695Y0284483D03*
D27*
X0143295Y0268233D03*
X0144495Y0260533D03*
X0144095Y0253533D03*
X0143595Y0253033D03*
X0137095Y0246833D03*
X0144495Y0237133D03*
X0155995Y0230233D03*
X0159595Y0227533D03*
X0159795Y0227433D03*
X0159895Y0227333D03*
X0160095Y0227233D03*
X0173195Y0227233D03*
X0173395Y0227333D03*
X0173495Y0227433D03*
X0173695Y0227533D03*
X0173695Y0249133D03*
X0173595Y0249233D03*
X0173495Y0249233D03*
X0173195Y0249433D03*
X0172995Y0249533D03*
X0172895Y0249633D03*
X0172795Y0249633D03*
X0172695Y0249733D03*
X0160695Y0249733D03*
X0160595Y0249733D03*
X0160495Y0249633D03*
X0160295Y0249533D03*
X0136495Y0220233D03*
X0137595Y0212033D03*
X0133595Y0210633D03*
X0143995Y0202033D03*
X0143395Y0200333D03*
X0144495Y0193233D03*
D28*
X0143295Y0190983D03*
X0143295Y0195483D03*
X0142695Y0199783D03*
X0137595Y0207083D03*
X0138395Y0212583D03*
X0138495Y0212583D03*
X0138395Y0216983D03*
X0142595Y0216983D03*
X0137595Y0222383D03*
X0137695Y0228683D03*
X0143395Y0235083D03*
X0143295Y0239283D03*
X0137695Y0245483D03*
X0136495Y0247383D03*
X0142595Y0251083D03*
X0143295Y0258283D03*
X0143295Y0262683D03*
X0142595Y0267683D03*
X0143295Y0273183D03*
X0153595Y0276783D03*
X0156595Y0276783D03*
X0137595Y0258283D03*
X0133895Y0211483D03*
X0137595Y0195383D03*
X0153595Y0200283D03*
X0156595Y0200283D03*
X0176495Y0206183D03*
X0179395Y0206183D03*
D29*
X0179495Y0206183D03*
X0176395Y0206183D03*
X0170995Y0205883D03*
X0153495Y0200283D03*
X0144695Y0193183D03*
X0142395Y0199683D03*
X0137795Y0195683D03*
X0137695Y0195583D03*
X0134095Y0211783D03*
X0138695Y0212683D03*
X0138695Y0216883D03*
X0142295Y0216883D03*
X0144695Y0220283D03*
X0143195Y0222683D03*
X0137795Y0222683D03*
X0137695Y0222583D03*
X0137795Y0228583D03*
X0137795Y0234683D03*
X0143195Y0234683D03*
X0143195Y0239583D03*
X0137795Y0245383D03*
X0142295Y0250983D03*
X0142395Y0250983D03*
X0144595Y0253983D03*
X0143195Y0258083D03*
X0137795Y0258083D03*
X0137695Y0258183D03*
X0137795Y0262883D03*
X0142195Y0267583D03*
X0142295Y0267583D03*
X0144695Y0270983D03*
X0143195Y0273483D03*
X0143795Y0281183D03*
X0137195Y0281183D03*
X0153495Y0276783D03*
X0170995Y0271183D03*
D30*
X0164595Y0272233D03*
X0161395Y0272233D03*
X0143895Y0281133D03*
X0143695Y0281233D03*
X0143595Y0281333D03*
X0143495Y0281433D03*
X0143395Y0281533D03*
X0143295Y0281633D03*
X0143195Y0281833D03*
X0143095Y0281933D03*
X0142995Y0282033D03*
X0142895Y0282133D03*
X0142795Y0282233D03*
X0142695Y0282333D03*
X0142595Y0282433D03*
X0142495Y0282533D03*
X0142395Y0282633D03*
X0142295Y0282733D03*
X0142195Y0282833D03*
X0142095Y0282933D03*
X0141995Y0283033D03*
X0141895Y0283133D03*
X0141795Y0283133D03*
X0141695Y0283233D03*
X0141595Y0283333D03*
X0141495Y0283433D03*
X0140495Y0284533D03*
X0141495Y0285533D03*
X0141595Y0285633D03*
X0141695Y0285733D03*
X0141795Y0285833D03*
X0141895Y0285933D03*
X0141995Y0286033D03*
X0142095Y0286133D03*
X0142195Y0286233D03*
X0142295Y0286333D03*
X0142395Y0286433D03*
X0142495Y0286533D03*
X0142595Y0286633D03*
X0142695Y0286733D03*
X0142795Y0286833D03*
X0142895Y0286933D03*
X0142995Y0286933D03*
X0143095Y0287033D03*
X0143195Y0287133D03*
X0143295Y0287333D03*
X0143395Y0287433D03*
X0143495Y0287533D03*
X0143595Y0287633D03*
X0143695Y0287733D03*
X0143795Y0287833D03*
X0139395Y0285533D03*
X0139295Y0285733D03*
X0139195Y0285833D03*
X0139095Y0285933D03*
X0138995Y0286033D03*
X0138895Y0286133D03*
X0138795Y0286233D03*
X0138695Y0286333D03*
X0138595Y0286433D03*
X0138495Y0286533D03*
X0138395Y0286633D03*
X0138295Y0286733D03*
X0138195Y0286833D03*
X0138095Y0286933D03*
X0137995Y0286933D03*
X0137895Y0287033D03*
X0137795Y0287133D03*
X0137695Y0287233D03*
X0137595Y0287333D03*
X0137495Y0287433D03*
X0137395Y0287633D03*
X0137295Y0287733D03*
X0137195Y0287833D03*
X0139395Y0283433D03*
X0139295Y0283233D03*
X0139195Y0283133D03*
X0139095Y0283133D03*
X0138995Y0283033D03*
X0138895Y0282933D03*
X0138795Y0282833D03*
X0138695Y0282733D03*
X0138595Y0282633D03*
X0138495Y0282533D03*
X0138395Y0282433D03*
X0138295Y0282333D03*
X0138195Y0282233D03*
X0138095Y0282133D03*
X0137995Y0282033D03*
X0137895Y0281933D03*
X0137795Y0281833D03*
X0137695Y0281733D03*
X0137595Y0281633D03*
X0137495Y0281533D03*
X0137395Y0281333D03*
X0137295Y0281233D03*
X0137095Y0281133D03*
X0143095Y0273533D03*
X0142095Y0267533D03*
X0143095Y0263033D03*
X0143195Y0262933D03*
X0143095Y0257933D03*
X0142995Y0257833D03*
X0137895Y0257933D03*
X0136295Y0260433D03*
X0137895Y0263033D03*
X0137995Y0263133D03*
X0142095Y0250933D03*
X0142195Y0250933D03*
X0136395Y0247433D03*
X0137895Y0245233D03*
X0137995Y0245133D03*
X0137995Y0239733D03*
X0137895Y0239633D03*
X0136295Y0237033D03*
X0137895Y0234533D03*
X0136395Y0230633D03*
X0137895Y0228433D03*
X0137995Y0228333D03*
X0137995Y0222933D03*
X0137895Y0222833D03*
X0136295Y0220233D03*
X0138795Y0216833D03*
X0138895Y0216833D03*
X0142195Y0216833D03*
X0138895Y0212733D03*
X0138795Y0212733D03*
X0134295Y0211933D03*
X0134195Y0211833D03*
X0137795Y0206833D03*
X0137895Y0206733D03*
X0142195Y0199633D03*
X0142295Y0199633D03*
X0143095Y0195833D03*
X0143195Y0195733D03*
X0143195Y0190833D03*
X0143095Y0190733D03*
X0137995Y0190633D03*
X0137895Y0190733D03*
X0137795Y0190833D03*
X0137895Y0195833D03*
X0137995Y0195933D03*
X0161395Y0204733D03*
X0164595Y0204733D03*
X0143095Y0222833D03*
X0142995Y0222933D03*
X0142995Y0234433D03*
X0143095Y0234533D03*
X0143095Y0239633D03*
X0155095Y0246133D03*
X0155095Y0230533D03*
D31*
X0142595Y0234133D03*
X0142495Y0234033D03*
X0138195Y0234233D03*
X0138195Y0239933D03*
X0138295Y0240033D03*
X0138395Y0240133D03*
X0142595Y0240133D03*
X0142695Y0240033D03*
X0142795Y0239933D03*
X0138595Y0244733D03*
X0138395Y0244833D03*
X0141795Y0250833D03*
X0141895Y0250833D03*
X0142495Y0257433D03*
X0142695Y0257533D03*
X0142795Y0257633D03*
X0138495Y0257433D03*
X0138195Y0257633D03*
X0138195Y0263333D03*
X0138295Y0263433D03*
X0138395Y0263533D03*
X0138795Y0263733D03*
X0142195Y0263733D03*
X0142595Y0263533D03*
X0142695Y0263433D03*
X0142795Y0263333D03*
X0141795Y0267433D03*
X0141695Y0267433D03*
X0142695Y0273833D03*
X0142795Y0273833D03*
X0142595Y0273933D03*
X0144095Y0281033D03*
X0144095Y0288033D03*
X0136895Y0288033D03*
X0136895Y0281033D03*
X0176295Y0270833D03*
X0179595Y0270833D03*
X0142695Y0223233D03*
X0142795Y0223133D03*
X0142895Y0223033D03*
X0142495Y0223333D03*
X0142295Y0223433D03*
X0142095Y0223533D03*
X0138695Y0223433D03*
X0138295Y0223233D03*
X0138195Y0223133D03*
X0138095Y0223033D03*
X0139095Y0216733D03*
X0139195Y0216733D03*
X0141795Y0216733D03*
X0141895Y0216733D03*
X0139295Y0212833D03*
X0139195Y0212833D03*
X0136295Y0209233D03*
X0134595Y0212133D03*
X0134695Y0212233D03*
X0138195Y0206433D03*
X0138295Y0206333D03*
X0138395Y0206333D03*
X0138495Y0206233D03*
X0138595Y0206133D03*
X0138695Y0206133D03*
X0141895Y0199533D03*
X0141995Y0199533D03*
X0142895Y0196033D03*
X0138095Y0196033D03*
X0138095Y0190533D03*
X0138195Y0190433D03*
X0138295Y0190333D03*
X0142695Y0190333D03*
X0142795Y0190433D03*
D32*
X0142595Y0190283D03*
X0142495Y0190183D03*
X0142295Y0190083D03*
X0138695Y0190083D03*
X0138495Y0190183D03*
X0138395Y0190283D03*
X0138195Y0196083D03*
X0142795Y0196083D03*
X0141795Y0199483D03*
X0141695Y0199483D03*
X0141595Y0199483D03*
X0138995Y0205983D03*
X0138895Y0205983D03*
X0138795Y0206083D03*
X0139395Y0212883D03*
X0139395Y0216683D03*
X0139295Y0216683D03*
X0141595Y0216683D03*
X0141695Y0216683D03*
X0142595Y0223283D03*
X0142395Y0223383D03*
X0142195Y0223483D03*
X0141995Y0223583D03*
X0141895Y0223683D03*
X0141795Y0223683D03*
X0139195Y0223683D03*
X0138995Y0223583D03*
X0138895Y0223583D03*
X0138795Y0223483D03*
X0138595Y0223383D03*
X0138495Y0223383D03*
X0138395Y0223283D03*
X0138595Y0227883D03*
X0138495Y0227983D03*
X0138395Y0227983D03*
X0138295Y0228083D03*
X0138695Y0233883D03*
X0138595Y0233983D03*
X0138495Y0234083D03*
X0138395Y0234083D03*
X0138295Y0234183D03*
X0142095Y0233783D03*
X0142295Y0233883D03*
X0142395Y0233983D03*
X0142495Y0240183D03*
X0142395Y0240283D03*
X0142295Y0240283D03*
X0142195Y0240383D03*
X0138795Y0240383D03*
X0138695Y0240283D03*
X0138595Y0240283D03*
X0138495Y0240183D03*
X0138695Y0244683D03*
X0138795Y0244683D03*
X0138495Y0244783D03*
X0138295Y0244883D03*
X0141395Y0250783D03*
X0141495Y0250783D03*
X0141595Y0250783D03*
X0141695Y0250783D03*
X0144695Y0254083D03*
X0142595Y0257483D03*
X0142395Y0257383D03*
X0142295Y0257283D03*
X0142095Y0257183D03*
X0138695Y0257283D03*
X0138595Y0257383D03*
X0138395Y0257483D03*
X0138295Y0257583D03*
X0138495Y0263583D03*
X0138595Y0263683D03*
X0138695Y0263683D03*
X0138895Y0263783D03*
X0138995Y0263783D03*
X0139095Y0263883D03*
X0139195Y0263883D03*
X0141595Y0263983D03*
X0141795Y0263883D03*
X0141895Y0263883D03*
X0141995Y0263783D03*
X0142095Y0263783D03*
X0142295Y0263683D03*
X0142395Y0263683D03*
X0142495Y0263583D03*
X0141595Y0267383D03*
X0141495Y0267383D03*
X0141395Y0267383D03*
X0142495Y0273983D03*
X0142395Y0274083D03*
X0142195Y0274183D03*
X0144195Y0280983D03*
X0144195Y0288083D03*
X0136795Y0288083D03*
X0136795Y0280983D03*
X0153395Y0276783D03*
X0154995Y0246083D03*
X0154995Y0230583D03*
X0134895Y0212383D03*
X0134795Y0212283D03*
X0153395Y0200283D03*
D33*
X0156795Y0200233D03*
X0161295Y0204733D03*
X0144695Y0202633D03*
X0141495Y0199433D03*
X0141395Y0199433D03*
X0141295Y0199433D03*
X0142695Y0196133D03*
X0138295Y0196133D03*
X0138595Y0190133D03*
X0138795Y0190033D03*
X0138995Y0189933D03*
X0139195Y0189833D03*
X0139395Y0189733D03*
X0141495Y0189733D03*
X0141595Y0189733D03*
X0141795Y0189833D03*
X0141895Y0189833D03*
X0141995Y0189933D03*
X0142095Y0189933D03*
X0142195Y0190033D03*
X0142395Y0190133D03*
X0139595Y0205733D03*
X0139195Y0205933D03*
X0139095Y0205933D03*
X0139495Y0212933D03*
X0139595Y0212933D03*
X0139695Y0212933D03*
X0139795Y0212933D03*
X0139695Y0216633D03*
X0139595Y0216633D03*
X0139495Y0216633D03*
X0141295Y0216633D03*
X0141395Y0216633D03*
X0141495Y0216633D03*
X0135795Y0212833D03*
X0135495Y0212733D03*
X0135395Y0212633D03*
X0135295Y0212633D03*
X0135195Y0212533D03*
X0135095Y0212533D03*
X0134995Y0212433D03*
X0139095Y0223633D03*
X0139295Y0223733D03*
X0139395Y0223733D03*
X0141495Y0223733D03*
X0141595Y0223733D03*
X0141695Y0223733D03*
X0138795Y0227833D03*
X0138695Y0227833D03*
X0139195Y0233633D03*
X0139295Y0233633D03*
X0139095Y0233733D03*
X0138995Y0233733D03*
X0138895Y0233833D03*
X0138795Y0233833D03*
X0141495Y0233533D03*
X0141795Y0233633D03*
X0141995Y0233733D03*
X0142195Y0233833D03*
X0142095Y0240433D03*
X0141995Y0240433D03*
X0141895Y0240533D03*
X0141795Y0240533D03*
X0141595Y0240633D03*
X0141495Y0240633D03*
X0141395Y0240633D03*
X0141295Y0240633D03*
X0141195Y0240733D03*
X0141095Y0240733D03*
X0140995Y0240733D03*
X0140895Y0240733D03*
X0140095Y0240733D03*
X0139995Y0240733D03*
X0139895Y0240733D03*
X0139795Y0240733D03*
X0139695Y0240733D03*
X0139595Y0240633D03*
X0139495Y0240633D03*
X0139395Y0240633D03*
X0139195Y0240533D03*
X0139095Y0240533D03*
X0138995Y0240433D03*
X0138895Y0240433D03*
X0139195Y0244533D03*
X0139295Y0244533D03*
X0138995Y0244633D03*
X0138895Y0244633D03*
X0140795Y0244433D03*
X0140895Y0244433D03*
X0140995Y0244433D03*
X0141095Y0244433D03*
X0141195Y0244433D03*
X0141295Y0244433D03*
X0141395Y0244433D03*
X0141495Y0244433D03*
X0141595Y0244433D03*
X0141695Y0244433D03*
X0141795Y0244433D03*
X0141895Y0244433D03*
X0141995Y0244433D03*
X0142095Y0244433D03*
X0142195Y0244433D03*
X0142295Y0244433D03*
X0142395Y0244433D03*
X0142495Y0244433D03*
X0142595Y0244433D03*
X0142695Y0244433D03*
X0142795Y0244433D03*
X0142895Y0244433D03*
X0142995Y0244433D03*
X0143095Y0244433D03*
X0143195Y0244433D03*
X0143295Y0244433D03*
X0143395Y0244433D03*
X0143495Y0244433D03*
X0144895Y0244433D03*
X0144995Y0244433D03*
X0145095Y0244433D03*
X0145195Y0244433D03*
X0145295Y0244433D03*
X0145395Y0244433D03*
X0145495Y0244433D03*
X0145595Y0244433D03*
X0145695Y0244433D03*
X0145795Y0244433D03*
X0145895Y0244433D03*
X0145995Y0244433D03*
X0146095Y0244433D03*
X0146195Y0244433D03*
X0146295Y0244433D03*
X0146395Y0244433D03*
X0146495Y0244433D03*
X0146595Y0244433D03*
X0146695Y0244433D03*
X0146795Y0244433D03*
X0146895Y0244433D03*
X0146995Y0244433D03*
X0147095Y0244433D03*
X0147195Y0244433D03*
X0147295Y0244433D03*
X0147395Y0244433D03*
X0147495Y0244433D03*
X0147595Y0244433D03*
X0147695Y0244433D03*
X0147795Y0244433D03*
X0147895Y0244433D03*
X0147995Y0244433D03*
X0141295Y0250733D03*
X0141195Y0250733D03*
X0141095Y0250733D03*
X0140995Y0250733D03*
X0141495Y0256933D03*
X0141795Y0257033D03*
X0141995Y0257133D03*
X0142195Y0257233D03*
X0139395Y0256933D03*
X0139295Y0257033D03*
X0139195Y0257033D03*
X0139095Y0257133D03*
X0138995Y0257133D03*
X0138895Y0257233D03*
X0138795Y0257233D03*
X0139295Y0263933D03*
X0139395Y0264033D03*
X0139495Y0264033D03*
X0139595Y0264033D03*
X0139795Y0264133D03*
X0139895Y0264133D03*
X0139995Y0264133D03*
X0140095Y0264133D03*
X0140195Y0264133D03*
X0140795Y0264133D03*
X0140895Y0264133D03*
X0140995Y0264133D03*
X0141095Y0264133D03*
X0141195Y0264133D03*
X0141295Y0264033D03*
X0141395Y0264033D03*
X0141495Y0264033D03*
X0141695Y0263933D03*
X0141295Y0267333D03*
X0141195Y0267333D03*
X0141095Y0267333D03*
X0142295Y0274133D03*
X0142095Y0274233D03*
X0141995Y0274333D03*
X0141895Y0274333D03*
X0141695Y0274433D03*
X0144295Y0280933D03*
X0144295Y0288133D03*
X0136695Y0288133D03*
X0136695Y0280933D03*
X0161295Y0272233D03*
D34*
X0162295Y0270833D03*
X0162395Y0270833D03*
X0162595Y0270733D03*
X0163395Y0270733D03*
X0163495Y0270733D03*
X0163595Y0270833D03*
X0163695Y0270833D03*
X0163295Y0273833D03*
X0163195Y0273833D03*
X0163095Y0273833D03*
X0162995Y0273833D03*
X0162895Y0273833D03*
X0162795Y0273833D03*
X0162695Y0273833D03*
X0162495Y0273733D03*
X0167695Y0271133D03*
X0168695Y0272533D03*
X0168795Y0272633D03*
X0168895Y0272633D03*
X0169195Y0272733D03*
X0169295Y0272733D03*
X0169695Y0272733D03*
X0169795Y0272733D03*
X0170095Y0272633D03*
X0170195Y0272633D03*
X0170295Y0272533D03*
X0170195Y0269733D03*
X0169995Y0269633D03*
X0169895Y0269633D03*
X0169795Y0269633D03*
X0169595Y0269533D03*
X0169495Y0269533D03*
X0169395Y0269533D03*
X0169195Y0269633D03*
X0169095Y0269633D03*
X0168995Y0269633D03*
X0168795Y0269733D03*
X0168795Y0263333D03*
X0168695Y0263333D03*
X0168895Y0263333D03*
X0168995Y0263333D03*
X0169095Y0263333D03*
X0169195Y0263333D03*
X0169295Y0263333D03*
X0169395Y0263333D03*
X0169495Y0263333D03*
X0169595Y0263333D03*
X0169695Y0263333D03*
X0169795Y0263333D03*
X0169895Y0263333D03*
X0169995Y0263333D03*
X0170095Y0263333D03*
X0170195Y0263333D03*
X0170295Y0263333D03*
X0170395Y0263333D03*
X0170495Y0263333D03*
X0170595Y0263333D03*
X0170695Y0263333D03*
X0170795Y0263333D03*
X0170895Y0263333D03*
X0170995Y0263333D03*
X0171095Y0263333D03*
X0171195Y0263333D03*
X0171295Y0263333D03*
X0171395Y0263333D03*
X0171495Y0263333D03*
X0171595Y0263333D03*
X0171695Y0263333D03*
X0171795Y0263333D03*
X0171895Y0263333D03*
X0171995Y0263333D03*
X0172095Y0263333D03*
X0172195Y0263333D03*
X0172295Y0263333D03*
X0172395Y0263333D03*
X0172495Y0263333D03*
X0172595Y0263333D03*
X0172695Y0263333D03*
X0172795Y0263333D03*
X0172895Y0263333D03*
X0172995Y0263333D03*
X0173095Y0263333D03*
X0173195Y0263333D03*
X0173295Y0263333D03*
X0173395Y0263333D03*
X0173495Y0263333D03*
X0173595Y0263333D03*
X0173695Y0263333D03*
X0173795Y0263333D03*
X0173895Y0263333D03*
X0173995Y0263333D03*
X0174095Y0263333D03*
X0174195Y0263333D03*
X0174295Y0263333D03*
X0174395Y0263333D03*
X0174495Y0263333D03*
X0174595Y0263333D03*
X0174695Y0263333D03*
X0174795Y0263333D03*
X0174895Y0263333D03*
X0174995Y0263333D03*
X0175095Y0263333D03*
X0175195Y0263333D03*
X0175295Y0263333D03*
X0175395Y0263333D03*
X0175495Y0263333D03*
X0175595Y0263333D03*
X0175695Y0263333D03*
X0175795Y0263333D03*
X0175895Y0263333D03*
X0175995Y0263333D03*
X0176095Y0263333D03*
X0176195Y0263333D03*
X0176295Y0263333D03*
X0176395Y0263333D03*
X0176495Y0263333D03*
X0176595Y0263333D03*
X0176695Y0263333D03*
X0176795Y0263333D03*
X0176895Y0263333D03*
X0176995Y0263333D03*
X0177095Y0263333D03*
X0177195Y0263333D03*
X0177295Y0263333D03*
X0177395Y0263333D03*
X0177495Y0263333D03*
X0177595Y0263333D03*
X0177695Y0263333D03*
X0177695Y0269233D03*
X0177395Y0269333D03*
X0178495Y0269333D03*
X0178495Y0272333D03*
X0178395Y0272333D03*
X0178295Y0272333D03*
X0177495Y0272333D03*
X0177395Y0272333D03*
X0159895Y0267533D03*
X0159795Y0267533D03*
X0159695Y0267533D03*
X0159595Y0267533D03*
X0159495Y0267533D03*
X0159395Y0267533D03*
X0159295Y0267533D03*
X0159195Y0267533D03*
X0159095Y0267533D03*
X0158995Y0267533D03*
X0158895Y0267533D03*
X0158795Y0267533D03*
X0158695Y0267533D03*
X0158595Y0267533D03*
X0158495Y0267533D03*
X0158395Y0267533D03*
X0158295Y0267533D03*
X0158195Y0267533D03*
X0158095Y0267533D03*
X0157995Y0267533D03*
X0157895Y0267533D03*
X0157795Y0267533D03*
X0157695Y0267533D03*
X0157595Y0267533D03*
X0157495Y0267533D03*
X0157395Y0267533D03*
X0157295Y0267533D03*
X0157195Y0267533D03*
X0157095Y0267533D03*
X0156995Y0267533D03*
X0156895Y0267533D03*
X0156795Y0267533D03*
X0156695Y0267533D03*
X0156595Y0267533D03*
X0156495Y0267533D03*
X0156395Y0267533D03*
X0156295Y0267533D03*
X0156195Y0267533D03*
X0156095Y0267533D03*
X0155995Y0267533D03*
X0155895Y0267533D03*
X0155795Y0267533D03*
X0155695Y0267533D03*
X0155595Y0267533D03*
X0155495Y0267533D03*
X0155395Y0267533D03*
X0155295Y0267533D03*
X0155195Y0267533D03*
X0155095Y0267533D03*
X0155095Y0275133D03*
X0155195Y0275133D03*
X0155395Y0275233D03*
X0155495Y0275233D03*
X0154595Y0275233D03*
X0154195Y0278033D03*
X0154295Y0278133D03*
X0154395Y0278133D03*
X0154495Y0278233D03*
X0154595Y0278233D03*
X0154895Y0278333D03*
X0155195Y0278333D03*
X0155295Y0278333D03*
X0155595Y0278233D03*
X0155695Y0278233D03*
X0155795Y0278133D03*
X0144795Y0280833D03*
X0144795Y0288133D03*
X0144795Y0267233D03*
X0148095Y0236633D03*
X0136195Y0220333D03*
X0155095Y0209433D03*
X0155195Y0209433D03*
X0155295Y0209433D03*
X0155395Y0209433D03*
X0155495Y0209433D03*
X0155595Y0209433D03*
X0155695Y0209433D03*
X0155795Y0209433D03*
X0155895Y0209433D03*
X0155995Y0209433D03*
X0156095Y0209433D03*
X0156195Y0209433D03*
X0156295Y0209433D03*
X0156395Y0209433D03*
X0156495Y0209433D03*
X0156595Y0209433D03*
X0156695Y0209433D03*
X0156795Y0209433D03*
X0156895Y0209433D03*
X0156995Y0209433D03*
X0157095Y0209433D03*
X0157195Y0209433D03*
X0157295Y0209433D03*
X0157395Y0209433D03*
X0157495Y0209433D03*
X0157595Y0209433D03*
X0157695Y0209433D03*
X0157795Y0209433D03*
X0157895Y0209433D03*
X0157995Y0209433D03*
X0158095Y0209433D03*
X0158195Y0209433D03*
X0158295Y0209433D03*
X0158395Y0209433D03*
X0158495Y0209433D03*
X0158595Y0209433D03*
X0158695Y0209433D03*
X0158795Y0209433D03*
X0158895Y0209433D03*
X0158995Y0209433D03*
X0159095Y0209433D03*
X0159195Y0209433D03*
X0159295Y0209433D03*
X0159395Y0209433D03*
X0159495Y0209433D03*
X0159595Y0209433D03*
X0159695Y0209433D03*
X0159795Y0209433D03*
X0159895Y0209433D03*
X0162495Y0206233D03*
X0162695Y0206333D03*
X0163295Y0206333D03*
X0163795Y0203433D03*
X0163695Y0203333D03*
X0163595Y0203333D03*
X0163495Y0203233D03*
X0163395Y0203233D03*
X0162595Y0203233D03*
X0162395Y0203333D03*
X0162295Y0203333D03*
X0162195Y0203433D03*
X0167695Y0205833D03*
X0168695Y0207233D03*
X0168895Y0207333D03*
X0169295Y0207433D03*
X0169395Y0207433D03*
X0169495Y0207433D03*
X0169595Y0207433D03*
X0169695Y0207433D03*
X0170095Y0207333D03*
X0170295Y0207233D03*
X0169995Y0204333D03*
X0169895Y0204333D03*
X0169595Y0204233D03*
X0169495Y0204233D03*
X0169395Y0204233D03*
X0169095Y0204333D03*
X0168995Y0204333D03*
X0177395Y0204733D03*
X0177595Y0204633D03*
X0177695Y0204633D03*
X0177795Y0204633D03*
X0177895Y0204633D03*
X0177995Y0204633D03*
X0178095Y0204633D03*
X0178195Y0204633D03*
X0178495Y0204733D03*
X0178895Y0207433D03*
X0178495Y0207633D03*
X0177695Y0207733D03*
X0177395Y0207633D03*
X0177395Y0213633D03*
X0177295Y0213633D03*
X0177195Y0213633D03*
X0177095Y0213633D03*
X0176995Y0213633D03*
X0176895Y0213633D03*
X0176795Y0213633D03*
X0176695Y0213633D03*
X0176595Y0213633D03*
X0176495Y0213633D03*
X0176395Y0213633D03*
X0176295Y0213633D03*
X0176195Y0213633D03*
X0176095Y0213633D03*
X0175995Y0213633D03*
X0175895Y0213633D03*
X0175795Y0213633D03*
X0175695Y0213633D03*
X0175595Y0213633D03*
X0175495Y0213633D03*
X0175395Y0213633D03*
X0175295Y0213633D03*
X0175195Y0213633D03*
X0175095Y0213633D03*
X0174995Y0213633D03*
X0174895Y0213633D03*
X0174795Y0213633D03*
X0174695Y0213633D03*
X0174595Y0213633D03*
X0174495Y0213633D03*
X0174395Y0213633D03*
X0174295Y0213633D03*
X0174195Y0213633D03*
X0174095Y0213633D03*
X0173995Y0213633D03*
X0173895Y0213633D03*
X0173795Y0213633D03*
X0173695Y0213633D03*
X0173595Y0213633D03*
X0173495Y0213633D03*
X0173395Y0213633D03*
X0173295Y0213633D03*
X0173195Y0213633D03*
X0173095Y0213633D03*
X0172995Y0213633D03*
X0172895Y0213633D03*
X0172795Y0213633D03*
X0172695Y0213633D03*
X0172595Y0213633D03*
X0172495Y0213633D03*
X0172395Y0213633D03*
X0172295Y0213633D03*
X0172195Y0213633D03*
X0172095Y0213633D03*
X0171995Y0213633D03*
X0171895Y0213633D03*
X0171795Y0213633D03*
X0171695Y0213633D03*
X0171595Y0213633D03*
X0171495Y0213633D03*
X0171395Y0213633D03*
X0171295Y0213633D03*
X0171195Y0213633D03*
X0171095Y0213633D03*
X0170995Y0213633D03*
X0170895Y0213633D03*
X0170795Y0213633D03*
X0170695Y0213633D03*
X0170595Y0213633D03*
X0170495Y0213633D03*
X0170395Y0213633D03*
X0170295Y0213633D03*
X0170195Y0213633D03*
X0170095Y0213633D03*
X0169995Y0213633D03*
X0169895Y0213633D03*
X0169795Y0213633D03*
X0169695Y0213633D03*
X0169595Y0213633D03*
X0169495Y0213633D03*
X0169395Y0213633D03*
X0169295Y0213633D03*
X0169195Y0213633D03*
X0169095Y0213633D03*
X0168995Y0213633D03*
X0168895Y0213633D03*
X0168795Y0213633D03*
X0168695Y0213633D03*
X0177495Y0213633D03*
X0177595Y0213633D03*
X0177695Y0213633D03*
X0155995Y0201533D03*
X0155795Y0201633D03*
X0155495Y0201733D03*
X0155395Y0201733D03*
X0155195Y0201833D03*
X0155095Y0201833D03*
X0154595Y0201733D03*
X0154395Y0201633D03*
X0154295Y0201633D03*
X0154695Y0198733D03*
X0154795Y0198733D03*
X0154995Y0198633D03*
X0155095Y0198633D03*
X0155395Y0198733D03*
X0155495Y0198733D03*
X0144795Y0193233D03*
D35*
X0144595Y0199233D03*
X0144495Y0199233D03*
X0153795Y0199333D03*
X0153795Y0201133D03*
X0156395Y0201033D03*
X0156395Y0199433D03*
X0161795Y0203733D03*
X0161195Y0204733D03*
X0161795Y0205733D03*
X0164295Y0205633D03*
X0168295Y0206833D03*
X0148395Y0227633D03*
X0148495Y0236433D03*
X0148595Y0236433D03*
X0148695Y0236433D03*
X0148795Y0236433D03*
X0148295Y0240333D03*
X0148395Y0244433D03*
X0144595Y0250633D03*
X0136295Y0250733D03*
X0136295Y0267233D03*
X0144595Y0267233D03*
X0144695Y0277933D03*
X0147395Y0277933D03*
X0144695Y0280833D03*
X0136295Y0280833D03*
X0153895Y0275733D03*
X0156295Y0275833D03*
X0156395Y0275933D03*
X0156295Y0277733D03*
X0161795Y0273233D03*
X0161195Y0272233D03*
X0161795Y0271233D03*
X0168295Y0272133D03*
X0168295Y0270133D03*
X0170695Y0272133D03*
X0176695Y0271733D03*
X0176695Y0269933D03*
X0179195Y0269933D03*
X0179195Y0271733D03*
D36*
X0179095Y0271883D03*
X0179095Y0269783D03*
X0178995Y0269683D03*
X0176795Y0269783D03*
X0176795Y0271883D03*
X0170695Y0270183D03*
X0170595Y0270083D03*
X0168395Y0270083D03*
X0167895Y0269683D03*
X0167795Y0269583D03*
X0166495Y0268183D03*
X0166395Y0268083D03*
X0166295Y0267983D03*
X0166195Y0267883D03*
X0166095Y0267783D03*
X0165995Y0267683D03*
X0164095Y0271083D03*
X0164195Y0271183D03*
X0164195Y0273283D03*
X0164095Y0273383D03*
X0156195Y0275683D03*
X0156095Y0275583D03*
X0156195Y0277883D03*
X0153895Y0277783D03*
X0144695Y0288183D03*
X0136295Y0288183D03*
X0136295Y0274683D03*
X0144695Y0267183D03*
X0144695Y0250683D03*
X0148395Y0236483D03*
X0144595Y0216483D03*
X0144695Y0212983D03*
X0144695Y0205583D03*
X0142195Y0196183D03*
X0153895Y0201283D03*
X0156295Y0201183D03*
X0156295Y0199283D03*
X0156095Y0199083D03*
X0164195Y0203683D03*
X0164195Y0205783D03*
X0164095Y0205883D03*
X0166795Y0208483D03*
X0166695Y0208583D03*
X0166595Y0208683D03*
X0166895Y0208383D03*
X0166995Y0208283D03*
X0167095Y0208183D03*
X0168295Y0204883D03*
X0168395Y0204783D03*
X0170595Y0204783D03*
X0170695Y0204883D03*
X0170695Y0206783D03*
X0176195Y0206183D03*
X0176695Y0205283D03*
X0176695Y0207083D03*
X0179195Y0207083D03*
X0179195Y0205283D03*
D37*
X0164395Y0204733D03*
X0161595Y0204733D03*
X0153695Y0200233D03*
X0142995Y0199933D03*
X0136395Y0209233D03*
X0138095Y0217133D03*
X0136595Y0230433D03*
X0143495Y0235333D03*
X0143495Y0238933D03*
X0137495Y0245833D03*
X0136595Y0247233D03*
X0142895Y0267833D03*
X0140795Y0284533D03*
X0140195Y0284533D03*
X0161595Y0272233D03*
X0164395Y0272233D03*
X0137495Y0191233D03*
D38*
X0144595Y0193183D03*
X0144295Y0202283D03*
X0143095Y0217283D03*
X0137895Y0217283D03*
X0137795Y0217283D03*
X0136395Y0220183D03*
X0136695Y0230383D03*
X0136695Y0247183D03*
X0143195Y0251383D03*
X0144595Y0260483D03*
X0162795Y0250683D03*
X0162895Y0250683D03*
X0162995Y0250683D03*
X0163095Y0250783D03*
X0163195Y0250783D03*
X0163295Y0250783D03*
X0163495Y0250883D03*
X0163595Y0250883D03*
X0163695Y0250883D03*
X0163795Y0250883D03*
X0163895Y0250883D03*
X0164195Y0250983D03*
X0164295Y0250983D03*
X0164395Y0250983D03*
X0164495Y0250983D03*
X0164595Y0251083D03*
X0164695Y0251083D03*
X0164795Y0251083D03*
X0164895Y0251083D03*
X0164995Y0251083D03*
X0165295Y0251183D03*
X0165395Y0251183D03*
X0165495Y0251183D03*
X0165595Y0251183D03*
X0165695Y0251183D03*
X0165795Y0251183D03*
X0167595Y0251183D03*
X0167695Y0251183D03*
X0167795Y0251183D03*
X0167895Y0251183D03*
X0167995Y0251183D03*
X0168095Y0251183D03*
X0168195Y0251183D03*
X0168295Y0251183D03*
X0168395Y0251183D03*
X0168495Y0251083D03*
X0168595Y0251083D03*
X0168695Y0251083D03*
X0168795Y0251083D03*
X0169095Y0250983D03*
X0169195Y0250983D03*
X0169695Y0250883D03*
X0169795Y0250883D03*
X0169895Y0250883D03*
X0169995Y0250883D03*
X0170095Y0250783D03*
X0170195Y0250783D03*
X0170295Y0250783D03*
X0167995Y0270783D03*
X0155595Y0230383D03*
X0162595Y0226083D03*
X0162795Y0225983D03*
X0163095Y0225883D03*
X0163195Y0225883D03*
X0163295Y0225883D03*
X0168595Y0225583D03*
X0168695Y0225583D03*
X0169095Y0225683D03*
X0169195Y0225683D03*
X0169295Y0225683D03*
X0169495Y0225783D03*
X0169595Y0225783D03*
X0169695Y0225783D03*
X0169895Y0225883D03*
X0169995Y0225883D03*
X0168095Y0206083D03*
D39*
X0167995Y0206233D03*
X0167995Y0225433D03*
X0167895Y0225433D03*
X0167795Y0225433D03*
X0167695Y0225433D03*
X0167595Y0225433D03*
X0167495Y0225433D03*
X0167395Y0225433D03*
X0167295Y0225433D03*
X0168195Y0225533D03*
X0168295Y0225533D03*
X0168395Y0225533D03*
X0168495Y0225533D03*
X0168795Y0225633D03*
X0168895Y0225633D03*
X0168995Y0225633D03*
X0169395Y0225733D03*
X0165695Y0225433D03*
X0165595Y0225433D03*
X0164795Y0225533D03*
X0164695Y0225533D03*
X0164395Y0225633D03*
X0164295Y0225633D03*
X0164195Y0225633D03*
X0163995Y0225733D03*
X0163895Y0225733D03*
X0163795Y0225733D03*
X0163695Y0225733D03*
X0163595Y0225833D03*
X0163495Y0225833D03*
X0163395Y0225833D03*
X0155495Y0230433D03*
X0144595Y0237133D03*
X0155495Y0246233D03*
X0155595Y0246233D03*
X0163395Y0250833D03*
X0165095Y0251133D03*
X0165195Y0251133D03*
X0165895Y0251233D03*
X0165995Y0251233D03*
X0166095Y0251233D03*
X0166195Y0251233D03*
X0166295Y0251233D03*
X0166395Y0251233D03*
X0166495Y0251233D03*
X0166595Y0251233D03*
X0166695Y0251233D03*
X0166795Y0251233D03*
X0166895Y0251233D03*
X0166995Y0251233D03*
X0167095Y0251233D03*
X0167195Y0251233D03*
X0167295Y0251233D03*
X0167395Y0251233D03*
X0167495Y0251233D03*
X0144395Y0253733D03*
X0143095Y0251333D03*
X0136395Y0260433D03*
X0143095Y0267933D03*
X0144595Y0271033D03*
X0140895Y0284533D03*
X0140095Y0284533D03*
X0144595Y0220233D03*
X0142995Y0217233D03*
X0137995Y0217233D03*
X0137995Y0212333D03*
X0137895Y0212333D03*
X0143095Y0200033D03*
X0143195Y0200033D03*
X0143495Y0195033D03*
D40*
X0142795Y0199833D03*
X0144495Y0202433D03*
X0138295Y0212533D03*
X0138295Y0217033D03*
X0142695Y0217033D03*
X0143395Y0222233D03*
X0137495Y0222233D03*
X0137595Y0228833D03*
X0136495Y0230533D03*
X0137495Y0235133D03*
X0137595Y0239233D03*
X0143395Y0239133D03*
X0137595Y0245633D03*
X0142695Y0251133D03*
X0143395Y0258433D03*
X0137595Y0262633D03*
X0142695Y0267733D03*
X0143395Y0273033D03*
X0140695Y0284533D03*
X0140295Y0284533D03*
X0164495Y0272233D03*
X0176495Y0270833D03*
X0179395Y0270833D03*
X0155295Y0246133D03*
X0155295Y0230533D03*
X0164495Y0204733D03*
X0156495Y0200233D03*
X0137595Y0191033D03*
D41*
X0136595Y0193283D03*
X0136595Y0209183D03*
X0137495Y0211883D03*
X0156195Y0230183D03*
X0158795Y0228083D03*
X0158895Y0228083D03*
X0158995Y0227983D03*
X0174195Y0227883D03*
X0174395Y0228083D03*
X0174495Y0228183D03*
X0174595Y0248383D03*
X0174495Y0248483D03*
X0174395Y0248583D03*
X0159195Y0248883D03*
X0159095Y0248783D03*
X0158995Y0248683D03*
X0158795Y0248583D03*
X0156295Y0246483D03*
X0136595Y0260483D03*
X0143395Y0268383D03*
X0144395Y0270983D03*
X0141295Y0284483D03*
X0139595Y0284483D03*
D42*
X0139495Y0284483D03*
X0141395Y0284483D03*
X0144395Y0260483D03*
X0143495Y0251883D03*
X0156595Y0246683D03*
X0158495Y0248283D03*
X0144395Y0237083D03*
X0156595Y0229983D03*
X0158395Y0228483D03*
X0158495Y0228383D03*
X0158595Y0228283D03*
X0144395Y0220283D03*
X0136595Y0220283D03*
X0174695Y0228283D03*
X0174995Y0228483D03*
X0174895Y0248083D03*
X0174795Y0248183D03*
D43*
X0174695Y0248333D03*
X0158895Y0248633D03*
X0158695Y0248433D03*
X0158595Y0248333D03*
X0156495Y0246633D03*
X0156395Y0246533D03*
X0156395Y0230133D03*
X0156295Y0230133D03*
X0156495Y0230033D03*
X0158695Y0228233D03*
X0174595Y0228233D03*
X0174795Y0228333D03*
X0174895Y0228433D03*
X0143495Y0200533D03*
X0144395Y0193233D03*
X0136595Y0237133D03*
D44*
X0156795Y0229883D03*
X0157895Y0228883D03*
X0157995Y0228783D03*
X0175295Y0228783D03*
X0175395Y0228883D03*
X0175495Y0228983D03*
X0175595Y0247483D03*
X0175495Y0247583D03*
X0158095Y0247883D03*
X0157995Y0247783D03*
X0157895Y0247683D03*
X0156795Y0246783D03*
X0144295Y0270983D03*
X0136695Y0209183D03*
X0136695Y0193283D03*
D45*
X0136695Y0220233D03*
X0144795Y0245133D03*
X0157195Y0247133D03*
X0157295Y0247233D03*
X0175795Y0247333D03*
X0175895Y0247233D03*
X0175995Y0229533D03*
X0175895Y0229433D03*
D46*
X0175595Y0229133D03*
X0157795Y0229033D03*
X0157695Y0229133D03*
X0156895Y0229733D03*
X0156895Y0246933D03*
X0157595Y0247433D03*
X0157695Y0247533D03*
X0157795Y0247633D03*
X0175395Y0247633D03*
X0136695Y0237133D03*
X0136695Y0260533D03*
X0144295Y0193233D03*
D47*
X0136795Y0193283D03*
X0144195Y0220283D03*
X0143595Y0228283D03*
X0176095Y0229683D03*
X0176195Y0229783D03*
X0176095Y0246983D03*
X0175995Y0247083D03*
X0144195Y0270983D03*
D48*
X0144295Y0260483D03*
X0157095Y0247083D03*
X0156995Y0246983D03*
X0157395Y0247283D03*
X0157495Y0247383D03*
X0144295Y0237083D03*
X0144795Y0228283D03*
X0144295Y0220283D03*
X0136795Y0209283D03*
X0157195Y0229583D03*
X0157095Y0229683D03*
X0156995Y0229683D03*
X0157295Y0229483D03*
X0157395Y0229383D03*
X0157495Y0229283D03*
X0157595Y0229183D03*
X0175695Y0229183D03*
X0175795Y0229283D03*
X0175695Y0247383D03*
D49*
X0176395Y0230083D03*
X0176295Y0229983D03*
X0143595Y0200983D03*
X0136795Y0220183D03*
D50*
X0136895Y0209233D03*
X0144195Y0193233D03*
X0144195Y0237133D03*
X0136795Y0237133D03*
X0143595Y0245133D03*
X0144195Y0260533D03*
X0136795Y0260533D03*
X0176195Y0246833D03*
D51*
X0176295Y0246633D03*
X0180895Y0238333D03*
X0176495Y0230233D03*
X0144095Y0220233D03*
X0144095Y0193233D03*
X0136895Y0193233D03*
X0144095Y0271033D03*
D52*
X0144095Y0260483D03*
X0136895Y0260483D03*
X0144695Y0245183D03*
X0136895Y0237083D03*
X0143695Y0228283D03*
X0144695Y0228283D03*
X0136895Y0220183D03*
X0176595Y0230383D03*
X0176395Y0246483D03*
D53*
X0176595Y0246183D03*
X0176695Y0246083D03*
X0176795Y0230683D03*
X0144595Y0228283D03*
X0143795Y0228283D03*
X0143995Y0220183D03*
X0143795Y0245083D03*
X0144595Y0245083D03*
X0143995Y0260483D03*
X0136995Y0260483D03*
X0136995Y0193183D03*
D54*
X0136995Y0209233D03*
X0144095Y0237133D03*
X0143695Y0245133D03*
X0143995Y0271033D03*
X0176495Y0246333D03*
X0176695Y0230533D03*
D55*
X0176895Y0245783D03*
X0144395Y0245083D03*
X0144295Y0245083D03*
X0144195Y0245083D03*
X0144095Y0245083D03*
X0143995Y0245083D03*
X0143895Y0245083D03*
X0143895Y0228283D03*
X0143995Y0228283D03*
X0144095Y0228283D03*
X0144195Y0228283D03*
X0144295Y0228283D03*
X0144395Y0228283D03*
X0144495Y0228283D03*
X0136995Y0220183D03*
X0143895Y0271083D03*
D56*
X0144495Y0245133D03*
X0143995Y0237133D03*
X0136995Y0237133D03*
X0137095Y0209233D03*
X0143995Y0193233D03*
X0176895Y0230833D03*
X0176795Y0245933D03*
D57*
X0176995Y0245633D03*
X0176995Y0230933D03*
X0143895Y0220233D03*
X0137195Y0209233D03*
X0137095Y0193233D03*
X0143895Y0193233D03*
X0143895Y0260433D03*
X0137095Y0260433D03*
D58*
X0137095Y0237083D03*
X0143895Y0237083D03*
X0137095Y0220183D03*
D59*
X0143795Y0220233D03*
X0160895Y0238533D03*
X0177095Y0245433D03*
X0177095Y0231133D03*
X0143795Y0260433D03*
X0137195Y0260433D03*
X0143795Y0271033D03*
X0143795Y0193233D03*
X0137195Y0193233D03*
D60*
X0137295Y0209183D03*
X0137195Y0220183D03*
X0137195Y0237083D03*
X0143795Y0237083D03*
X0177195Y0231283D03*
X0177195Y0245283D03*
D61*
X0177295Y0245083D03*
X0180795Y0238283D03*
X0143695Y0237083D03*
X0137295Y0237083D03*
X0137295Y0260483D03*
X0143695Y0260483D03*
X0143695Y0193183D03*
X0137295Y0193183D03*
D62*
X0137295Y0219483D03*
X0177895Y0232883D03*
D63*
X0177395Y0244883D03*
X0143595Y0237083D03*
X0137395Y0237083D03*
X0137395Y0260483D03*
X0143595Y0260483D03*
X0137395Y0193183D03*
D64*
X0137395Y0209233D03*
X0143595Y0220233D03*
X0177395Y0231633D03*
X0143595Y0271033D03*
D65*
X0180595Y0238233D03*
X0137395Y0219533D03*
D66*
X0137495Y0217633D03*
X0143395Y0217633D03*
X0159095Y0227933D03*
X0159195Y0227833D03*
X0156095Y0230233D03*
X0156195Y0246433D03*
X0159295Y0248933D03*
X0159395Y0249033D03*
X0143895Y0253333D03*
X0143795Y0253233D03*
X0143695Y0253133D03*
X0173995Y0248933D03*
X0174095Y0248833D03*
X0174195Y0248733D03*
X0174295Y0248733D03*
X0180995Y0238233D03*
X0174295Y0227933D03*
X0174095Y0227833D03*
X0173995Y0227733D03*
X0143795Y0201833D03*
X0143695Y0201733D03*
D67*
X0144795Y0205583D03*
X0138895Y0196183D03*
X0144795Y0216583D03*
X0162495Y0203283D03*
X0162695Y0203183D03*
X0162795Y0203183D03*
X0162895Y0203183D03*
X0162995Y0203183D03*
X0163095Y0203183D03*
X0163195Y0203183D03*
X0163295Y0203183D03*
X0168795Y0207283D03*
X0168995Y0207383D03*
X0169095Y0207383D03*
X0169195Y0207383D03*
X0169795Y0207383D03*
X0169895Y0207383D03*
X0169995Y0207383D03*
X0170195Y0207283D03*
X0179795Y0206183D03*
X0147995Y0240083D03*
X0144795Y0250683D03*
X0162495Y0270783D03*
X0162695Y0270683D03*
X0163295Y0270683D03*
X0168995Y0272683D03*
X0169095Y0272683D03*
X0169395Y0272783D03*
X0169495Y0272783D03*
X0169595Y0272783D03*
X0169895Y0272683D03*
X0169995Y0272683D03*
X0177595Y0272383D03*
X0177695Y0272383D03*
X0177795Y0272383D03*
X0177895Y0272383D03*
X0177995Y0272383D03*
X0178095Y0272383D03*
X0178195Y0272383D03*
X0179795Y0270783D03*
X0155495Y0278283D03*
X0155395Y0278283D03*
X0155095Y0278383D03*
X0154995Y0278383D03*
X0154795Y0278283D03*
X0154695Y0278283D03*
D68*
X0143495Y0268533D03*
X0158395Y0248133D03*
X0158295Y0248033D03*
X0158195Y0247933D03*
X0156695Y0246733D03*
X0171395Y0243333D03*
X0171495Y0243333D03*
X0171595Y0243333D03*
X0171695Y0243333D03*
X0171795Y0243333D03*
X0171895Y0243333D03*
X0171995Y0243333D03*
X0172095Y0243333D03*
X0172195Y0243333D03*
X0172295Y0243333D03*
X0172395Y0243333D03*
X0172495Y0243333D03*
X0172595Y0243333D03*
X0172695Y0243333D03*
X0172795Y0243333D03*
X0175295Y0247733D03*
X0175195Y0247833D03*
X0175095Y0247933D03*
X0174995Y0248033D03*
X0172795Y0233733D03*
X0172695Y0233733D03*
X0172595Y0233733D03*
X0172495Y0233733D03*
X0172395Y0233733D03*
X0172295Y0233733D03*
X0172195Y0233733D03*
X0172095Y0233733D03*
X0171995Y0233733D03*
X0171895Y0233733D03*
X0171795Y0233733D03*
X0171695Y0233733D03*
X0171595Y0233733D03*
X0171495Y0233733D03*
X0171395Y0233733D03*
X0175195Y0228733D03*
X0175095Y0228633D03*
X0158295Y0228533D03*
X0158195Y0228633D03*
X0158095Y0228733D03*
X0156695Y0229933D03*
X0143495Y0217833D03*
D69*
X0143595Y0193233D03*
X0177495Y0231833D03*
X0177495Y0244733D03*
D70*
X0177295Y0231433D03*
X0143695Y0220233D03*
X0143695Y0271033D03*
D71*
X0144795Y0270883D03*
X0144795Y0277983D03*
X0154095Y0277983D03*
X0155895Y0278083D03*
X0155995Y0277983D03*
X0155995Y0275483D03*
X0155795Y0275383D03*
X0155695Y0275283D03*
X0155595Y0275283D03*
X0155295Y0275183D03*
X0154495Y0275283D03*
X0154395Y0275383D03*
X0154295Y0275383D03*
X0162195Y0273583D03*
X0162295Y0273683D03*
X0162395Y0273683D03*
X0162595Y0273783D03*
X0163395Y0273783D03*
X0163495Y0273783D03*
X0163595Y0273683D03*
X0163695Y0273683D03*
X0163795Y0273583D03*
X0163795Y0270883D03*
X0162195Y0270883D03*
X0167195Y0268983D03*
X0168695Y0269783D03*
X0168895Y0269683D03*
X0169295Y0269583D03*
X0169695Y0269583D03*
X0170095Y0269683D03*
X0170295Y0269783D03*
X0170495Y0272283D03*
X0170395Y0272483D03*
X0168595Y0272483D03*
X0168495Y0272283D03*
X0177095Y0272183D03*
X0177195Y0272283D03*
X0177295Y0272283D03*
X0178595Y0272283D03*
X0178795Y0272183D03*
X0178895Y0269583D03*
X0178795Y0269483D03*
X0178595Y0269383D03*
X0178395Y0269283D03*
X0178295Y0269283D03*
X0177595Y0269283D03*
X0177495Y0269283D03*
X0177295Y0269383D03*
X0177095Y0269483D03*
X0148095Y0240183D03*
X0148195Y0236583D03*
X0144795Y0220283D03*
X0144695Y0216483D03*
X0154195Y0201583D03*
X0154095Y0201483D03*
X0153995Y0201383D03*
X0154495Y0201683D03*
X0155295Y0201783D03*
X0155595Y0201683D03*
X0155695Y0201683D03*
X0155895Y0201583D03*
X0155795Y0198883D03*
X0155695Y0198783D03*
X0155595Y0198783D03*
X0155295Y0198683D03*
X0155195Y0198683D03*
X0154895Y0198683D03*
X0154595Y0198783D03*
X0154495Y0198783D03*
X0154395Y0198883D03*
X0154295Y0198883D03*
X0154195Y0198983D03*
X0161995Y0203583D03*
X0162095Y0203483D03*
X0163895Y0203483D03*
X0163995Y0203583D03*
X0163795Y0206083D03*
X0163695Y0206183D03*
X0163595Y0206183D03*
X0163495Y0206283D03*
X0163395Y0206283D03*
X0162595Y0206283D03*
X0162395Y0206183D03*
X0162295Y0206183D03*
X0162195Y0206083D03*
X0168495Y0206983D03*
X0168595Y0207183D03*
X0170395Y0207183D03*
X0170495Y0206983D03*
X0170295Y0204483D03*
X0170195Y0204383D03*
X0170095Y0204383D03*
X0169795Y0204283D03*
X0169695Y0204283D03*
X0169295Y0204283D03*
X0169195Y0204283D03*
X0168895Y0204383D03*
X0168795Y0204383D03*
X0168695Y0204483D03*
X0176895Y0204983D03*
X0176995Y0204883D03*
X0177095Y0204883D03*
X0177195Y0204783D03*
X0177295Y0204783D03*
X0177495Y0204683D03*
X0178295Y0204683D03*
X0178395Y0204683D03*
X0178595Y0204783D03*
X0178795Y0204883D03*
X0178895Y0204883D03*
X0178995Y0204983D03*
X0178795Y0207483D03*
X0178595Y0207583D03*
X0178395Y0207683D03*
X0178295Y0207683D03*
X0177595Y0207683D03*
X0177495Y0207683D03*
X0177295Y0207583D03*
X0177095Y0207483D03*
X0176995Y0207483D03*
X0176895Y0207383D03*
D72*
X0147995Y0236733D03*
X0144795Y0199333D03*
D73*
X0144795Y0212983D03*
X0147895Y0239983D03*
D74*
X0147895Y0236833D03*
D75*
X0154695Y0205583D03*
X0154795Y0205583D03*
X0154895Y0205583D03*
X0154895Y0271383D03*
X0154795Y0271383D03*
X0154695Y0271383D03*
D76*
X0154995Y0271333D03*
X0180495Y0238233D03*
X0154995Y0205633D03*
D77*
X0159995Y0215833D03*
X0160095Y0215833D03*
X0160195Y0215833D03*
X0160295Y0215833D03*
X0160395Y0215833D03*
X0165695Y0215833D03*
X0164095Y0238533D03*
X0163995Y0238533D03*
X0163895Y0238533D03*
X0163795Y0238533D03*
X0173095Y0238533D03*
X0173195Y0238533D03*
X0173295Y0238533D03*
X0173395Y0238533D03*
X0165795Y0261233D03*
D78*
X0165695Y0261183D03*
X0160395Y0261183D03*
X0160295Y0261183D03*
X0160195Y0261183D03*
X0160095Y0261183D03*
X0159995Y0261183D03*
X0179495Y0238283D03*
X0165595Y0215883D03*
D79*
X0162195Y0238483D03*
X0162095Y0238483D03*
X0161995Y0238483D03*
X0161895Y0238483D03*
X0161795Y0238483D03*
X0161695Y0238483D03*
X0161595Y0238483D03*
X0161495Y0238483D03*
X0161395Y0238483D03*
X0161295Y0238483D03*
X0161195Y0238483D03*
X0161095Y0238483D03*
X0160995Y0238483D03*
D80*
X0162295Y0238533D03*
D81*
X0162395Y0238533D03*
D82*
X0162495Y0238483D03*
X0180095Y0238283D03*
D83*
X0162595Y0238483D03*
D84*
X0162695Y0238483D03*
X0174395Y0238483D03*
D85*
X0163195Y0214283D03*
X0163095Y0214283D03*
X0162995Y0214283D03*
X0162895Y0214283D03*
X0162795Y0214283D03*
D86*
X0162795Y0238483D03*
D87*
X0178495Y0238333D03*
X0163195Y0262733D03*
X0163095Y0262733D03*
X0162995Y0262733D03*
X0162895Y0262733D03*
X0162795Y0262733D03*
D88*
X0162895Y0238483D03*
D89*
X0162995Y0238483D03*
X0174195Y0238483D03*
X0174295Y0238483D03*
X0179695Y0238283D03*
D90*
X0174095Y0238483D03*
X0163095Y0238483D03*
D91*
X0163195Y0238533D03*
X0163295Y0238533D03*
X0173995Y0238533D03*
D92*
X0173895Y0238533D03*
X0173795Y0238533D03*
X0163495Y0238533D03*
X0163395Y0238533D03*
D93*
X0163595Y0238533D03*
X0163695Y0238533D03*
X0173495Y0238533D03*
X0173595Y0238533D03*
X0173695Y0238533D03*
X0165595Y0261133D03*
X0165495Y0215933D03*
D94*
X0165495Y0238533D03*
X0165395Y0238533D03*
X0165295Y0238533D03*
X0165195Y0238533D03*
X0165095Y0238533D03*
X0164995Y0238533D03*
X0164895Y0238533D03*
X0164795Y0238533D03*
X0164695Y0238533D03*
X0164595Y0238533D03*
X0164495Y0238533D03*
X0164395Y0238533D03*
X0164295Y0238533D03*
X0164195Y0238533D03*
X0165595Y0238533D03*
X0165695Y0238533D03*
X0165795Y0238533D03*
X0165895Y0238533D03*
X0165995Y0238533D03*
X0166095Y0238533D03*
X0166195Y0238533D03*
X0166295Y0238533D03*
X0166395Y0238533D03*
X0166495Y0238533D03*
X0166595Y0238533D03*
X0166695Y0238533D03*
X0166795Y0238533D03*
X0166895Y0238533D03*
X0166995Y0238533D03*
X0167095Y0238533D03*
X0167195Y0238533D03*
X0167295Y0238533D03*
X0167395Y0238533D03*
X0167495Y0238533D03*
X0167595Y0238533D03*
X0167695Y0238533D03*
X0167795Y0238533D03*
X0167895Y0238533D03*
X0167995Y0238533D03*
X0168095Y0238533D03*
X0168195Y0238533D03*
X0168295Y0238533D03*
X0168395Y0238533D03*
X0168495Y0238533D03*
X0168595Y0238533D03*
X0168695Y0238533D03*
X0168795Y0238533D03*
X0168895Y0238533D03*
X0168995Y0238533D03*
X0169095Y0238533D03*
X0169195Y0238533D03*
X0169295Y0238533D03*
X0169395Y0238533D03*
X0169495Y0238533D03*
X0169595Y0238533D03*
X0169695Y0238533D03*
X0169795Y0238533D03*
X0169895Y0238533D03*
X0169995Y0238533D03*
X0170095Y0238533D03*
X0170195Y0238533D03*
X0170295Y0238533D03*
X0170395Y0238533D03*
X0170495Y0238533D03*
X0170595Y0238533D03*
X0170695Y0238533D03*
X0170795Y0238533D03*
X0170895Y0238533D03*
X0170995Y0238533D03*
X0171095Y0238533D03*
X0171195Y0238533D03*
X0171295Y0238533D03*
X0172895Y0238533D03*
X0172995Y0238533D03*
X0179395Y0238333D03*
D95*
X0165495Y0261083D03*
D96*
X0165895Y0261283D03*
X0165895Y0215783D03*
X0165795Y0215783D03*
D97*
X0168295Y0217933D03*
X0168395Y0217933D03*
X0168495Y0217933D03*
X0168595Y0217933D03*
X0174995Y0238533D03*
D98*
X0168595Y0259083D03*
X0168495Y0259083D03*
X0168395Y0259083D03*
X0168295Y0259083D03*
D99*
X0174495Y0238483D03*
X0179895Y0238283D03*
D100*
X0174595Y0238483D03*
D101*
X0174695Y0238483D03*
D102*
X0174795Y0238483D03*
D103*
X0174895Y0238533D03*
D104*
X0177595Y0232083D03*
D105*
X0177595Y0244533D03*
D106*
X0177695Y0232333D03*
D107*
X0180695Y0238283D03*
X0177695Y0244283D03*
D108*
X0177795Y0266283D03*
X0177895Y0266283D03*
X0177995Y0266283D03*
X0178095Y0266283D03*
X0178195Y0266283D03*
X0178195Y0210683D03*
X0178095Y0210683D03*
X0177995Y0210683D03*
X0177895Y0210683D03*
X0177795Y0210683D03*
D109*
X0177795Y0232583D03*
D110*
X0177795Y0244033D03*
D111*
X0177895Y0243683D03*
D112*
X0177995Y0233283D03*
D113*
X0177995Y0243333D03*
D114*
X0178095Y0238383D03*
D115*
X0178195Y0238333D03*
D116*
X0178295Y0238383D03*
D117*
X0178395Y0238333D03*
D118*
X0178595Y0238283D03*
D119*
X0178695Y0238283D03*
D120*
X0178795Y0238283D03*
D121*
X0178895Y0238283D03*
D122*
X0178995Y0238283D03*
D123*
X0179095Y0238283D03*
D124*
X0179195Y0238333D03*
D125*
X0179295Y0238333D03*
D126*
X0179595Y0238283D03*
D127*
X0179795Y0238233D03*
D128*
X0179995Y0238233D03*
D129*
X0180195Y0238283D03*
D130*
X0180295Y0238283D03*
D131*
X0180395Y0238283D03*
D132*
X0261345Y0234248D03*
X0276970Y0234248D03*
X0280720Y0224868D03*
X0296345Y0224868D03*
X0264470Y0251118D03*
X0267595Y0256118D03*
X0270095Y0256748D03*
X0270720Y0264868D03*
X0266345Y0264248D03*
X0266345Y0269248D03*
X0270095Y0279868D03*
X0283845Y0267058D03*
X0284470Y0266748D03*
X0285720Y0265808D03*
X0286345Y0265498D03*
X0286970Y0264868D03*
X0289470Y0264868D03*
X0290095Y0265498D03*
X0290720Y0266118D03*
X0291345Y0266748D03*
X0290095Y0287058D03*
D133*
X0271658Y0283773D03*
X0264783Y0258463D03*
X0268533Y0239713D03*
X0261658Y0234403D03*
X0268533Y0229093D03*
X0269783Y0229093D03*
X0271658Y0229403D03*
X0276658Y0234403D03*
X0281033Y0225023D03*
X0287908Y0219713D03*
X0289158Y0219713D03*
X0291033Y0220023D03*
X0296033Y0225023D03*
X0287908Y0230343D03*
X0291658Y0254403D03*
D134*
X0287595Y0254713D03*
X0283845Y0254713D03*
X0276345Y0234403D03*
X0261970Y0234403D03*
X0281970Y0289403D03*
D135*
X0285408Y0289558D03*
X0290408Y0289558D03*
X0276033Y0234248D03*
X0281658Y0224868D03*
X0295408Y0224868D03*
X0262283Y0234248D03*
D136*
X0262595Y0234243D03*
X0275720Y0234243D03*
X0281970Y0224873D03*
X0295095Y0224873D03*
D137*
X0294783Y0224868D03*
X0282283Y0224868D03*
X0275408Y0234248D03*
X0262908Y0234248D03*
D138*
X0263220Y0234403D03*
X0275095Y0234403D03*
D139*
X0274783Y0234398D03*
X0263533Y0234398D03*
X0282908Y0225028D03*
X0294158Y0225028D03*
D140*
X0274470Y0234403D03*
X0263845Y0234403D03*
D141*
X0264158Y0231433D03*
X0284158Y0245183D03*
X0271658Y0267683D03*
X0291033Y0278933D03*
X0281658Y0289243D03*
X0281033Y0288933D03*
D142*
X0264158Y0237838D03*
X0284158Y0228778D03*
X0284783Y0229088D03*
X0292908Y0221278D03*
D143*
X0267283Y0245183D03*
X0264158Y0251433D03*
X0273533Y0251433D03*
X0264158Y0266433D03*
X0268533Y0270183D03*
X0264783Y0273933D03*
X0265408Y0278933D03*
X0269783Y0285183D03*
X0270408Y0285183D03*
X0272908Y0280183D03*
X0271658Y0275183D03*
X0286658Y0286433D03*
X0287283Y0286433D03*
X0288533Y0286433D03*
X0289158Y0286433D03*
D144*
X0287908Y0286273D03*
X0287908Y0292213D03*
X0288533Y0292213D03*
X0289158Y0292213D03*
X0289783Y0292213D03*
X0287283Y0292213D03*
X0286658Y0292213D03*
X0286033Y0292213D03*
X0282283Y0291593D03*
X0283533Y0281903D03*
X0284158Y0281903D03*
X0284783Y0281903D03*
X0285408Y0281903D03*
X0286033Y0281903D03*
X0286658Y0281903D03*
X0287283Y0281903D03*
X0287908Y0281903D03*
X0288533Y0281903D03*
X0289783Y0281593D03*
X0289783Y0276903D03*
X0289158Y0276903D03*
X0288533Y0276903D03*
X0287908Y0276903D03*
X0287283Y0276903D03*
X0286658Y0276903D03*
X0286033Y0276903D03*
X0285408Y0276903D03*
X0284783Y0276903D03*
X0284158Y0276903D03*
X0283533Y0276903D03*
X0283533Y0271903D03*
X0284158Y0271903D03*
X0284783Y0271903D03*
X0285408Y0271903D03*
X0286033Y0271903D03*
X0286658Y0271903D03*
X0287283Y0271903D03*
X0287908Y0271903D03*
X0288533Y0271903D03*
X0289158Y0271903D03*
X0289783Y0271903D03*
X0290408Y0271903D03*
X0291033Y0271903D03*
X0291658Y0271903D03*
X0294158Y0271903D03*
X0294783Y0271903D03*
X0295408Y0271903D03*
X0295408Y0261903D03*
X0294783Y0261903D03*
X0294158Y0261903D03*
X0293533Y0261903D03*
X0292908Y0261903D03*
X0292283Y0261903D03*
X0291658Y0261903D03*
X0291033Y0261903D03*
X0290408Y0261903D03*
X0289783Y0261903D03*
X0286658Y0261903D03*
X0286033Y0261903D03*
X0285408Y0261903D03*
X0284783Y0261903D03*
X0284158Y0261903D03*
X0283533Y0261903D03*
X0286033Y0265653D03*
X0286033Y0256903D03*
X0286658Y0256903D03*
X0285408Y0256903D03*
X0288533Y0256903D03*
X0286658Y0252213D03*
X0286033Y0251903D03*
X0289783Y0247843D03*
X0285408Y0242523D03*
X0285408Y0235343D03*
X0286033Y0235343D03*
X0286658Y0235343D03*
X0287283Y0235343D03*
X0287908Y0235343D03*
X0288533Y0235343D03*
X0289158Y0235343D03*
X0289783Y0235343D03*
X0284783Y0235343D03*
X0284158Y0235343D03*
X0283533Y0235343D03*
X0275408Y0246593D03*
X0272908Y0246273D03*
X0271658Y0245963D03*
X0271033Y0245963D03*
X0269783Y0245653D03*
X0267908Y0245343D03*
X0266658Y0245023D03*
X0266033Y0245023D03*
X0264783Y0244713D03*
X0266658Y0250343D03*
X0267283Y0250343D03*
X0269158Y0250653D03*
X0270408Y0250963D03*
X0269158Y0256273D03*
X0268533Y0256273D03*
X0267283Y0256273D03*
X0269783Y0256593D03*
X0264158Y0258773D03*
X0266658Y0264093D03*
X0267283Y0263773D03*
X0267908Y0263773D03*
X0268533Y0264093D03*
X0269158Y0264093D03*
X0269783Y0264403D03*
X0270408Y0264713D03*
X0269783Y0270343D03*
X0269158Y0270343D03*
X0267908Y0270023D03*
X0267283Y0269713D03*
X0266033Y0274093D03*
X0265408Y0274093D03*
X0267283Y0274403D03*
X0269158Y0274713D03*
X0270408Y0275023D03*
X0271033Y0275023D03*
X0272283Y0275343D03*
X0275408Y0275963D03*
X0276033Y0275963D03*
X0269158Y0279713D03*
X0268533Y0279403D03*
X0267908Y0279403D03*
X0266658Y0279093D03*
X0266033Y0279093D03*
X0264783Y0278773D03*
X0265408Y0284403D03*
X0267283Y0284713D03*
X0268533Y0285023D03*
X0269158Y0285023D03*
D145*
X0265095Y0238308D03*
X0264470Y0230808D03*
D146*
X0270095Y0229248D03*
X0270720Y0229248D03*
X0271345Y0229248D03*
X0264470Y0237998D03*
X0271970Y0251748D03*
X0272595Y0251748D03*
X0265095Y0258308D03*
X0283220Y0254868D03*
X0291345Y0254558D03*
X0283845Y0228618D03*
X0288220Y0219558D03*
X0288845Y0219558D03*
X0289470Y0219868D03*
X0290095Y0219868D03*
X0290720Y0219868D03*
D147*
X0290095Y0235343D03*
X0289470Y0235343D03*
X0288845Y0235343D03*
X0288220Y0235343D03*
X0287595Y0235343D03*
X0286970Y0235343D03*
X0286345Y0235343D03*
X0285720Y0235343D03*
X0285095Y0235343D03*
X0284470Y0235343D03*
X0283845Y0235343D03*
X0283220Y0235343D03*
X0285720Y0242213D03*
X0290095Y0242523D03*
X0290095Y0247523D03*
X0285720Y0251903D03*
X0285095Y0252213D03*
X0285095Y0256903D03*
X0285720Y0256903D03*
X0286345Y0256903D03*
X0288845Y0256903D03*
X0290095Y0256593D03*
X0290095Y0261903D03*
X0289470Y0261903D03*
X0290720Y0261903D03*
X0291345Y0261903D03*
X0291970Y0261903D03*
X0292595Y0261903D03*
X0293220Y0261903D03*
X0293845Y0261903D03*
X0294470Y0261903D03*
X0295095Y0261903D03*
X0295720Y0261903D03*
X0286970Y0261903D03*
X0286345Y0261903D03*
X0285720Y0261903D03*
X0285095Y0261903D03*
X0284470Y0261903D03*
X0283845Y0261903D03*
X0283220Y0261903D03*
X0283220Y0267523D03*
X0283220Y0271903D03*
X0283845Y0271903D03*
X0284470Y0271903D03*
X0285095Y0271903D03*
X0285720Y0271903D03*
X0286345Y0271903D03*
X0286970Y0271903D03*
X0287595Y0271903D03*
X0288220Y0271903D03*
X0288845Y0271903D03*
X0289470Y0271903D03*
X0290095Y0271903D03*
X0290720Y0271903D03*
X0291345Y0271903D03*
X0291970Y0271903D03*
X0294470Y0271903D03*
X0295095Y0271903D03*
X0295720Y0271903D03*
X0290095Y0276903D03*
X0289470Y0276903D03*
X0288845Y0276903D03*
X0288220Y0276903D03*
X0287595Y0276903D03*
X0286970Y0276903D03*
X0286345Y0276903D03*
X0285720Y0276903D03*
X0285095Y0276903D03*
X0284470Y0276903D03*
X0283845Y0276903D03*
X0283220Y0276903D03*
X0283220Y0281903D03*
X0283845Y0281903D03*
X0284470Y0281903D03*
X0285095Y0281903D03*
X0285720Y0281903D03*
X0286345Y0281903D03*
X0286970Y0281903D03*
X0287595Y0281903D03*
X0288220Y0281903D03*
X0288220Y0286273D03*
X0287595Y0286273D03*
X0286345Y0286593D03*
X0289470Y0286593D03*
X0289470Y0292213D03*
X0288845Y0292213D03*
X0288220Y0292213D03*
X0287595Y0292213D03*
X0286970Y0292213D03*
X0286345Y0292213D03*
X0290095Y0292213D03*
X0282595Y0291903D03*
X0269470Y0285023D03*
X0268845Y0285023D03*
X0267595Y0284713D03*
X0266970Y0284713D03*
X0265720Y0284403D03*
X0266345Y0279093D03*
X0265095Y0278773D03*
X0264470Y0278773D03*
X0268220Y0279403D03*
X0269470Y0279713D03*
X0270720Y0275023D03*
X0271970Y0275343D03*
X0272595Y0275343D03*
X0275095Y0275963D03*
X0275720Y0275963D03*
X0268845Y0274713D03*
X0267595Y0274403D03*
X0265720Y0274093D03*
X0264470Y0273773D03*
X0266970Y0269713D03*
X0267595Y0270023D03*
X0268220Y0270023D03*
X0268845Y0270343D03*
X0269470Y0270343D03*
X0270095Y0270343D03*
X0270720Y0270023D03*
X0270095Y0264403D03*
X0269470Y0264093D03*
X0268845Y0264093D03*
X0267595Y0263773D03*
X0266970Y0264093D03*
X0266970Y0256273D03*
X0268220Y0256273D03*
X0268845Y0256273D03*
X0268845Y0250653D03*
X0267595Y0250343D03*
X0266970Y0250343D03*
X0266345Y0250343D03*
X0270720Y0250963D03*
X0273845Y0251593D03*
X0275720Y0246903D03*
X0272595Y0246273D03*
X0271345Y0245963D03*
X0269470Y0245653D03*
X0268220Y0245343D03*
X0267595Y0245343D03*
X0266345Y0245023D03*
X0265095Y0244713D03*
X0264470Y0244713D03*
D148*
X0270095Y0240028D03*
X0270720Y0240028D03*
X0273220Y0239088D03*
X0285720Y0230028D03*
X0286345Y0230338D03*
X0291345Y0230028D03*
X0291970Y0237528D03*
X0291970Y0254088D03*
X0272595Y0267838D03*
X0264470Y0258778D03*
X0284470Y0220338D03*
D149*
X0291970Y0219873D03*
X0292595Y0220183D03*
X0290720Y0230493D03*
X0272595Y0229243D03*
X0271345Y0239873D03*
X0272595Y0260183D03*
X0264470Y0266433D03*
D150*
X0266345Y0274248D03*
X0266970Y0274248D03*
X0269470Y0274868D03*
X0270095Y0274868D03*
X0267595Y0279248D03*
X0266970Y0279248D03*
X0271970Y0279868D03*
X0268220Y0284868D03*
X0265095Y0284248D03*
X0264470Y0284248D03*
X0288845Y0281748D03*
X0289470Y0281748D03*
X0289470Y0256748D03*
X0289470Y0247998D03*
X0288845Y0247998D03*
X0275095Y0246748D03*
X0271970Y0246118D03*
X0268845Y0245498D03*
X0265720Y0244868D03*
X0268220Y0250498D03*
X0274470Y0251748D03*
X0270720Y0234868D03*
X0290095Y0225498D03*
D151*
X0292283Y0219873D03*
X0284158Y0220493D03*
X0290408Y0230493D03*
X0272908Y0229243D03*
X0266033Y0228933D03*
X0264783Y0229873D03*
X0271033Y0239873D03*
X0273533Y0238933D03*
X0272283Y0283933D03*
D152*
X0293533Y0271903D03*
X0266033Y0260653D03*
X0264783Y0233463D03*
X0292283Y0225653D03*
D153*
X0283533Y0228463D03*
X0291033Y0236903D03*
X0291658Y0236903D03*
X0283533Y0245653D03*
X0291033Y0254713D03*
X0273533Y0230653D03*
X0265408Y0238463D03*
X0264783Y0238153D03*
X0265408Y0258153D03*
D154*
X0266033Y0256743D03*
X0272908Y0260493D03*
X0264783Y0251123D03*
X0266658Y0228623D03*
X0286033Y0219243D03*
X0271033Y0280493D03*
D155*
X0272283Y0267683D03*
X0264783Y0266433D03*
X0271658Y0251433D03*
X0288533Y0230183D03*
X0293533Y0221433D03*
X0269158Y0228933D03*
D156*
X0267283Y0234248D03*
X0270408Y0234868D03*
X0269158Y0245498D03*
X0268533Y0245498D03*
X0265408Y0244868D03*
X0267908Y0250498D03*
X0268533Y0250498D03*
X0271033Y0251118D03*
X0274158Y0251748D03*
X0274783Y0251748D03*
X0274783Y0246748D03*
X0276033Y0246748D03*
X0272283Y0246118D03*
X0267908Y0256118D03*
X0266658Y0274248D03*
X0269783Y0274868D03*
X0272908Y0275498D03*
X0271658Y0279868D03*
X0267283Y0279248D03*
X0264783Y0284248D03*
X0267908Y0284868D03*
X0272908Y0284248D03*
X0289158Y0281748D03*
X0289158Y0256748D03*
X0289783Y0256748D03*
X0289158Y0247998D03*
X0289783Y0242368D03*
X0289783Y0225498D03*
X0286658Y0224868D03*
D157*
X0289470Y0230653D03*
X0290095Y0230653D03*
X0292595Y0229713D03*
X0271970Y0239403D03*
X0266970Y0239713D03*
X0266345Y0239403D03*
X0265095Y0229713D03*
D158*
X0265095Y0233618D03*
X0284470Y0224248D03*
X0290095Y0252058D03*
D159*
X0265720Y0250968D03*
X0265095Y0250968D03*
X0266970Y0228468D03*
X0286345Y0219088D03*
D160*
X0283845Y0221433D03*
X0284470Y0228933D03*
X0288220Y0255183D03*
X0271970Y0267683D03*
X0265095Y0266433D03*
D161*
X0268220Y0263933D03*
X0265095Y0273933D03*
X0265720Y0278933D03*
X0271345Y0275183D03*
X0270095Y0285183D03*
X0286970Y0286433D03*
X0288845Y0286433D03*
X0273220Y0251433D03*
X0266970Y0245183D03*
D162*
X0265408Y0229558D03*
X0287283Y0219558D03*
D163*
X0284783Y0224248D03*
X0292908Y0225808D03*
X0265408Y0233618D03*
X0275408Y0252998D03*
D164*
X0265408Y0250968D03*
X0267283Y0228468D03*
X0286658Y0219088D03*
D165*
X0287908Y0255028D03*
X0283533Y0255028D03*
X0265408Y0266588D03*
X0291658Y0278778D03*
X0291658Y0290338D03*
X0284158Y0290338D03*
D166*
X0283220Y0245808D03*
X0265720Y0229558D03*
X0286970Y0219558D03*
X0287595Y0219558D03*
D167*
X0291345Y0220023D03*
X0291970Y0229713D03*
X0287595Y0230343D03*
X0285095Y0229713D03*
X0271970Y0229403D03*
X0272595Y0239093D03*
X0268220Y0239713D03*
X0265720Y0239093D03*
X0271970Y0259403D03*
X0287595Y0263153D03*
X0288845Y0263153D03*
X0291970Y0278773D03*
X0291970Y0290343D03*
D168*
X0265720Y0258153D03*
X0268845Y0239403D03*
X0273845Y0230653D03*
X0290720Y0236903D03*
X0291345Y0236903D03*
X0293220Y0228463D03*
X0290720Y0254713D03*
D169*
X0284470Y0245028D03*
X0265720Y0266588D03*
X0281345Y0289088D03*
X0284470Y0290028D03*
X0291345Y0290028D03*
X0290720Y0279088D03*
X0295720Y0225028D03*
X0281345Y0225028D03*
D170*
X0285408Y0229868D03*
X0287283Y0230498D03*
X0289158Y0230498D03*
X0291658Y0229868D03*
X0272283Y0239248D03*
X0269783Y0239868D03*
X0267908Y0239868D03*
X0266033Y0239248D03*
X0287908Y0262998D03*
X0288533Y0262998D03*
X0280408Y0288618D03*
D171*
X0266033Y0264403D03*
X0266033Y0250653D03*
D172*
X0266658Y0256433D03*
X0271033Y0265183D03*
X0270408Y0270183D03*
X0266033Y0268933D03*
X0270408Y0280183D03*
X0271033Y0285183D03*
X0284783Y0266433D03*
X0286658Y0265183D03*
X0289783Y0265183D03*
X0291033Y0266433D03*
D173*
X0296033Y0262058D03*
X0285408Y0252058D03*
X0286033Y0242058D03*
X0286658Y0242058D03*
X0289158Y0242058D03*
X0270408Y0245808D03*
X0269783Y0250808D03*
X0268533Y0274558D03*
X0267908Y0274558D03*
X0266658Y0284558D03*
X0266033Y0284558D03*
X0282908Y0292058D03*
X0283533Y0292058D03*
D174*
X0272595Y0284243D03*
X0266345Y0228623D03*
X0285720Y0219243D03*
D175*
X0285095Y0242838D03*
X0266345Y0256588D03*
X0270720Y0280338D03*
D176*
X0268845Y0279558D03*
X0266345Y0284558D03*
X0268220Y0274558D03*
X0283220Y0292058D03*
X0283845Y0292058D03*
X0286345Y0252058D03*
X0286345Y0242058D03*
X0288845Y0242058D03*
X0289470Y0242058D03*
X0270720Y0245808D03*
X0270095Y0245808D03*
X0270095Y0250808D03*
X0269470Y0250808D03*
D177*
X0272283Y0259713D03*
X0271658Y0239713D03*
X0267283Y0239713D03*
X0266658Y0239713D03*
X0289783Y0230653D03*
X0292283Y0229713D03*
X0291658Y0219713D03*
D178*
X0270408Y0257058D03*
X0271033Y0269868D03*
X0266658Y0269558D03*
X0269783Y0279868D03*
X0286033Y0286748D03*
X0289783Y0286748D03*
X0283533Y0267368D03*
X0284158Y0267058D03*
X0285408Y0266118D03*
X0290408Y0265808D03*
X0291658Y0267058D03*
D179*
X0266970Y0234243D03*
X0286345Y0224873D03*
D180*
X0285095Y0220183D03*
X0268220Y0228933D03*
X0267595Y0228933D03*
X0271970Y0283933D03*
D181*
X0276345Y0275963D03*
X0293845Y0271903D03*
X0276345Y0246903D03*
X0270095Y0234713D03*
X0268220Y0234403D03*
X0267595Y0234403D03*
D182*
X0267595Y0239868D03*
X0269470Y0239868D03*
X0286970Y0230498D03*
X0288845Y0230498D03*
X0288220Y0262998D03*
D183*
X0291658Y0245183D03*
X0267908Y0228933D03*
X0284783Y0220183D03*
D184*
X0267908Y0234403D03*
X0296033Y0271903D03*
X0274783Y0275963D03*
D185*
X0276658Y0275968D03*
X0292283Y0279398D03*
X0292283Y0289718D03*
X0276658Y0246898D03*
X0268533Y0234088D03*
X0287908Y0224718D03*
X0292283Y0237838D03*
D186*
X0291345Y0245183D03*
X0271345Y0251433D03*
X0269470Y0228933D03*
X0268845Y0228933D03*
D187*
X0270408Y0229248D03*
X0271033Y0229248D03*
X0274158Y0230808D03*
X0269158Y0239558D03*
X0272283Y0251748D03*
X0272908Y0251748D03*
X0271658Y0259248D03*
X0287283Y0263308D03*
X0289158Y0263308D03*
X0290408Y0236748D03*
X0290408Y0219868D03*
X0289783Y0219868D03*
X0288533Y0219558D03*
D188*
X0269470Y0256433D03*
X0285095Y0266433D03*
X0290095Y0281433D03*
X0270720Y0285183D03*
D189*
X0270408Y0240028D03*
X0272908Y0239088D03*
X0272283Y0229088D03*
X0286033Y0230338D03*
X0286658Y0230338D03*
X0291033Y0230338D03*
D190*
X0270720Y0257213D03*
X0271345Y0265653D03*
X0271345Y0269403D03*
X0291970Y0267213D03*
D191*
X0271033Y0234873D03*
X0290408Y0225493D03*
D192*
X0271033Y0257683D03*
D193*
X0271345Y0234558D03*
D194*
X0273845Y0237838D03*
X0288220Y0230028D03*
X0293220Y0221278D03*
X0271345Y0259088D03*
D195*
X0271345Y0282523D03*
X0285095Y0289713D03*
X0290720Y0289713D03*
D196*
X0272283Y0280028D03*
X0287283Y0225028D03*
D197*
X0287595Y0225028D03*
X0286970Y0225028D03*
X0289470Y0225338D03*
X0272595Y0280028D03*
D198*
X0282283Y0286278D03*
X0292283Y0245028D03*
X0272908Y0235028D03*
X0284158Y0224088D03*
D199*
X0272908Y0267838D03*
D200*
X0273220Y0229558D03*
D201*
X0273220Y0232993D03*
X0292595Y0223623D03*
X0280095Y0288623D03*
X0283845Y0289243D03*
D202*
X0273220Y0235028D03*
D203*
X0273533Y0235183D03*
D204*
X0274158Y0237213D03*
X0284158Y0254713D03*
X0287283Y0254713D03*
D205*
X0275095Y0252218D03*
X0274470Y0246588D03*
X0274470Y0275968D03*
D206*
X0280720Y0288623D03*
X0283845Y0245493D03*
D207*
X0282595Y0225028D03*
X0294470Y0225028D03*
D208*
X0282908Y0245493D03*
X0288533Y0254243D03*
D209*
X0282908Y0254558D03*
D210*
X0283220Y0225028D03*
X0293845Y0225028D03*
D211*
X0283533Y0222058D03*
D212*
X0284470Y0254558D03*
X0286970Y0254558D03*
D213*
X0284783Y0245028D03*
X0293533Y0227838D03*
X0290408Y0279088D03*
D214*
X0284783Y0254558D03*
D215*
X0284783Y0289868D03*
X0291033Y0289868D03*
D216*
X0296345Y0271903D03*
X0285095Y0248153D03*
X0292595Y0225653D03*
D217*
X0292908Y0229558D03*
X0285408Y0219558D03*
D218*
X0285720Y0289558D03*
D219*
X0286970Y0245028D03*
X0288220Y0245028D03*
D220*
X0287908Y0245028D03*
X0287283Y0245028D03*
D221*
X0287595Y0245028D03*
D222*
X0288533Y0245028D03*
D223*
X0290408Y0245183D03*
D224*
X0290408Y0254873D03*
D225*
X0290720Y0225183D03*
D226*
X0290720Y0245183D03*
X0291345Y0278933D03*
D227*
X0291033Y0245183D03*
D228*
X0291970Y0245183D03*
D229*
X0292283Y0254558D03*
M02*
