G75*
%MOIN*%
%OFA0B0*%
%FSLAX25Y25*%
%IPPOS*%
%LPD*%
%AMOC8*
5,1,8,0,0,1.08239X$1,22.5*
%
%ADD10R,0.04331X0.03937*%
%ADD11R,0.04724X0.01181*%
%ADD12R,0.01181X0.04724*%
%ADD13R,0.03937X0.04331*%
%ADD14R,0.03543X0.03150*%
%ADD15R,0.05118X0.01575*%
%ADD16R,0.05512X0.05512*%
%ADD17R,0.02362X0.03937*%
D10*
X0136749Y0088933D03*
X0143442Y0088933D03*
X0184249Y0123933D03*
X0190942Y0123933D03*
X0157595Y0145587D03*
X0157595Y0152280D03*
X0165095Y0165587D03*
X0165095Y0172280D03*
X0177595Y0172280D03*
X0177595Y0165587D03*
X0152595Y0200587D03*
X0152595Y0207280D03*
X0152595Y0215587D03*
X0152595Y0222280D03*
X0142595Y0235587D03*
X0142595Y0242280D03*
X0252749Y0161933D03*
X0259442Y0161933D03*
X0259442Y0153933D03*
X0252749Y0153933D03*
X0275249Y0168933D03*
X0281942Y0168933D03*
X0284249Y0228933D03*
X0290942Y0228933D03*
D11*
X0239249Y0178697D03*
X0239249Y0176728D03*
X0239249Y0174760D03*
X0239249Y0172791D03*
X0239249Y0170823D03*
X0239249Y0168854D03*
X0239249Y0166886D03*
X0239249Y0164917D03*
X0239249Y0162949D03*
X0239249Y0160980D03*
X0239249Y0159012D03*
X0239249Y0157043D03*
X0239249Y0155075D03*
X0239249Y0153106D03*
X0239249Y0151138D03*
X0239249Y0149169D03*
X0195942Y0149169D03*
X0195942Y0151138D03*
X0195942Y0153106D03*
X0195942Y0155075D03*
X0195942Y0157043D03*
X0195942Y0159012D03*
X0195942Y0160980D03*
X0195942Y0162949D03*
X0195942Y0164917D03*
X0195942Y0166886D03*
X0195942Y0168854D03*
X0195942Y0170823D03*
X0195942Y0172791D03*
X0195942Y0174760D03*
X0195942Y0176728D03*
X0195942Y0178697D03*
D12*
X0202831Y0185587D03*
X0204800Y0185587D03*
X0206768Y0185587D03*
X0208737Y0185587D03*
X0210705Y0185587D03*
X0212674Y0185587D03*
X0214642Y0185587D03*
X0216611Y0185587D03*
X0218579Y0185587D03*
X0220548Y0185587D03*
X0222516Y0185587D03*
X0224485Y0185587D03*
X0226453Y0185587D03*
X0228422Y0185587D03*
X0230390Y0185587D03*
X0232359Y0185587D03*
X0232359Y0142280D03*
X0230390Y0142280D03*
X0228422Y0142280D03*
X0226453Y0142280D03*
X0224485Y0142280D03*
X0222516Y0142280D03*
X0220548Y0142280D03*
X0218579Y0142280D03*
X0216611Y0142280D03*
X0214642Y0142280D03*
X0212674Y0142280D03*
X0210705Y0142280D03*
X0208737Y0142280D03*
X0206768Y0142280D03*
X0204800Y0142280D03*
X0202831Y0142280D03*
D13*
X0219249Y0128933D03*
X0225942Y0128933D03*
X0231749Y0128933D03*
X0238442Y0128933D03*
X0238442Y0121433D03*
X0231749Y0121433D03*
X0225942Y0121433D03*
X0219249Y0121433D03*
X0249249Y0123933D03*
X0255942Y0123933D03*
X0255942Y0113933D03*
X0249249Y0113933D03*
X0249249Y0103933D03*
X0255942Y0103933D03*
X0286595Y0142087D03*
X0286595Y0148780D03*
X0295095Y0148780D03*
X0295095Y0142087D03*
X0297595Y0200587D03*
X0297595Y0207280D03*
X0290942Y0238933D03*
X0284249Y0238933D03*
D14*
X0176532Y0148933D03*
X0168658Y0145193D03*
X0168658Y0152673D03*
D15*
X0277595Y0119051D03*
X0277595Y0116492D03*
X0277595Y0113933D03*
X0277595Y0111374D03*
X0277595Y0108815D03*
D16*
X0275095Y0176453D03*
X0290095Y0176453D03*
X0290095Y0191413D03*
X0275095Y0191413D03*
D17*
X0274855Y0162248D03*
X0282335Y0162248D03*
X0278595Y0151618D03*
M02*
